<?xml version="1.0" encoding="utf-8" ?><svg xmlns="http://www.w3.org/2000/svg" xmlns:xlink="http://www.w3.org/1999/xlink" width="739" height="1024" viewBox="0 0 739 1024"><path fill="#001532" transform="matrix(2.26687 0 0 2.26549 -0.00012207 0)" d="M129.066 104.078C112.78 93.4346 122.904 61.8301 131.48 49.2768C138.639 38.7965 146.673 28.5876 154.426 18.5358C156.97 15.2381 159.338 11.4103 163.275 9.78545C167.623 7.87807 171.044 10.1133 173.925 13.3963C181.923 24.4366 190.413 35.1729 198.465 46.1796C200.094 48.4064 201.528 51.1001 202.936 53.4825C210.029 67.329 215.448 85.4527 205.165 99.2218C203.77 101.089 202.858 102.222 200.988 103.647C212.887 110.461 223.758 119.033 234.038 128.128C267.527 157.755 293.931 192.788 305.723 236.491C315.043 271.032 313.466 307.864 295.762 339.635C294.059 342.692 291.475 347.046 289.407 349.739C288.841 349.126 288.824 349.066 288.041 348.924C282.759 356.335 274.898 366.099 267.525 371.584C267.924 372.46 268.015 372.596 268.64 373.328C274.974 374.35 282.891 374.943 286.622 380.822C293.609 391.83 290.596 402.259 282.323 411.142C283.102 411.888 284.047 412.739 284.7 413.575C301.985 414.699 315.228 421.724 313.692 441.124C313.371 445.182 312.559 448.241 311.021 452L19.8634 452L17.8728 452C11.2005 435.074 17.2584 415.5 37.3162 413.592C39.5603 413.378 45.5093 412.32 47.0628 410.776L46.9388 410.569C40.6983 404.555 36.9338 394.649 40.046 386.21C40.0695 385.926 40.0852 385.895 40.161 385.637C42.0458 379.212 46.6907 375.239 52.9581 373.236C56.0495 372.248 57.7218 372.181 60.7243 370.628C59.8483 369.49 57.9495 367.56 56.9054 366.445C48.7844 358.039 43.2588 351.399 37.506 341.112C23.6038 316.253 19.3261 290.466 21.8714 262.238C22.7409 251.837 24.6321 241.547 27.5177 231.516C38.657 193.279 62.3618 159.84 91.7984 133.413C102.814 123.524 114.255 114.817 127.247 107.679C128.493 106.882 129.425 106.239 130.603 105.344L129.066 104.078ZM113.32 143.288C107.117 148.701 101.14 154.368 95.4041 160.274C76.4085 180.147 56.5951 208.045 48.4659 234.55C45.4685 244.152 43.5196 252.491 42.4778 262.56C42.5503 268.943 41.7918 275.526 42.2436 281.964C42.3083 282.886 42.2625 283.993 42.2053 284.919C43.0294 292.926 43.9027 298.765 45.9438 306.608C48.3495 314.07 50.6367 319.894 54.3999 326.913C56.754 330.039 61.3507 338.768 64.293 341.037C65.2834 341.444 66.1862 342.514 66.9586 343.305C69.1104 341.528 69.3459 340.971 70.9945 338.713C71.2448 338.37 71.6087 338.596 72.0456 338.019C71.66 337.55 71.6554 337.438 71.582 336.834C68.7964 332.912 66.6372 330.079 64.2041 325.85C53.5298 307.464 50.2337 285.684 52.7212 264.684C58.8591 212.867 98.2655 169.126 136.967 137.565L136.201 137.236C136.262 136.194 136.678 134.35 136.66 133.411C136.639 132.301 134.616 130.106 134.683 128.932C134.71 128.457 134.704 128.348 134.392 127.996C132.91 127.946 131.876 130.084 130.056 130.191C125.117 133.418 117.901 139.478 113.32 143.288ZM90.2811 319.324C95.4577 318.448 109.914 312.192 115.483 310.003C127.811 305.251 140.062 300.3 152.229 295.15C156.704 293.271 161.195 291.45 165.667 289.568C170.471 287.547 173.177 283.218 176.337 279.301C178.353 276.851 180.398 274.426 182.473 272.026C188.96 264.426 195.512 256.665 201.685 248.816C203.551 246.444 213.485 235.074 213.48 233.308L211.804 233.882C210.819 234.498 209.3 235.037 208.202 235.471C203.617 237.283 199.073 239.275 194.475 241.046L148.667 260.219C145.53 261.498 141.682 263.044 138.659 264.306C136.373 265.261 128.283 267.751 127.133 268.959C123.427 272.85 118.769 279.636 115.561 284.012C107.488 294.879 99.5443 305.841 91.7306 316.895L90.2811 319.324ZM151.226 89.3014C150.165 89.0421 148.88 88.8183 148.004 88.2127C147.198 87.169 147.173 85.8771 147.135 84.591C146.726 70.5048 155.935 58.7387 163.984 48.0777C165.274 46.3694 166.657 44.545 168.114 43.0262L168.629 43.0134C169.484 42.3431 170.539 38.2479 170.882 37.0414C169.873 35.8888 168.128 33.2602 167.282 31.9521C162.779 35.4038 147.716 57.4111 144.935 63.5375C142.854 68.1215 141.057 73.2813 139.961 78.2697C138.93 85.725 138.274 93.1938 146.786 95.9551L147.218 95.7693C147.225 93.9043 148.84 91.2302 150.041 89.7946C150.406 89.6729 150.591 89.6074 150.942 89.4392L151.226 89.3014Z"/><defs><linearGradient id="gradient_0" gradientUnits="userSpaceOnUse" x1="105.5164" y1="237.08255" x2="53.691673" y2="219.87068"><stop offset="0" stop-color="#00C4F8"/><stop offset="1" stop-color="aqua" stop-opacity="0.98823529"/></linearGradient></defs><path fill="url(#gradient_0)" transform="matrix(2.26687 0 0 2.26549 -0.00012207 0)" d="M130.056 130.191C131.876 130.084 132.91 127.946 134.392 127.996C134.704 128.348 134.71 128.457 134.683 128.932C134.616 130.106 136.639 132.301 136.66 133.411C136.678 134.35 136.262 136.194 136.201 137.236L136.967 137.565C98.2655 169.126 58.8591 212.867 52.7212 264.684C50.2337 285.684 53.5298 307.464 64.2041 325.85C66.6372 330.079 68.7964 332.912 71.582 336.834C71.6554 337.438 71.66 337.55 72.0456 338.019C71.6087 338.596 71.2448 338.37 70.9945 338.713C69.3459 340.971 69.1104 341.528 66.9586 343.305C66.1862 342.514 65.2834 341.444 64.293 341.037C61.3507 338.768 56.754 330.039 54.3999 326.913C50.6367 319.894 48.3495 314.07 45.9438 306.608C43.9027 298.765 43.0294 292.926 42.2053 284.919C42.2625 283.993 42.3083 282.886 42.2436 281.964C41.7918 275.526 42.5503 268.943 42.4778 262.56C43.5196 252.491 45.4685 244.152 48.4659 234.55C56.5951 208.045 76.4085 180.147 95.4041 160.274C101.14 154.368 107.117 148.701 113.32 143.288C117.901 139.478 125.117 133.418 130.056 130.191Z"/><defs><linearGradient id="gradient_1" gradientUnits="userSpaceOnUse" x1="147.35156" y1="59.447681" x2="161.06239" y2="66.174858"><stop offset="0" stop-color="aqua" stop-opacity="0.98823529"/><stop offset="1" stop-color="#00BCF4"/></linearGradient></defs><path fill="url(#gradient_1)" transform="matrix(2.26687 0 0 2.26549 -0.00012207 0)" d="M167.282 31.9521C168.128 33.2602 169.873 35.8888 170.882 37.0414C170.539 38.2479 169.484 42.3431 168.629 43.0134L168.114 43.0262C166.657 44.545 165.274 46.3694 163.984 48.0777C155.935 58.7387 146.726 70.5048 147.135 84.591C147.173 85.8771 147.198 87.169 148.004 88.2127C148.88 88.8183 150.165 89.0421 151.226 89.3014L150.942 89.4392C150.591 89.6074 150.406 89.6729 150.041 89.7946C148.84 91.2302 147.225 93.9043 147.218 95.7693L146.786 95.9551C138.274 93.1938 138.93 85.725 139.961 78.2697C141.057 73.2813 142.854 68.1215 144.935 63.5375C147.716 57.4111 162.779 35.4038 167.282 31.9521Z"/><defs><linearGradient id="gradient_2" gradientUnits="userSpaceOnUse" x1="222.58382" y1="263.0387" x2="65.449783" y2="216.2375"><stop offset="0" stop-color="#002145"/><stop offset="1" stop-color="#003C6D"/></linearGradient></defs><path fill="url(#gradient_2)" transform="matrix(2.26687 0 0 2.26549 -0.00012207 0)" d="M161.393 119.242C166.894 119.215 186.293 117.681 190.086 118.872C192.214 119.541 194 121.419 195.546 122.95C196.56 123.953 197.55 125.108 198.71 125.932L199.334 126.593L199.269 126.931C198.29 127.1 197.404 126.675 196.394 126.449C193.018 128.09 189.157 132.701 186.137 135.267C174.959 144.768 165.074 155.564 154.722 165.887C144.398 176.065 134.385 186.553 124.696 197.338C119.316 203.228 113.832 208.843 108.911 215.164C105.344 219.747 102.118 224.537 98.809 229.304C93.1091 237.473 87.1572 245.151 83.8043 254.665C81.5713 261.002 83.6468 261.882 84.1986 267.716C88.1674 262.509 91.3568 256.597 94.8617 251.072C113.395 221.855 135.915 195.734 161.016 171.981C168.633 164.774 176.904 154.686 185.44 148.712C185.89 149.092 185.788 148.864 185.851 149.365C180 156.144 168.428 173.009 168.777 182.651C170.356 197.569 183.928 207.748 194.61 216.607C197.012 218.6 203.047 221.268 205.632 222.849C211.828 226.638 215.206 226.557 218.318 233.382C218.199 234.06 218.152 234.085 217.719 234.645C218.458 236.459 220.38 237.015 220.575 240.084C220.996 246.706 218.599 253.079 217.366 259.501C216.802 262.404 216.333 272.561 218.521 274.603L219.398 274.403C219.903 275.755 214.965 287.923 214.11 289.818C211.005 296.699 207.225 303.404 203.018 309.677C193.922 325.11 182.93 336.271 167.614 345.962C164.673 347.822 161.62 349.499 158.472 350.981C157.052 351.666 150.484 354.639 149.681 355.302C148.05 356.427 145.245 357.295 142.863 358.149C130.439 362.602 116.788 363.82 103.655 363.702C103.605 363.702 103.33 363.624 103.269 363.61C102.08 362.37 98.0961 360.257 96.4594 359.154C90.0221 354.819 80.6205 347.866 75.9739 341.753L75.7243 341.863C75.3307 341.141 72.2862 337.642 71.582 336.834C68.7964 332.912 66.6372 330.079 64.2041 325.85C53.5298 307.464 50.2337 285.684 52.7212 264.684C58.8591 212.867 98.2655 169.126 136.967 137.565C141.903 133.59 146.937 129.74 152.064 126.016C154.948 123.92 158.691 121.404 161.393 119.242ZM211.804 233.882C210.819 234.498 209.3 235.037 208.202 235.471C203.617 237.283 199.073 239.275 194.475 241.046L148.667 260.219C145.53 261.498 141.682 263.044 138.659 264.306C136.373 265.261 128.283 267.751 127.133 268.959C123.427 272.85 118.769 279.636 115.561 284.012C107.488 294.879 99.5443 305.841 91.7306 316.895L90.2811 319.324C95.4577 318.448 109.914 312.192 115.483 310.003C127.811 305.251 140.062 300.3 152.229 295.15C156.704 293.271 161.195 291.45 165.667 289.568C170.471 287.547 173.177 283.218 176.337 279.301C178.353 276.851 180.398 274.426 182.473 272.026C188.96 264.426 195.512 256.665 201.685 248.816C203.551 246.444 213.485 235.074 213.48 233.308L211.804 233.882Z"/><path fill="#00275B" transform="matrix(2.26687 0 0 2.26549 -0.00012207 0)" d="M75.9739 341.753C77.4252 342.102 82.0105 347.573 83.8569 349.059C86.3547 351.068 88.8807 353.39 91.6414 355.184C92.4542 356.085 94.3588 354.531 95.2378 355.081C96.5983 355.933 97.669 357.884 98.9988 358.804C102.25 361.051 104.741 359.267 107.016 362.996C108.831 362.256 110.858 363.034 112.326 362.893C114.606 362.673 128.249 362.277 129.445 361.314L129.413 360.638C130.242 360.644 133.112 360.821 133.262 360.581C134.512 358.576 136.243 359.768 137.011 359.401L137.348 358.579C140.245 357.967 142.901 356.963 145.826 356.533C146.267 356.468 145.837 355.324 147.829 355.811C148.433 355.526 148.493 355.512 148.971 355.06L149.681 355.302C148.05 356.427 145.245 357.295 142.863 358.149C130.439 362.602 116.788 363.82 103.655 363.702C103.605 363.702 103.33 363.624 103.269 363.61C102.08 362.37 98.0961 360.257 96.4594 359.154C90.0221 354.819 80.6205 347.866 75.9739 341.753Z"/><path fill="#00FEFD" fill-opacity="0.98823529" transform="matrix(2.26687 0 0 2.26549 -0.00012207 0)" d="M213.48 233.308C213.485 235.074 203.551 246.444 201.685 248.816C195.512 256.665 188.96 264.426 182.473 272.026C180.398 274.426 178.353 276.851 176.337 279.301C173.177 283.218 170.471 287.547 165.667 289.568C161.195 291.45 156.704 293.271 152.229 295.15C140.062 300.3 127.811 305.251 115.483 310.003C109.914 312.192 95.4577 318.448 90.2811 319.324L91.7306 316.895C99.5443 305.841 107.488 294.879 115.561 284.012C118.769 279.636 123.427 272.85 127.133 268.959C128.283 267.751 136.373 265.261 138.659 264.306C141.682 263.044 145.53 261.498 148.667 260.219L194.475 241.046C199.073 239.275 203.617 237.283 208.202 235.471C209.3 235.037 210.819 234.498 211.804 233.882L213.48 233.308Z"/><path fill="#001532" transform="matrix(2.26687 0 0 2.26549 -0.00012207 0)" d="M91.7306 316.895C91.0946 316.525 91.2836 316.773 90.9834 316.238C91.3862 314.388 121.361 274.256 124.622 269.968C125.503 268.809 126.91 267.661 128.341 267.046C131.228 265.806 134.535 265.002 137.424 263.809L174.295 248.357C176.409 247.449 192.906 240.228 193.804 240.16L194.475 241.046L148.667 260.219C145.53 261.498 141.682 263.044 138.659 264.306C136.373 265.261 128.283 267.751 127.133 268.959C123.427 272.85 118.769 279.636 115.561 284.012C107.488 294.879 99.5443 305.841 91.7306 316.895Z"/><path fill="#00275B" transform="matrix(2.26687 0 0 2.26549 -0.00012207 0)" d="M211.804 233.882L211.665 233.499L212.05 233.184C212.132 232.632 212.212 232.626 212.6 232.228C213.421 231.893 213.63 231.737 214.498 231.843L214.677 232.232C213.723 233.525 214.237 232.121 213.48 233.308L211.804 233.882Z"/><defs><linearGradient id="gradient_3" gradientUnits="userSpaceOnUse" x1="169.30388" y1="230.16368" x2="42.69101" y2="189.50662"><stop offset="0" stop-color="#00122D"/><stop offset="1" stop-color="#014E87"/></linearGradient></defs><path fill="url(#gradient_3)" transform="matrix(2.26687 0 0 2.26549 -0.00012207 0)" d="M129.404 102.02C120.22 96.6298 121.193 79.1077 123.713 70.354C127.181 58.3103 132.999 48.2062 140.87 38.5293C142.979 35.9369 145.24 32.1989 147.397 29.8352C152.005 24.7876 159.246 11.4266 166.42 11.1978C167.565 12.0379 170.871 13.0655 171.609 14.1045C177.451 22.3357 183.842 30.1505 189.986 38.1544C190.458 38.7695 191.866 40.6631 191.995 41.3103C192.717 44.9424 190.425 50.2274 186.593 50.9657C186.323 51.0177 185.163 50.8919 184.874 50.8604C183.963 51.8815 184.048 53.3883 184.058 54.7005C183.135 54.4936 182.846 52.5385 181.59 52.0954C180.633 51.174 176.746 44.4074 174.67 42.1928C173.423 40.4206 172.251 38.7242 170.882 37.0414C169.873 35.8888 168.128 33.2602 167.282 31.9521C162.779 35.4038 147.716 57.4111 144.935 63.5375C142.854 68.1215 141.057 73.2813 139.961 78.2697C138.93 85.725 138.274 93.1938 146.786 95.9551C148.639 96.3079 150.904 96.8007 152.768 96.7467L152.833 96.9964L151.153 97.1202L151.112 97.2339C158.588 97.7489 166.208 97.7148 173.699 97.7347C174.063 97.7356 175.205 99.07 176.061 99.0748C179.39 99.0936 182.885 98.9672 186.188 99.0919C187.182 99.1294 189.146 98.0965 190.687 98.0712C192.088 99.4949 190.996 100.324 191.231 100.655C193.309 103.589 196.883 109.172 199.714 111.049C203.176 113.345 207.56 115.157 204.386 119.873L204.298 120.987C203.525 121.63 201.465 122.07 201.091 122.332C200.223 122.94 200.675 124.046 198.837 124.24C199 124.861 199.072 125.064 199.095 125.699L198.71 125.932C197.55 125.108 196.56 123.953 195.546 122.95C194 121.419 192.214 119.541 190.086 118.872C186.293 117.681 166.894 119.215 161.393 119.242C158.691 121.404 154.948 123.92 152.064 126.016C146.937 129.74 141.903 133.59 136.967 137.565L136.201 137.236C136.262 136.194 136.678 134.35 136.66 133.411C136.639 132.301 134.616 130.106 134.683 128.932C134.71 128.457 134.704 128.348 134.392 127.996C132.91 127.946 131.876 130.084 130.056 130.191C125.117 133.418 117.901 139.478 113.32 143.288C107.117 148.701 101.14 154.368 95.4041 160.274C76.4085 180.147 56.5951 208.045 48.4659 234.55C45.4685 244.152 43.5196 252.491 42.4778 262.56C42.5503 268.943 41.7918 275.526 42.2436 281.964C42.3083 282.886 42.2625 283.993 42.2053 284.919C43.0294 292.926 43.9027 298.765 45.9438 306.608C48.3495 314.07 50.6367 319.894 54.3999 326.913C56.754 330.039 61.3507 338.768 64.293 341.037C65.2834 341.444 66.1862 342.514 66.9586 343.305C69.1104 341.528 69.3459 340.971 70.9945 338.713C71.2448 338.37 71.6087 338.596 72.0456 338.019C71.66 337.55 71.6554 337.438 71.582 336.834C72.2862 337.642 75.3307 341.141 75.7243 341.863L75.9739 341.753C80.6205 347.866 90.0221 354.819 96.4594 359.154C98.0961 360.257 102.08 362.37 103.269 363.61L102.332 363.936C102.001 365.096 100.488 365.761 99.4707 366.379C100.979 366.887 102.465 366.894 103.215 368.154C103.006 370.866 102.003 374.101 103.089 376.82C103.233 377.182 104.257 378.553 104.56 379.026C105.647 379.597 109.575 380.346 111.24 380.852L111.198 380.902C111.764 381.139 111.858 381.183 112.209 381.684L113.628 381.727C115.732 381.907 117.728 381.876 119.837 381.872C115.897 382.731 110.758 381.555 106.819 382.181L106.696 382.477C107.044 383.26 107.161 383.501 107.065 384.357C107.81 386.002 109.013 386.356 109.448 387.745C108.552 389.693 100.255 388.74 97.8568 389.426C87.5236 389.513 77.2125 390.148 66.8715 389.931C64.8725 389.89 61.8303 390.556 59.5697 390.66C59.278 390.246 59.2249 388.964 59.1636 388.385C58.3732 390.887 59.8756 398.859 63.438 399.384C67.3745 400.24 71.6477 400.127 75.6589 400.383C76.8089 400.456 79.222 400.493 80.3001 400.731C79.6206 400.783 76.7262 400.759 76.589 400.889L77.3183 401.187C77.3359 401.753 76.9144 402.159 76.9271 402.207C78.1552 406.84 77.1092 408.393 71.982 408.569C68.2449 408.697 63.4174 408.505 59.4338 408.946L60.3018 409.378C58.5365 409.713 51.4965 410.854 50.3202 409.626L50.8154 409.293C48.9331 408.337 47.7828 408.711 46.5095 407.882C47.2647 409.04 47.2338 409.248 46.9388 410.569C40.6983 404.555 36.9338 394.649 40.046 386.21C40.0695 385.926 40.0852 385.895 40.161 385.637C42.0458 379.212 46.6907 375.239 52.9581 373.236C56.0495 372.248 57.7218 372.181 60.7243 370.628C59.8483 369.49 57.9495 367.56 56.9054 366.445C48.7844 358.039 43.2588 351.399 37.506 341.112C23.6038 316.253 19.3261 290.466 21.8714 262.238C22.7409 251.837 24.6321 241.547 27.5177 231.516C38.657 193.279 62.3618 159.84 91.7984 133.413C102.814 123.524 114.255 114.817 127.247 107.679C128.493 106.882 129.425 106.239 130.603 105.344L129.066 104.078C129.311 103.247 129.328 102.871 129.404 102.02Z"/><path transform="matrix(2.26687 0 0 2.26549 -0.00012207 0)" d="M56.9054 366.445C48.7844 358.039 43.2588 351.399 37.506 341.112C23.6038 316.253 19.3261 290.466 21.8714 262.238C22.7409 251.837 24.6321 241.547 27.5177 231.516C38.657 193.279 62.3618 159.84 91.7984 133.413C102.814 123.524 114.255 114.817 127.247 107.679L127.222 109.091C96.9197 126.522 66.5448 157.03 48.5092 187.046C39.6263 201.852 32.772 217.783 28.1302 234.414C26.7201 239.627 24.9091 247.139 23.9023 252.341C23.0096 256.953 23.1835 265.266 22.9506 270.166C21.7023 296.43 26.7586 319.478 39.94 342.368C45.1246 351.372 51.868 359.034 59.2339 366.451C58.3883 366.172 58.0829 365.983 57.3678 365.451L57.0036 365.552C56.9281 365.936 56.8797 366.058 56.9054 366.445Z"/><defs><linearGradient id="gradient_4" gradientUnits="userSpaceOnUse" x1="74.788216" y1="373.68958" x2="91.623222" y2="399.55847"><stop offset="0" stop-color="#004C86"/><stop offset="1" stop-color="#006BB0"/></linearGradient></defs><path fill="url(#gradient_4)" transform="matrix(2.26687 0 0 2.26549 -0.00012207 0)" d="M112.209 381.684L113.628 381.727C115.732 381.907 117.728 381.876 119.837 381.872C115.897 382.731 110.758 381.555 106.819 382.181L106.696 382.477C107.044 383.26 107.161 383.501 107.065 384.357C107.81 386.002 109.013 386.356 109.448 387.745C108.552 389.693 100.255 388.74 97.8568 389.426C87.5236 389.513 77.2125 390.148 66.8715 389.931C64.8725 389.89 61.8303 390.556 59.5697 390.66C59.278 390.246 59.2249 388.964 59.1636 388.385C59.4478 386.698 59.6075 383.94 60.727 382.708C61.1953 382.193 62.3119 382.079 63.0024 382.043C68.6535 381.745 74.4427 381.809 80.1061 381.803C90.8072 381.825 101.508 381.786 112.209 381.684Z"/><path fill="#003F71" transform="matrix(2.26687 0 0 2.26549 -0.00012207 0)" d="M62.9236 383.115C65.0617 383.497 64.84 386.761 64.6198 388.438C63.8585 388.175 63.6176 388.318 62.8389 388.558L62.5762 388.64C61.7872 388.709 61.6869 388.74 60.9269 388.575C59.7583 386.812 61.6178 384.299 62.9236 383.115Z"/><defs><linearGradient id="gradient_5" gradientUnits="userSpaceOnUse" x1="98.299156" y1="367.06241" x2="74.491615" y2="344.00058"><stop offset="0" stop-color="#005297"/><stop offset="1" stop-color="#009DE8"/></linearGradient></defs><path fill="url(#gradient_5)" transform="matrix(2.26687 0 0 2.26549 -0.00012207 0)" d="M71.582 336.834C72.2862 337.642 75.3307 341.141 75.7243 341.863L75.9739 341.753C80.6205 347.866 90.0221 354.819 96.4594 359.154C98.0961 360.257 102.08 362.37 103.269 363.61L102.332 363.936C100.709 364.447 97.1695 365.255 95.6495 365.072C88.527 364.213 74.149 351.956 69.7119 347.068C68.4921 346.207 65.2055 342.294 64.293 341.037C65.2834 341.444 66.1862 342.514 66.9586 343.305C69.1104 341.528 69.3459 340.971 70.9945 338.713C71.2448 338.37 71.6087 338.596 72.0456 338.019C71.66 337.55 71.6554 337.438 71.582 336.834Z"/><path fill="#00A0E6" transform="matrix(2.26687 0 0 2.26549 -0.00012207 0)" d="M71.582 336.834C72.2862 337.642 75.3307 341.141 75.7243 341.863C75.7103 342.181 75.7171 342.469 75.7848 342.781C75.2611 343.666 72.3777 347.214 71.3309 347.502C70.7925 347.65 70.2093 347.317 69.7119 347.068C68.4921 346.207 65.2055 342.294 64.293 341.037C65.2834 341.444 66.1862 342.514 66.9586 343.305C69.1104 341.528 69.3459 340.971 70.9945 338.713C71.2448 338.37 71.6087 338.596 72.0456 338.019C71.66 337.55 71.6554 337.438 71.582 336.834Z"/><path fill="#00A0E6" transform="matrix(2.26687 0 0 2.26549 -0.00012207 0)" d="M130.056 130.191L130.293 129.997C133.596 127.31 144.647 119.35 148.784 118.4C150.792 117.939 158.775 118.965 161.393 119.242C158.691 121.404 154.948 123.92 152.064 126.016C146.937 129.74 141.903 133.59 136.967 137.565L136.201 137.236C136.262 136.194 136.678 134.35 136.66 133.411C136.639 132.301 134.616 130.106 134.683 128.932C134.71 128.457 134.704 128.348 134.392 127.996C132.91 127.946 131.876 130.084 130.056 130.191Z"/><defs><linearGradient id="gradient_6" gradientUnits="userSpaceOnUse" x1="74.024254" y1="183.34665" x2="82.312729" y2="188.87589"><stop offset="0" stop-color="#010005"/><stop offset="1" stop-color="#00051B"/></linearGradient></defs><path fill="url(#gradient_6)" transform="matrix(2.26687 0 0 2.26549 -0.00012207 0)" d="M47.3974 233.252C47.6461 231.873 49.8149 226.394 50.4793 224.79C61.8971 197.214 81.0535 171.815 102.625 151.336C104.297 149.749 111.387 143.001 113.076 142.291L113.329 142.43L113.32 143.288C107.117 148.701 101.14 154.368 95.4041 160.274C76.4085 180.147 56.5951 208.045 48.4659 234.55L47.3974 233.252Z"/><defs><linearGradient id="gradient_7" gradientUnits="userSpaceOnUse" x1="49.232132" y1="372.29883" x2="59.853489" y2="384.04349"><stop offset="0" stop-color="black"/><stop offset="1" stop-color="#000E28"/></linearGradient></defs><path fill="url(#gradient_7)" transform="matrix(2.26687 0 0 2.26549 -0.00012207 0)" d="M56.9054 366.445C56.8797 366.058 56.9281 365.936 57.0036 365.552L57.3678 365.451C58.0829 365.983 58.3883 366.172 59.2339 366.451C61.112 367.836 62.2536 369.135 63.7449 370.932C66.3758 371.002 73.0541 370.665 74.9824 370.898L74.3163 371.352C74.5425 371.625 74.4398 371.505 74.8463 371.651C72.7513 371.999 69.8733 371.678 67.5962 371.892C62.6662 372.355 53.4561 374.121 49.3553 376.393C47.2934 377.528 45.5151 379.114 44.1538 381.034C41.959 384.075 40.8472 387.109 40.2729 390.769L40.114 389.045L39.9652 389.849C39.9625 389.836 40.0862 386.928 40.046 386.21C40.0695 385.926 40.0852 385.895 40.161 385.637C42.0458 379.212 46.6907 375.239 52.9581 373.236C56.0495 372.248 57.7218 372.181 60.7243 370.628C59.8483 369.49 57.9495 367.56 56.9054 366.445Z"/><path fill="#001532" transform="matrix(2.26687 0 0 2.26549 -0.00012207 0)" d="M139.961 78.2697L139.53 77.811C138.54 74.8729 142.403 66.2034 143.488 63.4609C145.455 58.4906 164.008 30.6611 167.797 30.9331L167.852 31.3587L167.282 31.9521C162.779 35.4038 147.716 57.4111 144.935 63.5375C142.854 68.1215 141.057 73.2813 139.961 78.2697Z"/><defs><linearGradient id="gradient_8" gradientUnits="userSpaceOnUse" x1="42.162304" y1="245.0325" x2="47.633419" y2="247.62086"><stop offset="0" stop-color="#000018"/><stop offset="1" stop-color="#030D35"/></linearGradient></defs><path fill="url(#gradient_8)" transform="matrix(2.26687 0 0 2.26549 -0.00012207 0)" d="M47.3974 233.252L48.4659 234.55C45.4685 244.152 43.5196 252.491 42.4778 262.56L42.1207 262.674L41.9189 262.249L41.8048 262.248C40.5936 257.7 45.7353 238.311 47.3974 233.252Z"/><path transform="matrix(2.26687 0 0 2.26549 -0.00012207 0)" d="M40.046 386.21C40.0862 386.928 39.9625 389.836 39.9652 389.849L40.114 389.045L40.2729 390.769C40.2559 396.392 42.2698 403.911 46.5095 407.882C47.2647 409.04 47.2338 409.248 46.9388 410.569C40.6983 404.555 36.9338 394.649 40.046 386.21Z"/><path fill="#001532" transform="matrix(2.26687 0 0 2.26549 -0.00012207 0)" d="M45.0147 308.646C45.153 307.42 45.2246 307.385 45.9438 306.608C48.3495 314.07 50.6367 319.894 54.3999 326.913L54.0305 326.877C53.6907 326.465 53.76 326.599 53.4793 326.377C49.9831 323.615 46.5387 312.74 45.0147 308.646Z"/><path fill="#00275B" transform="matrix(2.26687 0 0 2.26549 -0.00012207 0)" d="M42.2053 284.919C43.0294 292.926 43.9027 298.765 45.9438 306.608C45.2246 307.385 45.153 307.42 45.0147 308.646C43.9321 304.939 40.8559 292.089 41.6534 288.677L41.8585 288.684C41.7908 289.383 41.7616 289.909 41.7517 290.611C42.9571 289.673 41.2215 287.69 42.2053 284.919Z"/><path fill="#001532" transform="matrix(2.26687 0 0 2.26549 -0.00012207 0)" d="M129.404 102.02C131.025 102.505 132.303 103.267 133.782 104.067C132.959 104.85 132.299 105.507 131.53 106.343C131.233 105.819 131.058 105.72 130.603 105.344L129.066 104.078C129.311 103.247 129.328 102.871 129.404 102.02Z"/><path fill="#000516" transform="matrix(2.26687 0 0 2.26549 -0.00012207 0)" d="M130.603 105.344C131.058 105.72 131.233 105.819 131.53 106.343C130.21 107.642 128.93 108.376 127.222 109.091L127.247 107.679C128.493 106.882 129.425 106.239 130.603 105.344Z"/><defs><linearGradient id="gradient_9" gradientUnits="userSpaceOnUse" x1="187.69376" y1="73.782486" x2="151.47137" y2="64.115837"><stop offset="0" stop-color="#002149"/><stop offset="1" stop-color="#01437A"/></linearGradient></defs><path fill="url(#gradient_9)" transform="matrix(2.26687 0 0 2.26549 -0.00012207 0)" d="M170.882 37.0414C172.251 38.7242 173.423 40.4206 174.67 42.1928C176.746 44.4074 180.633 51.174 181.59 52.0954C183.501 55.2011 185.565 58.2557 187.255 61.4893C191.234 69.1024 194.42 79.2287 192.371 87.8563C191.67 90.8069 190.084 93.4969 187.432 95.0752C181.666 98.5064 160.003 97.1772 152.833 96.9964L152.768 96.7467C150.904 96.8007 148.639 96.3079 146.786 95.9551L147.218 95.7693C147.225 93.9043 148.84 91.2302 150.041 89.7946C150.406 89.6729 150.591 89.6074 150.942 89.4392L151.226 89.3014C150.165 89.0421 148.88 88.8183 148.004 88.2127C147.198 87.169 147.173 85.8771 147.135 84.591C146.726 70.5048 155.935 58.7387 163.984 48.0777C165.274 46.3694 166.657 44.545 168.114 43.0262L168.629 43.0134C169.484 42.3431 170.539 38.2479 170.882 37.0414Z"/><defs><linearGradient id="gradient_10" gradientUnits="userSpaceOnUse" x1="194.47652" y1="75.600021" x2="162.98871" y2="68.385536"><stop offset="0" stop-color="#00438B"/><stop offset="1" stop-color="#0066AF"/></linearGradient></defs><path fill="url(#gradient_10)" transform="matrix(2.26687 0 0 2.26549 -0.00012207 0)" d="M170.882 37.0414C172.251 38.7242 173.423 40.4206 174.67 42.1928C176.746 44.4074 180.633 51.174 181.59 52.0954C183.501 55.2011 185.565 58.2557 187.255 61.4893C191.234 69.1024 194.42 79.2287 192.371 87.8563C191.67 90.8069 190.084 93.4969 187.432 95.0752C181.666 98.5064 160.003 97.1772 152.833 96.9964L152.768 96.7467C150.904 96.8007 148.639 96.3079 146.786 95.9551L147.218 95.7693C147.225 93.9043 148.84 91.2302 150.041 89.7946C150.406 89.6729 150.591 89.6074 150.942 89.4392L151.226 89.3014C152.572 89.4117 154.889 89.7504 156.1 89.7756C164.155 89.7779 176.278 90.9154 183.828 88.3154C184.376 87.5837 184.951 86.5652 185.161 85.6664C188.601 70.9842 178.082 59.313 171.58 47.5277C170.535 45.9756 169.486 44.2803 168.114 43.0262L168.629 43.0134C169.484 42.3431 170.539 38.2479 170.882 37.0414Z"/><path fill="#00A0E6" transform="matrix(2.26687 0 0 2.26549 -0.00012207 0)" d="M151.226 89.3014C152.572 89.4117 154.889 89.7504 156.1 89.7756C157.074 90.0544 157.344 90.1049 158.378 89.9035L158.872 90.2156C158.314 90.6037 158.018 90.6647 157.91 91.4713C157.621 93.6294 157.731 94.7365 156.73 96.7671C155.53 96.756 153.934 96.692 152.768 96.7467C150.904 96.8007 148.639 96.3079 146.786 95.9551L147.218 95.7693C147.225 93.9043 148.84 91.2302 150.041 89.7946C150.406 89.6729 150.591 89.6074 150.942 89.4392L151.226 89.3014Z"/><path fill="#007ECD" transform="matrix(2.26687 0 0 2.26549 -0.00012207 0)" d="M170.882 37.0414C172.251 38.7242 173.423 40.4206 174.67 42.1928L174.088 42.4012C173.822 42.0637 173.681 41.787 173.431 41.4324C171.368 43.6283 173.174 45.1524 172.63 47.0206C172.156 46.7104 172.216 46.5356 171.944 45.8934L171.449 46.1336C171.53 46.7327 171.566 46.7929 171.766 47.3391L171.58 47.5277C170.535 45.9756 169.486 44.2803 168.114 43.0262L168.629 43.0134C169.484 42.3431 170.539 38.2479 170.882 37.0414Z"/><defs><linearGradient id="gradient_11" gradientUnits="userSpaceOnUse" x1="193.56123" y1="363.60077" x2="182.269" y2="407.79196"><stop offset="0" stop-color="#00193A"/><stop offset="1" stop-color="#00519D"/></linearGradient></defs><path fill="url(#gradient_11)" transform="matrix(2.26687 0 0 2.26549 -0.00012207 0)" d="M113.628 381.727C119.229 381.169 130.38 381.472 136.323 381.436C151.522 381.295 166.723 381.278 181.923 381.383L239.498 381.594C247.56 381.66 255.358 381.623 263.686 381.818C269.321 381.458 271.939 383.818 269.972 389.239C269.224 391.3 250.068 390.09 247.591 389.984C199.188 387.909 150.774 389.62 102.375 389.52C101.098 389.409 99.1823 389.443 97.8568 389.426C100.255 388.74 108.552 389.693 109.448 387.745C109.013 386.356 107.81 386.002 107.065 384.357C107.161 383.501 107.044 383.26 106.696 382.477L106.819 382.181C110.758 381.555 115.897 382.731 119.837 381.872C117.728 381.876 115.732 381.907 113.628 381.727Z"/><path transform="matrix(2.26687 0 0 2.26549 -0.00012207 0)" d="M129.066 104.078C112.78 93.4346 122.904 61.8301 131.48 49.2768C138.639 38.7965 146.673 28.5876 154.426 18.5358C156.97 15.2381 159.338 11.4103 163.275 9.78545C167.623 7.87807 171.044 10.1133 173.925 13.3963C181.923 24.4366 190.413 35.1729 198.465 46.1796C200.094 48.4064 201.528 51.1001 202.936 53.4825C210.029 67.329 215.448 85.4527 205.165 99.2218C203.77 101.089 202.858 102.222 200.988 103.647C212.887 110.461 223.758 119.033 234.038 128.128C267.527 157.755 293.931 192.788 305.723 236.491C315.043 271.032 313.466 307.864 295.762 339.635C294.059 342.692 291.475 347.046 289.407 349.739C288.841 349.126 288.824 349.066 288.041 348.924C295.715 337.889 301.434 325.617 304.945 312.643C315.962 272.552 306.224 228.948 286.312 193.304C273.543 170.447 252.669 145.779 232.735 128.795C228.439 125.198 224.076 121.682 219.649 118.248C215.747 115.173 212.436 112.448 208.252 109.639C206.642 108.558 199.546 104.935 199.068 104.092C199.403 103.61 199.495 103.649 199.832 103.298C221.399 80.9518 200.386 49.6268 184.825 30.6858C180.783 25.7659 176.863 19.9338 172.9 14.8938C171.164 12.6858 169.23 11.4187 166.42 11.1978C159.246 11.4266 152.005 24.7876 147.397 29.8352C145.24 32.1989 142.979 35.9369 140.87 38.5293C132.999 48.2062 127.181 58.3103 123.713 70.354C121.193 79.1077 120.22 96.6298 129.404 102.02C129.328 102.871 129.311 103.247 129.066 104.078Z"/><path fill="#003F71" transform="matrix(2.26687 0 0 2.26549 -0.00012207 0)" d="M63.438 399.384C59.8756 398.859 58.3732 390.887 59.1636 388.385C59.2249 388.964 59.278 390.246 59.5697 390.66C61.8303 390.556 64.8725 389.89 66.8715 389.931C77.2125 390.148 87.5236 389.513 97.8568 389.426C99.1823 389.443 101.098 389.409 102.375 389.52L102.154 389.57C101.279 389.759 99.9553 389.947 99.0414 389.964C88.7335 390.154 78.4233 390.5 68.1059 390.326C67.7026 390.32 66.831 391.359 66.6012 391.664C66.4912 392.296 67.5189 395.785 67.9884 396.368C70.7603 399.809 78.8291 397.775 82.5272 398.89L82.5683 399.191L82.2637 399.327C82.4846 400.024 82.3659 400.033 82.8312 400.436C85.134 400.749 106.064 401.443 105.962 401.388C104.047 402.14 83.9114 400.607 80.3001 400.731C79.222 400.493 76.8089 400.456 75.6589 400.383C71.6477 400.127 67.3745 400.24 63.438 399.384Z"/><path transform="matrix(2.26687 0 0 2.26549 -0.00012207 0)" d="M47.0628 410.776C47.5142 411.76 47.7524 411.82 47.5688 412.714C46.4571 413.559 42.357 413.793 40.8485 413.999C31.7166 415.244 23.2868 417.843 19.1453 426.939C17.9957 429.464 17.2658 431.43 16.8347 434.292C16.201 438.501 17.2216 448.621 19.8634 452L17.8728 452C11.2005 435.074 17.2584 415.5 37.3162 413.592C39.5603 413.378 45.5093 412.32 47.0628 410.776Z"/><path fill="#000516" transform="matrix(2.26687 0 0 2.26549 -0.00012207 0)" d="M268.64 373.328C267.467 373.369 264.283 373.264 263.644 372.254C264.555 371.462 266.301 371.603 267.525 371.584C267.924 372.46 268.015 372.596 268.64 373.328Z"/><path fill="#00275B" transform="matrix(2.26687 0 0 2.26549 -0.00012207 0)" d="M203.004 128.894C203.404 129.009 212.155 136.996 213.186 137.882C251.8 171.056 286.782 212.236 291.412 265.046C293.898 293.402 286.886 322.584 267.991 344.497C260.145 353.113 251.048 362.473 239.787 366.319C238.781 366.663 233.178 366.297 231.565 366.463C229.139 366.254 228.603 366.578 226.313 366.698L226.297 366.475C227.818 366.393 229.842 364.739 231.287 363.965C240.053 359.27 246.107 354.271 253.1 347.143C271.354 328.323 281.502 303.096 281.363 276.877C280.748 248.112 271.639 220.172 255.183 196.571C241.016 175.98 220.838 156.466 202.002 140.087C200.337 138.639 198.974 137.283 197.403 135.748C198.992 133.671 201.175 130.575 203.004 128.894Z"/><defs><linearGradient id="gradient_12" gradientUnits="userSpaceOnUse" x1="225.07224" y1="402.57416" x2="205.51797" y2="456.66037"><stop offset="0" stop-color="#00204E"/><stop offset="1" stop-color="#004182"/></linearGradient></defs><path fill="url(#gradient_12)" transform="matrix(2.26687 0 0 2.26549 -0.00012207 0)" d="M43.25 424.55C44.6133 425.36 48.1182 424.721 49.8834 424.69L65.8485 424.423C78.4104 424.161 90.9764 424.158 103.538 424.416C106.885 424.495 113.941 424.353 116.879 424.713C123.955 424.761 131.354 424.63 138.386 424.789C146.789 424.6 155.666 424.758 164.095 424.777C182.949 424.756 201.803 424.851 220.657 425.063L261.961 425.309C271.177 425.358 280.41 425.337 289.621 425.732C290.346 425.763 292.078 426.034 292.516 426.598C293.194 427.47 293.175 431.104 293.128 432.235C293.097 432.971 292.846 433.61 292.484 434.162C290.8 435.294 273.961 434.128 270.557 434.007L227.905 432.732C205.183 432.359 182.457 432.332 159.734 432.649L106.733 433.243C98.0629 433.353 88.9482 433.326 80.3044 433.639L79.9601 433.719C78.1259 434.684 68.1949 434.53 65.5162 434.588L51.1464 434.781C47.8683 434.819 43.2916 435.167 40.2464 434.398L39.6974 434.311C37.9128 432.365 38.8982 424.377 43.25 424.55Z"/><defs><linearGradient id="gradient_13" gradientUnits="userSpaceOnUse" x1="136.85274" y1="435.90366" x2="81.059898" y2="422.20209"><stop offset="0" stop-color="#005294"/><stop offset="1" stop-color="#008FD3"/></linearGradient></defs><path fill="url(#gradient_13)" transform="matrix(2.26687 0 0 2.26549 -0.00012207 0)" d="M43.25 424.55C44.6133 425.36 48.1182 424.721 49.8834 424.69L65.8485 424.423C78.4104 424.161 90.9764 424.158 103.538 424.416C106.885 424.495 113.941 424.353 116.879 424.713C123.955 424.761 131.354 424.63 138.386 424.789C144.434 425.286 152.09 424.761 158.29 425.014C159.935 425.081 163.942 424.879 165.38 425.254C163.883 425.42 160.648 425.266 158.956 425.258L145.445 425.216C143.981 425.213 140.618 425.093 139.377 425.445C138.514 426.547 136.414 431.617 137.886 432.024C143.728 433.638 153.95 431.222 159.607 432.246L159.734 432.649L106.733 433.243C98.0629 433.353 88.9482 433.326 80.3044 433.639L79.9601 433.719C78.1259 434.684 68.1949 434.53 65.5162 434.588L51.1464 434.781C47.8683 434.819 43.2916 435.167 40.2464 434.398L39.6974 434.311C37.9128 432.365 38.8982 424.377 43.25 424.55Z"/><defs><linearGradient id="gradient_14" gradientUnits="userSpaceOnUse" x1="80.086472" y1="428.48849" x2="40.398659" y2="430.46249"><stop offset="0" stop-color="#008FD4"/><stop offset="1" stop-color="#00D6FF"/></linearGradient></defs><path fill="url(#gradient_14)" transform="matrix(2.26687 0 0 2.26549 -0.00012207 0)" d="M43.25 424.55C44.6133 425.36 48.1182 424.721 49.8834 424.69L65.8485 424.423C78.4104 424.161 90.9764 424.158 103.538 424.416C106.885 424.495 113.941 424.353 116.879 424.713C113.104 424.937 107.859 424.771 103.945 424.773L79.8455 424.809L81.1194 425.173L80.4047 425.532C80.7028 426.581 80.6307 427.947 79.9592 428.832L79.9524 429.041C79.894 429.638 79.8511 431.035 79.5359 431.437C79.7225 432.892 79.4773 432.671 80.3044 433.639L79.9601 433.719C78.1259 434.684 68.1949 434.53 65.5162 434.588L51.1464 434.781C47.8683 434.819 43.2916 435.167 40.2464 434.398L39.6974 434.311C37.9128 432.365 38.8982 424.377 43.25 424.55Z"/><path fill="#00275B" transform="matrix(2.26687 0 0 2.26549 -0.00012207 0)" d="M43.25 424.55C44.6133 425.36 48.1182 424.721 49.8834 424.69L65.8485 424.423C78.4104 424.161 90.9764 424.158 103.538 424.416C106.885 424.495 113.941 424.353 116.879 424.713C113.104 424.937 107.859 424.771 103.945 424.773L79.8455 424.809C77.6171 424.799 72.9221 424.681 70.8786 424.964C64.0146 424.846 57.0369 425.237 50.1601 425.21C47.5871 425.199 44.6943 425.175 42.2315 425.931C40.2917 426.595 39.2548 432.508 40.7294 433.924C44.9044 435.604 62.7864 433.646 68.2814 434.126C71.069 434.369 76.7209 433.546 79.9601 433.719C78.1259 434.684 68.1949 434.53 65.5162 434.588L51.1464 434.781C47.8683 434.819 43.2916 435.167 40.2464 434.398L39.6974 434.311C37.9128 432.365 38.8982 424.377 43.25 424.55Z"/><path fill="#00A0E6" transform="matrix(2.26687 0 0 2.26549 -0.00012207 0)" d="M70.8786 424.964C72.9221 424.681 77.6171 424.799 79.8455 424.809L81.1194 425.173L80.4047 425.532C80.7028 426.581 80.6307 427.947 79.9592 428.832L79.6823 428.473L79.7448 428.186C79.971 427.136 80.2689 426.275 79.7086 425.407C78.6344 424.918 73.0267 425.167 71.1745 424.994L70.8786 424.964Z"/><path fill="#00A0E6" transform="matrix(2.26687 0 0 2.26549 -0.00012207 0)" d="M79.9524 429.041C79.894 429.638 79.8511 431.035 79.5359 431.437C79.0982 430.734 79.3576 430.216 79.4723 429.207L79.9524 429.041Z"/><path fill="#003F71" transform="matrix(2.26687 0 0 2.26549 -0.00012207 0)" d="M40.2464 434.398C40.6125 438.729 42.6228 437.469 40.1103 441.681C28.8707 460.523 17.7061 442.825 22.259 428.511C22.9332 426.392 22.3993 425.633 23.9763 423.755C30.0665 416.5 38.3962 425.785 40.1382 425.786C40.5395 425.352 40.8637 424.98 41.2359 424.522C42.3715 424.179 42.7432 424.169 43.9132 424.083L44.0768 424.284L43.25 424.55C38.8982 424.377 37.9128 432.365 39.6974 434.311L40.2464 434.398Z"/><path transform="matrix(2.26687 0 0 2.26549 -0.00012207 0)" d="M288.041 348.924C288.824 349.066 288.841 349.126 289.407 349.739C284.589 356.713 276.483 366.459 270.014 371.903C276.193 372.496 283.354 374.124 287.442 379.091C294.408 387.555 293.557 399.995 286.856 408.299C286.079 409.262 285.017 410.781 284.357 411.842C288.632 412.693 293.071 413.357 297.291 414.37C316.089 418.881 318.513 436.687 313.04 452L311.021 452C312.559 448.241 313.371 445.182 313.692 441.124C315.228 421.724 301.985 414.699 284.7 413.575C284.047 412.739 283.102 411.888 282.323 411.142C290.596 402.259 293.609 391.83 286.622 380.822C282.891 374.943 274.974 374.35 268.64 373.328C268.015 372.596 267.924 372.46 267.525 371.584C274.898 366.099 282.759 356.335 288.041 348.924Z"/></svg>