<?xml version="1.0" encoding="utf-8" ?><svg xmlns="http://www.w3.org/2000/svg" xmlns:xlink="http://www.w3.org/1999/xlink" width="760" height="1024" viewBox="0 0 760 1024"><defs><linearGradient id="gradient_0" gradientUnits="userSpaceOnUse" x1="278.61942" y1="221.08669" x2="10.54412" y2="159.30429"><stop offset="0" stop-color="#000518"/><stop offset="1" stop-color="#003F6A"/></linearGradient></defs><path fill="url(#gradient_0)" transform="matrix(2.93436 0 0 2.9341 -0.000244141 0)" d="M98.8883 7.9302C98.986 7.05456 98.83 7.03013 99.3707 6.55985C105.388 6.26136 112.421 6.40548 118.494 6.40301L150.342 6.41649C154.999 6.42429 160.991 6.62366 165.505 6.41071C165.256 17.7058 165.922 30.076 165.445 41.1352C175.915 40.5849 187.399 41.4557 197.352 40.8802C196.956 46.1125 197.175 52.8915 197.188 58.25L197.261 87.1614C197.275 90.1376 197.545 99.2673 197.269 101.928C196.455 101.837 197.319 101.413 195.783 101.459C194.932 101.865 167.907 101.721 164.709 101.774C164.648 102.641 164.447 104.702 164.484 105.48C164.867 108.982 164.448 114.07 164.557 117.718C164.589 118.815 164.615 123.011 164.487 123.819C170.979 125.126 177.667 125.558 184.166 126.842C210.121 131.968 236.478 142.424 254.348 162.645C255.382 163.816 254.359 167.307 253.874 168.677C247.629 186.32 240.129 203.753 232.364 220.746L231.587 222.496C230.931 223.923 229.709 226.375 229.196 227.765C224.98 236.92 220.598 245.997 216.051 254.991C213.709 259.664 211.257 264.3 209.007 269.017C208.645 269.775 208.681 270.2 208.836 271.019C208.67 272.274 208.423 272.343 208.967 273.116C212.336 274.501 215.774 274.12 219.053 276.391C226.84 281.786 225.641 291.412 222.416 299.135C222.246 299.535 222.061 299.928 221.86 300.314C226.524 300.635 234.29 302.204 237.253 305.996C240.499 310 243.184 314.501 246.06 318.787C248.568 322.526 251.104 326.367 253.314 330.285C254.228 331.904 253.401 332.776 252.989 334.249C250.928 337.628 244.85 346.107 241.99 349L22.0577 349L19.9399 349C16.6684 344.867 13.2216 339.935 10.3115 335.531C7.44782 331.548 14.4057 324.883 16.7222 321.11C20.6537 314.706 24.5139 308.333 30.0619 303.204C32.4938 300.955 40.7421 299.059 41.7268 297.941C38.287 293.883 38.279 286.219 40.3692 281.561C41.881 275.753 49.4576 272.862 54.8057 272.23C54.2701 270.891 53.5258 269.444 52.8912 268.134C48.9262 259.889 44.0821 251.414 39.9773 242.926C30.8222 223.507 22.2474 203.82 14.2644 183.891C12.0434 178.238 8.99439 171.136 7.77568 165.229C7.40715 163.443 7.85336 161.877 9.04925 160.508C12.9165 156.078 17.575 152.288 22.062 148.64C38.6884 135.126 60.292 127.999 81.1988 124.615C86.6638 123.73 93.2713 123.178 98.962 122.497C98.9661 116.076 99.0059 109.655 99.0816 103.235C96.1744 103.648 90.3483 103.498 87.2122 103.493L66.4684 103.477C66.8925 97.3003 66.5915 88.3529 66.5949 81.8942L66.6185 40.9943C76.5583 40.7373 89.0883 40.5572 98.9666 41.0143L99.0621 36.1172C98.9079 28.0142 99.5538 15.4921 98.8883 7.9302ZM98.8566 313.555L72.8619 313.526C67.563 313.534 62.2681 313.566 56.9698 313.853C52.2355 314.109 47.6748 314.326 43.0166 315.38C38.9392 316.302 35.9214 319.001 35.6379 323.35C35.6105 323.913 35.7311 324.284 36.0063 324.771C37.5935 325.894 48.5033 324.081 51.2637 323.814C67.8185 322.217 85.2181 323.963 101.677 322.985C104.002 322.614 111.326 322.763 112.467 322.105C113.2 320.832 112.987 319.564 113.303 318.302C113.627 317.009 114.917 315.524 114.942 314.11C110.417 313.325 102.86 314.561 98.8566 313.555ZM78.6514 285.169C78.3172 286.705 76.9091 291.13 77.3566 292.222C77.9797 292.201 79.1753 292.098 79.7128 292.289C79.6737 292.43 79.6465 292.612 79.5667 292.706L134.41 292.71C144.105 292.719 156.536 293.078 166.079 292.705C164.232 292.19 157.883 293.604 157.717 290.929C157.672 290.214 158.324 285.471 158.823 285.3C161.545 284.37 165.178 285.325 168.277 284.879L165.93 284.517L100.082 284.496L80.2156 284.484C77.5357 284.486 71.7176 284.373 69.2249 284.717C72.4275 285.017 75.4409 284.709 78.6514 285.169Z"/><path transform="matrix(2.93436 0 0 2.9341 -0.000244141 0)" d="M99.0621 36.1172C99.1964 37.5513 99.2224 40.3593 99.9209 41.4706L99.9108 42.0107C89.4142 42.2075 78.9158 42.2878 68.4174 42.2516C68.217 56.0971 68.146 69.9442 68.2045 83.7911C68.2055 89.5564 67.8458 96.0859 68.0946 101.717C71.2097 101.72 98.8324 101.584 99.5305 102.015C99.353 106.556 99.8337 107.778 100.076 112.092C100.28 116.026 100.205 119.968 99.8513 123.891C95.2208 124.417 90.6202 125.004 85.9896 125.645C83.1217 126.042 79.8282 126.217 76.9855 126.801C62.2126 129.834 47.2708 134.739 34.0788 142.111C30.6852 144.008 26.3144 147.347 23.184 149.707C18.8911 152.943 14.1514 156.896 10.5765 160.907C9.57117 162.034 9.07888 163.275 9.37893 164.749C10.4935 170.223 13.2723 176.685 15.3069 181.881C24.063 204.075 33.6691 225.925 44.1039 247.382C45.8928 251.051 47.6059 254.663 49.4561 258.31C50.5017 260.371 53.2326 264.869 53.9338 266.772L53.7619 267.176L53.359 266.844C52.9989 267.291 53.0059 267.552 52.8912 268.134C48.9262 259.889 44.0821 251.414 39.9773 242.926C30.8222 223.507 22.2474 203.82 14.2644 183.891C12.0434 178.238 8.99439 171.136 7.77568 165.229C7.40715 163.443 7.85336 161.877 9.04925 160.508C12.9165 156.078 17.575 152.288 22.062 148.64C38.6884 135.126 60.292 127.999 81.1988 124.615C86.6638 123.73 93.2713 123.178 98.962 122.497C98.9661 116.076 99.0059 109.655 99.0816 103.235C96.1744 103.648 90.3483 103.498 87.2122 103.493L66.4684 103.477C66.8925 97.3003 66.5915 88.3529 66.5949 81.8942L66.6185 40.9943C76.5583 40.7373 89.0883 40.5572 98.9666 41.0143L99.0621 36.1172Z"/><path transform="matrix(2.93436 0 0 2.9341 -0.000244141 0)" d="M98.8883 7.9302C98.986 7.05456 98.83 7.03013 99.3707 6.55985C105.388 6.26136 112.421 6.40548 118.494 6.40301L150.342 6.41649C154.999 6.42429 160.991 6.62366 165.505 6.41071C165.256 17.7058 165.922 30.076 165.445 41.1352C175.915 40.5849 187.399 41.4557 197.352 40.8802C196.956 46.1125 197.175 52.8915 197.188 58.25L197.261 87.1614C197.275 90.1376 197.545 99.2673 197.269 101.928C196.455 101.837 197.319 101.413 195.783 101.459C195.623 97.7432 195.743 93.2106 195.748 89.4242C195.734 80.9258 195.794 72.4274 195.929 63.93C195.987 57.2484 195.376 48.7027 196.288 42.2044C186.219 42.6523 174.456 42.1059 164.365 41.9863C163.981 32.1362 164.021 17.7054 164.524 7.9431L120.542 8.06156L108.003 8.03052C106.04 8.02297 102.475 7.91034 100.623 8.18723C100.245 8.31359 99.3334 8.03293 98.8883 7.9302Z"/><path fill="#040D1F" transform="matrix(2.93436 0 0 2.9341 -0.000244141 0)" d="M41.7268 297.941C42.5296 298.485 42.3465 298.196 42.5323 298.99L42.329 299.668C35.3831 301.964 30.5785 303.396 26.0916 309.612C23.3279 313.441 20.7837 317.374 18.1864 321.323C16.4756 323.955 12.656 329.07 11.436 331.553C11.1813 332.073 10.9728 332.615 10.813 333.173C10.7874 333.851 10.8913 334.169 11.126 334.805C10.8317 335.272 10.8158 335.28 10.3115 335.531C7.44782 331.548 14.4057 324.883 16.7222 321.11C20.6537 314.706 24.5139 308.333 30.0619 303.204C32.4938 300.955 40.7421 299.059 41.7268 297.941Z"/><path fill="#040D1F" transform="matrix(2.93436 0 0 2.9341 -0.000244141 0)" d="M98.8883 7.9302C99.3334 8.03293 100.245 8.31359 100.623 8.18723C100.573 11.9772 100.212 41.7917 100.037 42.0344L99.9108 42.0107L99.9209 41.4706C99.2224 40.3593 99.1964 37.5513 99.0621 36.1172C98.9079 28.0142 99.5538 15.4921 98.8883 7.9302Z"/><path fill="#040D1F" transform="matrix(2.93436 0 0 2.9341 -0.000244141 0)" d="M52.8912 268.134C53.0059 267.552 52.9989 267.291 53.359 266.844L53.7619 267.176L53.9338 266.772C55.3793 268.878 55.801 270.25 56.5497 272.637C49.6825 274.519 44.4914 276.129 41.2131 282.912L41.0672 282.895C40.6603 283.141 40.101 285.306 40.1258 285.754L39.952 285.742C40.03 284.211 40.7367 282.382 40.3692 281.561C41.881 275.753 49.4576 272.862 54.8057 272.23C54.2701 270.891 53.5258 269.444 52.8912 268.134Z"/><path transform="matrix(2.93436 0 0 2.9341 -0.000244141 0)" d="M10.3115 335.531C10.8158 335.28 10.8317 335.272 11.126 334.805C10.8913 334.169 10.7874 333.851 10.813 333.173C13.4776 337.86 18.4474 344.952 22.0577 349L19.9399 349C16.6684 344.867 13.2216 339.935 10.3115 335.531Z"/><path transform="matrix(2.93436 0 0 2.9341 -0.000244141 0)" d="M40.3692 281.561C40.7367 282.382 40.03 284.211 39.952 285.742L40.1258 285.754C40.101 285.306 40.6603 283.141 41.0672 282.895L41.2131 282.912C40.6827 286.171 39.9974 287.512 40.4232 290.961C40.7424 293.548 44.0677 297.886 43.8005 299.396C43.1605 299.607 43.0035 299.62 42.329 299.668L42.5323 298.99C42.3465 298.196 42.5296 298.485 41.7268 297.941C38.287 293.883 38.279 286.219 40.3692 281.561Z"/><path transform="matrix(2.93436 0 0 2.9341 -0.000244141 0)" d="M164.484 105.48C164.867 108.982 164.448 114.07 164.557 117.718C164.589 118.815 164.615 123.011 164.487 123.819C163.574 120.815 163.865 108.946 164.484 105.48Z"/><defs><linearGradient id="gradient_1" gradientUnits="userSpaceOnUse" x1="214.53061" y1="161.77045" x2="52.926842" y2="137.74477"><stop offset="0" stop-color="#000E2A"/><stop offset="1" stop-color="#004D7D"/></linearGradient></defs><path fill="url(#gradient_1)" transform="matrix(2.93436 0 0 2.9341 -0.000244141 0)" d="M95.4003 135.684C96.5521 135.123 106.732 132.552 107.974 132.663C126.19 134.287 144.715 132.52 162.782 135.521C165.864 136.033 169.075 137.023 172.227 137.457C184.84 141.211 197.484 143.692 208.731 150.885C210.616 152.091 213.99 154.262 215.996 155.1C221.6 156.837 231.206 162.208 234.294 167.08C236.151 170.011 229.894 183.072 228.389 186.545C225.413 193.35 222.401 200.14 219.355 206.914C213.342 220.426 207.119 233.843 200.689 247.161C197.798 253.146 194.598 259.991 191.494 265.777L181.651 265.636C186.351 257.017 191.647 245.35 195.748 236.387C203.627 219.454 211.022 202.3 217.925 184.945C218.995 182.287 223.473 171.998 223.208 169.809C221.129 167.795 197.697 168.368 193.06 168.291C173.584 167.819 154.101 167.624 134.619 167.706L117.38 167.756C115.003 167.764 110.806 167.907 108.636 167.721C106.306 167.756 103.975 167.76 101.644 167.732C102.97 166.655 105.377 167.714 106.276 167.124C106.901 166.713 106.279 159.765 106.483 158.715C106.688 157.664 106.736 157.441 107.04 156.518C106.394 155.538 103.826 155.961 102.426 155.333C91.1146 155.414 79.7951 155.491 68.4842 155.662C62.8541 155.747 57.1988 156.203 51.5959 156.31C49.4016 156.534 48.0174 156.513 45.7976 156.459C46.2825 156.137 46.7149 155.423 47.2778 155.014C60.002 145.762 80.0173 138.964 95.4003 135.684Z"/><defs><linearGradient id="gradient_2" gradientUnits="userSpaceOnUse" x1="219.20712" y1="216.6749" x2="140.10483" y2="191.36761"><stop offset="0" stop-color="#00275A"/><stop offset="1" stop-color="#005493"/></linearGradient></defs><path fill="url(#gradient_2)" transform="matrix(2.93436 0 0 2.9341 -0.000244141 0)" d="M215.996 155.1C221.6 156.837 231.206 162.208 234.294 167.08C236.151 170.011 229.894 183.072 228.389 186.545C225.413 193.35 222.401 200.14 219.355 206.914C213.342 220.426 207.119 233.843 200.689 247.161C197.798 253.146 194.598 259.991 191.494 265.777L181.651 265.636C186.351 257.017 191.647 245.35 195.748 236.387C203.627 219.454 211.022 202.3 217.925 184.945C218.995 182.287 223.473 171.998 223.208 169.809C221.129 167.795 197.697 168.368 193.06 168.291C173.584 167.819 154.101 167.624 134.619 167.706L117.38 167.756C115.003 167.764 110.806 167.907 108.636 167.721C106.306 167.756 103.975 167.76 101.644 167.732C102.97 166.655 105.377 167.714 106.276 167.124C106.901 166.713 106.279 159.765 106.483 158.715C106.688 157.664 106.736 157.441 107.04 156.518C106.394 155.538 103.826 155.961 102.426 155.333C120.825 155.141 140.503 154.597 158.847 155.28C161.117 155.012 170.527 155.323 173.474 155.367C184.263 155.619 195.055 155.738 205.847 155.726C207.822 155.715 214.387 155.768 215.996 155.1Z"/><defs><linearGradient id="gradient_3" gradientUnits="userSpaceOnUse" x1="151.4344" y1="161.65285" x2="106.1586" y2="160.83984"><stop offset="0" stop-color="#0060A4"/><stop offset="1" stop-color="#00A0E6"/></linearGradient></defs><path fill="url(#gradient_3)" transform="matrix(2.93436 0 0 2.9341 -0.000244141 0)" d="M102.426 155.333C120.825 155.141 140.503 154.597 158.847 155.28L158.611 155.331C156.5 155.769 153.434 155.236 151.974 155.74C151.387 158.777 150.756 163.753 151.144 166.734C152.582 167.798 160.107 166.726 161.408 167.359C160.448 167.557 151.523 167.429 150.054 167.429L123.023 167.483C119.586 167.493 111.819 167.338 108.636 167.721C106.306 167.756 103.975 167.76 101.644 167.732C102.97 166.655 105.377 167.714 106.276 167.124C106.901 166.713 106.279 159.765 106.483 158.715C106.688 157.664 106.736 157.441 107.04 156.518C106.394 155.538 103.826 155.961 102.426 155.333Z"/><path fill="#005183" transform="matrix(2.93436 0 0 2.9341 -0.000244141 0)" d="M95.4003 135.684L95.4395 135.934C93.2382 136.532 87.6973 137.838 86.0649 138.593L85.932 138.926C87.6649 139.663 92.2127 137.116 93.3645 137.499C92.5259 138.614 92.5869 137.99 91.4138 138.326C84.4153 140.333 73.9885 143.602 67.5978 146.418C66.2061 148.577 67.2138 148.152 64.5708 149.96C60.483 152.757 56.8025 154.566 51.7364 154.549C51.2334 154.547 50.7344 155.517 50.6188 155.975L51.5959 156.31C49.4016 156.534 48.0174 156.513 45.7976 156.459C46.2825 156.137 46.7149 155.423 47.2778 155.014C60.002 145.762 80.0173 138.964 95.4003 135.684Z"/><defs><linearGradient id="gradient_4" gradientUnits="userSpaceOnUse" x1="148.83421" y1="74.728271" x2="97.836227" y2="43.900764"><stop offset="0" stop-color="#003F7F"/><stop offset="1" stop-color="#00A7EA"/></linearGradient></defs><path fill="url(#gradient_4)" transform="matrix(2.93436 0 0 2.9341 -0.000244141 0)" d="M120.491 25.3223C125.738 25.1871 138.198 25.0249 143.059 25.5135C143.161 26.4909 143.145 27.3344 143.147 28.3099C143.172 39.0037 142.848 49.7757 143.113 60.4618C146.544 60.4476 149.975 60.4667 153.406 60.5193C157.357 60.3459 162.091 60.5056 166.109 60.5C169.369 60.4955 174.319 60.4095 177.389 60.7585C177.479 67.416 177.382 74.0751 177.441 80.7308C166.016 80.6214 154.59 80.6006 143.164 80.6685C142.669 87.0561 142.725 96.9815 143.055 103.454L132.874 103.48L120.51 103.496C120.431 95.8413 120.565 88.193 120.439 80.5193C116.95 80.8608 111.217 80.7186 107.566 80.7252C100.716 80.772 93.8668 80.7512 87.0179 80.6626C86.8731 74.0698 87.0181 67.1418 86.983 60.5016C98.0941 60.3102 109.342 60.5757 120.49 60.4132L120.491 25.3223Z"/><path fill="#004078" transform="matrix(2.93436 0 0 2.9341 -0.000244141 0)" d="M134.288 32.4774C134.672 33.5407 134.482 41.4354 134.481 43.0883L134.556 76.5625C134.559 78.827 134.395 89.7771 134.619 91.4395C135.145 90.2263 134.424 85.6774 134.895 85.0725C137.714 81.4569 142.443 80.3006 143.821 75.156C143.999 74.4915 143.261 73.9862 143.722 73.1302C145.815 72.6185 148.898 73.4976 150.903 72.745C148.169 72.6282 145.692 72.6995 142.843 72.5221C142.761 71.1928 142.822 69.4987 142.831 68.1417C144.62 67.7972 149.763 68.0379 150.695 67.7864L145.132 67.75C146.204 66.1592 146.897 64.1613 147.728 62.4053C149.106 59.4945 150.788 61.4663 153.406 60.5193C157.357 60.3459 162.091 60.5056 166.109 60.5C169.369 60.4955 174.319 60.4095 177.389 60.7585C177.479 67.416 177.382 74.0751 177.441 80.7308C166.016 80.6214 154.59 80.6006 143.164 80.6685C142.669 87.0561 142.725 96.9815 143.055 103.454L132.874 103.48L133.002 103.082C132.618 103.05 132.267 103.032 131.883 103.016C132.858 100.964 131.402 97.0355 131.613 95.9211C132.284 95.4263 133.255 95.5618 134.302 95.4194C134.102 95.21 130.126 95.3289 129.244 95.2127L129.027 95.1824C130.038 95.0143 133.076 95.0772 134.257 95.0771L134.217 54.3002C134.199 48.1128 133.876 38.3135 134.288 32.4774Z"/><path fill="#040D1F" transform="matrix(2.93436 0 0 2.9341 -0.000244141 0)" d="M142.831 68.1417C145.365 68.3883 148.569 68.2066 151.171 68.2402C157.264 68.3188 163.624 68.0519 169.69 68.2351C169.734 69.633 169.811 71.1221 169.767 72.5128C164.096 73.2916 155.795 72.1391 150.903 72.745C148.169 72.6282 145.692 72.6995 142.843 72.5221C142.761 71.1928 142.822 69.4987 142.831 68.1417Z"/><path fill="#00264E" transform="matrix(2.93436 0 0 2.9341 -0.000244141 0)" d="M128.949 32.5189L134.288 32.4774C133.876 38.3135 134.199 48.1128 134.217 54.3002L134.257 95.0771C133.076 95.0772 130.038 95.0143 129.027 95.1824C128.428 77.424 129.098 59.4221 128.845 41.6369C128.803 38.6321 128.815 35.5195 128.949 32.5189Z"/><path fill="#00264E" transform="matrix(2.93436 0 0 2.9341 -0.000244141 0)" d="M94.8828 68.288L120.338 68.2242L120.286 72.7995C111.808 72.7365 103.329 72.7394 94.8503 72.808C94.7619 71.4625 94.8526 69.6677 94.8828 68.288Z"/><defs><linearGradient id="gradient_5" gradientUnits="userSpaceOnUse" x1="111.22707" y1="206.94774" x2="34.364956" y2="213.35632"><stop offset="0" stop-color="#009FEB"/><stop offset="1" stop-color="#00F0FF"/></linearGradient></defs><path fill="url(#gradient_5)" transform="matrix(2.93436 0 0 2.9341 -0.000244141 0)" d="M51.5959 156.31C57.1988 156.203 62.8541 155.747 68.4842 155.662C79.7951 155.491 91.1146 155.414 102.426 155.333C103.826 155.961 106.394 155.538 107.04 156.518C106.736 157.441 106.688 157.664 106.483 158.715C106.279 159.765 106.901 166.713 106.276 167.124C105.377 167.714 102.97 166.655 101.644 167.732C99.8048 167.947 92.0863 167.874 89.7352 167.914L69.9257 168.299C59.4803 168.52 53.5662 168.315 43.1812 170.738C44.9699 174.149 47.4687 181.247 48.9837 185.069L59.1018 210.271C63.7748 222.135 68.656 233.916 73.7431 245.608C76.7493 252.379 79.9087 258.876 83.0341 265.584C79.3105 265.775 74.7588 265.59 70.9747 265.52C70.1995 263.212 67.4287 257.912 66.2632 255.536C63.6264 250.211 61.1098 244.828 58.7152 239.39C53.1149 226.541 47.7267 213.601 42.5528 200.575C38.8446 191.498 35.2831 182.347 31.4676 173.317C30.8154 171.774 29.8821 168.852 30.7274 167.427C33.6251 162.546 40.7368 158.338 45.7976 156.459C48.0174 156.513 49.4016 156.534 51.5959 156.31Z"/><defs><linearGradient id="gradient_6" gradientUnits="userSpaceOnUse" x1="218.69193" y1="294.20483" x2="131.8349" y2="345.91037"><stop offset="0" stop-color="#001542"/><stop offset="1" stop-color="#06A"/></linearGradient></defs><path fill="url(#gradient_6)" transform="matrix(2.93436 0 0 2.9341 -0.000244141 0)" d="M98.8566 313.555C108.732 313.41 118.983 313.633 128.869 313.763C133.684 313.47 141.754 313.757 146.768 313.781C158.932 313.805 171.097 313.901 183.261 314.066L212.537 314.435C217.227 314.503 221.946 314.418 226.623 314.715C231.728 315.038 235.631 318.273 235.975 323.486C236.018 324.133 235.983 323.992 235.635 324.525C234.511 325.304 226.158 323.783 224.249 323.699C220.042 323.515 215.801 323.429 211.593 323.338C192.479 322.896 173.36 322.732 154.241 322.847C144.911 322.959 135.58 323.005 126.25 322.985C122.431 322.982 117.611 323.117 113.855 322.953C110.793 323.188 104.926 323.047 101.677 322.985C104.002 322.614 111.326 322.763 112.467 322.105C113.2 320.832 112.987 319.564 113.303 318.302C113.627 317.009 114.917 315.524 114.942 314.11C110.417 313.325 102.86 314.561 98.8566 313.555Z"/><path fill="#07B" transform="matrix(2.93436 0 0 2.9341 -0.000244141 0)" d="M98.8566 313.555C108.732 313.41 118.983 313.633 128.869 313.763C126.825 314.612 121.624 313.73 119.944 314.213C119.825 314.707 119.941 314.847 120.143 315.314C119.492 316.255 119.123 316.702 118.348 317.548C118.492 319.095 117.788 321.521 118.26 322.076C119 322.946 123.121 322.15 123.9 322.467C121.012 323.004 116.03 322.308 113.855 322.953C110.793 323.188 104.926 323.047 101.677 322.985C104.002 322.614 111.326 322.763 112.467 322.105C113.2 320.832 112.987 319.564 113.303 318.302C113.627 317.009 114.917 315.524 114.942 314.11C110.417 313.325 102.86 314.561 98.8566 313.555Z"/><defs><linearGradient id="gradient_7" gradientUnits="userSpaceOnUse" x1="105.22483" y1="335.33298" x2="46.118122" y2="303.08133"><stop offset="0" stop-color="#0083C5"/><stop offset="1" stop-color="#00D6FF" stop-opacity="0.98823529"/></linearGradient></defs><path fill="url(#gradient_7)" transform="matrix(2.93436 0 0 2.9341 -0.000244141 0)" d="M101.677 322.985C85.2181 323.963 67.8185 322.217 51.2637 323.814C48.5033 324.081 37.5935 325.894 36.0063 324.771C35.7311 324.284 35.6105 323.913 35.6379 323.35C35.9214 319.001 38.9392 316.302 43.0166 315.38C47.6748 314.326 52.2355 314.109 56.9698 313.853C62.2681 313.566 67.563 313.534 72.8619 313.526L98.8566 313.555C102.86 314.561 110.417 313.325 114.942 314.11C114.917 315.524 113.627 317.009 113.303 318.302C112.987 319.564 113.2 320.832 112.467 322.105C111.326 322.763 104.002 322.614 101.677 322.985Z"/><defs><linearGradient id="gradient_8" gradientUnits="userSpaceOnUse" x1="156.23932" y1="298.66608" x2="79.961777" y2="278.5191"><stop offset="0" stop-color="#00326E"/><stop offset="1" stop-color="#009AE0" stop-opacity="0.98823529"/></linearGradient></defs><path fill="url(#gradient_8)" transform="matrix(2.93436 0 0 2.9341 -0.000244141 0)" d="M69.2249 284.717C71.7176 284.373 77.5357 284.486 80.2156 284.484L100.082 284.496L165.93 284.517L168.277 284.879C165.178 285.325 161.545 284.37 158.823 285.3C158.324 285.471 157.672 290.214 157.717 290.929C157.883 293.604 164.232 292.19 166.079 292.705C156.536 293.078 144.105 292.719 134.41 292.71L79.5667 292.706C79.6465 292.612 79.6737 292.43 79.7128 292.289C79.1753 292.098 77.9797 292.201 77.3566 292.222C76.9091 291.13 78.3172 286.705 78.6514 285.169C75.4409 284.709 72.4275 285.017 69.2249 284.717Z"/><path fill="#005183" transform="matrix(2.93436 0 0 2.9341 -0.000244141 0)" d="M57.3128 170.258C60.1462 170.075 63.4035 169.867 66.2121 170.161C66.6242 174.527 72.6922 184.101 74.9102 188.38C78.3486 195.013 82.1133 201.881 85.7182 208.442C86.7969 210.326 91.9708 219.157 92.4434 220.844L92.1168 220.856C91.6872 220.094 91.3411 218.893 90.8552 218.568L90.6209 218.754C90.5298 220.54 89.6428 221.247 88.398 222.538C87.3955 223.578 88.3035 224.769 86.6997 224.758C86.3434 226.127 87.6645 226.595 87.3439 227.372C84.8575 223.25 65.8384 189.563 65.8428 188.802C64.9916 185.03 57.1024 174.253 57.3128 170.258Z"/><path fill="#00264E" transform="matrix(2.93436 0 0 2.9341 -0.000244141 0)" d="M165.93 284.517C172.153 284.461 207.195 284.095 210.122 287.035C210.959 287.876 211.325 289.478 211.296 290.625C211.272 291.578 211.156 292.442 210.643 293.261C209.929 293.752 191.545 292.808 189.459 292.781C184.125 292.737 178.791 292.723 173.457 292.736C171.911 292.736 167.438 292.848 166.079 292.705C164.232 292.19 157.883 293.604 157.717 290.929C157.672 290.214 158.324 285.471 158.823 285.3C161.545 284.37 165.178 285.325 168.277 284.879L165.93 284.517Z"/><path fill="#004078" transform="matrix(2.93436 0 0 2.9341 -0.000244141 0)" d="M65.8428 188.802C64.4499 187.223 63.9343 184.397 62.5908 183.654L62.2279 183.759C62.4091 184.282 62.6272 184.695 62.5175 185.216L62.1129 185.354C61.8023 184.818 61.5617 184.415 61.2058 183.901L60.8516 184.127C61.1516 185.004 61.3105 186.262 61.5626 186.898C63.0934 190.564 63.9732 193.074 63.8975 197.115C63.755 204.712 61.7736 200.922 59.9198 201.452L59.9177 202.925C59.5443 203.253 59.283 203.516 58.9374 203.874C59.2353 205.699 62.9429 214.398 63.7964 216.715C62.5008 215.18 46.6035 173.67 46.637 173.541C47.3462 174.529 46.9966 174.923 47.6162 175.417C49.6476 174.977 52.3917 174.101 54.7117 173.569C54.8083 173.324 54.8986 173.136 55.0132 172.899C55.803 172.642 56.2629 172.582 56.7139 171.87C56.8156 171.382 56.978 170.93 56.7879 170.486C56.0077 170.48 55.2642 170.477 54.4842 170.433C54.9687 170.109 56.6183 170.246 57.3128 170.258C57.1024 174.253 64.9916 185.03 65.8428 188.802Z"/><defs><linearGradient id="gradient_9" gradientUnits="userSpaceOnUse" x1="76.999168" y1="291.27548" x2="56.538559" y2="286.42419"><stop offset="0" stop-color="#009DE3"/><stop offset="1" stop-color="#00CCF9"/></linearGradient></defs><path fill="url(#gradient_9)" transform="matrix(2.93436 0 0 2.9341 -0.000244141 0)" d="M55.0023 293.43C55.1813 291.074 55.2193 288.917 56.934 287.059C59.0892 284.725 66.1045 284.717 69.2249 284.717C72.4275 285.017 75.4409 284.709 78.6514 285.169C78.3172 286.705 76.9091 291.13 77.3566 292.222C77.9797 292.201 79.1753 292.098 79.7128 292.289C79.6737 292.43 79.6465 292.612 79.5667 292.706C71.5227 292.771 62.9525 293.676 55.0023 293.43Z"/><path transform="matrix(2.93436 0 0 2.9341 -0.000244141 0)" d="M195.783 101.459C197.319 101.413 196.455 101.837 197.269 101.928C197.314 102.871 197.441 102.664 197.009 103.37C195.774 103.719 167.94 103.656 165.459 103.432C165.643 109.057 165.684 117.038 165.475 122.639C169.044 122.878 172.675 123.482 176.289 123.974C205.574 127.96 234.348 139.423 255.177 160.944C255.823 161.611 256.661 162.842 257.108 163.63C255.872 169.112 252.541 177.518 250.427 182.901C246.308 193.358 241.974 203.728 237.425 214.005C236.943 215.081 234.283 221.153 233.871 221.746L233.562 221.679C233.398 221.307 233.614 220.49 233.693 220.04C233.27 220.174 232.758 220.512 232.364 220.746C240.129 203.753 247.629 186.32 253.874 168.677C254.359 167.307 255.382 163.816 254.348 162.645C236.478 142.424 210.121 131.968 184.166 126.842C177.667 125.558 170.979 125.126 164.487 123.819C164.615 123.011 164.589 118.815 164.557 117.718C164.448 114.07 164.867 108.982 164.484 105.48C164.447 104.702 164.648 102.641 164.709 101.774C167.907 101.721 194.932 101.865 195.783 101.459Z"/><path transform="matrix(2.93436 0 0 2.9341 -0.000244141 0)" d="M208.836 271.019L208.952 271.65C215.196 273.335 220.539 272.938 224.553 279.911C226.686 283.606 227.277 287.994 226.197 292.122C225.606 294.303 224.43 296.406 223.219 298.305C225.913 298.918 234.418 301.166 236.276 302.966C243.205 309.677 248.181 320.009 253.76 327.951C255.836 330.907 256.116 332.738 253.851 335.688L253.669 335.771L253.455 335.509L253.594 334.787L252.989 334.249C253.401 332.776 254.228 331.904 253.314 330.285C251.104 326.367 248.568 322.526 246.06 318.787C243.184 314.501 240.499 310 237.253 305.996C234.29 302.204 226.524 300.635 221.86 300.314C222.061 299.928 222.246 299.535 222.416 299.135C225.641 291.412 226.84 281.786 219.053 276.391C215.774 274.12 212.336 274.501 208.967 273.116C208.423 272.343 208.67 272.274 208.836 271.019Z"/><path transform="matrix(2.93436 0 0 2.9341 -0.000244141 0)" d="M232.364 220.746C232.758 220.512 233.27 220.174 233.693 220.04C233.614 220.49 233.398 221.307 233.562 221.679L233.871 221.746C232.412 225.476 230.1 230.1 228.372 233.778C223.737 243.479 218.946 253.105 214 262.652C212.7 265.158 209.851 269.707 208.952 271.65L208.836 271.019C208.681 270.2 208.645 269.775 209.007 269.017C211.257 264.3 213.709 259.664 216.051 254.991C220.598 245.997 224.98 236.92 229.196 227.765C229.761 227.187 230.243 227.038 230.773 226.615C231.661 225.907 231.519 223.511 231.587 222.496L232.364 220.746Z"/><path transform="matrix(2.93436 0 0 2.9341 -0.000244141 0)" d="M252.989 334.249L253.594 334.787L253.455 335.509L253.669 335.771C251.982 339.17 246.651 345.633 244.146 349L241.99 349C244.85 346.107 250.928 337.628 252.989 334.249Z"/><defs><linearGradient id="gradient_10" gradientUnits="userSpaceOnUse" x1="231.03532" y1="225.98756" x2="230.26221" y2="225.44473"><stop offset="0" stop-color="black" stop-opacity="0.96470588"/><stop offset="1" stop-color="black"/></linearGradient></defs><path fill="url(#gradient_10)" transform="matrix(2.93436 0 0 2.9341 -0.000244141 0)" d="M231.587 222.496C231.519 223.511 231.661 225.907 230.773 226.615C230.243 227.038 229.761 227.187 229.196 227.765C229.709 226.375 230.931 223.923 231.587 222.496Z"/></svg>