<?xml version="1.0" encoding="utf-8" ?><svg xmlns="http://www.w3.org/2000/svg" xmlns:xlink="http://www.w3.org/1999/xlink" width="885" height="1024" viewBox="0 0 885 1024"><defs><linearGradient id="gradient_0" gradientUnits="userSpaceOnUse" x1="275.06882" y1="609.75098" x2="286.19379" y2="7.6773405"><stop offset="0" stop-color="#010223"/><stop offset="1" stop-color="#001D55"/></linearGradient></defs><path fill="url(#gradient_0)" transform="scale(1.60326 1.6025)" d="M224.505 5.64185C228.638 7.09631 233.255 10.5291 237.259 12.617C252.095 20.3541 266.413 28.3594 281.366 35.9187C303.053 46.7593 324.848 57.3843 346.746 67.792C357.285 72.8596 367.626 77.5328 378.018 82.9238C415.667 102.248 451.261 125.337 484.254 151.839L483.916 153.775C485.572 155.202 488.413 157.524 489.582 159.238C492.925 164.141 495.19 170.849 496.937 176.54C501.543 191.535 506.619 206.584 510.958 221.633C514.063 229.637 516.167 239.338 518.554 247.601C523.794 265.741 527.923 284.263 532.158 302.66C532.54 304.322 533.461 309.628 531.979 310.861C531.253 310.751 530.78 310.474 530.488 309.698C529.449 308.853 529.046 308.672 527.789 308.873C529.933 315.352 529.28 322.496 530.69 328.521L528.411 326.123C528.213 328.267 530.074 329.451 530.304 331.392C530.933 336.688 531.629 342.136 532.261 347.417C535.121 370.955 537.721 394.524 540.061 418.12C540.986 427.725 541.373 439.286 542.062 448.957C542.364 453.189 545.362 485.53 544.437 487.078C534.482 479.385 523.754 469.572 514.194 461.255C508.773 456.538 495.691 446.962 491.89 441.816C489.524 442.55 483.932 452.738 482.174 455.481L466.776 479.221L436.891 526.539C432.327 533.916 427.163 541.425 423.093 549.11L422.865 549.541C424.048 554.365 427.365 561.294 429.442 566.082C433.216 574.784 436.697 583.38 440.286 592.142C442.923 598.579 444.896 602.041 446.867 608.859C450.774 608.77 454.721 608.773 458.606 608.669C459.455 612.051 462.155 617.959 463.581 621.548L463.66 622.096L462.817 622.426C463.525 625.154 468.193 635.425 469.587 639L116.768 639C118.001 635.845 122.97 622.596 124.313 620.296L124.432 621.219C126.018 621.903 135.84 621.52 138.313 621.53L174.275 621.622C184.482 621.632 199.249 622.084 208.895 621.545C206.56 620.67 203.381 620.735 200.933 620.75C200.79 620.528 200.648 620.305 200.506 620.082C199.453 618.563 200.23 616.472 199.772 614.637C199.316 612.804 198.739 611.459 197.875 609.77C198.435 609.639 198.897 609.98 199.551 609.935C201.359 609.81 203.122 609.826 204.833 609.159C191.602 609.287 178.414 608.991 165.195 609.039C166.365 608.662 167.518 608.935 168.254 608.287L168.021 607.84C167.928 606.284 161.917 591.973 160.828 589.193C150.963 563.649 140.872 538.193 130.555 512.828C136.717 506.327 143.09 498.875 149.192 492.186C174.91 463.889 200.387 435.374 225.621 406.644L250.099 379.272C253.328 375.694 259.677 368.402 263.016 365.413C265.265 362.594 269.592 358.164 272.149 355.37C278.461 348.353 284.91 341.461 291.493 334.699C293.446 333.103 299.967 326.335 302.176 324.181L313.915 312.793C315.563 311.2 321.008 306.135 321.814 304.589C325.013 298.451 327.483 289.854 329.967 283.307C336.792 265.317 343.101 248.018 348.192 229.439C349.307 233.609 352.16 237.94 354.289 241.875C356.405 245.823 358.478 249.794 360.509 253.786C369.393 271.266 377.921 288.925 386.086 306.752C389.147 313.474 394.255 324.044 396.355 330.724C397.103 330.18 396.527 329.113 396.179 328.24C391.579 316.69 385.94 305.524 380.891 294.159C380.059 292.286 380.883 290.8 381.197 288.914C381.308 288.254 382.046 288.029 382.508 287.873C383.204 289.073 386.167 296.755 387.017 298.636C391.727 309.051 395.674 320.01 400.323 330.463L400.842 330.344C400.37 328.592 397.278 321.519 396.438 319.491L386.541 295.705L366.264 248.521C362.835 240.628 357.182 227.458 353.179 220.029C349.644 213.468 337.325 198.96 331.944 193.7C329.313 193.292 328.22 189.737 325.617 188.11L324.922 188.504C327.208 191.614 329.569 194.712 331.662 197.955C334.258 201.976 343.995 218.476 343.354 222.585C342.476 228.215 312.764 297.477 309.665 301.499C307.265 304.613 304.212 307.368 301.435 310.148L288.056 323.482C286.436 325.087 282.37 328.98 281.125 330.664C280.136 331.579 277.097 334.729 276.479 335.161C270.292 339.032 267.101 343.779 261.927 348.736C260.443 349.849 258.75 353.177 256.716 352.683C253.959 352.013 253.119 350.087 250.249 350.306C243.924 350.788 243.174 351.164 238.782 355.441C237.04 357.137 229.909 358.828 227.977 361.499C222.86 365.752 220.688 369.45 216.554 374.406C214.991 376.279 210.385 379.052 208.495 380.737C206.498 382.518 203.731 384.663 201.114 385.474C201.103 384.605 221.032 359.712 223.56 356.534C225.085 354.617 230.728 348.718 231.066 346.781L230.717 346.677C231.207 345.255 233.969 342.172 234.864 340.898C237.483 337.173 254.984 315.939 254.769 313.272C253.766 312.982 253.596 313.291 252.362 313.717L252.355 312.397L252.696 311.815C250.789 310.42 229.691 315.976 226.164 316.761C208.84 320.629 191.554 324.667 174.31 328.876C166.825 330.68 159.158 332.131 151.658 333.977C142.817 336.153 142.121 338.795 136.31 344.967C126.892 353.948 118.309 363.708 109.262 373.051C106.04 376.377 102.997 380.177 99.3488 383.048C98.2283 383.93 97.5352 384.348 96.0761 384.333C89.6648 384.271 31.1139 364.786 25.4186 361.598L22.5482 361.858C21.5588 360.76 20.786 359.568 20.1943 358.216C17.5335 352.135 10.3791 298.863 12.2546 293.549C13.5373 289.915 24.2281 278.856 27.344 275.294C45.2724 254.707 63.3574 234.258 81.5976 213.947L97.5255 196.274C107.372 185.521 108.279 185.996 111.812 171.294C114.098 161.779 117.084 148.533 122.063 140.293C122.56 139.471 127.361 135.282 128.495 134.242C132.977 130.079 137.505 125.965 142.077 121.901C159.551 106.167 177.075 90.3142 195.225 75.3806C202.229 69.6175 202.015 69.8388 205.26 61.4467C209.198 51.2615 212.29 40.8911 215.614 30.5638C218.26 22.1466 221.226 13.8333 224.505 5.64185ZM129.295 160.439C127.29 168.375 122.723 188.674 118.66 194.593C111.144 201.996 104.359 210.312 96.9013 217.776C94.5197 220.16 90.4353 225.759 88.0331 227.532C81.5092 235.313 73.4659 243.553 66.579 251.312C64.7679 253.667 61.5297 256.972 59.4412 259.252C55.8155 263.248 52.2235 267.275 48.6653 271.331C43.2748 277.29 37.9186 283.28 32.5969 289.3C30.3087 291.914 27.3387 295.096 25.5258 298.045C25.0153 298.876 24.9474 301.105 25.0395 302.05C26.0272 312.192 29.5738 344.876 33.2636 352.663C38.3735 356.745 55.0477 361.583 61.7256 363.381C64.1336 363.324 67.6503 364.597 70.3697 364.812C70.6712 363.964 70.8926 363.425 71.2607 362.601C70.7927 360.51 68.8061 362.184 66.6731 359.952C65.9671 359.64 64.4154 359.279 63.5931 359.028C55.2768 356.492 47.0299 354.125 39.2297 350.223C36.7169 344.283 34.4068 309.837 34.0381 302.206C36.7164 298.226 40.5475 294.208 43.791 290.625L57.7146 275.191L81.3359 248.972C86.132 243.595 95.3056 233.119 100.403 228.364C100.762 227.545 105.796 222.188 106.714 221.488C111.879 214.156 126.84 202.457 129.232 193.995C129.825 192.839 131.015 187.064 131.443 185.591C133.007 180.207 138.59 156.481 141.34 153.226C145.211 148.644 158.988 137.045 164.126 132.538L198.161 102.861C202.816 98.8004 211.192 92.6754 214.55 87.8537C218.63 81.9937 233.426 32.5113 235.324 23.5939C238.186 29.1374 243.533 34.4335 246.933 39.921C259.266 59.8281 268.119 81.4737 277.293 102.939C270.658 110.261 262.091 117.546 254.839 124.324C246.704 132.074 238.805 140.07 231.155 148.299C228.272 151.423 224.487 155.205 221.988 158.505C228.199 157.169 232.944 153.081 238.001 149.422C245.007 144.348 251.879 139.092 258.609 133.659C263.544 129.718 268.657 125.855 273.626 121.927C277.546 118.829 283.433 113.19 287.442 110.878C290.526 112.092 293.108 113.734 296.014 115.201C303.395 118.925 310.628 123.73 317.892 127.512L318.07 126.942C317.497 126.594 317.013 126.292 316.396 126.017L316 125.843L316.096 124.666C315.843 124.351 314.77 123.012 314.696 122.733C314.039 120.26 315.04 115.377 316.099 113.253C317.209 112.507 318.063 112.719 319.52 112.519C313.748 108.477 307.048 104.911 301.132 101.055C294.799 97.0173 290.572 96.504 287.347 89.2342C280.914 74.734 273.968 60.5503 265.993 46.8333C260.546 37.4653 253.072 30.8062 246.092 22.9542C240.983 19.1023 238.48 16.0822 232.438 12.3771C231.184 18.2345 210.976 77.7275 209.094 80.4268C206.192 84.589 201.157 88.1378 197.307 91.4799C192.339 95.8682 187.335 100.214 182.294 104.518C170.076 114.978 157.957 125.552 145.938 136.239C142.374 139.416 135.999 144.651 133.194 148.253C131.822 150.015 130.382 157.62 129.295 160.439ZM270.36 271.254L270.749 271.546C272.174 269.301 273.478 264.428 275.076 263.214C276.114 263.468 277.2 265.563 277.85 266.621C278.04 269.782 273.867 274.037 274.979 275.827C282.328 259.291 289.376 242.623 296.122 225.832C298.857 219.062 303.079 210.14 305.053 203.314C302.078 207.262 295.661 220.378 293.12 225.299C288.481 234.293 283.918 243.325 279.43 252.395C276.378 258.524 273.037 264.998 270.36 271.254ZM403.363 451.217C402.997 450.591 403.07 450.755 402.495 450.25L366.053 498.844L356.393 511.75C354.721 513.947 351.981 517.162 350.776 519.517C352.067 520.281 352.459 520.043 353.779 519.415C354.044 518.449 354.474 517.316 355.093 516.523C360.011 510.227 364.791 503.841 369.567 497.437C380.943 482.111 392.209 466.704 403.363 451.217Z"/><defs><linearGradient id="gradient_1" gradientUnits="userSpaceOnUse" x1="291.95538" y1="167.71382" x2="163.12506" y2="95.656586"><stop offset="0" stop-color="#00C7FD"/><stop offset="1" stop-color="#1AFFFF" stop-opacity="0.98823529"/></linearGradient></defs><path fill="url(#gradient_1)" transform="scale(1.60326 1.6025)" d="M232.438 12.3771C238.48 16.0822 240.983 19.1023 246.092 22.9542C253.072 30.8062 260.546 37.4653 265.993 46.8333C273.968 60.5503 280.914 74.734 287.347 89.2342C290.572 96.504 294.799 97.0173 301.132 101.055C307.048 104.911 313.748 108.477 319.52 112.519C318.063 112.719 317.209 112.507 316.099 113.253C315.04 115.377 314.039 120.26 314.696 122.733C314.77 123.012 315.843 124.351 316.096 124.666L316 125.843L316.396 126.017C317.013 126.292 317.497 126.594 318.07 126.942L317.892 127.512C310.628 123.73 303.395 118.925 296.014 115.201C293.108 113.734 290.526 112.092 287.442 110.878C283.433 113.19 277.546 118.829 273.626 121.927C268.657 125.855 263.544 129.718 258.609 133.659C251.879 139.092 245.007 144.348 238.001 149.422C232.944 153.081 228.199 157.169 221.988 158.505C224.487 155.205 228.272 151.423 231.155 148.299C238.805 140.07 246.704 132.074 254.839 124.324C262.091 117.546 270.658 110.261 277.293 102.939C268.119 81.4737 259.266 59.8281 246.933 39.921C243.533 34.4335 238.186 29.1374 235.324 23.5939C233.426 32.5113 218.63 81.9937 214.55 87.8537C211.192 92.6754 202.816 98.8004 198.161 102.861L164.126 132.538C158.988 137.045 145.211 148.644 141.34 153.226C138.59 156.481 133.007 180.207 131.443 185.591C131.015 187.064 129.825 192.839 129.232 193.995L128.749 193.882C129.033 192.103 129.43 189.949 130.152 188.308L129.976 188.023C129.3 189.251 128.631 190.483 127.969 191.719C126.674 192.286 123.286 194.282 122.355 194.219C121.756 193.358 121.888 192.624 121.788 191.453C121.033 191.855 120.151 193.746 119.264 194.783L118.66 194.593C122.723 188.674 127.29 168.375 129.295 160.439C130.382 157.62 131.822 150.015 133.194 148.253C135.999 144.651 142.374 139.416 145.938 136.239C157.957 125.552 170.076 114.978 182.294 104.518C187.335 100.214 192.339 95.8682 197.307 91.4799C201.157 88.1378 206.192 84.589 209.094 80.4268C210.976 77.7275 231.184 18.2345 232.438 12.3771Z"/><path fill="#38FBFE" fill-opacity="0.98823529" transform="scale(1.60326 1.6025)" d="M118.66 194.593L119.264 194.783C120.151 193.746 121.033 191.855 121.788 191.453C121.888 192.624 121.756 193.358 122.355 194.219C123.286 194.282 126.674 192.286 127.969 191.719C128.631 190.483 129.3 189.251 129.976 188.023L130.152 188.308C129.43 189.949 129.033 192.103 128.749 193.882L129.232 193.995C126.84 202.457 111.879 214.156 106.714 221.488C105.796 222.188 100.762 227.545 100.403 228.364C95.3056 233.119 86.132 243.595 81.3359 248.972L57.7146 275.191L43.791 290.625C40.5475 294.208 36.7164 298.226 34.0381 302.206C34.4068 309.837 36.7169 344.283 39.2297 350.223C47.0299 354.125 55.2768 356.492 63.5931 359.028C64.4154 359.279 65.9671 359.64 66.6731 359.952C68.8061 362.184 70.7927 360.51 71.2607 362.601C70.8926 363.425 70.6712 363.964 70.3697 364.812C67.6503 364.597 64.1336 363.324 61.7256 363.381C55.0477 361.583 38.3735 356.745 33.2636 352.663C29.5738 344.876 26.0272 312.192 25.0395 302.05C24.9474 301.105 25.0153 298.876 25.5258 298.045C27.3387 295.096 30.3087 291.914 32.5969 289.3C37.9186 283.28 43.2748 277.29 48.6653 271.331C52.2235 267.275 55.8155 263.248 59.4412 259.252C61.5297 256.972 64.7679 253.667 66.579 251.312C73.4659 243.553 81.5092 235.313 88.0331 227.532C90.4353 225.759 94.5197 220.16 96.9013 217.776C104.359 210.312 111.144 201.996 118.66 194.593Z"/><path fill="#01C4F4" fill-opacity="0.98823529" transform="scale(1.60326 1.6025)" d="M305.053 203.314C303.079 210.14 298.857 219.062 296.122 225.832C289.376 242.623 282.328 259.291 274.979 275.827C273.867 274.037 278.04 269.782 277.85 266.621C277.2 265.563 276.114 263.468 275.076 263.214C273.478 264.428 272.174 269.301 270.749 271.546L270.36 271.254C273.037 264.998 276.378 258.524 279.43 252.395C283.918 243.325 288.481 234.293 293.12 225.299C295.661 220.378 302.078 207.262 305.053 203.314Z"/><defs><linearGradient id="gradient_2" gradientUnits="userSpaceOnUse" x1="257.26367" y1="547.61926" x2="172.76587" y2="446.31659"><stop offset="0" stop-color="#001344"/><stop offset="1" stop-color="#00317D"/></linearGradient></defs><path fill="url(#gradient_2)" transform="scale(1.60326 1.6025)" d="M263.016 365.413C261.928 369.557 245.677 383.329 243.022 388.485L243.423 388.64C244.655 387.519 245.182 386.36 246.186 385.273C247.811 383.513 252.621 380.399 254.921 381.316C257.687 384.741 256.633 380.869 260.544 384.698C263.801 387.886 266.157 394.716 268.63 396.428L269.884 395.602C270.382 395.982 270.223 395.824 270.562 396.35L271.006 396.347C273.494 393.734 277.419 386.564 279.808 383.31C280.561 382.284 283.69 377.741 284.188 376.8L284.561 376.84C282.351 380.685 279.03 385.367 276.541 389.129C271.316 397.078 266.037 404.99 260.704 412.866C248.567 430.877 235.932 448.494 223.877 466.56C221.109 470.709 218.379 474.766 215.496 478.844L200.971 499.28C197.311 504.39 190.036 513.333 188.961 519.139C188.231 521.51 187.633 526.756 187.488 529.436C186.798 534.015 186.697 541.155 186.521 545.954C186.079 556.625 185.849 567.305 185.831 577.985C185.773 585.411 185.31 601.816 186.239 608.581C200.535 608.969 215.135 608.477 229.457 608.668C232.662 608.711 243.422 608.468 245.759 609.048C232.489 609.434 218.296 608.985 204.833 609.159C191.602 609.287 178.414 608.991 165.195 609.039C166.365 608.662 167.518 608.935 168.254 608.287L168.021 607.84C167.928 606.284 161.917 591.973 160.828 589.193C150.963 563.649 140.872 538.193 130.555 512.828C136.717 506.327 143.09 498.875 149.192 492.186C174.91 463.889 200.387 435.374 225.621 406.644L250.099 379.272C253.328 375.694 259.677 368.402 263.016 365.413Z"/><defs><linearGradient id="gradient_3" gradientUnits="userSpaceOnUse" x1="304.80188" y1="586.29504" x2="284.18359" y2="675.96674"><stop offset="0" stop-color="#01011C"/><stop offset="1" stop-color="#02144E"/></linearGradient></defs><path fill="url(#gradient_3)" transform="scale(1.60326 1.6025)" d="M328.64 609.059C346.971 608.818 365.429 609.055 383.788 608.898L404.276 608.672C408.537 608.617 413.388 608.418 417.58 608.758C426.833 608.823 437.802 609.188 446.867 608.859C450.774 608.77 454.721 608.773 458.606 608.669C459.455 612.051 462.155 617.959 463.581 621.548L463.66 622.096L462.817 622.426C463.525 625.154 468.193 635.425 469.587 639L116.768 639C118.001 635.845 122.97 622.596 124.313 620.296L124.432 621.219C126.018 621.903 135.84 621.52 138.313 621.53L174.275 621.622C184.482 621.632 199.249 622.084 208.895 621.545C206.56 620.67 203.381 620.735 200.933 620.75C200.79 620.528 200.648 620.305 200.506 620.082C199.453 618.563 200.23 616.472 199.772 614.637C199.316 612.804 198.739 611.459 197.875 609.77C198.435 609.639 198.897 609.98 199.551 609.935C201.359 609.81 203.122 609.826 204.833 609.159C218.296 608.985 232.489 609.434 245.759 609.048C252.704 609.383 261.587 609.078 268.683 609.057L305.876 609.024C313.225 609.013 321.328 608.853 328.64 609.059Z"/><path fill="#022972" transform="scale(1.60326 1.6025)" d="M328.64 609.059C346.971 608.818 365.429 609.055 383.788 608.898L404.276 608.672C408.537 608.617 413.388 608.418 417.58 608.758C426.833 608.823 437.802 609.188 446.867 608.859C450.774 608.77 454.721 608.773 458.606 608.669C459.455 612.051 462.155 617.959 463.581 621.548C461.623 622.171 452.095 621.843 449.706 621.797C446.014 622.029 440.891 621.882 437.121 621.884L413.932 621.885L346.451 621.808C343.311 621.381 338.738 621.505 335.45 621.429C326.078 621.168 316.703 621.097 307.329 621.215C306.287 615.984 306.117 616.906 306.325 611.257C308.542 611.012 309.037 609.953 312.353 609.66C315.727 609.361 326.484 610.507 328.64 609.059Z"/><path fill="#5A53F0" transform="scale(1.60326 1.6025)" d="M446.867 608.859C450.774 608.77 454.721 608.773 458.606 608.669C459.455 612.051 462.155 617.959 463.581 621.548C461.623 622.171 452.095 621.843 449.706 621.797C447.05 621.487 442.483 621.592 439.653 621.579L421.433 621.479C420.202 621.466 414.651 621.469 413.798 621.266C414.521 621.229 415.129 621.186 415.849 621.113C416.549 618.885 412.55 610.102 412.676 609.348C414.301 608.845 415.744 608.995 417.58 608.758C426.833 608.823 437.802 609.188 446.867 608.859Z"/><defs><linearGradient id="gradient_4" gradientUnits="userSpaceOnUse" x1="309.55179" y1="607.44159" x2="198.92784" y2="622.55585"><stop offset="0" stop-color="#0038A7"/><stop offset="1" stop-color="#0BF"/></linearGradient></defs><path fill="url(#gradient_4)" transform="scale(1.60326 1.6025)" d="M245.759 609.048C252.704 609.383 261.587 609.078 268.683 609.057L305.876 609.024C313.225 609.013 321.328 608.853 328.64 609.059C326.484 610.507 315.727 609.361 312.353 609.66C309.037 609.953 308.542 611.012 306.325 611.257C306.117 616.906 306.287 615.984 307.329 621.215C316.703 621.097 326.078 621.168 335.45 621.429C338.738 621.505 343.311 621.381 346.451 621.808C339.514 622.181 329.497 621.85 322.381 621.836L275.883 621.74L232.662 621.656C225.459 621.654 215.856 621.965 208.895 621.545C206.56 620.67 203.381 620.735 200.933 620.75C200.79 620.528 200.648 620.305 200.506 620.082C199.453 618.563 200.23 616.472 199.772 614.637C199.316 612.804 198.739 611.459 197.875 609.77C198.435 609.639 198.897 609.98 199.551 609.935C201.359 609.81 203.122 609.826 204.833 609.159C218.296 608.985 232.489 609.434 245.759 609.048Z"/><defs><linearGradient id="gradient_5" gradientUnits="userSpaceOnUse" x1="327.53421" y1="329.06958" x2="449.61905" y2="237.48775"><stop offset="0" stop-color="#5E4AF3"/><stop offset="1" stop-color="#00A8F5"/></linearGradient></defs><path fill="url(#gradient_5)" transform="scale(1.60326 1.6025)" d="M319.52 112.519C324.564 115.172 334.121 121.92 339.037 125.35C357.531 138.144 375.255 152.017 392.118 166.894C393.36 167.979 400.926 174.479 401.691 175.506C405.488 178.822 409.412 182.593 412.327 186.711C416.371 192.424 426.705 214.574 428.957 221.594C433.244 229.885 436.707 240.482 440.23 249.072C459.728 296.611 466.195 346.063 465.279 397.139C465.104 406.941 466.093 417.818 465.613 427.642C465.509 427.174 465.24 425.599 464.993 425.353C464.957 427.042 465.177 432.298 464.429 433.522C460.817 439.43 456.565 444.941 452.397 450.461C449.925 453.81 438.992 472.28 435.463 472.745C435.509 471.135 438.854 468.406 439.209 465.428L438.848 465.074C437.19 465.398 437.483 468.518 434.147 468.98L433.945 468.751C434.748 467.178 434.935 466.87 436.735 466.756L436.924 466.206L436.378 465.712C437.659 463.339 440.046 460.02 441.632 457.663L450.658 444.215C452.694 441.173 455.617 437.176 456.7 433.744C457.059 432.607 458.278 429.386 458.247 428.464L458.013 428.242C457.758 426.448 457.783 422.2 457.739 420.134L457.396 404.988C457.038 388.335 456.34 371.692 455.303 355.068C451.946 306.221 435.171 264.315 415.59 220.164C411 211.486 405.666 195.018 398.348 188.554C380.524 172.81 361.298 156.711 341.821 143.223C336.629 139.678 331.379 136.221 326.071 132.853C324.071 131.585 319.489 129.004 317.892 127.512L318.07 126.942C317.497 126.594 317.013 126.292 316.396 126.017L316 125.843L316.096 124.666C315.843 124.351 314.77 123.012 314.696 122.733C314.039 120.26 315.04 115.377 316.099 113.253C317.209 112.507 318.063 112.719 319.52 112.519Z"/><path fill="#01A3EA" transform="scale(1.60326 1.6025)" d="M428.957 221.594L428.53 221.965C427.364 219.724 426.662 217.208 425.474 214.644C422.596 208.433 419.505 202.264 416.695 196.041C416.334 196.371 415.97 196.699 415.604 197.025C412.517 195.462 412.487 187.667 411.34 186.246C408.527 182.763 404.503 179.485 401.496 176.03L401.691 175.506C405.488 178.822 409.412 182.593 412.327 186.711C416.371 192.424 426.705 214.574 428.957 221.594Z"/><path fill="#022972" transform="scale(1.60326 1.6025)" d="M19.771 286.926C24.0764 282.202 28.3657 277.055 32.61 272.228L58.7588 242.672C69.2356 230.769 80.2311 219.231 90.4248 206.991C96.3642 199.859 104.083 193.068 109.531 185.49C111.289 183.046 112.438 176.721 113.283 173.829C115.069 167.716 119.966 146.026 123.548 141.583C126.122 138.39 138.834 127.561 142.343 124.347C156.613 111.28 171.27 98.4956 185.748 85.6618C190.723 81.2523 201.092 74.2419 204.199 69.0035C206.444 65.2185 209.621 55.171 211.214 50.647C216.132 36.6797 220.009 22.7526 225.184 8.83137C226.92 9.15167 230.814 11.4206 232.438 12.3771C231.184 18.2345 210.976 77.7275 209.094 80.4268C206.192 84.589 201.157 88.1378 197.307 91.4799C192.339 95.8682 187.335 100.214 182.294 104.518C170.076 114.978 157.957 125.552 145.938 136.239C142.374 139.416 135.999 144.651 133.194 148.253C131.822 150.015 130.382 157.62 129.295 160.439C128.247 161.391 128.075 163.788 126.965 165.84L127.272 164.826C126.442 166.826 123.165 177.007 123.515 178.739L122.838 178.027C121.725 179.282 121.361 181.322 119.473 182.01C117.477 182.737 116.269 181.147 114.812 180.176C114.534 179.99 114.064 180.43 112.965 179.604L112.849 178.368C111.572 180.677 111.147 184.886 109.697 186.661C104.65 192.841 98.629 198.617 93.3678 204.624L42.451 262.238C37.1897 268.184 31.6272 273.97 26.5315 280.097C25.106 281.811 21.8301 285.224 20.6931 286.864L20.0681 287.094L19.771 286.926Z"/><path fill="#066BD5" transform="scale(1.60326 1.6025)" d="M270.36 271.254L270.749 271.546C272.174 269.301 273.478 264.428 275.076 263.214C276.114 263.468 277.2 265.563 277.85 266.621C278.04 269.782 273.867 274.037 274.979 275.827C274.309 277.81 272.011 283.746 270.569 284.721C257.617 293.474 233.186 298.444 219.215 301.83L178.066 311.642C163.92 314.936 147.876 318.331 133.527 322.307C132.15 322.689 107.909 350.198 104.115 353.449C101.262 355.893 94.7247 363.849 91.3614 366.959C90.5022 367.765 89.5403 368.455 88.5006 369.01C81.3037 369.226 68.4499 365.955 61.7256 363.381C64.1336 363.324 67.6503 364.597 70.3697 364.812C70.6712 363.964 70.8926 363.425 71.2607 362.601C70.7927 360.51 68.8061 362.184 66.6731 359.952C71.7025 360.825 80.7459 364.476 85.2848 363.642C88.2131 363.103 98.3458 352.217 100.807 349.742C108.014 342.506 115.16 335.21 122.245 327.854C129.521 320.253 129.908 317.166 140.842 314.528C171.609 307.106 201.764 297.756 231.955 288.362C239.584 286.001 247.184 283.549 254.754 281.007C258.574 279.746 263.92 278.155 267.507 276.598C268.511 275.103 269.468 272.928 270.36 271.254Z"/><path transform="scale(1.60326 1.6025)" d="M224.505 5.64185C228.638 7.09631 233.255 10.5291 237.259 12.617C252.095 20.3541 266.413 28.3594 281.366 35.9187C303.053 46.7593 324.848 57.3843 346.746 67.792C357.285 72.8596 367.626 77.5328 378.018 82.9238C415.667 102.248 451.261 125.337 484.254 151.839L483.916 153.775C479.781 150.425 475.566 147.173 471.274 144.025C469.178 141.655 463.106 137.67 460.446 135.814L447.946 126.971C441.724 122.6 436.329 119.319 429.994 115.278C409.937 102.451 389.227 90.6718 367.95 79.9885C360.125 76.0666 351.727 72.4907 343.817 68.7161C340.452 67.1104 337.237 65.2766 333.918 63.6688L306.103 50.3408C289.263 42.0976 272.462 34.1172 256.196 24.7637C254.244 23.6413 251.856 22.6397 250.051 21.3543L250.487 20.6221C249.556 19.2693 233.212 11.9058 230.978 9.68867C229.74 8.46046 226.313 6.34939 224.525 7.39538C224.455 8.53356 224.689 8.07378 226.409 8.73013C227.547 9.16414 230.582 10.2083 231.535 10.8696C235.02 13.2861 244.135 19.1571 246.231 22.4048L246.092 22.9542C240.983 19.1023 238.48 16.0822 232.438 12.3771C230.814 11.4206 226.92 9.15167 225.184 8.83137C220.009 22.7526 216.132 36.6797 211.214 50.647C209.621 55.171 206.444 65.2185 204.199 69.0035C201.092 74.2419 190.723 81.2523 185.748 85.6618C171.27 98.4956 156.613 111.28 142.343 124.347C138.834 127.561 126.122 138.39 123.548 141.583C119.966 146.026 115.069 167.716 113.283 173.829C112.438 176.721 111.289 183.046 109.531 185.49C104.083 193.068 96.3642 199.859 90.4248 206.991C80.2311 219.231 69.2356 230.769 58.7588 242.672L32.61 272.228C28.3657 277.055 24.0764 282.202 19.771 286.926C17.4118 288.62 14.6183 292.561 13.339 295.204C15.5011 314.183 17.1176 333.28 20.6536 352.076C21.3009 355.517 22.0204 358.889 24.8927 361.195C25.0654 361.333 25.2407 361.467 25.4186 361.598L22.5482 361.858C21.5588 360.76 20.786 359.568 20.1943 358.216C17.5335 352.135 10.3791 298.863 12.2546 293.549C13.5373 289.915 24.2281 278.856 27.344 275.294C45.2724 254.707 63.3574 234.258 81.5976 213.947L97.5255 196.274C107.372 185.521 108.279 185.996 111.812 171.294C114.098 161.779 117.084 148.533 122.063 140.293C122.56 139.471 127.361 135.282 128.495 134.242C132.977 130.079 137.505 125.965 142.077 121.901C159.551 106.167 177.075 90.3142 195.225 75.3806C202.229 69.6175 202.015 69.8388 205.26 61.4467C209.198 51.2615 212.29 40.8911 215.614 30.5638C218.26 22.1466 221.226 13.8333 224.505 5.64185Z"/><path fill="#5A53F0" transform="scale(1.60326 1.6025)" d="M458.013 428.242L458.247 428.464C458.278 429.386 457.059 432.607 456.7 433.744C455.617 437.176 452.694 441.173 450.658 444.215L441.632 457.663C440.046 460.02 437.659 463.339 436.378 465.712L436.924 466.206L436.735 466.756C434.935 466.87 434.748 467.178 433.945 468.751L434.147 468.98C437.483 468.518 437.19 465.398 438.848 465.074L439.209 465.428C438.854 468.406 435.509 471.135 435.463 472.745C438.992 472.28 449.925 453.81 452.397 450.461C456.565 444.941 460.817 439.43 464.429 433.522C465.177 432.298 464.957 427.042 464.993 425.353C465.24 425.599 465.509 427.174 465.613 427.642C465.784 429.69 465.704 430.97 465.593 433.034C447.665 459.498 429.885 486.915 412.328 513.671L398.536 534.525C396.198 538.028 392.436 543.092 390.756 546.691C396.093 560.359 402.834 574.291 408.703 587.785C411.403 593.992 414.599 600.553 416.801 606.895L410.562 606.796C404.693 593.292 398.553 579.908 392.147 566.65C390.07 562.392 388.012 558.124 385.963 553.852C384.322 550.433 382.229 546.971 380.942 543.435C382.121 540.927 385.159 536.821 386.869 534.336L398.806 517.112L443.675 451.043C447.298 445.6 456.003 433.57 458.013 428.242Z"/><path fill="#022972" transform="scale(1.60326 1.6025)" d="M518.002 314.775C519.62 315.943 527.227 324.281 528.411 326.123C528.213 328.267 530.074 329.451 530.304 331.392C530.933 336.688 531.629 342.136 532.261 347.417C535.121 370.955 537.721 394.524 540.061 418.12C540.986 427.725 541.373 439.286 542.062 448.957C542.364 453.189 545.362 485.53 544.437 487.078C544.549 485.434 544.115 482.088 543.924 480.34C542.964 471.606 543.197 462.651 541.739 454.025C541.694 453.762 539.366 452.716 539.321 452.391C538.562 446.864 533.622 444.45 531.533 439.588C530.577 437.38 531.907 430.684 528.164 430.44L527.963 431.291L527.615 431.493L527.127 430.544L526.833 430.628C526.53 432.061 525.884 435.642 526.213 437.081C526.356 437.702 526.422 437.126 526.389 438.047L525.747 438.463L525.031 438.301C524.042 437.287 517.468 432.112 517.411 431.967C518.007 432.32 518.982 432.988 519.592 433.091C518.899 431.556 507.143 419.613 505.133 417.499L505.183 416.803C506.769 417.794 514.423 426.25 516.006 427.965C519.184 431.41 522.439 434.783 525.769 438.081C524.867 419.778 522.908 400.911 521.567 382.595C521.007 374.948 519.819 367.036 519.47 359.391C519.701 359.549 519.933 359.708 520.164 359.866C521.591 375.331 523.074 391.249 524.243 406.687C524.516 410.286 524.491 414.119 525.108 415.431L525.498 415.569C526.016 414.9 525.899 414.597 526.047 413.723C527.53 408.804 527.991 405.35 528.805 400.356C529.72 394.745 530.307 389.022 530.462 383.223C530.591 378.375 530.273 374.245 530.844 369.331C531.075 367.34 530.757 362.683 530.716 360.52C528.176 350.392 520.197 338.319 528.315 328.748C528.15 328.395 527.985 328.042 527.82 327.689C527.342 324.691 517.935 316.493 518.002 314.775Z"/><path fill="#38FBFE" transform="scale(1.60326 1.6025)" d="M502.798 319.703C504.419 321.768 506.74 325.232 508.297 327.46C511.434 331.946 516.196 337.183 517.184 342.584C518.174 347.991 518.623 353.886 519.47 359.391C519.819 367.036 521.007 374.948 521.567 382.595C522.908 400.911 524.867 419.778 525.769 438.081C522.439 434.783 519.184 431.41 516.006 427.965C514.423 426.25 506.769 417.794 505.183 416.803C501.97 412.511 497.711 409.14 494.393 404.91C496.855 406.2 499.206 407.736 501.668 409.046C506.682 411.696 511.83 414.083 517.093 416.196C516.184 410.966 515.638 402.179 515.076 396.682C512.473 371.239 511.013 344.161 502.798 319.703Z"/><path fill="#066BD5" transform="scale(1.60326 1.6025)" d="M396.355 330.724C397.103 330.18 396.527 329.113 396.179 328.24C391.579 316.69 385.94 305.524 380.891 294.159C380.059 292.286 380.883 290.8 381.197 288.914C381.308 288.254 382.046 288.029 382.508 287.873C383.204 289.073 386.167 296.755 387.017 298.636C391.727 309.051 395.674 320.01 400.323 330.463L400.842 330.344C402.771 333.842 402.47 345.457 402.531 349.954L402.787 372.904L402.879 401.877C402.882 407.127 403.053 413.855 402.76 418.991C400.936 420.756 399.063 422.469 397.142 424.128C397.169 423.316 396.622 422.542 396.374 421.49L396.715 421.138L397.505 422.187C398.856 422.183 400.133 420.942 400.337 419.629L399.825 419.306C398.259 419.251 397.19 420.652 394.589 421.336L394.17 421.444C394.895 420.705 396.114 419.677 396.916 418.954C397.22 415.109 397.012 408.985 396.987 404.97L396.896 380.921L396.865 349.352C396.83 343.941 396.916 335.951 396.355 330.724Z"/><path fill="#38FBFE" transform="scale(1.60326 1.6025)" d="M476.501 271.1C476.945 270.443 477.125 270.401 477.788 269.974C479.844 271.357 489.777 278.69 491.137 279.088C497.175 284.309 525.761 302.692 527.789 308.873C529.933 315.352 529.28 322.496 530.69 328.521L528.411 326.123C527.227 324.281 519.62 315.943 518.002 314.775C517.204 313.689 514.858 311.294 513.821 310.152C510.168 306.108 506.465 302.11 502.714 298.157C495.078 290.043 484.741 278.569 476.501 271.1Z"/><path fill="#022972" transform="scale(1.60326 1.6025)" d="M316.717 519.487C331.394 525.854 322.253 548.039 308.224 542.827C306.691 542.257 303.639 539.184 303.135 537.648C304.287 535.589 301.72 530.274 303.996 527.144C305.984 524.411 308.068 522.511 310.423 520.173C312.311 520.095 315.037 520.132 316.717 519.487Z"/><path fill="#011951" transform="scale(1.60326 1.6025)" d="M310.282 526.563C312.562 526.712 316.171 528.882 318.076 530.03C317.917 532.537 318.105 536.979 316.056 538.454C311.896 537.307 310.412 536.379 307.541 533.161C308.19 530.034 308.38 529.159 310.282 526.563Z"/><path fill="#0488E8" transform="scale(1.60326 1.6025)" d="M394.17 421.444L394.589 421.336C397.19 420.652 398.259 419.251 399.825 419.306L400.337 419.629C400.133 420.942 398.856 422.183 397.505 422.187L396.715 421.138L396.374 421.49C396.622 422.542 397.169 423.316 397.142 424.128C387.689 432.708 377.224 441.202 367.489 449.542C355.085 460.169 342.5 471.089 329.793 481.308C327.029 483.53 316.235 493.195 314.185 494.304C312.063 494.821 311.609 496.185 310.168 496.197C310.732 494.681 313.983 493.121 315.124 490.884C318.376 487.648 323.713 483.219 327.262 480.074L347.474 462.137C362.918 448.682 378.612 434.716 394.17 421.444Z"/><path fill="#022972" transform="scale(1.60326 1.6025)" d="M510.958 221.633L510.841 222.158L510.588 222.164C508.875 217.646 498.314 181.018 497.343 180.479L496.28 181.82C495.348 181.573 494.42 181.312 493.496 181.036C486.235 178.839 479 160.492 481.121 153.66C481.77 153.53 481.671 153.582 482.27 153.318C480.789 151.62 473.558 146.652 471.128 144.525L471.274 144.025C475.566 147.173 479.781 150.425 483.916 153.775C485.572 155.202 488.413 157.524 489.582 159.238C492.925 164.141 495.19 170.849 496.937 176.54C501.543 191.535 506.619 206.584 510.958 221.633Z"/><path fill="#011951" transform="scale(1.60326 1.6025)" d="M123.515 178.739C123.165 177.007 126.442 166.826 127.272 164.826L126.965 165.84C128.075 163.788 128.247 161.391 129.295 160.439C127.29 168.375 122.723 188.674 118.66 194.593C111.144 201.996 104.359 210.312 96.9013 217.776C94.5197 220.16 90.4353 225.759 88.0331 227.532C87.2911 227.037 87.3224 227.224 86.2107 227.262C86.2609 227.146 86.3111 227.029 86.3612 226.913C91.2681 221.3 96.2165 215.642 101.395 210.283C101.894 209.767 102.208 209.828 102.786 209.751L102.997 210.136L103.399 210.167C107.934 203.624 115.595 198.218 119.848 191.497C120.372 190.668 123.495 179.979 123.515 178.739Z"/><path fill="#011951" transform="scale(1.60326 1.6025)" d="M48.6653 271.331C48.7523 270.807 48.76 270.582 48.7752 270.049L48.3456 269.841L46.9801 270.627C47.3889 269.589 51.7971 264.723 52.7826 264.531L53.0274 264.891C53.6927 264.848 57.7759 260.071 58.5432 259.225L58.3913 258.978C57.8616 259.199 57.4754 259.483 57.0238 259.386C58.8688 257.061 61.3279 254.606 63.312 252.307C68.3571 246.46 73.9338 240.074 79.4443 234.68L79.9209 234.823C76.7338 239.087 69.526 244.977 66.4984 249.772C66.0933 250.414 66.333 250.583 66.579 251.312C64.7679 253.667 61.5297 256.972 59.4412 259.252C55.8155 263.248 52.2235 267.275 48.6653 271.331Z"/><path fill="#083FA0" transform="scale(1.60326 1.6025)" d="M307.641 509.506L307.67 509.868C307.849 512.271 307.423 517.734 308.436 519.361C309.497 519.174 309.848 517.943 310.105 516.981C310.176 517.5 310.157 518.325 310.516 518.457C312.724 519.267 314.113 518.755 316.717 519.487C315.037 520.132 312.311 520.095 310.423 520.173C308.068 522.511 305.984 524.411 303.996 527.144C301.72 530.274 304.287 535.589 303.135 537.648C298.871 530.291 302.75 525.308 307.47 519.948C307.362 516.763 307.267 512.651 307.641 509.506Z"/><path fill="#022972" transform="scale(1.60326 1.6025)" d="M491.137 279.088C493.524 278.955 509.713 291.979 512.44 294.084C512.721 294.302 513.002 292.932 514.114 293.512C514.245 294.238 514.257 293.965 514.005 294.671C514.971 296.662 524.448 303.03 526.577 305.316C527.873 306.709 530.701 305.553 531.098 309.707L530.488 309.698C529.449 308.853 529.046 308.672 527.789 308.873C525.761 302.692 497.175 284.309 491.137 279.088Z"/><path fill="#066BD5" transform="scale(1.60326 1.6025)" d="M307.641 509.506C307.635 507.457 307.726 505.704 307.855 503.655C308.985 504.23 309.254 504.144 310.573 504.151C310.489 507.572 310.49 513.804 310.105 516.981C309.848 517.943 309.497 519.174 308.436 519.361C307.423 517.734 307.849 512.271 307.67 509.868L307.641 509.506Z"/><path fill="#066BD5" transform="scale(1.60326 1.6025)" d="M308.295 496.653C309.866 494.869 313.148 492.388 315.124 490.884C313.983 493.121 310.732 494.681 310.168 496.197C311.609 496.185 312.063 494.821 314.185 494.304C310.158 498.044 310.637 498.749 310.573 504.151C309.254 504.144 308.985 504.23 307.855 503.655C307.939 501.155 308.035 499.14 308.295 496.653Z"/><path fill="#011951" transform="scale(1.60326 1.6025)" d="M106.714 221.488C106.748 222.551 106.708 222.256 106.076 223.332C107.6 222.245 108.431 220.446 109.919 219.781L110.077 220.174C109.085 222.203 105.69 225.224 103.782 226.509C102.428 227.421 102.447 226.914 100.935 228.319L100.403 228.364C100.762 227.545 105.796 222.188 106.714 221.488Z"/><path fill="#00072E" transform="scale(1.60326 1.6025)" d="M188.961 519.139C189.512 520.181 188.836 530.274 187.924 531.58C187.361 530.663 187.55 530.676 187.488 529.436C187.633 526.756 188.231 521.51 188.961 519.139Z"/><path fill="#01A3EA" transform="scale(1.60326 1.6025)" d="M322.02 184.222C324.07 185.751 330.451 191.639 331.944 193.7C329.313 193.292 328.22 189.737 325.617 188.11L324.922 188.504C323.819 187.458 322.768 185.575 322.02 184.222Z"/><path fill="#01C4F4" transform="scale(1.60326 1.6025)" d="M471.303 265.881C473.393 266.933 476.052 268.397 477.788 269.974C477.125 270.401 476.945 270.443 476.501 271.1C474.582 269.557 472.838 267.807 471.303 265.881Z"/><path fill="#38FBFE" transform="scale(1.60326 1.6025)" d="M214.244 169.03C216.707 168.441 219.404 167.239 221.674 166.122C216.079 173.427 210.599 185.203 205.969 193.407C204.5 196.01 199.71 204.425 198.742 206.841L199.056 207.531C198.893 207.86 198.694 208.26 198.459 208.733C196.518 209.793 194.389 210.729 192.61 212.012L193.964 211.537C188.114 215.47 178.409 218.953 171.836 221.829C168.306 223.373 149.214 233 147.138 232.831C148.865 231.614 152.493 230.018 154.517 229.036C152.445 228.615 145.015 234.427 142.868 233.502C140.854 234.361 139.584 235.109 137.68 236.222L137.229 236.053C138.455 234.062 141.175 229.999 142.072 228.063C142.945 223.595 148.785 215.207 151.268 210.935C153.034 207.895 155.018 203.749 154.216 200.097C153.841 198.389 148.495 192.063 147.347 187.568C146.737 185.179 146.134 181.651 147.552 179.481C148.226 178.451 149.324 177.87 150.518 177.663C154.625 176.947 158.831 179.713 162.042 181.969C162.849 182.536 163.179 182.895 163.341 183.866C162.879 184.59 162.762 184.662 162.611 185.52L162.986 186.001C163.731 185.99 164.475 185.997 165.219 186.023L165.51 186.417L165.335 187.502L166.018 187.623C168.578 186.42 174.43 184.632 176.23 183.17C176.566 178.85 177.939 175.387 182.653 174.641L183.037 174.583C183.552 173.962 183.755 173.75 184.348 173.203C185.935 173.197 186.75 172.852 188.144 172.413C190.602 171.639 197.942 171.032 200.07 172.122L200.141 172.641L199.036 174.045L199.09 174.333C202.412 172.751 210.845 168.886 214.244 169.03Z"/><path fill="#022972" transform="scale(1.60326 1.6025)" d="M142.072 228.063C142.945 223.595 148.785 215.207 151.268 210.935C153.034 207.895 155.018 203.749 154.216 200.097C153.841 198.389 148.495 192.063 147.347 187.568C146.737 185.179 146.134 181.651 147.552 179.481C148.226 178.451 149.324 177.87 150.518 177.663C154.625 176.947 158.831 179.713 162.042 181.969C162.849 182.536 163.179 182.895 163.341 183.866C162.879 184.59 162.762 184.662 162.611 185.52L162.986 186.001C163.731 185.99 164.475 185.997 165.219 186.023L165.51 186.417L165.335 187.502L166.018 187.623C168.578 186.42 174.43 184.632 176.23 183.17C176.566 178.85 177.939 175.387 182.653 174.641L183.037 174.583C183.552 173.962 183.755 173.75 184.348 173.203C185.935 173.197 186.75 172.852 188.144 172.413C190.602 171.639 197.942 171.032 200.07 172.122L200.141 172.641L199.036 174.045L199.09 174.333C202.412 172.751 210.845 168.886 214.244 169.03C206.743 171.94 167.282 186.892 164.375 190.008C161.856 192.707 159.872 197.228 158.025 200.457C152.776 209.637 147.865 219.217 142.072 228.063Z"/><path fill="#011951" transform="scale(1.60326 1.6025)" d="M142.868 233.502C144.31 231.845 170.427 221.035 173.957 218.994C179.649 215.702 194.21 211.897 198.742 206.841L199.056 207.531C198.893 207.86 198.694 208.26 198.459 208.733C196.518 209.793 194.389 210.729 192.61 212.012L193.964 211.537C188.114 215.47 178.409 218.953 171.836 221.829C168.306 223.373 149.214 233 147.138 232.831C148.865 231.614 152.493 230.018 154.517 229.036C152.445 228.615 145.015 234.427 142.868 233.502Z"/><path fill="#022972" transform="scale(1.60326 1.6025)" d="M337.927 179.014C347.626 181.078 360.365 189.541 368.454 194.968C379.896 202.645 381.251 208.521 385.061 221.057C386.035 224.261 387.94 229.826 388.524 232.892L388.26 232.924C387.908 231.765 387.411 229.789 386.785 228.845C386.276 228.838 385.768 228.808 385.259 228.801C383.264 228.773 370.605 221.097 367.754 219.496C367.086 218.94 355.435 214.458 354.863 214.446C353.69 214.903 354.17 214.558 353.362 215.515C353.054 218.025 354.566 217.987 355.753 220.407L355.532 220.591C353.115 217.813 349.391 211.665 346.37 207.872C344.114 205.002 341.771 202.201 339.345 199.474C337.682 197.622 334.601 194.563 333.366 192.611C337.033 195.69 338.808 198.675 342.401 201.967C343.041 201.209 342.902 201.621 342.991 200.76C342.813 200.502 342.637 200.244 342.478 199.974C342.151 199.422 340.961 182.975 341.3 181.744C341.407 181.355 341.497 181.233 341.4 180.814C341.341 180.556 338.6 179.398 338.182 179.161L337.927 179.014Z"/><path fill="#0488E8" transform="scale(1.60326 1.6025)" d="M357.414 286.858C358.368 291.863 358.568 307.282 358.586 312.9C358.632 327.686 359.022 342.856 358.863 357.611C358.766 359.518 358.672 360.888 358.826 362.795C358.674 368.635 358.425 374.472 358.078 380.304C357.893 383.903 357.902 387.66 357.261 391.206C357.237 391.335 357.223 391.467 357.197 391.596C356.442 395.396 295.447 448.352 287.428 455.494L274.755 466.87C274.036 467.518 270.046 471.195 269.541 471.516C266.727 471.917 265.154 475.947 262.477 477.063C261.179 476.944 261.656 477.069 260.52 476.209C260.699 474.935 266.853 470.311 268.282 467.728C286.776 449.679 308.646 430.574 327.981 413.175L341.439 400.998C344.364 398.368 350.828 393.03 352.721 390.111C353.243 384.082 353.166 378.243 353.599 372.388C354.929 354.386 354.485 336.626 355.505 318.627C356.078 308.516 355.672 296.786 357.414 286.858Z"/><path fill="#38FBFE" transform="scale(1.60326 1.6025)" d="M454.021 162.131C453.218 159.31 448.409 157.529 447.022 155.238C446.919 153.47 446.647 151.305 448.666 150.795C450.92 151.234 455.746 155.82 458.022 157.678L458.738 157.596C462.122 160.215 466.61 164.602 469.848 167.608L470.223 166.885C469.421 164.527 465.998 162.658 466.322 161.97C468.822 162.818 480.071 175.898 479.382 179.136L479.277 178.939C478.415 177.352 477.779 176.235 476.696 174.782C476.553 176.371 482.834 186.963 481.83 189.87C484.137 197.088 486.867 203.958 489.276 211.069C494.248 225.748 499.527 240.818 503.925 255.696C503.925 256.798 504.114 258.845 503.525 259.615C502.531 259.375 502.075 258.711 501.232 257.943C496.91 251.91 492.961 240.461 490.387 233.336L479.156 202.007C477.227 196.562 475.101 189.65 472.837 184.487C471.674 183.753 467.471 174.556 465.651 174.016C460.379 172.451 458.116 167.946 453.948 164.5C450.76 161.864 446.707 159.265 443.918 156.304C443.952 155.314 444.061 155.484 444.718 154.505C447.675 156.983 450.96 159.855 454.021 162.131Z"/><path fill="#011951" transform="scale(1.60326 1.6025)" d="M444.718 154.505C447.675 156.983 450.96 159.855 454.021 162.131C461.524 169.08 469.505 174.896 472.837 184.487C471.674 183.753 467.471 174.556 465.651 174.016C460.379 172.451 458.116 167.946 453.948 164.5C450.76 161.864 446.707 159.265 443.918 156.304C443.952 155.314 444.061 155.484 444.718 154.505Z"/><path fill="#011951" transform="scale(1.60326 1.6025)" d="M469.848 167.608L470.223 166.885C469.421 164.527 465.998 162.658 466.322 161.97C468.822 162.818 480.071 175.898 479.382 179.136L479.277 178.939C478.415 177.352 477.779 176.235 476.696 174.782C476.553 176.371 482.834 186.963 481.83 189.87C478.285 180.417 476.925 174.959 469.848 167.608Z"/><path fill="#06E5F9" transform="scale(1.60326 1.6025)" d="M347.91 89.6357C383.375 107.31 420.535 125.573 451.16 151.076C452.616 152.288 458.095 156.481 458.738 157.596L458.022 157.678C455.746 155.82 450.92 151.234 448.666 150.795C446.647 151.305 446.919 153.47 447.022 155.238C448.409 157.529 453.218 159.31 454.021 162.131C450.96 159.855 447.675 156.983 444.718 154.505C428.481 140.152 404.364 125.689 385.907 114.517C375.768 108.38 364.1 101.05 353.898 95.2299C352.023 92.4719 348.67 92.0748 347.529 90.4064L347.91 89.6357Z"/><path fill="#083FA0" transform="scale(1.60326 1.6025)" d="M256.915 477.931C260.758 474.971 264.018 470.77 268.282 467.728C266.853 470.311 260.699 474.935 260.52 476.209C261.656 477.069 261.179 476.944 262.477 477.063C265.154 475.947 266.727 471.917 269.541 471.516C268.557 472.9 261.492 479.263 259.797 480.817C261.951 483.796 262.987 485.927 262.704 489.792C262.17 497.101 257.261 503.142 249.259 502.067C245.86 501.576 242.799 499.743 240.763 496.978C235.486 489.888 239.432 479.882 247.819 477.712C251.302 476.81 253.506 477.349 256.915 477.931Z"/><path fill="#011951" transform="scale(1.60326 1.6025)" d="M253.137 484.019C254.261 484.064 255.568 484.948 256.338 485.725C258.656 488.064 257.385 492.063 255.28 494.035C253.104 496.075 251.92 496.176 249.234 496.203C247.322 495.544 244.629 493.679 244.468 491.609C244.051 486.211 249.202 484.556 253.137 484.019Z"/><path fill="#0488E8" transform="scale(1.60326 1.6025)" d="M375.414 411.076C377.013 409.891 378.407 408.701 380.286 408.058C380.075 409.117 379.832 409.94 379.003 410.677C355.382 431.676 331.378 452.282 307.591 473.099C301.17 478.718 294.507 483.879 288.246 489.668C286.61 491.181 283.075 493.966 281.763 495.478C280.901 499.208 281.115 504.025 281.123 507.931C280.721 511.604 280.873 516.446 280.782 520.271L280.537 520.457C280.45 520.875 280.377 521.177 280.258 521.587C279.204 521.783 279.049 521.814 278.185 522.437L277.693 513.429C277.755 507.275 278.015 501.124 278.474 494.987C280.023 493.138 283.568 490.134 285.469 488.418L301.3 474.303C318.228 458.863 335.563 443.876 353.287 429.357C360.813 423.089 367.645 417.094 375.414 411.076Z"/><path fill="#022972" transform="scale(1.60326 1.6025)" d="M305.955 182.703L306.217 182.703C306.199 183.549 305.896 184.237 305.518 184.988C300.966 194.037 276.717 206.798 267.948 213.567C259.273 220.264 251.95 229.349 244.213 237.111C240.08 241.258 235.767 245.56 231.218 249.249C221.376 257.23 206.028 266.521 194.28 271.376C189.835 273.213 185.238 274.456 180.678 275.938C178.492 276.648 176.409 277.629 174.218 278.33C173.99 278.412 174.142 278.381 173.755 278.289C175.579 277.253 177.533 276.896 179.321 275.928C184.288 273.239 189.536 270.916 194.487 268.202C205.783 262.01 217.189 254.69 227.798 247.356C237.465 240.673 245.782 231.964 254.562 224.146C258.232 220.878 261.657 216.908 265.555 213.522C272.372 207.187 280.648 202.397 287.842 196.627C293.954 191.724 299.63 187.315 305.955 182.703Z"/><path fill="#022972" transform="scale(1.60326 1.6025)" d="M281.123 507.931C281.667 519.789 280.73 533.352 281.002 545.329C281.139 551.346 280.317 558.852 281.67 564.665C282.973 566.736 283.655 568.642 284.243 571.005C281.743 573.593 278.211 577.568 275.644 579.784C275.823 577.7 275.903 577.056 275.629 574.997C275.023 572.855 272.976 571.746 273.042 569.737C273.137 566.904 276.167 565.595 276.479 562.453C277.324 553.945 276.048 542.56 277.076 534.368C277.146 529.066 277.105 518.32 277.693 513.429L278.185 522.437C279.049 521.814 279.204 521.783 280.258 521.587C280.377 521.177 280.45 520.875 280.537 520.457L280.782 520.271C280.873 516.446 280.721 511.604 281.123 507.931Z"/><path fill="#011951" transform="scale(1.60326 1.6025)" d="M281.67 564.665C282.973 566.736 283.655 568.642 284.243 571.005C281.743 573.593 278.211 577.568 275.644 579.784C275.823 577.7 275.903 577.056 275.629 574.997C278.048 573.874 278.659 566.948 280.899 566.052L281.526 566.459C281.583 565.862 281.631 565.263 281.67 564.665Z"/><path fill="#066BD5" transform="scale(1.60326 1.6025)" d="M277.076 534.368C277.146 529.066 277.105 518.32 277.693 513.429L278.185 522.437C279.049 521.814 279.204 521.783 280.258 521.587C280.377 521.177 280.45 520.875 280.537 520.457L280.782 520.271C281.095 525.684 280.729 534.102 280.617 539.764C280.572 538.197 280.51 536.627 280.525 535.059C279.325 534.6 278.931 534.211 277.833 534.452C277.207 535.343 277.441 538.137 277.455 539.358C277.167 539.082 277.154 535.171 277.076 534.368Z"/><defs><linearGradient id="gradient_6" gradientUnits="userSpaceOnUse" x1="227.05759" y1="118.70131" x2="231.71497" y2="130.6469"><stop offset="0" stop-color="#004EB7"/><stop offset="1" stop-color="#002F7C"/></linearGradient></defs><path fill="url(#gradient_6)" transform="scale(1.60326 1.6025)" d="M259.973 116.464L260.301 117.009C259.926 118.146 253.809 123.013 252.464 123.367C242.497 125.99 231.6 127.533 221.418 128.979C213.711 130.074 206.253 131.339 198.554 131.903C197.928 131.345 198.106 130.83 198.2 130.133C198.835 129.257 199.497 128.733 200.607 128.528C220.59 124.849 240.396 122.022 259.973 116.464Z"/><path fill="#011951" transform="scale(1.60326 1.6025)" d="M375.215 369.76C376.789 369.922 378.366 370.06 379.945 370.175L379.994 396.665C380.01 398.965 379.926 406.09 380.286 408.058C378.407 408.701 377.013 409.891 375.414 411.076C375.235 410.863 374.15 409.55 374.151 409.476C374.276 399.281 374.945 379.066 375.215 369.76Z"/><defs><linearGradient id="gradient_7" gradientUnits="userSpaceOnUse" x1="374.94583" y1="483.04681" x2="379.90015" y2="487.22888"><stop offset="0" stop-color="#128FDE" stop-opacity="0.98823529"/><stop offset="1" stop-color="#21B9F0"/></linearGradient></defs><path fill="url(#gradient_7)" transform="scale(1.60326 1.6025)" d="M402.495 450.25C403.07 450.755 402.997 450.591 403.363 451.217C392.209 466.704 380.943 482.111 369.567 497.437C364.791 503.841 360.011 510.227 355.093 516.523C354.474 517.316 354.044 518.449 353.779 519.415C352.459 520.043 352.067 520.281 350.776 519.517C351.981 517.162 354.721 513.947 356.393 511.75L366.053 498.844L402.495 450.25Z"/><path fill="#066BD5" transform="scale(1.60326 1.6025)" d="M358.863 357.611C366.021 359.679 373.321 360.662 380.263 362.583C380.217 364.536 380.152 366.489 380.069 368.441C375.915 367.647 362.826 364.238 358.826 362.795C358.672 360.888 358.766 359.518 358.863 357.611Z"/><path fill="#011951" transform="scale(1.60326 1.6025)" d="M349.656 467.389C350.914 467.001 350.445 466.955 351.567 467.341C354.549 470.187 352.348 476.637 349.603 479.204C347.95 481.421 343.715 483.572 341.298 481.266C340.72 480.721 340.396 479.958 340.406 479.163C340.44 475.813 347.145 469.761 349.656 467.389Z"/><path fill="#083FA0" transform="scale(1.60326 1.6025)" d="M349.656 467.389C350.914 467.001 350.445 466.955 351.567 467.341C354.549 470.187 352.348 476.637 349.603 479.204L349.391 478.801C349.353 477.774 350.13 476.534 350.618 475.56C350.491 473.373 349.912 469.689 349.656 467.389Z"/><defs><linearGradient id="gradient_8" gradientUnits="userSpaceOnUse" x1="356.33334" y1="543.44611" x2="347.05173" y2="565.95758"><stop offset="0" stop-color="#1A67E7"/><stop offset="1" stop-color="#01206D"/></linearGradient></defs><path fill="url(#gradient_8)" transform="scale(1.60326 1.6025)" d="M350.46 539.678C351.035 540.693 351.184 541.267 352.137 541.784C352.94 541.222 352.755 541.582 352.977 540.822L353.461 540.629C353.582 552.205 353.317 564.075 352.859 575.656C352.837 576.233 352.268 577.068 351.939 577.525C350.948 577.454 349.077 576.736 348.058 576.39C349.104 575.717 350.585 576 351.91 576.072L352.379 575.625C352.773 573.867 352.624 570.733 352.606 568.831C351.41 567.927 350.949 567.507 349.555 566.893C348.876 568.71 345.276 577.766 344.119 578.308C343.695 576.894 347.934 571.228 348.597 567.594C350.243 558.581 350.203 548.799 350.46 539.678Z"/><path fill="#01A3EA" transform="scale(1.60326 1.6025)" d="M127.597 245.036C128.364 245.549 128.192 245.231 128.495 245.919C120.385 253.753 112.216 261.715 104.169 269.606C101.889 271.842 96.8935 276.727 94.9598 279.017L93.7215 278.508C100.492 270.655 107.528 262.944 115.27 256.042C119.382 252.377 123.493 248.711 127.597 245.036Z"/><path fill="#022972" transform="scale(1.60326 1.6025)" d="M250.115 512.857C251.277 518.701 250.918 530.45 251.027 536.954C251.266 551.251 251.517 565.407 251.025 579.7C251.095 579.804 250.61 550.435 250.569 548.127L250.53 547.082C250.018 546.738 249.985 546.682 249.679 546.166L249.423 545.727C249.479 545.93 249.588 546.282 249.551 546.45C248.968 549.058 247.932 574.835 247.809 574.958C247.561 573.48 247.724 569.708 247.826 568.139C249.018 549.727 249.33 531.271 250.115 512.857Z"/><path fill="#066BD5" transform="scale(1.60326 1.6025)" d="M350.776 519.517C352.067 520.281 352.459 520.043 353.779 519.415C353.503 526.328 353.808 533.894 353.461 540.629L352.977 540.822C352.755 541.582 352.94 541.222 352.137 541.784C351.184 541.267 351.035 540.693 350.46 539.678C350.345 534.171 350.494 525.001 350.776 519.517Z"/><path fill="#066BD5" transform="scale(1.60326 1.6025)" d="M402.495 450.25C406.124 445.027 412.516 435.974 416.642 431.482L416.76 431.686C415.663 434.085 404.931 449.872 403.363 451.217C402.997 450.591 403.07 450.755 402.495 450.25Z"/><path fill="#06E5F9" transform="scale(1.60326 1.6025)" d="M503.925 255.696C505.525 259.926 507.46 266.402 508.523 270.743C507.382 269.331 502.322 260.161 501.232 257.943C502.075 258.711 502.531 259.375 503.525 259.615C504.114 258.845 503.925 256.798 503.925 255.696Z"/><path fill="#01A3EA" transform="scale(1.60326 1.6025)" d="M353.898 95.2299C351.685 94.0614 339.715 86.794 338.301 85.431L338.33 85.0401C339.334 84.9419 346.594 88.8627 347.91 89.6357L347.529 90.4064C348.67 92.0748 352.023 92.4719 353.898 95.2299Z"/><path fill="#00072E" transform="scale(1.60326 1.6025)" d="M348.058 576.39C349.077 576.736 350.948 577.454 351.939 577.525C350.472 579.037 349.178 579.522 347.651 580.717C347.079 581.165 345.203 584.115 344.699 584.888C345.15 583.051 345.664 582.737 346.282 581.239C347.13 579.179 346.583 578.48 348.058 576.39Z"/><path fill="#083FA0" transform="scale(1.60326 1.6025)" d="M93.7215 278.508L94.9598 279.017C93.3816 281.061 90.4736 283.966 88.6207 285.719C89.3167 283.773 92.3035 280.097 93.7215 278.508Z"/><path fill="#011951" transform="scale(1.60326 1.6025)" d="M132.454 240.689C132.779 239.077 135.663 236.592 137.229 236.053L137.68 236.222C137.176 237.626 133.897 240.42 132.644 241.642L132.454 240.689Z"/><path fill="#066BD5" transform="scale(1.60326 1.6025)" d="M132.454 240.689L132.644 241.642C131.256 243.012 129.851 244.634 128.495 245.919C128.192 245.231 128.364 245.549 127.597 245.036C128.872 243.6 130.93 242.251 132.454 240.689Z"/><path fill="#022972" transform="scale(1.60326 1.6025)" d="M252.362 313.717C253.596 313.291 253.766 312.982 254.769 313.272C254.984 315.939 237.483 337.173 234.864 340.898C233.969 342.172 231.207 345.255 230.717 346.677L231.066 346.781C230.728 348.718 225.085 354.617 223.56 356.534C221.032 359.712 201.103 384.605 201.114 385.474C203.731 384.663 206.498 382.518 208.495 380.737C210.385 379.052 214.991 376.279 216.554 374.406C220.688 369.45 222.86 365.752 227.977 361.499C229.909 358.828 237.04 357.137 238.782 355.441C243.174 351.164 243.924 350.788 250.249 350.306C253.119 350.087 253.959 352.013 256.716 352.683C258.75 353.177 260.443 349.849 261.927 348.736C267.101 343.779 270.292 339.032 276.479 335.161C272.654 339.6 266.879 345.222 262.684 349.464C256.198 356.01 249.807 362.649 243.515 369.381C217.837 396.959 192.534 424.884 167.614 453.148C154.955 467.399 142.203 481.568 129.359 495.652C128.198 496.932 119.772 506.534 118.866 507.062C118.279 507.997 117.559 509.065 117.094 510.05C119.109 515.824 122.672 523.587 125.124 529.335L139.965 563.783C142.066 568.592 147.022 579.31 148.389 583.726C149.677 585.916 155.471 599.305 156.205 601.566L159.062 607.738C161.7 607.737 165.472 607.622 168.021 607.84L168.254 608.287C167.518 608.935 166.365 608.662 165.195 609.039C160.291 609.242 154.273 608.874 149.281 608.724C148.613 608.805 146.927 608.744 146.177 608.739C142.196 608.705 138.017 608.732 134.063 608.489C137.23 608.352 140.386 608.451 143.554 608.509C133.948 588.889 126.034 568.956 117.369 549.029L107.197 525.506C104.636 519.662 101.281 512.462 99.3518 506.489C100.684 503.574 105.233 498.585 107.433 495.9L126.264 473.17C157.079 435.993 187.406 398.416 217.238 360.447C224.083 351.82 230.874 343.151 237.611 334.44C241.507 329.441 249.942 319.158 252.362 313.717Z"/><path transform="scale(1.60326 1.6025)" d="M252.362 313.717C253.596 313.291 253.766 312.982 254.769 313.272C254.984 315.939 237.483 337.173 234.864 340.898C233.969 342.172 231.207 345.255 230.717 346.677C201.965 383.268 172.841 419.566 143.351 455.566C135.213 465.446 126.936 475.26 118.924 485.263C114.187 491.176 105.413 500.246 101.745 506.451C102.974 511.003 106.367 518.239 108.341 522.74L119.056 547.184C126.455 564.112 133.434 581.339 140.835 598.275C142.287 601.597 143.782 605.615 146.377 608.127C146.328 608.306 146.269 608.604 146.177 608.739C142.196 608.705 138.017 608.732 134.063 608.489C137.23 608.352 140.386 608.451 143.554 608.509C133.948 588.889 126.034 568.956 117.369 549.029L107.197 525.506C104.636 519.662 101.281 512.462 99.3518 506.489C100.684 503.574 105.233 498.585 107.433 495.9L126.264 473.17C157.079 435.993 187.406 398.416 217.238 360.447C224.083 351.82 230.874 343.151 237.611 334.44C241.507 329.441 249.942 319.158 252.362 313.717Z"/><path fill="#00072E" transform="scale(1.60326 1.6025)" d="M148.389 583.726C146.949 583.715 143.672 571.893 141.623 570.282C141.341 570.508 141.326 570.631 141.187 570.955C136.162 559.337 131.308 547.638 126.327 536.01C122.673 527.478 118.256 518.846 115.872 509.921C115.612 508.946 116.942 506.225 118.866 507.062C118.279 507.997 117.559 509.065 117.094 510.05C119.109 515.824 122.672 523.587 125.124 529.335L139.965 563.783C142.066 568.592 147.022 579.31 148.389 583.726Z"/><path transform="scale(1.60326 1.6025)" d="M156.205 601.566L159.062 607.738C161.7 607.737 165.472 607.622 168.021 607.84L168.254 608.287C167.518 608.935 166.365 608.662 165.195 609.039C160.291 609.242 154.273 608.874 149.281 608.724C151.396 607.916 151.869 608.384 153.886 608.237C155.945 608.087 156.61 603.542 155.814 602.008L156.205 601.566Z"/><path fill="#38FBFE" fill-opacity="0.98823529" transform="scale(1.60326 1.6025)" d="M281.125 330.664C284.066 329.686 285.089 327.189 287.4 325.509C289.045 324.314 292.134 326.076 293.73 326.778C294.724 327.216 295.958 326.751 296.903 327.549C295.788 330.759 292.826 331.012 291.493 334.699C284.91 341.461 278.461 348.353 272.149 355.37C269.592 358.164 265.265 362.594 263.016 365.413C259.677 368.402 253.328 375.694 250.099 379.272L225.621 406.644C200.387 435.374 174.91 463.889 149.192 492.186C143.09 498.875 136.717 506.327 130.555 512.828C140.872 538.193 150.963 563.649 160.828 589.193C161.917 591.973 167.928 606.284 168.021 607.84C165.472 607.622 161.7 607.737 159.062 607.738L156.205 601.566C155.471 599.305 149.677 585.916 148.389 583.726C147.022 579.31 142.066 568.592 139.965 563.783L125.124 529.335C122.672 523.587 119.109 515.824 117.094 510.05C117.559 509.065 118.279 507.997 118.866 507.062C119.772 506.534 128.198 496.932 129.359 495.652C142.203 481.568 154.955 467.399 167.614 453.148C192.534 424.884 217.837 396.959 243.515 369.381C249.807 362.649 256.198 356.01 262.684 349.464C266.879 345.222 272.654 339.6 276.479 335.161C277.097 334.729 280.136 331.579 281.125 330.664Z"/><defs><linearGradient id="gradient_9" gradientUnits="userSpaceOnUse" x1="338.16702" y1="316" x2="303.11142" y2="194.26506"><stop offset="0" stop-color="#008DEF"/><stop offset="1" stop-color="aqua" stop-opacity="0.98823529"/></linearGradient></defs><path fill="url(#gradient_9)" transform="scale(1.60326 1.6025)" d="M324.922 188.504L325.617 188.11C328.22 189.737 329.313 193.292 331.944 193.7C337.325 198.96 349.644 213.468 353.179 220.029C357.182 227.458 362.835 240.628 366.264 248.521L386.541 295.705L396.438 319.491C397.278 321.519 400.37 328.592 400.842 330.344L400.323 330.463C395.674 320.01 391.727 309.051 387.017 298.636C386.167 296.755 383.204 289.073 382.508 287.873C382.046 288.029 381.308 288.254 381.197 288.914C380.883 290.8 380.059 292.286 380.891 294.159C385.94 305.524 391.579 316.69 396.179 328.24C396.527 329.113 397.103 330.18 396.355 330.724C394.255 324.044 389.147 313.474 386.086 306.752C377.921 288.925 369.393 271.266 360.509 253.786C358.478 249.794 356.405 245.823 354.289 241.875C352.16 237.94 349.307 233.609 348.192 229.439C343.101 248.018 336.792 265.317 329.967 283.307C327.483 289.854 325.013 298.451 321.814 304.589C321.008 306.135 315.563 311.2 313.915 312.793L302.176 324.181C299.967 326.335 293.446 333.103 291.493 334.699C292.826 331.012 295.788 330.759 296.903 327.549C295.958 326.751 294.724 327.216 293.73 326.778C292.134 326.076 289.045 324.314 287.4 325.509C285.089 327.189 284.066 329.686 281.125 330.664C282.37 328.98 286.436 325.087 288.056 323.482L301.435 310.148C304.212 307.368 307.265 304.613 309.665 301.499C312.764 297.477 342.476 228.215 343.354 222.585C343.995 218.476 334.258 201.976 331.662 197.955C329.569 194.712 327.208 191.614 324.922 188.504Z"/><defs><linearGradient id="gradient_10" gradientUnits="userSpaceOnUse" x1="196.924" y1="604.95538" x2="127.63855" y2="626.62177"><stop offset="0" stop-color="#00C2FE"/><stop offset="1" stop-color="aqua" stop-opacity="0.98823529"/></linearGradient></defs><path fill="url(#gradient_10)" transform="scale(1.60326 1.6025)" d="M129.258 608.362L134.063 608.489C138.017 608.732 142.196 608.705 146.177 608.739C146.927 608.744 148.613 608.805 149.281 608.724C154.273 608.874 160.291 609.242 165.195 609.039C178.414 608.991 191.602 609.287 204.833 609.159C203.122 609.826 201.359 609.81 199.551 609.935C198.897 609.98 198.435 609.639 197.875 609.77C198.739 611.459 199.316 612.804 199.772 614.637C200.23 616.472 199.453 618.563 200.506 620.082C200.648 620.305 200.79 620.528 200.933 620.75C203.381 620.735 206.56 620.67 208.895 621.545C199.249 622.084 184.482 621.632 174.275 621.622L138.313 621.53C135.84 621.52 126.018 621.903 124.432 621.219L124.313 620.296C125.813 617.366 128.052 611.553 129.258 608.362Z"/><path transform="scale(1.60326 1.6025)" d="M484.254 151.839C494.165 159.915 494.338 162.446 498.292 174.591C500.27 180.654 502.21 186.728 504.114 192.813C513.219 221.042 521.361 249.573 528.527 278.355C530.559 286.493 532.431 294.67 534.143 302.882C534.982 306.922 536.112 313.62 537.175 317.439C533.23 314.529 531.755 314.153 528.669 310.329C529.873 316.082 530.621 322.477 531.431 328.344L534.817 353.266C536.31 365.099 537.694 376.945 538.97 388.803C542.16 417.01 544.042 445.145 545.796 473.467C546.019 477.064 547.868 487.664 546.999 490.49C545.203 490.825 534.732 481.483 532.509 479.568L513.647 463.292C508.324 458.731 495.946 449.15 491.58 444.289C492.393 442.882 492.29 443.599 491.89 441.816C495.691 446.962 508.773 456.538 514.194 461.255C523.754 469.572 534.482 479.385 544.437 487.078C545.362 485.53 542.364 453.189 542.062 448.957C541.373 439.286 540.986 427.725 540.061 418.12C537.721 394.524 535.121 370.955 532.261 347.417C531.629 342.136 530.933 336.688 530.304 331.392C530.074 329.451 528.213 328.267 528.411 326.123L530.69 328.521C529.28 322.496 529.933 315.352 527.789 308.873C529.046 308.672 529.449 308.853 530.488 309.698C530.78 310.474 531.253 310.751 531.979 310.861C533.461 309.628 532.54 304.322 532.158 302.66C527.923 284.263 523.794 265.741 518.554 247.601C516.167 239.338 514.063 229.637 510.958 221.633C506.619 206.584 501.543 191.535 496.937 176.54C495.19 170.849 492.925 164.141 489.582 159.238C488.413 157.524 485.572 155.202 483.916 153.775L484.254 151.839Z"/><path transform="scale(1.60326 1.6025)" d="M422.865 549.541L423.093 549.11C427.163 541.425 432.327 533.916 436.891 526.539L466.776 479.221L482.174 455.481C483.932 452.738 489.524 442.55 491.89 441.816C492.29 443.599 492.393 442.882 491.58 444.289C487.829 449.232 482.047 459.067 478.312 464.776C465.764 484.078 453.442 503.526 441.35 523.115C438.094 528.37 434.868 533.643 431.672 538.935C429.356 542.768 427.392 546.331 424.619 549.876C429.994 561.251 434.939 574.421 439.932 586.058C442.411 591.836 447.615 602.866 449.282 608.401C452.669 608.515 455.693 608.573 459.079 608.512C462.576 617.83 467.732 629.715 471.812 639L469.587 639C468.193 635.425 463.525 625.154 462.817 622.426L463.66 622.096L463.581 621.548C462.155 617.959 459.455 612.051 458.606 608.669C454.721 608.773 450.774 608.77 446.867 608.859C444.896 602.041 442.923 598.579 440.286 592.142C436.697 583.38 433.216 574.784 429.442 566.082C427.365 561.294 424.048 554.365 422.865 549.541Z"/><path transform="scale(1.60326 1.6025)" d="M136.31 344.967C137.104 344.803 138.001 344.589 138.794 344.512C132.508 352.055 125.163 358.817 118.447 365.973C113.835 370.887 109.381 375.933 104.641 380.729C103.085 382.305 101.451 384.184 99.6909 385.516C98.8552 386.149 97.5515 386.47 96.5227 386.566C91.6448 387.022 35.3311 367.922 28.2236 365.023C26.215 364.204 24.2297 363.248 22.5482 361.858L25.4186 361.598C31.1139 364.786 89.6648 384.271 96.0761 384.333C97.5352 384.348 98.2283 383.93 99.3488 383.048C102.997 380.177 106.04 376.377 109.262 373.051C118.309 363.708 126.892 353.948 136.31 344.967Z"/><path transform="scale(1.60326 1.6025)" d="M136.31 344.967C142.121 338.795 142.817 336.153 151.658 333.977C159.158 332.131 166.825 330.68 174.31 328.876C191.554 324.667 208.84 320.629 226.164 316.761C229.691 315.976 250.789 310.42 252.696 311.815L252.355 312.397C248.083 313.956 236.389 316.192 231.155 317.479C209.571 322.656 187.955 327.697 166.308 332.604C160.117 334.061 151.927 335.289 146.134 337.568C144.274 338.301 140.633 342.893 138.794 344.512C138.001 344.589 137.104 344.803 136.31 344.967Z"/></svg>