<?xml version="1.0" encoding="utf-8" ?><svg xmlns="http://www.w3.org/2000/svg" xmlns:xlink="http://www.w3.org/1999/xlink" width="711" height="1024" viewBox="0 0 711 1024"><defs><linearGradient id="gradient_0" gradientUnits="userSpaceOnUse" x1="426.07858" y1="361.44861" x2="80.961922" y2="270.27963"><stop offset="0" stop-color="#050223"/><stop offset="1" stop-color="#002A4A"/></linearGradient></defs><path fill="url(#gradient_0)" transform="matrix(1.79093 0 0 1.79021 -0.000488281 0)" d="M106.995 227.692C104.686 226.066 95.3028 213.092 93.6261 210.36C76.5677 182.734 71.3606 149.403 79.1805 117.893C86.6028 87.0152 105.927 60.3196 132.945 43.6189C160.034 27.2289 192.527 22.2684 223.274 29.8288C246.004 35.3014 269.776 48.5336 285.181 66.2685C287.823 69.3095 290.792 72.5872 292.905 76.0311L293.204 78.6933C296.513 83.928 299.649 88.9154 302.338 94.5139C313.965 118.928 317.038 146.542 311.062 172.914C305.368 198.209 292.512 218.554 273.355 235.204C273.077 235.445 272.857 236.441 273.259 236.702C279.251 242.49 288.267 249.484 294.45 254.766L315.354 272.79C321.145 277.863 326.582 282.823 332.655 287.627L332.779 288.661C328.874 291.38 324.066 296.991 320.358 300.345C315.092 305.109 309.922 310.036 304.569 314.717C302.512 316.553 295.556 323.574 293.596 324.043C288.588 325.24 282.602 323.878 277.229 325.065C279.798 366.164 286.083 402.736 304.153 440.246C314.35 461.414 327.397 480.265 342.291 498.384C349.868 507.601 358.273 516.283 366.546 524.881C369.711 528.17 373.019 531.331 376.063 534.733C376.961 535.738 379.558 538.28 379.693 539.61C379.804 540.711 366.798 569.363 365.384 570.781C365.201 570.964 365.019 571.024 364.782 571.111L234.524 571.13C212.184 571.124 188.543 571.564 166.384 571.07C150.62 571.161 134.857 571.168 119.094 571.092C96.7038 571.61 74.1552 570.574 51.758 571.107C45.5744 571.254 39.2471 571.133 33.0496 571.126L29.9142 570.885C27.5195 567.69 16.9812 543.828 14.786 538.64C15.1212 537.594 16.0075 536.285 16.6956 535.51C38.7306 511.023 60.268 486.962 76.5695 458.133C98.8343 418.758 110.801 371.125 112.571 325.973C109.219 326.232 98.664 326.248 95.7099 325.817C87.5912 318.661 79.4568 310.426 71.6343 302.925C66.4446 297.949 61.5089 293.987 56.5401 288.527C67.7591 277.805 81.0546 267.069 92.8457 256.819C99.806 250.768 108.739 242.577 115.973 237.25L116.56 236.528C115.537 235.746 115.154 235.42 114.26 234.487C114.118 232.962 113.457 233.492 112.902 231.581C112.603 231.043 110.594 229.165 110.041 228.714L109.416 228.706C108.474 228.068 108.162 227.77 106.995 227.692ZM50.4248 527C47.7956 530.245 44.376 533.516 41.368 536.466C43.6446 536.181 45.0469 536.169 47.3243 536.278C50.6452 536.233 54.2317 536.118 57.5319 536.203C60.0724 535.939 64.5593 536.045 67.2273 536.04L83.7396 535.996L136.686 536.012C157.899 535.386 180.471 536.321 201.885 535.946C200.722 535.086 196.403 536.363 194.833 535.466C194.577 534.435 194.606 533.735 194.531 532.688C195.089 531.445 196.431 530.881 197.642 530.242C199.773 530.254 203.361 530.363 205.351 530.093C203.598 529.534 193.619 530.005 190.679 529.574C188.089 529.566 185.498 529.535 182.908 529.478C179.211 529.603 174.841 529.401 171.097 529.316C166.323 529.258 161.495 529.114 156.723 528.95C132.708 528.123 108.497 529.006 84.505 528.178C82.6953 528.623 66.8473 527.91 64.3509 527.791C68.2723 523.847 72.0018 518.818 75.6987 514.6C90.6188 497.573 101.729 479.435 112.698 459.701L115.345 454.743C129.209 426.249 138.795 395.866 143.793 364.576C144.807 358.478 145.691 352.36 146.444 346.224C146.996 341.55 147.478 335.85 148.206 331.298C148.621 327.313 149.359 321.613 149.477 317.721L139.483 317.557C139.048 327.902 137.049 343.833 135.356 354.128C133.595 366.22 131.287 378.226 128.441 390.109C118.089 431.152 98.8722 469.429 72.1401 502.253C66.0832 509.829 59.8307 517.151 53.089 524.123C52.185 525.058 51.2927 526.032 50.4248 527ZM203.016 46.3126C196.197 46.5644 189.881 46.2222 182.815 46.6436C133.99 53.1919 101.605 88.2289 95.646 136.646C96.1742 141.37 95.1518 147.711 95.5797 152.842C96.8746 168.37 100.558 183.816 108.787 197.218C109.784 198.842 112.079 202.482 113.328 203.825L113.9 203.843C114.223 204.378 114.046 204.228 114.564 204.526C116.668 203.54 121.089 201.442 122.718 199.886C122.083 198.905 121.683 198.443 121.635 197.22C121.326 196.45 120.332 194.917 119.867 194.127C110.999 179.05 107.096 156.767 109.845 139.503C109.228 134.88 114.347 118.79 116.425 114.081C123.822 97.4394 135.892 83.3017 151.168 73.3828C153.701 71.7578 157.083 69.5804 159.855 68.5012C161.697 67.2442 166.484 65.3107 168.661 64.4988C183.301 59.0389 194.785 58.4344 210.181 59.3296C211.743 58.6199 213.059 59.0487 214.785 59.321C216.554 58.6619 216.522 52.7067 218.199 50.2496C218.921 50.0702 219.38 50.0315 219.94 49.5424C219.26 49.0694 214.007 48.2037 212.842 47.9999L212.694 47.5066C210.29 46.8088 205.538 46.5093 203.016 46.3126ZM132.34 114.437C133.444 138.395 160.993 143.039 175.053 126.899C177.13 124.515 177.951 122.539 179.609 120.357C183.288 108.926 184.158 101.887 176.699 91.393C176.163 90.7254 175.653 90.1142 175.042 89.5086C170.957 85.4016 165.379 83.1274 159.585 83.2066C153.46 83.2736 146.753 86.1599 142.47 90.538C134.711 98.6928 132.465 102.982 132.34 114.437ZM128.119 511.021C127.995 511.493 127.856 511.961 127.702 512.425C125.878 517.769 118.945 517.502 117.023 512.825C116.557 511.659 116.591 510.354 117.115 509.213C118.951 505.192 121.708 505.243 125.125 507.158C125.876 503.733 127.762 505.228 129.014 503.114C128.444 501.858 126.081 500.651 124.885 499.993C123.416 500.038 122.121 499.992 120.651 499.936C114.825 500.743 110.476 506.998 111.526 512.741C114.356 528.219 135.851 523.656 132.733 508.888C132.517 507.905 132.213 506.945 131.824 506.017C129.607 505.947 128.34 509.197 128.119 511.021Z"/><defs><linearGradient id="gradient_1" gradientUnits="userSpaceOnUse" x1="218.69931" y1="479.42676" x2="91.156914" y2="424.57675"><stop offset="0" stop-color="#0086E8"/><stop offset="1" stop-color="#00FCFF" stop-opacity="0.98823529"/></linearGradient></defs><path fill="url(#gradient_1)" transform="matrix(1.79093 0 0 1.79021 -0.000488281 0)" d="M139.483 317.557L149.477 317.721C149.359 321.613 148.621 327.313 148.206 331.298C147.478 335.85 146.996 341.55 146.444 346.224C145.691 352.36 144.807 358.478 143.793 364.576C138.795 395.866 129.209 426.249 115.345 454.743L112.698 459.701C101.729 479.435 90.6188 497.573 75.6987 514.6C72.0018 518.818 68.2723 523.847 64.3509 527.791C66.8473 527.91 82.6953 528.623 84.505 528.178C108.497 529.006 132.708 528.123 156.723 528.95C161.495 529.114 166.323 529.258 171.097 529.316C174.841 529.401 179.211 529.603 182.908 529.478C185.498 529.535 188.089 529.566 190.679 529.574C193.619 530.005 203.598 529.534 205.351 530.093C203.361 530.363 199.773 530.254 197.642 530.242C196.431 530.881 195.089 531.445 194.531 532.688C194.606 533.735 194.577 534.435 194.833 535.466C196.403 536.363 200.722 535.086 201.885 535.946C180.471 536.321 157.899 535.386 136.686 536.012L83.7396 535.996L67.2273 536.04C64.5593 536.045 60.0724 535.939 57.5319 536.203C54.2317 536.118 50.6452 536.233 47.3243 536.278C45.0469 536.169 43.6446 536.181 41.368 536.466C44.376 533.516 47.7956 530.245 50.4248 527C51.2927 526.032 52.185 525.058 53.089 524.123C59.8307 517.151 66.0832 509.829 72.1401 502.253C98.8722 469.429 118.089 431.152 128.441 390.109C131.287 378.226 133.595 366.22 135.356 354.128C137.049 343.833 139.048 327.902 139.483 317.557Z"/><defs><linearGradient id="gradient_2" gradientUnits="userSpaceOnUse" x1="170.8683" y1="129.5954" x2="112.78967" y2="89.669502"><stop offset="0" stop-color="#00BDFA"/><stop offset="1" stop-color="aqua" stop-opacity="0.98823529"/></linearGradient></defs><path fill="url(#gradient_2)" transform="matrix(1.79093 0 0 1.79021 -0.000488281 0)" d="M182.815 46.6436C189.881 46.2222 196.197 46.5644 203.016 46.3126C205.538 46.5093 210.29 46.8088 212.694 47.5066L212.842 47.9999C214.007 48.2037 219.26 49.0694 219.94 49.5424C219.38 50.0315 218.921 50.0702 218.199 50.2496C216.522 52.7067 216.554 58.6619 214.785 59.321C213.059 59.0487 211.743 58.6199 210.181 59.3296C194.785 58.4344 183.301 59.0389 168.661 64.4988C166.484 65.3107 161.697 67.2442 159.855 68.5012C157.083 69.5804 153.701 71.7578 151.168 73.3828C135.892 83.3017 123.822 97.4394 116.425 114.081C114.347 118.79 109.228 134.88 109.845 139.503C107.096 156.767 110.999 179.05 119.867 194.127C120.332 194.917 121.326 196.45 121.635 197.22C121.683 198.443 122.083 198.905 122.718 199.886C121.089 201.442 116.668 203.54 114.564 204.526C114.046 204.228 114.223 204.378 113.9 203.843L113.328 203.825C112.079 202.482 109.784 198.842 108.787 197.218C100.558 183.816 96.8746 168.37 95.5797 152.842C95.1518 147.711 96.1742 141.37 95.646 136.646C101.605 88.2289 133.99 53.1919 182.815 46.6436Z"/><defs><linearGradient id="gradient_3" gradientUnits="userSpaceOnUse" x1="229.70757" y1="58.110802" x2="216.69583" y2="53.472095"><stop offset="0" stop-color="#0098DB"/><stop offset="1" stop-color="#00B5F5"/></linearGradient></defs><path fill="url(#gradient_3)" transform="matrix(1.79093 0 0 1.79021 -0.000488281 0)" d="M212.694 47.5066C217.371 47.8241 224.452 49.9973 229.027 51.3748C230.115 51.7653 231.272 52.1585 232.342 52.5763C228.206 55.2356 229.262 58.3069 226.666 61.847C226.665 61.8486 225.574 62.075 225.376 62.1102C220.146 60.5337 215.59 59.8276 210.181 59.3296C211.743 58.6199 213.059 59.0487 214.785 59.321C216.554 58.6619 216.522 52.7067 218.199 50.2496C218.921 50.0702 219.38 50.0315 219.94 49.5424C219.26 49.0694 214.007 48.2037 212.842 47.9999L212.694 47.5066Z"/><path fill="#00183C" transform="matrix(1.79093 0 0 1.79021 -0.000488281 0)" d="M136.686 536.012C157.899 535.386 180.471 536.321 201.885 535.946L204.333 536.125C202.876 536.447 197.729 536.317 195.928 536.323C190.029 536.343 184.134 536.182 178.227 536.356L178.022 536.747C176.33 537.024 172.976 537.218 171.316 536.971L171.25 536.477L170.657 536.333C166.938 536.328 137.496 536.461 136.686 536.012Z"/><defs><linearGradient id="gradient_4" gradientUnits="userSpaceOnUse" x1="195.28903" y1="148.73149" x2="141.60664" y2="102.10435"><stop offset="0" stop-color="#003864"/><stop offset="1" stop-color="#00629D"/></linearGradient></defs><path fill="url(#gradient_4)" transform="matrix(1.79093 0 0 1.79021 -0.000488281 0)" d="M159.855 68.5012C161.697 67.2442 166.484 65.3107 168.661 64.4988C183.301 59.0389 194.785 58.4344 210.181 59.3296C215.59 59.8276 220.146 60.5337 225.376 62.1102C227.273 62.6727 230.024 63.4069 231.678 64.3729C229.904 64.9422 227.823 62.8838 226.567 63.9909C227.168 64.9222 227.302 66.0606 227.32 66.0893C227.412 66.2336 227.654 66.2247 227.755 66.3628C228.326 67.1398 228.438 68.6404 228.957 69.5569C230.958 73.0868 231.878 81.7349 230.911 85.7183C230.848 85.9774 230.751 86.2226 230.657 86.4711C229.536 89.4302 228.609 92.4427 227.411 95.3788C225.711 99.5463 223.716 103.589 221.959 107.732C219.038 114.619 216.297 121.396 212.389 127.804C205.813 138.587 196.493 146.944 187.621 155.744C180.041 163.262 170.941 172.489 162.272 178.606C158.878 181.001 155.034 182.703 151.272 184.425C146.478 186.618 127.088 193.914 125.421 198.2C124.971 199.355 125.232 200.495 125.771 201.568C126.578 203.178 128.507 204.91 128.748 206.649C127.175 205.332 123.054 199.217 121.635 197.22C121.326 196.45 120.332 194.917 119.867 194.127C110.999 179.05 107.096 156.767 109.845 139.503C109.228 134.88 114.347 118.79 116.425 114.081C123.822 97.4394 135.892 83.3017 151.168 73.3828C153.701 71.7578 157.083 69.5804 159.855 68.5012ZM132.34 114.437C133.444 138.395 160.993 143.039 175.053 126.899C177.13 124.515 177.951 122.539 179.609 120.357C183.288 108.926 184.158 101.887 176.699 91.393C176.163 90.7254 175.653 90.1142 175.042 89.5086C170.957 85.4016 165.379 83.1274 159.585 83.2066C153.46 83.2736 146.753 86.1599 142.47 90.538C134.711 98.6928 132.465 102.982 132.34 114.437Z"/><path fill="#00F7FD" fill-opacity="0.98823529" transform="matrix(1.79093 0 0 1.79021 -0.000488281 0)" d="M142.47 90.538C146.753 86.1599 153.46 83.2736 159.585 83.2066C165.379 83.1274 170.957 85.4016 175.042 89.5086C175.653 90.1142 176.163 90.7254 176.699 91.393C184.158 101.887 183.288 108.926 179.609 120.357C177.951 122.539 177.13 124.515 175.053 126.899C160.993 143.039 133.444 138.395 132.34 114.437C132.465 102.982 134.711 98.6928 142.47 90.538Z"/><defs><linearGradient id="gradient_5" gradientUnits="userSpaceOnUse" x1="167.07544" y1="125.43342" x2="130.2242" y2="94.524048"><stop offset="0" stop-color="#00538C"/><stop offset="1" stop-color="#0089C1"/></linearGradient></defs><path fill="url(#gradient_5)" transform="matrix(1.79093 0 0 1.79021 -0.000488281 0)" d="M160.683 68.5218C164.91 66.4359 174.853 62.4653 179.465 61.8524L179.637 62.6213C180.709 63.0967 181.353 63.4963 182.533 63.3641C187.672 66.7842 188.667 70.4046 190.003 76.3869C190.978 81.9181 189.452 88.3404 188.515 93.792C188.386 94.542 185.454 100.353 184.937 100.939C183.011 103.124 184.478 105.201 183.517 106.476L183.005 106.242C182.619 109.197 182.617 119.018 179.609 120.357C183.288 108.926 184.158 101.887 176.699 91.393C176.163 90.7254 175.653 90.1142 175.042 89.5086C170.957 85.4016 165.379 83.1274 159.585 83.2066C153.46 83.2736 146.753 86.1599 142.47 90.538C134.711 98.6928 132.465 102.982 132.34 114.437C131.929 113.801 132.011 112.68 131.955 111.802C131.798 112.709 131.761 112.972 131.439 113.824L131.227 112.572L130.975 113.298C131.524 121.225 133.095 126.411 139.357 132.163C142.401 134.959 147.763 137.366 151.954 137.778C153.418 137.922 157.457 137.212 158.578 137.746C158.015 138.177 156.894 138.422 156.184 138.352C156.024 138.336 155.745 138.247 155.624 138.217C154.705 137.985 153.884 137.908 153.054 138.449C152.114 139.061 151.608 140.095 150.603 140.586C150.369 140.7 150.248 140.847 150.063 141.024C145.095 145.796 124.833 151.075 117.78 150.928C116.463 150.9 113.87 150.307 112.694 150.708C111.588 151.085 110.72 152.374 109.605 152.617C109.539 151.421 109.236 147.274 109.873 146.452C109.941 144.616 110.399 140.845 109.845 139.503C109.228 134.88 114.347 118.79 116.425 114.081C123.822 97.4394 135.892 83.3017 151.168 73.3828C153.701 71.7578 157.083 69.5804 159.855 68.5012L160.683 68.5218Z"/><path fill="#0167B1" transform="matrix(1.79093 0 0 1.79021 -0.000488281 0)" d="M109.845 139.503C109.228 134.88 114.347 118.79 116.425 114.081C123.822 97.4394 135.892 83.3017 151.168 73.3828C153.701 71.7578 157.083 69.5804 159.855 68.5012L160.683 68.5218C158.638 69.612 153.508 72.2859 151.797 73.6836C151.905 74.1151 151.909 74.1577 152.109 74.552C130.573 88.13 114.706 110.989 112.261 136.612C111.927 140.114 112.067 143.602 109.873 146.452C109.941 144.616 110.399 140.845 109.845 139.503Z"/><path fill="#003867" transform="matrix(1.79093 0 0 1.79021 -0.000488281 0)" d="M141.622 89.943C151.54 80.689 166.166 79.0412 176.276 89.0791C176.756 89.5548 177.072 90.071 177.369 90.6762L176.699 91.393C176.163 90.7254 175.653 90.1142 175.042 89.5086C170.957 85.4016 165.379 83.1274 159.585 83.2066C153.46 83.2736 146.753 86.1599 142.47 90.538L141.622 89.943Z"/><path fill="#0167B1" transform="matrix(1.79093 0 0 1.79021 -0.000488281 0)" d="M141.622 89.943L142.47 90.538C134.711 98.6928 132.465 102.982 132.34 114.437C131.929 113.801 132.011 112.68 131.955 111.802C131.798 112.709 131.761 112.972 131.439 113.824L131.227 112.572L130.975 113.298C130.921 113.004 130.846 112.561 130.849 112.27C130.956 102.326 135.436 96.6198 141.622 89.943Z"/><defs><linearGradient id="gradient_6" gradientUnits="userSpaceOnUse" x1="183.46513" y1="549.63062" x2="39.697868" y2="406.83301"><stop offset="0" stop-color="#00071C"/><stop offset="1" stop-color="#0167A1"/></linearGradient></defs><path fill="url(#gradient_6)" transform="matrix(1.79093 0 0 1.79021 -0.000488281 0)" d="M56.5401 288.527C67.7591 277.805 81.0546 267.069 92.8457 256.819C99.806 250.768 108.739 242.577 115.973 237.25C116.567 238.85 116.024 238.982 114.863 240.142C109.788 244.034 104.361 249.033 99.3611 253.162C97.0097 255.103 87.9231 262.599 86.4695 264.544L69.5859 279.069C65.9797 282.148 61.8498 285.389 58.4617 288.618C64.7284 294.551 71.3562 300.121 77.3861 306.343C78.2586 307.244 79.3793 308.345 80.3147 309.145C81.8089 310.961 85.7356 314.274 87.5269 315.833C90.1428 318.11 95.3537 324.453 98.6852 324.353C101.72 324.261 110.165 325.231 112.659 324.578L113.155 323.873L113.447 323.961C114.464 327.359 112.477 340.107 112.84 344.542C113.638 341.977 113.65 338.48 113.971 336.163C114.707 331.668 112.988 331.973 117.525 331.469C119.577 331.241 119.639 330.176 122.894 331.059C124.932 331.612 135.682 331.284 136.515 333.134C136.594 333.314 136.67 333.494 136.744 333.675L137.094 333.805L137.343 333.354L137.576 333.489C137.185 338.563 136.206 343.764 135.621 348.829C135.484 350.024 134.94 353.233 134.941 354.221L135.356 354.128C133.595 366.22 131.287 378.226 128.441 390.109C118.089 431.152 98.8722 469.429 72.1401 502.253C66.0832 509.829 59.8307 517.151 53.089 524.123C52.185 525.058 51.2927 526.032 50.4248 527C47.7956 530.245 44.376 533.516 41.368 536.466C43.6446 536.181 45.0469 536.169 47.3243 536.278C50.6452 536.233 54.2317 536.118 57.5319 536.203C60.0724 535.939 64.5593 536.045 67.2273 536.04L83.7396 535.996L136.686 536.012C137.496 536.461 166.938 536.328 170.657 536.333L171.25 536.477L171.316 536.971L171.289 537.341C170.76 545.26 172.364 554.016 170.656 561.901C170.18 564.096 166.315 569.639 164.158 570.3L163.708 570.518C164.215 570.942 165.641 570.986 166.384 571.07C150.62 571.161 134.857 571.168 119.094 571.092C96.7038 571.61 74.1552 570.574 51.758 571.107C45.5744 571.254 39.2471 571.133 33.0496 571.126L29.9142 570.885C27.5195 567.69 16.9812 543.828 14.786 538.64C15.1212 537.594 16.0075 536.285 16.6956 535.51C38.7306 511.023 60.268 486.962 76.5695 458.133C98.8343 418.758 110.801 371.125 112.571 325.973C109.219 326.232 98.664 326.248 95.7099 325.817C87.5912 318.661 79.4568 310.426 71.6343 302.925C66.4446 297.949 61.5089 293.987 56.5401 288.527Z"/><path fill="#000002" transform="matrix(1.79093 0 0 1.79021 -0.000488281 0)" d="M56.5401 288.527C67.7591 277.805 81.0546 267.069 92.8457 256.819C99.806 250.768 108.739 242.577 115.973 237.25C116.567 238.85 116.024 238.982 114.863 240.142C109.788 244.034 104.361 249.033 99.3611 253.162C97.0097 255.103 87.9231 262.599 86.4695 264.544L69.5859 279.069C65.9797 282.148 61.8498 285.389 58.4617 288.618C64.7284 294.551 71.3562 300.121 77.3861 306.343C78.2586 307.244 79.3793 308.345 80.3147 309.145C81.8089 310.961 85.7356 314.274 87.5269 315.833C90.1428 318.11 95.3537 324.453 98.6852 324.353C101.72 324.261 110.165 325.231 112.659 324.578L113.155 323.873L113.447 323.961C114.464 327.359 112.477 340.107 112.84 344.542C111.175 362.088 108.954 373.127 104.972 390.032C94.5743 435.424 71.3135 476.195 40.6049 510.908C35.4232 516.766 30.3119 522.935 24.9607 528.657C22.4553 531.336 19.1187 535.77 16.2681 537.929C21.0349 548.239 25.8574 558.895 30.9103 569.063C31.3767 570.001 32.0721 570.724 33.0496 571.126L29.9142 570.885C27.5195 567.69 16.9812 543.828 14.786 538.64C15.1212 537.594 16.0075 536.285 16.6956 535.51C38.7306 511.023 60.268 486.962 76.5695 458.133C98.8343 418.758 110.801 371.125 112.571 325.973C109.219 326.232 98.664 326.248 95.7099 325.817C87.5912 318.661 79.4568 310.426 71.6343 302.925C66.4446 297.949 61.5089 293.987 56.5401 288.527Z"/><path fill="#000002" transform="matrix(1.79093 0 0 1.79021 -0.000488281 0)" d="M134.941 354.221L135.356 354.128C133.595 366.22 131.287 378.226 128.441 390.109C118.089 431.152 98.8722 469.429 72.1401 502.253C66.0832 509.829 59.8307 517.151 53.089 524.123C52.185 525.058 51.2927 526.032 50.4248 527L49.909 526.313C50.0506 525.123 55.4665 519.953 56.6084 518.679C83.5309 488.637 106.347 453.859 119.558 415.569C120.931 411.588 122.762 406.677 123.592 402.655L124.182 403.514C125.007 401.564 125.945 397.004 126.626 394.756C130.642 381.502 132.516 367.795 134.941 354.221Z"/><path fill="#00183C" transform="matrix(1.79093 0 0 1.79021 -0.000488281 0)" d="M170.657 536.333L171.25 536.477L171.316 536.971L171.289 537.341C170.76 545.26 172.364 554.016 170.656 561.901C170.18 564.096 166.315 569.639 164.158 570.3L163.708 570.518C164.215 570.942 165.641 570.986 166.384 571.07C150.62 571.161 134.857 571.168 119.094 571.092C121.332 569.487 156.73 571.872 159.682 570.039C158.376 568.69 151.79 569.309 149.96 568.64L150.1 568.401C153.648 568.236 161.609 566.656 164.599 567.786C164.575 568.305 164.559 568.363 164.654 568.87C165.194 568.255 165.598 567.812 166.192 567.249C165.402 566.493 163.304 567.347 161.982 566.195L162.091 565.53C162.805 564.377 164.213 563.62 165.374 562.868C166.649 559.5 166.739 557.478 168.961 554.583C168.989 555.622 169.041 556.32 169.155 557.347L169.202 557.165L169.498 556.964C169.595 556.226 170.686 553.166 170.722 553.831C170.552 550.719 171.525 538.732 170.657 536.333Z"/><path fill="#00183C" transform="matrix(1.79093 0 0 1.79021 -0.000488281 0)" d="M47.3243 536.278C50.6452 536.233 54.2317 536.118 57.5319 536.203C61.2951 536.687 68.5272 536.214 72.8865 536.428C72.3699 536.59 72.8051 536.489 72.3682 536.515C62.2436 537.133 52.1928 538.93 42.0303 536.877C43.457 536.589 45.7916 536.437 47.3243 536.278Z"/><defs><linearGradient id="gradient_7" gradientUnits="userSpaceOnUse" x1="171.65405" y1="129.71034" x2="103.56158" y2="72.034966"><stop offset="0" stop-color="#013662"/><stop offset="1" stop-color="#00629A"/></linearGradient></defs><path fill="url(#gradient_7)" transform="matrix(1.79093 0 0 1.79021 -0.000488281 0)" d="M106.995 227.692C104.686 226.066 95.3028 213.092 93.6261 210.36C76.5677 182.734 71.3606 149.403 79.1805 117.893C86.6028 87.0152 105.927 60.3196 132.945 43.6189C160.034 27.2289 192.527 22.2684 223.274 29.8288C246.004 35.3014 269.776 48.5336 285.181 66.2685C287.823 69.3095 290.792 72.5872 292.905 76.0311L293.204 78.6933C281.918 62.5882 268.387 50.7261 250.901 41.7477C246.641 39.5603 242.897 37.4668 238.247 36.1566L238.033 36.5596C235.494 36.0246 230.471 33.1739 228.985 34.1157C228.78 35.1904 228.482 35.4265 227.816 36.2325C227.402 38.8585 229.72 39.3665 225.424 42.0974C223.658 43.22 220.682 45.2338 218.774 45.7015L218.405 46.1651C219.233 47.272 223.718 47.7802 225.475 48.671C226.939 49.446 228.974 49.6254 230.494 50.3604C229.639 51.4383 230.193 50.1032 229.027 51.3748C224.452 49.9973 217.371 47.8241 212.694 47.5066C210.29 46.8088 205.538 46.5093 203.016 46.3126C196.197 46.5644 189.881 46.2222 182.815 46.6436C133.99 53.1919 101.605 88.2289 95.646 136.646C96.1742 141.37 95.1518 147.711 95.5797 152.842C96.8746 168.37 100.558 183.816 108.787 197.218C109.784 198.842 112.079 202.482 113.328 203.825C115.15 207.06 118.266 209.955 120.555 212.808C117.494 211.889 115.867 207.169 113.343 205.259C112.697 204.77 111.186 201.933 110.455 201.008C109.785 203.689 105.503 208.061 103.341 209.931C102.466 210.687 99.8936 210.858 98.8173 211.186C98.5561 211.266 98.8273 212.271 98.0088 212.375L97.0065 210.954L96.8166 211.093C97.8186 213.009 103.882 220.962 103.964 221.386L103.811 221.638C105.225 223.662 108.264 226.773 110.041 228.714L109.416 228.706C108.474 228.068 108.162 227.77 106.995 227.692Z"/><path fill="#000002" transform="matrix(1.79093 0 0 1.79021 -0.000488281 0)" d="M106.995 227.692C104.686 226.066 95.3028 213.092 93.6261 210.36C76.5677 182.734 71.3606 149.403 79.1805 117.893C86.6028 87.0152 105.927 60.3196 132.945 43.6189C160.034 27.2289 192.527 22.2684 223.274 29.8288C246.004 35.3014 269.776 48.5336 285.181 66.2685C287.823 69.3095 290.792 72.5872 292.905 76.0311L293.204 78.6933C281.918 62.5882 268.387 50.7261 250.901 41.7477C246.641 39.5603 242.897 37.4668 238.247 36.1566C232.02 33.9448 226.737 32.0904 220.21 30.6651C194.453 25.0727 167.571 28.1064 143.709 39.2983C84.8955 67.2487 61.0376 141.335 89.309 198.821C92.807 205.934 98.3987 215.797 103.811 221.638C105.225 223.662 108.264 226.773 110.041 228.714L109.416 228.706C108.474 228.068 108.162 227.77 106.995 227.692Z"/><path fill="#00183C" transform="matrix(1.79093 0 0 1.79021 -0.000488281 0)" d="M95.646 136.646L95.3431 137.374L95.4377 137.261L95.354 136.812L94.9659 136.669L94.6512 137.461C94.6379 137.399 94.6246 137.336 94.6113 137.274C97.1304 93.0801 132.48 53.1719 176.49 46.426C178.45 46.1256 182.863 45.4839 183.974 46.2767L182.815 46.6436C133.99 53.1919 101.605 88.2289 95.646 136.646Z"/><path fill="#00183C" transform="matrix(1.79093 0 0 1.79021 -0.000488281 0)" d="M203.016 46.3126C202.558 45.9777 202.747 45.9881 202.298 45.9513C203.461 45.8265 204.547 45.659 205.711 45.7776L205.792 45.719L205.715 45.6828C214.823 45.3521 217.362 47.3067 225.475 48.671C226.939 49.446 228.974 49.6254 230.494 50.3604C229.639 51.4383 230.193 50.1032 229.027 51.3748C224.452 49.9973 217.371 47.8241 212.694 47.5066C210.29 46.8088 205.538 46.5093 203.016 46.3126Z"/><path fill="#14419D" transform="matrix(1.79093 0 0 1.79021 -0.000488281 0)" d="M247.241 355.909C247.292 355.28 247.342 354.932 247.452 354.309C247.581 355.515 247.862 360.359 248.691 360.917C249.745 360.497 252.428 359.824 252.783 359.447C255.313 356.758 254.618 351.849 254.873 348.929C254.907 349.712 254.848 350.065 255.323 350.704C262.33 409.254 272.849 458.223 314.193 503.115C321.208 510.732 328.94 518.11 336.441 525.28C340.304 528.972 344.526 532.434 348.42 536.159C338.164 536.302 327.907 536.322 317.65 536.221L239.479 535.904L214.062 536.062C211.351 536.096 206.781 535.962 204.333 536.125L201.885 535.946C200.722 535.086 196.403 536.363 194.833 535.466C194.577 534.435 194.606 533.735 194.531 532.688C195.089 531.445 196.431 530.881 197.642 530.242C199.773 530.254 203.361 530.363 205.351 530.093C203.598 529.534 193.619 530.005 190.679 529.574C194.185 529.315 200.296 529.599 203.935 529.649L226.436 529.825C248.782 529.961 271.13 529.929 293.476 529.728C304.072 529.668 317.838 530.007 328.155 529.426C317.629 518.15 308.481 510.255 298.242 497.88C264.374 456.949 253.269 407.48 247.241 355.909Z"/><path fill="#003867" transform="matrix(1.79093 0 0 1.79021 -0.000488281 0)" d="M115.345 454.743C129.209 426.249 138.795 395.866 143.793 364.576C144.807 358.478 145.691 352.36 146.444 346.224C146.996 341.55 147.478 335.85 148.206 331.298L148.536 331.859C159.481 332.241 170.432 332.454 181.383 332.5C182.038 339.701 181.876 347.379 181.891 354.643L181.875 387.161C181.866 391.329 181.622 398.194 181.875 402.092C179.751 402.364 177.897 403.184 175.912 403.951C176.45 392.77 176.431 378.249 176.194 366.914C172.672 369.763 168.044 373.535 165.125 377.065C160.446 382.723 155.968 388.179 150.34 393.002C147.418 395.438 143.4 397.737 142.442 401.706C142.228 402.591 143.457 404.579 142.844 406.439C141.184 411.48 134.306 429.523 129.628 431.026L129.082 430.815C127.944 428.225 130.671 426.465 128.977 425.255L128.96 425.003C129.219 426.232 128.095 427.571 127.481 428.809C125.577 432.64 118.122 453.128 115.345 454.743Z"/><defs><linearGradient id="gradient_8" gradientUnits="userSpaceOnUse" x1="217.13182" y1="243.74142" x2="181.14922" y2="315.3812"><stop offset="0" stop-color="#000C23"/><stop offset="1" stop-color="#024276"/></linearGradient></defs><path fill="url(#gradient_8)" transform="matrix(1.79093 0 0 1.79021 -0.000488281 0)" d="M129.644 269.658C134.158 269.293 142.217 269.552 147.072 269.49C159.842 269.29 172.613 269.192 185.384 269.194C190.212 269.469 196.558 269.301 201.498 269.288L229.818 269.196C236.224 269.482 266.606 268.377 269.943 269.939C273.396 271.554 279.124 278.084 281.846 281.066C282.227 281.483 282.597 281.889 282.931 282.346L283.226 282.662C282.422 283.278 249.026 282.939 245.316 282.907C238.765 283.38 230.168 282.621 223.169 282.973L161.134 283.015L142.642 283.023C140.317 283.025 134.9 282.915 132.847 283.165C127.416 282.854 119.85 283.102 114.009 282.946C117.538 279.658 125.551 272.238 129.644 269.658Z"/><path fill="#000002" transform="matrix(1.79093 0 0 1.79021 -0.000488281 0)" d="M245.316 282.907L241.769 282.5C241.863 282.456 241.956 282.41 242.05 282.369C245.765 280.741 272.405 281.645 277.81 281.782C278.847 281.809 279.925 281.612 280.935 281.704C281.623 281.767 282.299 282.083 282.931 282.346L283.226 282.662C282.422 283.278 249.026 282.939 245.316 282.907Z"/><defs><linearGradient id="gradient_9" gradientUnits="userSpaceOnUse" x1="203.38594" y1="239.68999" x2="193.52724" y2="278.57547"><stop offset="0" stop-color="#000B21"/><stop offset="1" stop-color="#03254C"/></linearGradient></defs><path fill="url(#gradient_9)" transform="matrix(1.79093 0 0 1.79021 -0.000488281 0)" d="M148.009 250.703C149.188 250.357 162.024 250.809 164.345 250.82L208.335 250.79C212.245 251.037 216.532 250.835 220.48 250.86C229.954 250.918 239.704 250.479 249.155 250.762C254.609 254.638 258.545 259.434 263.442 263.45C259.277 263.511 248.736 263.259 245.44 263.653C246.072 263.722 248.847 263.898 249.139 264.198L249.713 264.219C249.097 264.072 244.695 264.221 243.728 264.215L243.468 264.439C242.244 265.511 241.294 266.724 242.259 268.299C243.431 268.901 245.339 268.697 246.814 268.791C242.102 268.902 234.197 268.759 229.818 269.196L201.498 269.288C196.558 269.301 190.212 269.469 185.384 269.194C189.23 268.81 197.424 268.989 201.604 268.97C202.514 268.526 203.657 268.642 203.969 268.384C204.234 268.166 205.021 264.932 205.146 264.488C203.594 263.652 187.073 263.934 184.024 263.678L183.694 263.649C173.192 263.675 159.595 263.405 149.316 263.961C143.721 263.678 137.743 264.099 131.984 263.834C133.499 262.893 134.179 262.436 135.53 261.289C139.781 257.915 143.911 254.265 148.009 250.703Z"/><path fill="#0167B1" transform="matrix(1.79093 0 0 1.79021 -0.000488281 0)" d="M183.694 263.649C187.396 263.24 194.266 263.442 198.173 263.469L223.104 263.654C230.283 263.221 238.284 263.874 245.44 263.653C246.072 263.722 248.847 263.898 249.139 264.198L249.713 264.219C249.097 264.072 244.695 264.221 243.728 264.215L243.468 264.439C242.244 265.511 241.294 266.724 242.259 268.299C243.431 268.901 245.339 268.697 246.814 268.791C242.102 268.902 234.197 268.759 229.818 269.196L201.498 269.288C196.558 269.301 190.212 269.469 185.384 269.194C189.23 268.81 197.424 268.989 201.604 268.97C202.514 268.526 203.657 268.642 203.969 268.384C204.234 268.166 205.021 264.932 205.146 264.488C203.594 263.652 187.073 263.934 184.024 263.678L183.694 263.649Z"/><path fill="#003867" transform="matrix(1.79093 0 0 1.79021 -0.000488281 0)" d="M223.104 263.654C230.283 263.221 238.284 263.874 245.44 263.653C246.072 263.722 248.847 263.898 249.139 264.198L249.713 264.219C249.097 264.072 244.695 264.221 243.728 264.215L243.468 264.439C242.244 265.511 241.294 266.724 242.259 268.299C243.431 268.901 245.339 268.697 246.814 268.791C242.102 268.902 234.197 268.759 229.818 269.196L201.498 269.288C196.558 269.301 190.212 269.469 185.384 269.194C189.23 268.81 197.424 268.989 201.604 268.97C204.209 269.293 230.314 268.999 231.297 268.276C231.546 267.286 231.335 267.195 231.014 266.124C231.747 264.921 232.523 265.431 233.128 264.366C229.544 264.373 226.65 264.04 223.104 263.654Z"/><path fill="#01B8F1" transform="matrix(1.79093 0 0 1.79021 -0.000488281 0)" d="M126.219 255.583C127.061 256.918 127.403 264.842 132.026 262.104C133.987 263.153 133.235 261.441 135.53 261.289C134.179 262.436 133.499 262.893 131.984 263.834C137.743 264.099 143.721 263.678 149.316 263.961C159.595 263.405 173.192 263.675 183.694 263.649L184.024 263.678C187.073 263.934 203.594 263.652 205.146 264.488C205.021 264.932 204.234 268.166 203.969 268.384C203.657 268.642 202.514 268.526 201.604 268.97C197.424 268.989 189.23 268.81 185.384 269.194C172.613 269.192 159.842 269.29 147.072 269.49C142.217 269.552 134.158 269.293 129.644 269.658C125.551 272.238 117.538 279.658 114.009 282.946C119.85 283.102 127.416 282.854 132.847 283.165C137.092 283.465 142.058 283.391 146.365 283.308C156.801 283.104 167.521 283.601 177.923 283.287C184.009 283.691 189.865 283.934 195.96 283.94C196.623 283.94 199.063 284.509 199.248 284.968C200.188 287.29 200.874 288.525 202.365 290.562C199.37 290.801 191.976 290.041 190.064 290.945C174.85 290.63 158.507 290.932 143.206 290.964L126.634 291.02C124.368 291.034 119.711 290.97 117.546 291.227C113.314 291.416 107.892 291.254 103.509 291.314C98.0754 291.067 91.1736 291.231 85.6248 291.217C95.1858 282.054 107.52 271.953 117.61 262.898C117.966 262.7 119.109 261.799 119.499 261.507C119.944 260.799 125.211 256.431 126.219 255.583Z"/><path fill="#0181CD" transform="matrix(1.79093 0 0 1.79021 -0.000488281 0)" d="M126.219 255.583C127.061 256.918 127.403 264.842 132.026 262.104C133.987 263.153 133.235 261.441 135.53 261.289C134.179 262.436 133.499 262.893 131.984 263.834C137.743 264.099 143.721 263.678 149.316 263.961C149.02 263.995 148.724 264.024 148.427 264.049C144.459 264.384 121.038 264.315 119.316 262.842C119.381 262.398 119.442 261.953 119.499 261.507C119.944 260.799 125.211 256.431 126.219 255.583Z"/><defs><linearGradient id="gradient_10" gradientUnits="userSpaceOnUse" x1="295.30835" y1="141.42085" x2="243.07454" y2="139.98132"><stop offset="0" stop-color="#001A41"/><stop offset="1" stop-color="#005DA1"/></linearGradient></defs><path fill="url(#gradient_10)" transform="matrix(1.79093 0 0 1.79021 -0.000488281 0)" d="M244.644 70.3428C247.172 66.8973 247.309 66.1555 250.856 62.7787C252.353 63.6694 254.947 65.7469 255.836 66.1675L256.026 65.7359C277.514 81.9605 291.128 103.115 294.813 130.054C298.284 155.424 292.808 182.571 277.429 203.404C273.356 208.921 265.731 216.673 260.262 220.698C262.203 218.4 262.367 218.516 262.306 215.261C262.283 214.036 260.472 210.47 259.728 209.51L259.347 209.742L259.001 209.591C263.004 205.766 266.608 201.984 269.91 197.515C279.772 184.162 286.939 164.244 287.335 147.597C287.851 124.418 279.252 101.961 263.384 85.0521C256.625 77.9716 252.597 75.4909 244.644 70.3428Z"/><path fill="#003867" transform="matrix(1.79093 0 0 1.79021 -0.000488281 0)" d="M112.698 459.701C112.715 461.063 112.418 461.15 112.385 462.204C112.677 461.366 113.339 460.39 113.933 459.728C115.381 458.115 115.877 454.733 117.766 453.554L118.003 454.024C125.612 449.44 130.925 440.759 136.793 435.935C140.003 433.298 166.1 407.277 167.722 406.814L167.849 407.312C165.883 409.72 163.444 411.504 161.313 413.749C161.355 413.704 160.418 417.388 160.284 417.765C158.462 422.867 156.617 428.574 155.021 433.678C154.315 435.938 149.749 439.273 149.026 442.445L149.239 442.901C149.177 443.005 156.569 435.459 157.039 435.016C162.31 430.056 167.418 424.08 172.84 419.38C171.77 421.197 159.659 433.062 157.003 435.791C145.125 448.089 133.156 460.299 121.098 472.42C115.814 477.713 110.54 483.036 105.163 488.242C103.227 490.116 100.144 492.539 97.6394 493.502C96.7529 493.843 95.0263 493.411 94.2125 492.906C94.2567 493.961 93.9872 494.536 95.2397 494.265L95.2058 494.771C94.7202 495.125 94.2178 495.419 93.8987 495.914C93.8252 496.691 93.6686 500.504 93.5754 500.798C91.4167 507.603 88.735 514.34 83.5748 519.479C82.2084 520.839 80.4023 521.654 79.0461 523.97C78.5405 524.833 77.4553 526.154 76.9027 527.11C76.7486 527.377 76.2416 527.549 75.9148 527.592C77.1473 527.725 83.4946 527.223 84.505 528.178C82.6953 528.623 66.8473 527.91 64.3509 527.791C68.2723 523.847 72.0018 518.818 75.6987 514.6C90.6188 497.573 101.729 479.435 112.698 459.701Z"/><defs><linearGradient id="gradient_11" gradientUnits="userSpaceOnUse" x1="262.24438" y1="246.15448" x2="264.65112" y2="290.61691"><stop offset="0" stop-color="#001A3C"/><stop offset="1" stop-color="#003D7D"/></linearGradient></defs><path fill="url(#gradient_11)" transform="matrix(1.79093 0 0 1.79021 -0.000488281 0)" d="M142.38 246.929C141.596 246.663 139.395 246.794 139.244 246.543C144.233 245.796 143.182 246.717 147.69 246.743C153.629 246.778 159.948 247.129 165.842 247.136L191.591 247.196C196.456 247.256 201.59 247.658 206.448 247.454C214.86 247.1 223.194 247.268 231.591 246.932C233.644 246.85 235.944 247.503 237.69 247.43C243.876 247.17 249.964 247.614 256.139 247.514C257.208 247.497 259.931 249.226 260.742 249.879C265.283 253.535 270.875 258.478 275.195 262.281C277.651 264.443 289.513 274.297 290.616 275.846L290.514 276.278C291.7 277.685 291.999 277.949 293.478 279.051C293.422 279.614 293.326 279.644 292.999 280.127C293.241 284.295 292.42 289.307 287.42 290.109C286.772 289.917 282.746 290.363 281.743 290.291C276.85 289.94 243.345 290.579 241.255 289.318C243.077 289.107 247.821 289.447 248.472 289.026L247.807 288.596C246.872 286.058 248.182 285.329 247.78 283.886C246.294 282.86 226.776 283.217 223.169 282.973C230.168 282.621 238.765 283.38 245.316 282.907C249.026 282.939 282.422 283.278 283.226 282.662L282.931 282.346C282.597 281.889 282.227 281.483 281.846 281.066C279.124 278.084 273.396 271.554 269.943 269.939C266.606 268.377 236.224 269.482 229.818 269.196C234.197 268.759 242.102 268.902 246.814 268.791C245.339 268.697 243.431 268.901 242.259 268.299C241.294 266.724 242.244 265.511 243.468 264.439L243.728 264.215C244.695 264.221 249.097 264.072 249.713 264.219L249.139 264.198C248.847 263.898 246.072 263.722 245.44 263.653C248.736 263.259 259.277 263.511 263.442 263.45C258.545 259.434 254.609 254.638 249.155 250.762C239.704 250.479 229.954 250.918 220.48 250.86C216.532 250.835 212.245 251.037 208.335 250.79L164.345 250.82C162.024 250.809 149.188 250.357 148.009 250.703C143.911 254.265 139.781 257.915 135.53 261.289C133.235 261.441 133.987 263.153 132.026 262.104C127.403 264.842 127.061 256.918 126.219 255.583C127.346 253.847 134.599 248.131 136.795 247.24C137.51 246.95 140.979 247.039 142.13 246.95L142.38 246.929Z"/><defs><linearGradient id="gradient_12" gradientUnits="userSpaceOnUse" x1="179.07591" y1="270.4234" x2="185.1142" y2="238.68414"><stop offset="0" stop-color="#0372A0"/><stop offset="1" stop-color="#001346"/></linearGradient></defs><path fill="url(#gradient_12)" transform="matrix(1.79093 0 0 1.79021 -0.000488281 0)" d="M142.38 246.929C152.051 247.499 160.885 247.494 170.506 247.576C182.677 247.714 194.85 247.784 207.023 247.786L224.451 247.817C227.269 247.827 230.174 247.788 232.984 247.927C233.809 247.968 237.976 249.347 238.413 250.015C237.754 250.342 212.199 250.233 208.335 250.79L164.345 250.82C162.024 250.809 149.188 250.357 148.009 250.703C143.911 254.265 139.781 257.915 135.53 261.289C133.235 261.441 133.987 263.153 132.026 262.104C127.403 264.842 127.061 256.918 126.219 255.583C127.346 253.847 134.599 248.131 136.795 247.24C137.51 246.95 140.979 247.039 142.13 246.95L142.38 246.929Z"/><path fill="#0167B1" transform="matrix(1.79093 0 0 1.79021 -0.000488281 0)" d="M132.026 262.104C134.832 259.429 143.346 253.589 146.836 250.714C147.294 250.71 147.685 250.706 148.009 250.703C143.911 254.265 139.781 257.915 135.53 261.289C133.235 261.441 133.987 263.153 132.026 262.104Z"/><path fill="#003867" transform="matrix(1.79093 0 0 1.79021 -0.000488281 0)" d="M86.4695 264.544C86.3246 266.293 83.5046 266.69 82.8521 269.013L83.3801 268.703C86.684 269.026 88.0884 266.728 90.8092 266.692C96.9024 266.641 103.345 268.953 109.368 267.839C112.444 267.27 114.956 263.458 117.61 262.898C107.52 271.953 95.1858 282.054 85.6248 291.217C91.1736 291.231 98.0754 291.067 103.509 291.314C99.5902 292.044 97.2203 291.858 93.2354 291.778L93.52 291.852L93.3762 291.84C98.3753 293.832 95.2299 296.493 93.3296 298.671C89.6266 302.914 85.7944 303.038 81.5234 305.527C79.1578 305.373 80.2807 304.839 78.3449 305.823L78.0747 306.284C78.9375 307.42 80.1339 308.083 80.3147 309.145C79.3793 308.345 78.2586 307.244 77.3861 306.343C71.3562 300.121 64.7284 294.551 58.4617 288.618C61.8498 285.389 65.9797 282.148 69.5859 279.069L86.4695 264.544Z"/><path fill="#003867" transform="matrix(1.79093 0 0 1.79021 -0.000488281 0)" d="M232.177 406.965C234.113 407.871 235.462 408.869 237.204 410.074L237.345 432.829C237.381 436.495 237.3 441.221 237.539 444.818C222.327 458.783 207.932 473.206 193.345 487.792C188.344 492.793 183.348 497.96 178.244 502.826C177.966 508.471 178.016 513.783 178.026 519.431C178.031 521.959 178.111 525.76 177.87 528.175C176.5 527.985 173.405 528.172 171.913 528.242C171.566 524.662 171.764 517.515 171.806 513.729C171.848 509.945 171.619 504.048 171.831 500.419C175.141 496.858 180.444 492.504 184.21 488.775L231.995 442.272C231.935 431.247 231.635 417.843 232.177 406.965Z"/><defs><linearGradient id="gradient_13" gradientUnits="userSpaceOnUse" x1="258.87634" y1="300.24576" x2="264.29788" y2="279.24976"><stop offset="0" stop-color="#005EBB"/><stop offset="1" stop-color="#00346D"/></linearGradient></defs><path fill="url(#gradient_13)" transform="matrix(1.79093 0 0 1.79021 -0.000488281 0)" d="M132.847 283.165C134.9 282.915 140.317 283.025 142.642 283.023L161.134 283.015L223.169 282.973C226.776 283.217 246.294 282.86 247.78 283.886C248.182 285.329 246.872 286.058 247.807 288.596L248.472 289.026C247.821 289.447 243.077 289.107 241.255 289.318C243.345 290.579 276.85 289.94 281.743 290.291C282.746 290.363 286.772 289.917 287.42 290.109C292.718 291.057 300.785 289.452 306.249 290.141L306.828 290.676L306.67 291.067C305.016 291.481 294.507 291.161 292.132 291.141C281.98 291.055 271.828 291.027 261.676 291.057L163.492 291.238C148.517 291.246 132.455 291.543 117.546 291.227C119.711 290.97 124.368 291.034 126.634 291.02L143.206 290.964C158.507 290.932 174.85 290.63 190.064 290.945C191.976 290.041 199.37 290.801 202.365 290.562C200.874 288.525 200.188 287.29 199.248 284.968C199.063 284.509 196.623 283.94 195.96 283.94C189.865 283.934 184.009 283.691 177.923 283.287C167.521 283.601 156.801 283.104 146.365 283.308C142.058 283.391 137.092 283.465 132.847 283.165Z"/><path fill="#0181CD" transform="matrix(1.79093 0 0 1.79021 -0.000488281 0)" d="M177.923 283.287C186.756 282.978 196.276 283.362 205.177 283.247C207.576 283.216 217.551 283.134 219.35 283.42L218.856 283.678C221.064 286.069 218.87 285.835 221.037 290.011L220.929 290.433C217.17 291.096 208.108 290.975 204.094 290.971C200.101 290.967 193.913 291.17 190.064 290.945C191.976 290.041 199.37 290.801 202.365 290.562C200.874 288.525 200.188 287.29 199.248 284.968C199.063 284.509 196.623 283.94 195.96 283.94C189.865 283.934 184.009 283.691 177.923 283.287Z"/><path fill="#003867" transform="matrix(1.79093 0 0 1.79021 -0.000488281 0)" d="M247.241 355.909C246.829 354.38 246.416 349.951 246.227 348.249C245.42 340.997 244.707 333.844 244.658 326.542C244.64 323.906 244.086 321.239 244.155 318.371L244.735 317.922C246.878 318.26 250.588 317.614 251.797 318.457C252.963 325.069 253.556 332.329 254.315 339.049C254.599 341.567 255.394 348.325 255.323 350.704C254.848 350.065 254.907 349.712 254.873 348.929C254.618 351.849 255.313 356.758 252.783 359.447C252.428 359.824 249.745 360.497 248.691 360.917C247.862 360.359 247.581 355.515 247.452 354.309C247.342 354.932 247.292 355.28 247.241 355.909Z"/><defs><linearGradient id="gradient_14" gradientUnits="userSpaceOnUse" x1="151.53891" y1="237.03862" x2="138.85561" y2="205.69002"><stop offset="0" stop-color="#002554"/><stop offset="1" stop-color="#0091D4"/></linearGradient></defs><path fill="url(#gradient_14)" transform="matrix(1.79093 0 0 1.79021 -0.000488281 0)" d="M130.699 208.915C140.975 219.722 154.287 227.161 168.879 230.251C168.521 230.471 167.783 230.951 167.438 231.098C159.617 229.761 155.8 231.546 149 231.21C147.147 231.13 145.322 230.728 143.607 230.023C139.962 228.55 129.669 221.701 127.077 218.848L127.268 218.471C125.693 215.352 119.593 215.703 128.277 210.586C129.09 210.107 129.938 209.484 130.699 208.915Z"/><defs><linearGradient id="gradient_15" gradientUnits="userSpaceOnUse" x1="247.79483" y1="67.399673" x2="228.80348" y2="56.17522"><stop offset="0" stop-color="#00629F"/><stop offset="1" stop-color="#009ADE"/></linearGradient></defs><path fill="url(#gradient_15)" transform="matrix(1.79093 0 0 1.79021 -0.000488281 0)" d="M232.342 52.5763C238.175 54.9248 251.551 61.2436 256.026 65.7359L255.836 66.1675C254.947 65.7469 252.353 63.6694 250.856 62.7787C247.309 66.1555 247.172 66.8973 244.644 70.3428C240.785 68.1449 235.857 65.8239 231.678 64.3729C230.024 63.4069 227.273 62.6727 225.376 62.1102C225.574 62.075 226.665 61.8486 226.666 61.847C229.262 58.3069 228.206 55.2356 232.342 52.5763Z"/><path fill="#003867" transform="matrix(1.79093 0 0 1.79021 -0.000488281 0)" d="M171.316 536.971C172.976 537.218 176.33 537.024 178.022 536.747C177.915 545.101 177.921 553.455 178.041 561.809C176.33 564.905 172.71 567.433 170.408 570.467C168.917 570.479 165.457 570.614 164.158 570.3C166.315 569.639 170.18 564.096 170.656 561.901C172.364 554.016 170.76 545.26 171.289 537.341L171.316 536.971Z"/><defs><linearGradient id="gradient_16" gradientUnits="userSpaceOnUse" x1="119.0573" y1="201.61292" x2="125.97744" y2="212.7849"><stop offset="0" stop-color="#00B5F1"/><stop offset="1" stop-color="#0090D1"/></linearGradient></defs><path fill="url(#gradient_16)" transform="matrix(1.79093 0 0 1.79021 -0.000488281 0)" d="M121.635 197.22C123.054 199.217 127.175 205.332 128.748 206.649C129.436 207.513 129.933 208.103 130.699 208.915C129.938 209.484 129.09 210.107 128.277 210.586C119.593 215.703 125.693 215.352 127.268 218.471L127.077 218.848C125.459 217.749 122.007 214.243 120.555 212.808C118.266 209.955 115.15 207.06 113.328 203.825L113.9 203.843C114.223 204.378 114.046 204.228 114.564 204.526C116.668 203.54 121.089 201.442 122.718 199.886C122.083 198.905 121.683 198.443 121.635 197.22Z"/><path fill="#003867" transform="matrix(1.79093 0 0 1.79021 -0.000488281 0)" d="M287.42 290.109C292.42 289.307 293.241 284.295 292.999 280.127C293.326 279.644 293.422 279.614 293.478 279.051C291.999 277.949 291.7 277.685 290.514 276.278L290.616 275.846C295.653 280.314 301.579 285.387 306.249 290.141C300.785 289.452 292.718 291.057 287.42 290.109Z"/><path fill="#00183C" transform="matrix(1.79093 0 0 1.79021 -0.000488281 0)" d="M171.913 528.242C173.405 528.172 176.5 527.985 177.87 528.175C179.153 530.487 181.696 528.193 182.908 529.478C179.211 529.603 174.841 529.401 171.097 529.316C171.641 528.979 171.638 528.824 171.913 528.242Z"/><path fill="#00183C" transform="matrix(1.79093 0 0 1.79021 -0.000488281 0)" d="M117.608 235.251C118.371 235.723 119.92 236.506 120.221 237.234C119.13 238.185 116.696 238.453 115.311 239.869C115.22 239.962 114.984 240.077 114.863 240.142C116.024 238.982 116.567 238.85 115.973 237.25L116.56 236.528L117.608 235.251Z"/><path fill="#000002" transform="matrix(1.79093 0 0 1.79021 -0.000488281 0)" d="M112.902 231.581C114.363 232.738 116.108 234.198 117.608 235.251L116.56 236.528C115.537 235.746 115.154 235.42 114.26 234.487C114.118 232.962 113.457 233.492 112.902 231.581Z"/><path fill="#00183C" transform="matrix(1.79093 0 0 1.79021 -0.000488281 0)" d="M168.879 230.251C170.703 230.379 171.208 230.727 172.778 230.952C170.674 231.172 169.517 231.155 167.438 231.098C167.783 230.951 168.521 230.471 168.879 230.251Z"/><defs><linearGradient id="gradient_17" gradientUnits="userSpaceOnUse" x1="191.76372" y1="392.13336" x2="221.31784" y2="387.57379"><stop offset="0" stop-color="#00518F"/><stop offset="1" stop-color="#00204B"/></linearGradient></defs><path fill="url(#gradient_17)" transform="matrix(1.79093 0 0 1.79021 -0.000488281 0)" d="M209.702 341.843C212.15 342.885 213.611 344.017 215.53 345.877C215.886 354.563 215.687 364.151 215.667 372.889C215.556 390.636 215.551 408.384 215.651 426.131C214.608 427.177 206.653 434.182 205.445 435.05L205.284 434.588C203.824 435.861 202.355 437.125 200.878 438.379C199.523 436.614 198.015 435.772 199.193 433.333C199.583 432.524 199.444 432.22 199.124 431.507C201.792 428.831 207.261 424.226 209.299 421.531C209.704 413.4 209.394 403.53 209.366 395.227C209.13 377.432 209.242 359.634 209.702 341.843Z"/><defs><linearGradient id="gradient_18" gradientUnits="userSpaceOnUse" x1="244.7141" y1="186.7354" x2="198.21463" y2="146.96889"><stop offset="0" stop-color="#002D5D"/><stop offset="1" stop-color="#004D8A"/></linearGradient></defs><path fill="url(#gradient_18)" transform="matrix(1.79093 0 0 1.79021 -0.000488281 0)" d="M250.526 94.0704L251.322 94.2398C253.508 96.095 256.687 105.576 257.645 108.566C264.685 130.55 264.018 153.985 253.265 174.668C243.753 192.711 227.425 206.208 207.911 212.158C193.883 216.54 178.847 216.399 164.961 211.464C161.081 210.085 157.173 208.023 153.534 206.114C151.443 204.929 150.746 204.419 148.89 202.859C152.38 203.911 155.112 205.459 158.44 206.769C176.36 213.818 196.216 213.62 214.024 206.247C231.549 198.954 245.492 185.048 252.827 167.545C259.509 151.374 260.641 131.559 257.305 114.41C256.012 107.76 253.141 100.329 250.526 94.0704Z"/><path fill="#003867" transform="matrix(1.79093 0 0 1.79021 -0.000488281 0)" d="M247.219 421.724C247.168 420.686 247.08 420.516 247.634 419.713C249.264 418.679 250.135 419.038 251.296 420.586C251.686 424.335 250.913 435.556 250.881 440.495C250.852 444.906 250.892 449.318 251.001 453.729C251.068 456.549 251.285 460.664 251.037 463.37C245.794 470.942 236.728 477.194 230.313 483.919C226.524 487.891 222.932 492.574 219.003 496.31C208.136 506.644 197.658 517.567 186.768 527.844L181.319 528.187C185.894 523.37 190.736 518.985 195.45 514.352C208.003 502.015 220.492 489.561 232.26 476.467C236.249 472.029 243.592 466.313 246.432 461.374L246.428 440.256C246.45 434.035 246.388 427.899 247.219 421.724Z"/><path fill="#00183C" transform="matrix(1.79093 0 0 1.79021 -0.000488281 0)" d="M247.219 421.724C247.168 420.686 247.08 420.516 247.634 419.713C249.264 418.679 250.135 419.038 251.296 420.586C250.275 420.631 248.089 421.211 247.219 421.724Z"/><path fill="#01B8F1" transform="matrix(1.79093 0 0 1.79021 -0.000488281 0)" d="M173.853 455.473C174.57 454.693 175.64 453.721 176.451 453.008C184.238 446.168 191.091 438.055 199.124 431.507C199.444 432.22 199.583 432.524 199.193 433.333C198.015 435.772 199.523 436.614 200.878 438.379C202.355 437.125 203.824 435.861 205.284 434.588L205.445 435.05C203.965 436.7 201.263 438.984 199.522 440.551L188.819 450.118C185.675 452.898 177.01 460.838 174.103 462.783C172.175 465.041 165.531 470.356 162.839 472.71L137.934 494.553C136.536 495.769 129.795 501.486 129.029 502.708L129.014 503.114C128.444 501.858 126.081 500.651 124.885 499.993C123.416 500.038 122.121 499.992 120.651 499.936C121.871 499.644 123.517 499.678 124.808 499.65C127.651 497.892 132.803 492.974 135.58 490.522C145.126 482.095 154.367 473.222 163.911 464.78C167.169 461.899 170.467 458.123 173.853 455.473Z"/><defs><linearGradient id="gradient_19" gradientUnits="userSpaceOnUse" x1="200.90146" y1="440.85733" x2="183.73004" y2="442.84674"><stop offset="0" stop-color="#004F95"/><stop offset="1" stop-color="#007CC0"/></linearGradient></defs><path fill="url(#gradient_19)" transform="matrix(1.79093 0 0 1.79021 -0.000488281 0)" d="M173.853 455.473C174.57 454.693 175.64 453.721 176.451 453.008C184.238 446.168 191.091 438.055 199.124 431.507C199.444 432.22 199.583 432.524 199.193 433.333C198.015 435.772 199.523 436.614 200.878 438.379C202.355 437.125 203.824 435.861 205.284 434.588L205.445 435.05C203.965 436.7 201.263 438.984 199.522 440.551L188.819 450.118C185.675 452.898 177.01 460.838 174.103 462.783C174.856 460.103 185.224 453.939 185.564 451.575L184.665 450.476C184.899 449.461 184.643 449.137 184.228 448.171L183.673 448.487L183.347 448.35C184.84 446.472 186.691 444.677 188.401 442.513C187.337 442.726 176.941 454.85 173.853 455.473Z"/><path fill="#00183C" transform="matrix(1.79093 0 0 1.79021 -0.000488281 0)" d="M258.219 481.955C259.386 482.897 261.259 485.317 262.286 486.561C253.484 492.765 225.157 526.343 218.993 527.785C217.177 527.802 216.589 527.711 214.744 527.458C215.512 526.644 216.274 525.731 217.013 524.882C223.752 517.138 231.114 509.941 238.272 502.591C244.929 495.756 251.394 488.606 258.219 481.955Z"/><defs><linearGradient id="gradient_20" gradientUnits="userSpaceOnUse" x1="127.05252" y1="520.47809" x2="116.9828" y2="501.54544"><stop offset="0" stop-color="#009CE8"/><stop offset="1" stop-color="#00DDF9" stop-opacity="0.98823529"/></linearGradient></defs><path fill="url(#gradient_20)" transform="matrix(1.79093 0 0 1.79021 -0.000488281 0)" d="M131.824 506.017C132.213 506.945 132.517 507.905 132.733 508.888C135.851 523.656 114.356 528.219 111.526 512.741C110.476 506.998 114.825 500.743 120.651 499.936C122.121 499.992 123.416 500.038 124.885 499.993C126.081 500.651 128.444 501.858 129.014 503.114C127.762 505.228 125.876 503.733 125.125 507.158C121.708 505.243 118.951 505.192 117.115 509.213C116.591 510.354 116.557 511.659 117.023 512.825C118.945 517.502 125.878 517.769 127.702 512.425C127.856 511.961 127.995 511.493 128.119 511.021C128.34 509.197 129.607 505.947 131.824 506.017Z"/><path fill="#01B8F1" transform="matrix(1.79093 0 0 1.79021 -0.000488281 0)" d="M180.301 403.328C182.816 403.599 185.381 405.229 186.197 407.709C186.725 409.317 186.575 411.071 185.781 412.567C184.567 414.835 183.031 415.39 180.769 416.053C174.335 415.619 172.711 408.759 177.457 404.835C178.168 404.248 179.445 403.717 180.301 403.328Z"/><path fill="#003867" transform="matrix(1.79093 0 0 1.79021 -0.000488281 0)" d="M128.119 511.021C127.995 511.493 127.856 511.961 127.702 512.425C125.878 517.769 118.945 517.502 117.023 512.825C116.557 511.659 116.591 510.354 117.115 509.213C118.951 505.192 121.708 505.243 125.125 507.158C126.695 508.23 127.789 508.983 128.119 511.021Z"/><path fill="#0181CD" transform="matrix(1.79093 0 0 1.79021 -0.000488281 0)" d="M129.029 502.708C130.381 503.87 130.974 504.414 131.824 506.017C129.607 505.947 128.34 509.197 128.119 511.021C127.789 508.983 126.695 508.23 125.125 507.158C125.876 503.733 127.762 505.228 129.014 503.114L129.029 502.708Z"/><path fill="#000002" fill-opacity="0.98431373" transform="matrix(1.79093 0 0 1.79021 -0.000488281 0)" d="M332.779 288.661C331.925 290.751 330.94 290.41 330.872 292.453C321.778 301.235 312.507 309.832 303.064 318.239C301.339 319.785 296.058 324.946 294.648 325.909C290.28 326.215 283.557 326.253 279.059 326.203C280.412 343.03 281.682 357.99 284.822 374.692C293.418 420.41 312.589 460.405 342.389 496.005C352.758 508.392 364.201 520.383 375.519 531.916C377.935 534.378 380.032 537.161 382.304 539.578C379.031 546.301 375.817 553.053 372.663 559.832C371.146 563.071 369.667 566.331 368.061 569.526C367.342 570.955 366.255 571.126 364.782 571.111C365.019 571.024 365.201 570.964 365.384 570.781C366.798 569.363 379.804 540.711 379.693 539.61C379.558 538.28 376.961 535.738 376.063 534.733C373.019 531.331 369.711 528.17 366.546 524.881C358.273 516.283 349.868 507.601 342.291 498.384C327.397 480.265 314.35 461.414 304.153 440.246C286.083 402.736 279.798 366.164 277.229 325.065C282.602 323.878 288.588 325.24 293.596 324.043C295.556 323.574 302.512 316.553 304.569 314.717C309.922 310.036 315.092 305.109 320.358 300.345C324.066 296.991 328.874 291.38 332.779 288.661Z"/><path fill="#000002" fill-opacity="0.98431373" transform="matrix(1.79093 0 0 1.79021 -0.000488281 0)" d="M292.905 76.0311C296.551 80.3907 300.541 87.2555 303.083 92.3028C313.245 112.142 317.508 134.476 315.367 156.662C313.22 180.817 304.657 202.864 289.127 221.576C285.538 225.899 278.764 232.477 274.546 236.287C283.697 243.17 294.625 252.843 303.253 260.355L333.546 286.714L332.655 287.627C326.582 282.823 321.145 277.863 315.354 272.79L294.45 254.766C288.267 249.484 279.251 242.49 273.259 236.702C272.857 236.441 273.077 235.445 273.355 235.204C292.512 218.554 305.368 198.209 311.062 172.914C317.038 146.542 313.965 118.928 302.338 94.5139C299.649 88.9154 296.513 83.928 293.204 78.6933L292.905 76.0311Z"/><path fill="#000002" fill-opacity="0.98431373" transform="matrix(1.79093 0 0 1.79021 -0.000488281 0)" d="M106.995 227.692C108.162 227.77 108.474 228.068 109.416 228.706L110.041 228.714C110.594 229.165 112.603 231.043 112.902 231.581C113.457 233.492 114.118 232.962 114.26 234.487C111.501 232.581 109.004 230.391 106.995 227.692Z"/><path fill="#000002" fill-opacity="0.97254902" transform="matrix(1.79093 0 0 1.79021 -0.000488281 0)" d="M333.546 286.714C334.63 287.323 334.63 287.077 334.896 287.944C334.4 289.753 332.392 291.396 330.872 292.453C330.94 290.41 331.925 290.751 332.779 288.661L332.655 287.627L333.546 286.714Z"/></svg>