<?xml version="1.0" encoding="utf-8" ?><svg xmlns="http://www.w3.org/2000/svg" xmlns:xlink="http://www.w3.org/1999/xlink" width="872" height="1024" viewBox="0 0 872 1024"><defs><linearGradient id="gradient_0" gradientUnits="userSpaceOnUse" x1="296.68457" y1="275.15628" x2="17.681637" y2="138.36234"><stop offset="0" stop-color="#000319"/><stop offset="1" stop-color="#004069"/></linearGradient></defs><path fill="url(#gradient_0)" transform="scale(2.85902 2.86034)" d="M154.053 7.67319C157.616 9.09626 160.847 11.6549 163.781 14.0708C172.517 21.2549 179.628 29.6165 184.699 39.87C186.53 43.5727 187.508 50.4931 190.181 53.2418C191.908 55.018 199.265 55.2447 202.232 56.4981C207.979 58.9265 213.9 62.6894 218.047 67.2773C217.629 68.183 217.53 68.3524 217.528 69.3983C216.572 72.6844 212.404 76.0292 210.467 79.019C203.491 89.7876 195.222 101.38 191.053 113.542C189.313 118.615 193.182 124.507 198.672 124.179C207.675 124.119 215.613 124.247 223.238 130.009C225.474 131.678 227.442 133.679 229.074 135.942C232.643 140.863 235.584 149.128 243.426 144.83C245.87 143.49 248.156 141.586 250.533 140.2C266.182 131.075 281.872 137.425 294.076 148.949C295.037 149.857 296.371 151.137 297.179 152.204C291.498 158.53 284.445 166.713 279.591 173.841C262.9 198.449 248.959 225.255 238.429 253.063C236.788 257.395 234.713 262.114 233.618 266.561C233.282 267.922 239.363 270.849 240.286 271.658C244.041 274.956 246.644 279.718 247.294 284.678C247.722 287.941 247.594 290.491 246.914 293.713C246.664 294.899 245.396 299.415 246.526 300.145C248.226 301.243 250.605 301.611 252.48 302.431C261.339 305.555 266.537 312.108 268.18 321.312C269.56 329.039 267.956 337.276 263.532 343.866C260.264 348.735 253.579 351.974 247.859 352.818C242.255 353.644 238.746 353.31 233.835 357.003C226.894 357.48 216.103 357.145 208.764 357.14L161.89 357.126L104.084 357.153C94.0988 357.158 82.0769 357.481 72.2969 357.02C70.4232 356.926 68.3212 355.304 66.9091 355.232C56.7136 354.713 45.6835 352.709 40.6582 342.275C36.2643 336.733 35.849 323.972 38.1114 317.499C40.5386 310.554 45.3296 304.306 52.4841 301.8C55.248 300.832 58.4306 300.102 60.9628 298.813C60.7836 298.044 60.36 296.853 60.1063 296.065C57.6669 287.42 58.4702 276.787 66.3697 270.728C67.3446 269.98 70.4865 267.882 71.6179 267.691C71.7018 267.515 71.9526 266.938 71.8918 266.76C59.5425 230.51 35.9841 182.209 10.442 154.565C8.20842 152.607 8.34716 151.593 10.4263 149.51C22.8881 137.024 39.7755 128.792 56.4893 138.576C61.9362 141.607 69.0543 149.072 73.7251 140.524C78.3465 132.066 82.853 127.252 91.9831 123.928C99.6348 122.071 102.534 123.347 109.101 122.479C110.336 121.657 111.744 121.273 112.961 120.284C114.121 119.341 114.796 118.076 114.91 116.579C115.426 109.813 101.287 87.4848 97.0723 81.4118C94.4441 77.6251 91.5335 73.994 88.5733 70.4626C90.745 65.0095 100.407 58.4127 105.98 56.4818C108.714 55.5344 115.967 55.1925 117.661 53.2375C118.866 51.8482 121.572 44.7776 122.389 42.7226C127.923 28.8096 140.681 14.6374 154.053 7.67319ZM104.818 330.487C102.328 330.581 98.5699 330.981 96.3368 330.019C92.1323 329.887 66.2115 329.78 64.0079 328.417C63.4203 328.054 63.0256 327.424 62.8807 326.755C62.6741 325.801 62.7782 324.534 63.2738 323.691C64.5067 323.018 96.6263 323.641 101.171 323.51C104.008 322.821 110.587 323.524 111.626 322.725C111.641 321.732 109.213 318.315 110.434 317.965C115.023 316.651 122.766 317.183 127.562 317.129C127.38 317.099 127.396 317.058 127.21 316.911L127.181 317.119L126.626 316.942L127.117 316.767L127.218 317.047L127.384 316.749C129.701 316.654 138.25 316.89 140.068 316.421C136.069 316.341 130.849 316.557 127.042 316.206C128.258 316.056 129.377 316.004 130.596 315.942C125.32 315.697 119.216 315.846 113.878 315.826C106.63 315.773 99.3824 315.642 92.1373 315.431C86.9362 315.309 81.7368 315.121 76.5403 314.868C71.8318 314.657 67.1398 314.275 62.4528 314.801C60.8041 314.987 59.664 315.833 58.4549 316.885C53.8756 320.873 53.3851 328.636 57.444 333.132C59.2778 335.164 62.3919 335.718 65.0059 335.65C76.8635 335.341 88.7683 335.542 100.62 335.24C103.964 334.717 103.374 333.316 104.818 330.487Z"/><path fill="#00468F" transform="scale(2.85902 2.86034)" d="M143.102 167.392C144.049 167.307 144.864 167.457 145.793 167.529C158.505 168.511 172.18 167.417 182.532 159.222C189.087 154.034 194.272 145.451 203.215 144.836C211.654 144.193 214.355 153.404 217.983 159.249C223.645 168.369 235.61 171.55 244.963 165.877C250.889 162.283 257.499 153.532 265.313 154.897C266.008 155.019 266.877 155.397 267.423 155.839C268.342 157.533 266.301 160.231 265.344 161.677C262.206 166.418 259.346 171.271 256.519 176.204C251.213 185.543 246.191 195.041 241.463 204.686C235.437 216.989 229.867 229.511 224.765 242.226C223.028 246.665 221.281 251.137 219.557 255.579C218.597 258.052 217.156 262.993 215.954 265.092C212.695 265.016 209.434 264.977 206.174 264.975C208.708 259.936 212.061 249.055 214.371 243.152C221.402 224.816 229.517 206.915 238.674 189.543C240.386 186.293 244.413 178.332 246.319 175.588C239.089 179.511 231.391 179.304 223.594 177.176C215.773 175.042 210.566 169.5 206.407 162.793C203.656 158.767 202.457 154.589 197.875 159.957C185.989 173.883 166.497 180.759 148.45 179.205C145.52 178.953 139.623 178.569 137.083 177.372L137.341 177.22L137.174 176.982C134.205 176.447 128.311 174.151 125.661 172.624C125.726 172.284 126.678 170.954 126.916 170.093C129.795 159.684 138.375 168.878 143.102 167.392Z"/><defs><linearGradient id="gradient_1" gradientUnits="userSpaceOnUse" x1="134.68001" y1="178.82449" x2="65.954788" y2="212.26579"><stop offset="0" stop-color="#00A1DC"/><stop offset="1" stop-color="#00C6FF"/></linearGradient></defs><path fill="url(#gradient_1)" transform="scale(2.85902 2.86034)" d="M38.6348 157.181C53.9931 147.311 58.4665 171.94 76.548 168.673C95.2545 165.293 87.4771 149.201 101.937 145.008C108.332 143.154 118.115 154.61 122.985 158.573C123.781 160.418 126.244 160.496 126.199 162.314C125.412 163.023 125.397 162.844 124.224 163.115C123.754 163.593 123.22 164.225 122.748 164.665C121.576 165.756 121.392 167.69 120.054 168.53C118.439 168.798 116.363 166.576 115.263 165.525L115.131 165.935C111.608 163.222 108.579 159.017 104.428 157.424C102.419 159.742 100.572 163.532 98.7645 166.199C93.7872 173.573 85.7089 178.264 76.8372 178.932C69.6618 179.448 66.3321 178.195 60.204 174.942C66.9414 184.463 71.6258 196.437 76.8827 206.884C78.357 209.814 79.8432 213.036 81.1718 216.038C85.8713 226.879 90.3529 237.815 94.6137 248.836C95.6736 251.519 100.217 262.502 100.761 264.867C97.6241 265.022 94.2851 264.931 91.0427 265.075C89.4112 260.871 87.9269 256.61 86.2749 252.401C73.2934 219.331 58.389 186.809 38.6348 157.181Z"/><path fill="#02132A" transform="scale(2.85902 2.86034)" d="M154.053 7.67319C157.616 9.09626 160.847 11.6549 163.781 14.0708C164.173 14.8485 164.994 16.3759 165.256 17.1582C161.63 14.2044 158.057 10.373 153.498 9.99884C150.067 11.3568 147.309 13.7261 144.503 16.0364C135.299 23.6142 129.059 31.4562 124.266 42.5098C122.666 46.1992 120.623 52.5015 118.006 55.29C115.449 56.3346 111.685 56.8864 108.888 57.561C102.277 59.1557 94.0249 64.6812 89.8098 69.9301C97.0776 76.8527 116.295 106.267 116.521 115.696C116.569 117.682 115.854 119.806 114.451 121.237C112.553 123.173 109.775 123.754 107.159 123.746C106.506 123.743 105.853 123.732 105.2 123.715C107.017 123.545 107.793 123.671 109.101 122.479C110.336 121.657 111.744 121.273 112.961 120.284C114.121 119.341 114.796 118.076 114.91 116.579C115.426 109.813 101.287 87.4848 97.0723 81.4118C94.4441 77.6251 91.5335 73.994 88.5733 70.4626C90.745 65.0095 100.407 58.4127 105.98 56.4818C108.714 55.5344 115.967 55.1925 117.661 53.2375C118.866 51.8482 121.572 44.7776 122.389 42.7226C127.923 28.8096 140.681 14.6374 154.053 7.67319Z"/><defs><linearGradient id="gradient_2" gradientUnits="userSpaceOnUse" x1="37.825199" y1="213.5414" x2="48.409641" y2="206.89928"><stop offset="0" stop-color="#000707"/><stop offset="1" stop-color="#020F26"/></linearGradient></defs><path fill="url(#gradient_2)" transform="scale(2.85902 2.86034)" d="M11.2752 153.577C17.2288 158.71 20.8334 164.038 25.3497 170.404C42.6538 194.84 56.5778 221.996 67.5496 249.821C69.5169 254.81 71.1731 259.938 73.2401 264.872C73.5806 265.684 74.8542 265.524 75.5753 265.475L75.8612 265.675L74.4915 265.998C74.2051 266.486 74.2063 266.483 74.0646 267.03C73.6815 267.879 72.897 268.257 72.0898 268.8L71.6179 267.691C71.7018 267.515 71.9526 266.938 71.8918 266.76C59.5425 230.51 35.9841 182.209 10.442 154.565C10.6523 154.203 10.9849 153.887 11.2752 153.577Z"/><path fill="#02132A" transform="scale(2.85902 2.86034)" d="M10.442 154.565C8.20842 152.607 8.34716 151.593 10.4263 149.51C22.8881 137.024 39.7755 128.792 56.4893 138.576C61.9362 141.607 69.0543 149.072 73.7251 140.524C78.3465 132.066 82.853 127.252 91.9831 123.928C92.8108 124.059 93.4585 123.986 93.8822 124.495L93.6976 124.645L93.7971 124.842C88.5527 127.397 86.5796 127.61 81.752 131.858C76.7177 136.288 75.8579 142.968 70.4701 145.794C69.6918 146.202 67.5677 146.568 66.6306 146.738C60.6718 143.448 56.6554 139.753 50.0195 137.53C41.4941 134.673 33.944 135.673 26.0083 139.835C21.8946 142.042 12.4418 148.364 10.4001 152.616C10.6681 153.305 10.5666 153.082 11.2752 153.577C10.9849 153.887 10.6523 154.203 10.442 154.565Z"/><path fill="#000002" transform="scale(2.85902 2.86034)" d="M163.781 14.0708C172.517 21.2549 179.628 29.6165 184.699 39.87C186.53 43.5727 187.508 50.4931 190.181 53.2418C191.908 55.018 199.265 55.2447 202.232 56.4981C207.979 58.9265 213.9 62.6894 218.047 67.2773C217.629 68.183 217.53 68.3524 217.528 69.3983C217.482 69.3016 217.435 69.2048 217.389 69.1081L217.307 68.9548C216.511 67.4419 214.179 65.3739 212.803 64.3022C209.522 61.7291 205.852 59.6961 201.93 58.2799C198.276 56.9442 191.219 56.1821 188.841 54.1818C186.855 52.5113 184.933 45.3232 183.86 42.5321C183.122 40.6528 182.265 38.8221 181.296 37.051C177.041 29.2284 171.555 23.2953 165.256 17.1582C164.994 16.3759 164.173 14.8485 163.781 14.0708Z"/><path fill="#000002" transform="scale(2.85902 2.86034)" d="M60.9628 298.813C61.0601 298.827 62.2518 298.363 62.4494 298.29C62.3349 301.356 55.2407 302.379 52.8364 303.225C43.9585 306.35 38.7041 316.258 38.2733 325.278C37.9409 332.734 39.6913 337.882 43.5787 344.258C43.6544 344.764 43.6765 344.735 43.4951 345.208C42.4639 344.707 41.7806 342.691 40.6582 342.275C36.2643 336.733 35.849 323.972 38.1114 317.499C40.5386 310.554 45.3296 304.306 52.4841 301.8C55.248 300.832 58.4306 300.102 60.9628 298.813Z"/><path fill="#0180BB" transform="scale(2.85902 2.86034)" d="M122.985 158.573C130.223 163.793 134.097 165.667 143.102 167.392C138.375 168.878 129.795 159.684 126.916 170.093C126.678 170.954 125.726 172.284 125.661 172.624C128.311 174.151 134.205 176.447 137.174 176.982L137.341 177.22L137.083 177.372C131.026 175.74 118.947 171.018 115.131 165.935L115.263 165.525C116.363 166.576 118.439 168.798 120.054 168.53C121.392 167.69 121.576 165.756 122.748 164.665C123.22 164.225 123.754 163.593 124.224 163.115C125.397 162.844 125.412 163.023 126.199 162.314C126.244 160.496 123.781 160.418 122.985 158.573Z"/><defs><linearGradient id="gradient_3" gradientUnits="userSpaceOnUse" x1="67.106155" y1="282.16098" x2="60.362801" y2="279.90988"><stop offset="0" stop-color="#000611"/><stop offset="1" stop-color="#001128"/></linearGradient></defs><path fill="url(#gradient_3)" transform="scale(2.85902 2.86034)" d="M60.1063 296.065C57.6669 287.42 58.4702 276.787 66.3697 270.728C67.3446 269.98 70.4865 267.882 71.6179 267.691L72.0898 268.8C61.4814 275.212 58.6914 282.515 61.0882 294.521C60.7931 295.394 60.8135 295.559 60.1063 296.065Z"/><path fill="#000002" transform="scale(2.85902 2.86034)" d="M40.6582 342.275C41.7806 342.691 42.4639 344.707 43.4951 345.208C43.6765 344.735 43.6544 344.764 43.5787 344.258C49.4572 351.261 55.3299 353.039 64.277 353.478C68.1424 353.668 69.8769 354.074 72.2969 357.02C70.4232 356.926 68.3212 355.304 66.9091 355.232C56.7136 354.713 45.6835 352.709 40.6582 342.275Z"/><path fill="#000002" transform="scale(2.85902 2.86034)" d="M91.9831 123.928C99.6348 122.071 102.534 123.347 109.101 122.479C107.793 123.671 107.017 123.545 105.2 123.715C100.636 123.821 98.2479 123.969 93.7971 124.842L93.6976 124.645L93.8822 124.495C93.4585 123.986 92.8108 124.059 91.9831 123.928Z"/><path fill="#002B59" transform="scale(2.85902 2.86034)" d="M100.761 264.867L101.27 264.65L101.372 264.966C100.132 265.917 93.9032 265.492 91.4727 265.808C92.68 266.013 98.6608 266.065 100.209 266.123C93.6608 267.089 93.2829 266.711 86.9979 265.948C87.0351 265.855 87.0009 265.69 86.9905 265.569C85.6675 265.564 84.7677 265.603 83.4609 265.3C85.3258 265.154 89.6512 265.508 91.0427 265.075C94.2851 264.931 97.6241 265.022 100.761 264.867Z"/><path fill="#02132A" transform="scale(2.85902 2.86034)" d="M75.5753 265.475C76.3071 265.04 82.1879 265.27 83.4609 265.3C84.7677 265.603 85.6675 265.564 86.9905 265.569C87.0009 265.69 87.0351 265.855 86.9979 265.948C83.6574 265.977 76.9495 265.866 74.0646 267.03C74.2063 266.483 74.2051 266.486 74.4915 265.998L75.8612 265.675L75.5753 265.475Z"/><path fill="#02132A" transform="scale(2.85902 2.86034)" d="M60.1063 296.065C60.8135 295.559 60.7931 295.394 61.0882 294.521C61.6018 295.785 62.0112 297.003 62.4494 298.29C62.2518 298.363 61.0601 298.827 60.9628 298.813C60.7836 298.044 60.36 296.853 60.1063 296.065Z"/><defs><linearGradient id="gradient_4" gradientUnits="userSpaceOnUse" x1="224.98616" y1="361.39706" x2="148.15437" y2="295.18716"><stop offset="0" stop-color="#00205E"/><stop offset="1" stop-color="#024468"/></linearGradient></defs><path fill="url(#gradient_4)" transform="scale(2.85902 2.86034)" d="M180.546 316.031C183.661 315.68 191.287 315.918 194.801 315.923C203.755 315.922 212.709 315.87 221.662 315.768C226.808 315.688 231.935 315.265 237.103 315.06C241.353 314.892 245.729 313.846 249.399 316.729C253.684 320.093 254.385 328.113 251.03 332.324C249.753 333.927 247.523 335.26 245.481 335.267C238.605 335.726 231.52 335.301 224.601 335.25L186.784 335.089C173.425 335.004 160.051 335.301 146.69 335.246C146.02 335.244 145.382 335.252 144.713 335.199C130.499 335.23 114.712 335.611 100.62 335.24C103.964 334.717 103.374 333.316 104.818 330.487C102.328 330.581 98.5699 330.981 96.3368 330.019C92.1323 329.887 66.2115 329.78 64.0079 328.417C63.4203 328.054 63.0256 327.424 62.8807 326.755C62.6741 325.801 62.7782 324.534 63.2738 323.691C64.5067 323.018 96.6263 323.641 101.171 323.51C104.008 322.821 110.587 323.524 111.626 322.725C111.641 321.732 109.213 318.315 110.434 317.965C115.023 316.651 122.766 317.183 127.562 317.129C127.38 317.099 127.396 317.058 127.21 316.911L127.181 317.119L126.626 316.942L127.117 316.767L127.218 317.047L127.384 316.749C129.701 316.654 138.25 316.89 140.068 316.421C136.069 316.341 130.849 316.557 127.042 316.206C128.258 316.056 129.377 316.004 130.596 315.942C146.974 315.577 164.064 316.214 180.546 316.031Z"/><path fill="#02132A" transform="scale(2.85902 2.86034)" d="M180.28 323.456C185.295 323.683 191.627 323.45 196.769 323.408L226.789 323.151C229.696 323.125 242.961 322.461 244.575 323.788C245.121 325.187 245.004 328.779 242.951 328.993C237.859 329.526 232.657 329.487 227.533 329.699C208.647 330.312 189.749 330.515 170.854 330.308L154.998 330.243C152.54 330.227 148.232 330.08 145.91 330.285L96.3368 330.019C92.1323 329.887 66.2115 329.78 64.0079 328.417C63.4203 328.054 63.0256 327.424 62.8807 326.755C62.6741 325.801 62.7782 324.534 63.2738 323.691C64.5067 323.018 96.6263 323.641 101.171 323.51C123.612 323.911 146.178 323.388 168.627 323.521C172.473 323.544 176.434 323.538 180.28 323.456Z"/><defs><linearGradient id="gradient_5" gradientUnits="userSpaceOnUse" x1="138.98869" y1="312.54178" x2="129.63635" y2="331.80518"><stop offset="0" stop-color="#045C89"/><stop offset="1" stop-color="#0076BE"/></linearGradient></defs><path fill="url(#gradient_5)" transform="scale(2.85902 2.86034)" d="M130.596 315.942C146.974 315.577 164.064 316.214 180.546 316.031C178.95 316.361 178.154 316.145 176.893 316.32C173.394 316.805 170.572 316.918 167.061 316.997L166.813 317.035C158.093 318.344 148.308 317.14 139.527 317.525C138.414 317.574 137.321 317.392 136.225 317.602C136.581 318.487 138.34 321.468 139.134 321.564C140.761 321.762 145.429 321.612 146.807 321.678C150.383 321.848 179.24 321.882 180.574 322.418C177.155 322.667 162.122 322.018 159.945 322.64C160.441 323.692 162.813 323.137 163.897 323.265C167.988 323.748 176.603 322.464 180.28 323.456C176.434 323.538 172.473 323.544 168.627 323.521C146.178 323.388 123.612 323.911 101.171 323.51C104.008 322.821 110.587 323.524 111.626 322.725C111.641 321.732 109.213 318.315 110.434 317.965C115.023 316.651 122.766 317.183 127.562 317.129C127.38 317.099 127.396 317.058 127.21 316.911L127.181 317.119L126.626 316.942L127.117 316.767L127.218 317.047L127.384 316.749C129.701 316.654 138.25 316.89 140.068 316.421C136.069 316.341 130.849 316.557 127.042 316.206C128.258 316.056 129.377 316.004 130.596 315.942Z"/><path fill="#0180BB" transform="scale(2.85902 2.86034)" d="M130.596 315.942C146.974 315.577 164.064 316.214 180.546 316.031C178.95 316.361 178.154 316.145 176.893 316.32C173.394 316.805 170.572 316.918 167.061 316.997C164.069 316.746 157.09 316.967 153.876 316.976C145.105 316.97 136.333 317.021 127.562 317.129C127.38 317.099 127.396 317.058 127.21 316.911L127.181 317.119L126.626 316.942L127.117 316.767L127.218 317.047L127.384 316.749C129.701 316.654 138.25 316.89 140.068 316.421C136.069 316.341 130.849 316.557 127.042 316.206C128.258 316.056 129.377 316.004 130.596 315.942Z"/><defs><linearGradient id="gradient_6" gradientUnits="userSpaceOnUse" x1="129.70432" y1="336.98071" x2="128.25279" y2="327.00681"><stop offset="0" stop-color="#005F98"/><stop offset="1" stop-color="#0077C9"/></linearGradient></defs><path fill="url(#gradient_6)" transform="scale(2.85902 2.86034)" d="M96.3368 330.019L145.91 330.285C150.267 330.65 158.11 330.222 161.536 330.684C160.597 330.706 155.322 330.715 154.915 331.002C156.162 332.082 161.978 331.813 163.972 331.815C150.626 332.825 136.641 331.853 123.225 332.354C121.844 332.405 117.238 332.699 116.266 332.51L116.191 332.665C117.826 333.944 150.765 332.623 156.101 333.715C154.368 334.05 147.704 333.77 145.486 333.809C147.788 335.422 158.64 334.373 162.555 334.852C158.282 334.926 148.553 334.776 144.713 335.199C130.499 335.23 114.712 335.611 100.62 335.24C103.964 334.717 103.374 333.316 104.818 330.487C102.328 330.581 98.5699 330.981 96.3368 330.019Z"/><defs><linearGradient id="gradient_7" gradientUnits="userSpaceOnUse" x1="192.91086" y1="66.52327" x2="141.72522" y2="62.411469"><stop offset="0" stop-color="#003170"/><stop offset="1" stop-color="#0080B4"/></linearGradient></defs><path fill="url(#gradient_7)" transform="scale(2.85902 2.86034)" d="M152.396 29.7319C152.98 29.1774 153.514 28.6537 154.147 28.1517C160.703 33.5165 168.938 42.7017 169.835 51.5708C171.009 62.5489 158.885 66.4192 162.77 78.2689C163.846 82.7981 166.255 85.2659 169.424 88.3213C172.571 91.3565 176.44 90.6487 178.461 86.8997C182.104 80.1427 182.792 73.8189 192.408 73.4399C193.491 74.434 191.728 79.1436 191.194 80.4879C189.405 84.9904 187.584 90.4983 184.265 94.1231C181.139 97.5476 176.75 99.547 172.114 99.6585C167.978 99.7988 163.51 97.9392 160.593 95.0485C156.527 91.0204 155.528 87.1397 155.464 81.6841C155.425 75.3808 155.499 69.0773 155.688 62.7767C155.808 59.5499 157.378 48.6004 153.593 47.3677C150.058 48.1236 150.581 54.1883 150.9 56.8974C151.755 64.1585 151.631 71.4447 151.582 78.7402C151.574 79.6391 151.586 83.5386 151.335 84.1693C150.435 98.0428 132.512 105.23 123.476 94.1674C119.462 89.2539 115.128 79.7236 114.905 73.3905C118.828 74.0311 122.644 75.2125 125.246 78.6372C127.801 82.0008 130.081 93.806 136.59 89.4331C137.618 88.7421 138.974 87.2219 139.858 86.2713C144.066 81.0514 145.07 76.9694 144.612 70.3447C142.866 63.7388 138.043 59.7532 138.137 52.6291C138.249 44.1345 146.638 35.2823 152.396 29.7319Z"/><defs><linearGradient id="gradient_8" gradientUnits="userSpaceOnUse" x1="140.69933" y1="83.830688" x2="117.59317" y2="88.026634"><stop offset="0" stop-color="#0089C3"/><stop offset="1" stop-color="#00BFFB"/></linearGradient></defs><path fill="url(#gradient_8)" transform="scale(2.85902 2.86034)" d="M114.905 73.3905C118.828 74.0311 122.644 75.2125 125.246 78.6372C127.801 82.0008 130.081 93.806 136.59 89.4331C137.618 88.7421 138.974 87.2219 139.858 86.2713C139.808 87.6722 140.973 88.3516 141.514 89.7038C142.277 91.6117 140.858 95.7532 142.914 96.4848C143.876 96.3693 144.747 95.6558 145.41 94.973C151.024 89.1856 150.819 86.8066 151.014 79.8869L151.22 79.8252C151.504 80.7636 151.287 82.8623 151.329 84.0143L151.335 84.1693C150.435 98.0428 132.512 105.23 123.476 94.1674C119.462 89.2539 115.128 79.7236 114.905 73.3905Z"/><defs><linearGradient id="gradient_9" gradientUnits="userSpaceOnUse" x1="146.55112" y1="52.722771" x2="138.43939" y2="52.211468"><stop offset="0" stop-color="#0088C2"/><stop offset="1" stop-color="#00A6DF"/></linearGradient></defs><path fill="url(#gradient_9)" transform="scale(2.85902 2.86034)" d="M152.396 29.7319C152.191 30.7103 147.729 35.2143 146.57 36.7531C146.77 45.4694 146.874 54.7039 145.862 63.3657C145.603 65.5785 143.995 67.5995 145.117 69.7273C144.972 69.9127 144.773 70.1873 144.612 70.3447C142.866 63.7388 138.043 59.7532 138.137 52.6291C138.249 44.1345 146.638 35.2823 152.396 29.7319Z"/><path fill="#002B59" transform="scale(2.85902 2.86034)" d="M106.352 281.016C127.017 280.77 147.683 280.766 168.348 281.002C176.444 280.494 185.058 281.513 193.182 281.38C200.965 281.253 208.725 280.811 216.532 280.936C220.027 280.992 224.203 280.515 227.625 281.28C230.122 281.839 231.889 285.168 229.544 287.086C228.657 287.884 227.449 288.374 226.24 288.443C221.601 288.561 216.824 288.386 212.184 288.295C204.664 288.13 197.141 288.073 189.618 288.126C176.194 288.218 162.769 288.222 149.344 288.14C142.529 288.158 134.245 288.661 127.634 288.191C123.094 287.934 114.813 288.174 110.051 288.169C103.979 288.185 97.9067 288.261 91.836 288.397C88.2711 288.477 84.2299 288.938 80.7021 288.433C79.898 288.318 78.9725 287.983 78.3926 287.395C77.6892 286.682 77.4861 285.657 77.4628 284.692C77.44 283.749 77.6148 282.434 78.3501 281.768C79.9688 280.303 102.884 280.899 106.352 281.016Z"/><defs><linearGradient id="gradient_10" gradientUnits="userSpaceOnUse" x1="120.43552" y1="288.73169" x2="78.680573" y2="279.69852"><stop offset="0" stop-color="#007DB9"/><stop offset="1" stop-color="#00C4FF"/></linearGradient></defs><path fill="url(#gradient_10)" transform="scale(2.85902 2.86034)" d="M110.051 288.169C103.979 288.185 97.9067 288.261 91.836 288.397C88.2711 288.477 84.2299 288.938 80.7021 288.433C79.898 288.318 78.9725 287.983 78.3926 287.395C77.6892 286.682 77.4861 285.657 77.4628 284.692C77.44 283.749 77.6148 282.434 78.3501 281.768C79.9688 280.303 102.884 280.899 106.352 281.016C108.75 281.622 119.419 281.391 122.579 281.373C118.451 284.001 120.296 283.819 118.277 287.628C116.085 287.613 112.334 287.482 110.269 287.692C110.094 287.96 110.087 287.885 110.051 288.169Z"/><defs><linearGradient id="gradient_11" gradientUnits="userSpaceOnUse" x1="154.82428" y1="289.21185" x2="120.09767" y2="280.57565"><stop offset="0" stop-color="#00477B"/><stop offset="1" stop-color="#0082BB"/></linearGradient></defs><path fill="url(#gradient_11)" transform="scale(2.85902 2.86034)" d="M106.352 281.016C127.017 280.77 147.683 280.766 168.348 281.002C165.526 281.888 153.297 280.811 152.192 281.606C152.598 282.053 152.933 282.093 153.529 282.29C150.755 282.306 145.625 281.348 146.056 284.744C146.153 285.513 146.057 285.284 146.459 285.904C149.33 286.846 167.938 285.831 168.747 287.157C164.459 287.489 159.453 287.067 155.056 287.361C156.867 287.648 166.875 287.543 167.362 287.92L167.606 287.845L167.624 287.904L167.065 287.808C166.369 288.33 132.317 287.76 127.634 288.191C123.094 287.934 114.813 288.174 110.051 288.169C110.087 287.885 110.094 287.96 110.269 287.692C112.334 287.482 116.085 287.613 118.277 287.628C120.296 283.819 118.451 284.001 122.579 281.373C119.419 281.391 108.75 281.622 106.352 281.016Z"/><defs><linearGradient id="gradient_12" gradientUnits="userSpaceOnUse" x1="171.04613" y1="136.20135" x2="135.57465" y2="131.2186"><stop offset="0" stop-color="#02294D"/><stop offset="1" stop-color="#01426D"/></linearGradient></defs><path fill="url(#gradient_12)" transform="scale(2.85902 2.86034)" d="M152.905 116.611C171.887 115.61 176.988 134.781 165.949 147.273C162.984 150.629 158.684 151.482 154.441 151.495C149.576 151.524 143.624 148.337 140.3 144.766C128.786 132.398 137.638 118.314 152.905 116.611Z"/><defs><linearGradient id="gradient_13" gradientUnits="userSpaceOnUse" x1="131.05891" y1="338.01123" x2="60.735054" y2="309.11713"><stop offset="0" stop-color="#005DA0"/><stop offset="1" stop-color="#00CAFF" stop-opacity="0.98823529"/></linearGradient></defs><path fill="url(#gradient_13)" transform="scale(2.85902 2.86034)" d="M100.62 335.24C88.7683 335.542 76.8635 335.341 65.0059 335.65C62.3919 335.718 59.2778 335.164 57.444 333.132C53.3851 328.636 53.8756 320.873 58.4549 316.885C59.664 315.833 60.8041 314.987 62.4528 314.801C67.1398 314.275 71.8318 314.657 76.5403 314.868C81.7368 315.121 86.9362 315.309 92.1373 315.431C99.3824 315.642 106.63 315.773 113.878 315.826C119.216 315.846 125.32 315.697 130.596 315.942C129.377 316.004 128.258 316.056 127.042 316.206C130.849 316.557 136.069 316.341 140.068 316.421C138.25 316.89 129.701 316.654 127.384 316.749L127.218 317.047L127.117 316.767L126.626 316.942L127.181 317.119L127.21 316.911C127.396 317.058 127.38 317.099 127.562 317.129C122.766 317.183 115.023 316.651 110.434 317.965C109.213 318.315 111.641 321.732 111.626 322.725C110.587 323.524 104.008 322.821 101.171 323.51C96.6263 323.641 64.5067 323.018 63.2738 323.691C62.7782 324.534 62.6741 325.801 62.8807 326.755C63.0256 327.424 63.4203 328.054 64.0079 328.417C66.2115 329.78 92.1323 329.887 96.3368 330.019C98.5699 330.981 102.328 330.581 104.818 330.487C103.374 333.316 103.964 334.717 100.62 335.24Z"/><path fill="#000002" fill-opacity="0.98823529" transform="scale(2.85902 2.86034)" d="M218.047 67.2773C218.574 68.0056 219.258 68.7481 219.132 69.7031C218.798 72.2388 213.821 77.1818 212.121 79.5568C207.642 85.8159 193.1 108.484 192.153 115.507C191.947 117.041 192.531 118.686 193.38 119.951C194.384 121.446 196.665 122.166 198.351 122.46C201.479 123.006 204.775 122.605 207.942 122.827C216.352 123.417 225.108 127.634 230.112 134.592C232.096 137.351 234.78 143.774 238.454 144.435C241.983 145.069 247.091 140.413 250.12 138.664C262.531 131.5 274.429 133.072 286.06 140.85C289.816 143.362 296.182 148.169 298.942 151.783L299.075 151.961C296.042 156.175 292.87 159.479 289.6 163.432C285.679 168.174 282.002 173.113 278.584 178.23C264.951 198.31 253.337 221.64 243.844 243.963C240.659 251.454 238.056 259.758 234.982 267.154C241.415 270.309 245.134 272.917 247.92 280.177C249.869 285.252 249.528 294.14 247.19 298.923C250.06 300.204 253.012 300.985 255.749 302.191C261.714 304.885 266.355 309.851 268.64 315.984C273.803 329.553 268.333 347.411 254.23 352.809C249.39 354.662 244.462 354.84 239.399 355.457C237.32 355.748 237.389 357.085 233.835 357.003C238.746 353.31 242.255 353.644 247.859 352.818C253.579 351.974 260.264 348.735 263.532 343.866C267.956 337.276 269.56 329.039 268.18 321.312C266.537 312.108 261.339 305.555 252.48 302.431C250.605 301.611 248.226 301.243 246.526 300.145C245.396 299.415 246.664 294.899 246.914 293.713C247.594 290.491 247.722 287.941 247.294 284.678C246.644 279.718 244.041 274.956 240.286 271.658C239.363 270.849 233.282 267.922 233.618 266.561C234.713 262.114 236.788 257.395 238.429 253.063C248.959 225.255 262.9 198.449 279.591 173.841C284.445 166.713 291.498 158.53 297.179 152.204C296.371 151.137 295.037 149.857 294.076 148.949C281.872 137.425 266.182 131.075 250.533 140.2C248.156 141.586 245.87 143.49 243.426 144.83C235.584 149.128 232.643 140.863 229.074 135.942C227.442 133.679 225.474 131.678 223.238 130.009C215.613 124.247 207.675 124.119 198.672 124.179C193.182 124.507 189.313 118.615 191.053 113.542C195.222 101.38 203.491 89.7876 210.467 79.019C212.404 76.0292 216.572 72.6844 217.528 69.3983C217.53 68.3524 217.629 68.183 218.047 67.2773Z"/></svg>