<?xml version="1.0" encoding="utf-8" ?><svg xmlns="http://www.w3.org/2000/svg" xmlns:xlink="http://www.w3.org/1999/xlink" width="920" height="1024" viewBox="0 0 920 1024"><path fill="#000F2C" transform="matrix(1.82178 0 0 1.82206 0.000488281 0)" d="M179.995 22.5004L334.959 22.4547C334.289 39.6453 335.149 58.9639 334.974 76.3249C340.715 75.7762 349.851 76.0621 355.866 76.0446C361.111 76.0293 370.653 75.8209 375.524 76.4108L375.672 76.4275L375.764 41.373C375.771 35.8104 375.536 27.9697 375.87 22.5411C389.814 22.0751 405.563 22.4014 419.616 22.3965L488.131 22.4626C487.157 30.5485 487.511 36.5788 487.033 44.1792L483.253 115.67C482.776 123.942 482.392 133.147 481.749 141.47C481.647 142.789 479.928 144.932 479.021 146.032L478.48 145.61C477.861 145.804 477.376 145.988 476.774 146.218C474.043 148.638 470.904 152.565 468.342 155.251C461.32 162.611 454.878 170.52 448.033 178.023C436.316 190.707 424.734 203.515 413.289 216.445C409.314 220.899 400.745 229.911 397.36 234.544C395.993 235.661 394.858 237.025 393.887 238.496C394.928 252.826 397.667 268.943 399.715 283.228L408.386 345.616L420.795 435.464C422.651 448.679 424.294 462.005 426.349 475.195C426.66 477.192 427.387 479.395 428.45 481.128C430.061 484.129 432.252 487.065 434.151 489.931L446.328 507.983C452.244 516.695 459.901 528.989 466.103 536.994C466.843 538.155 467.5 539.173 468.151 540.396C463.48 547.933 458.769 554.673 454.071 562L99.2594 562L59.2571 562C54.4873 554.798 49.5127 547.876 44.7237 540.737C44.5329 540.046 44.3297 539.358 44.1142 538.674L73.7207 494.795C76.4654 490.675 81.5793 483.795 83.6207 479.641C84.7453 477.354 85.6589 467.175 86.1558 463.851C89.5424 442.619 92.4685 421.317 94.9322 399.959C95.2263 395.361 96.592 387.541 97.2646 382.823L101.732 350.781C103.273 339.173 104.886 327.574 106.571 315.985C107.08 312.438 108.109 303.506 108.907 300.311C109.045 298.366 109.656 295.035 109.943 292.98L111.788 279.049C112.528 273.422 113.315 267.801 114.152 262.188C114.57 259.251 114.863 256.01 115.539 253.152C115.498 250.907 116.732 242.6 117.312 240.472C116.471 238.465 109.452 230.828 107.627 228.693C95.4088 214.447 83.0878 200.289 70.6652 186.22L61.3815 175.821C59.5634 173.799 57.2781 171.554 55.7393 169.37C55.7138 169.352 55.6853 169.337 55.6629 169.315C52.069 165.796 32.8362 144.775 31.4166 141.862C30.6972 140.385 27.7493 82.3823 27.4168 76.1887C27.1625 75.2986 27.1526 74.0276 27.1003 73.0749C26.3713 63.7978 26.1082 53.7814 25.6054 44.4545C25.2158 37.2303 24.5363 29.7385 24.866 22.5041C56.8319 22.0487 88.9166 22.6274 120.894 22.3922C126.484 22.3511 132.138 22.3726 137.727 22.4774L137.77 57.5705C137.772 63.3619 138.008 70.5383 137.751 76.1639C145.561 75.8322 154.157 76.0185 162.016 75.9913C166.92 75.9743 175.457 75.7626 180.072 76.3941C179.915 58.6006 180.351 40.1665 179.995 22.5004Z"/><defs><linearGradient id="gradient_0" gradientUnits="userSpaceOnUse" x1="373.16669" y1="203.67026" x2="138.01198" y2="-27.820612"><stop offset="0" stop-color="#00061B"/><stop offset="1" stop-color="#00366F"/></linearGradient></defs><path fill="url(#gradient_0)" transform="matrix(1.82178 0 0 1.82206 0.000488281 0)" d="M397.677 41.6016C420.304 41.8505 443.034 41.4257 465.65 41.703C465.365 51.3247 463.233 126.246 461.558 129.849C460.729 131.635 423.766 169.19 419.774 172.91C419.13 173.511 418.471 174.086 417.741 174.582L320.365 174.502L285.702 174.589C280.486 174.602 272.361 174.89 267.488 174.513L266.529 174.534C261.348 174.284 255.808 174.567 250.596 174.489C236.763 174.284 222.233 174.917 208.466 174.479L93.2927 174.516C88.9565 169.435 83.3946 163.751 78.7763 158.851L50.3262 129.004C49.5267 125.106 49.6398 112.996 49.4221 108.109C48.4336 86.0651 47.7487 64.0088 47.3674 41.9463L83.7463 41.8692C93.5183 41.8431 103.865 41.6455 113.579 41.9047C113.772 47.1481 113.42 54.1134 113.377 59.5882L113.266 96.5184L201.806 96.5218C201.771 79.095 201.22 58.8376 201.843 41.6456C227.698 42.0857 253.918 41.4541 279.8 41.6921C289.951 41.7855 301.01 41.4276 311.069 41.8282C311.553 44.9727 311.032 49.8533 311.29 53.1577C311.254 67.0599 310.826 82.6398 311.208 96.3564C331.654 96.307 352.1 96.3769 372.546 96.5663C381.253 96.6506 389.644 97.0348 398.371 97.0026C398.428 78.8312 397.083 59.6612 397.677 41.6016Z"/><defs><linearGradient id="gradient_1" gradientUnits="userSpaceOnUse" x1="259.23193" y1="143.35295" x2="60.967064" y2="21.11253"><stop offset="0" stop-color="#007FE2"/><stop offset="1" stop-color="#00CAFF"/></linearGradient></defs><path fill="url(#gradient_1)" transform="matrix(1.82178 0 0 1.82206 0.000488281 0)" d="M201.843 41.6456C227.698 42.0857 253.918 41.4541 279.8 41.6921C289.951 41.7855 301.01 41.4276 311.069 41.8282C310.976 43.4043 310.929 44.9827 310.928 46.5616C309.869 50.8324 311.242 56.311 310.438 60.3742C307.01 59.4658 306.307 59.6177 302.525 60.7556C302.555 59.1133 302.95 52.3271 302.194 51.3977C301.699 51.2488 298.984 51.4881 297.913 51.4682C297.771 51.5452 297.417 51.7143 297.322 51.8148C290.625 52.0274 283.507 51.8554 276.761 51.8329L246.485 51.8396L224.156 51.8418C220.204 51.8387 214.634 51.9695 210.825 51.6427C210.404 68.6013 210.397 88.7553 210.757 105.703C175.199 106.106 139.402 105.486 103.894 105.966C103.712 88.4007 103.331 69.8538 103.469 52.3436C88.3488 52.194 73.1044 52.4245 58.0171 52.2067C58.3765 58.6471 58.2803 65.8034 58.3912 72.3325C58.551 84.0249 58.8368 95.7152 59.2486 107.401C59.3979 112.55 59.3907 118.101 59.6562 123.194C68.313 132.187 76.9126 141.235 85.4544 150.337C90.0481 155.141 95.1238 160.172 99.5504 165.065C112.122 165.174 124.695 165.202 137.267 165.149C145.099 165.163 153.734 165.376 161.508 165.159C176.867 165.507 193.047 165.192 208.482 165.236C214.136 165.695 220.444 165.429 226.162 165.858C227.77 165.979 233.163 165.726 234.142 166.027C234.141 167.983 233.647 170.262 234.34 172.006C234.653 172.794 234.767 172.975 234.51 173.712C233.328 173.975 231.34 173.871 230.046 173.853C224.137 173.773 218.257 174.254 212.351 174.329C211.125 174.344 209.669 174.326 208.466 174.479L93.2927 174.516C88.9565 169.435 83.3946 163.751 78.7763 158.851L50.3262 129.004C49.5267 125.106 49.6398 112.996 49.4221 108.109C48.4336 86.0651 47.7487 64.0088 47.3674 41.9463L83.7463 41.8692C93.5183 41.8431 103.865 41.6455 113.579 41.9047C113.772 47.1481 113.42 54.1134 113.377 59.5882L113.266 96.5184L201.806 96.5218C201.771 79.095 201.22 58.8376 201.843 41.6456Z"/><path fill="#022B6C" transform="matrix(1.82178 0 0 1.82206 0.000488281 0)" d="M397.677 41.6016C420.304 41.8505 443.034 41.4257 465.65 41.703C465.365 51.3247 463.233 126.246 461.558 129.849C460.729 131.635 423.766 169.19 419.774 172.91C419.13 173.511 418.471 174.086 417.741 174.582L320.365 174.502L285.702 174.589C280.486 174.602 272.361 174.89 267.488 174.513L266.529 174.534C261.348 174.284 255.808 174.567 250.596 174.489C236.763 174.284 222.233 174.917 208.466 174.479C209.669 174.326 211.125 174.344 212.351 174.329C218.257 174.254 224.137 173.773 230.046 173.853C231.34 173.871 233.328 173.975 234.51 173.712C234.767 172.975 234.653 172.794 234.34 172.006C233.647 170.262 234.141 167.983 234.142 166.027C233.163 165.726 227.77 165.979 226.162 165.858C220.444 165.429 214.136 165.695 208.482 165.236C193.047 165.192 176.867 165.507 161.508 165.159C163.422 164.773 177.278 164.978 179.901 164.978L223.983 164.908L352.195 165.143C371.9 165.151 392.199 165.33 411.878 165.015C412.139 164.808 412.394 164.605 412.636 164.376C416.876 160.354 450.705 126.529 451.874 123.642C452.77 121.428 452.53 110.4 452.649 107.307C453.35 88.9471 454.249 70.6364 454.393 52.2591C439.05 52.0849 422.977 51.8371 407.669 52.1187C407.982 69.7225 407.111 87.5061 407.159 105.241L301.946 105.93C301.85 101.052 301.735 95.2527 301.9 90.4077C301.55 78.0059 301.887 64.3802 301.876 51.8585L297.322 51.8148C297.417 51.7143 297.771 51.5452 297.913 51.4682C298.984 51.4881 301.699 51.2488 302.194 51.3977C302.95 52.3271 302.555 59.1133 302.525 60.7556C306.307 59.6177 307.01 59.4658 310.438 60.3742C311.242 56.311 309.869 50.8324 310.928 46.5616C310.929 44.9827 310.976 43.4043 311.069 41.8282C311.553 44.9727 311.032 49.8533 311.29 53.1577C311.254 67.0599 310.826 82.6398 311.208 96.3564C331.654 96.307 352.1 96.3769 372.546 96.5663C381.253 96.6506 389.644 97.0348 398.371 97.0026C398.428 78.8312 397.083 59.6612 397.677 41.6016Z"/><path fill="#0069C7" transform="matrix(1.82178 0 0 1.82206 0.000488281 0)" d="M208.482 165.236C220.907 164.779 235.776 165.16 248.34 165.217L262.267 165.297C264.734 165.315 268.961 165.27 271.274 165.645C268.969 166.112 263.081 165.332 260.1 165.853C259.705 166.641 259.799 173.016 260.729 173.899C262.16 174.112 270.703 173.991 272.657 174.019C271.003 174.276 268.802 174.251 267.488 174.513L266.529 174.534C261.348 174.284 255.808 174.567 250.596 174.489C236.763 174.284 222.233 174.917 208.466 174.479C209.669 174.326 211.125 174.344 212.351 174.329C218.257 174.254 224.137 173.773 230.046 173.853C231.34 173.871 233.328 173.975 234.51 173.712C234.767 172.975 234.653 172.794 234.34 172.006C233.647 170.262 234.141 167.983 234.142 166.027C233.163 165.726 227.77 165.979 226.162 165.858C220.444 165.429 214.136 165.695 208.482 165.236Z"/><defs><linearGradient id="gradient_2" gradientUnits="userSpaceOnUse" x1="306.80148" y1="71.915024" x2="305.98865" y2="59.842785"><stop offset="0" stop-color="#004AA1"/><stop offset="1" stop-color="#0063C1"/></linearGradient></defs><path fill="url(#gradient_2)" transform="matrix(1.82178 0 0 1.82206 0.000488281 0)" d="M302.525 60.7556C306.307 59.6177 307.01 59.4658 310.438 60.3742C311.242 56.311 309.869 50.8324 310.928 46.5616C311.026 50.7103 311.139 88.4396 310.754 89.4291C310.323 86.4208 311.285 73.4633 310.368 72.1146C307.335 71.372 306.114 71.1959 303.023 72.3357C301.345 74.1609 303.535 87.9217 301.9 90.4077C301.55 78.0059 301.887 64.3802 301.876 51.8585L297.322 51.8148C297.417 51.7143 297.771 51.5452 297.913 51.4682C298.984 51.4881 301.699 51.2488 302.194 51.3977C302.95 52.3271 302.555 59.1133 302.525 60.7556Z"/><path fill="#022B6C" transform="matrix(1.82178 0 0 1.82206 0.000488281 0)" d="M67.8218 55.4989L68.2532 55.5032C68.7467 55.5103 71.0822 55.4743 71.3427 55.5638C72.5767 55.9877 77.3475 57.0451 78.1173 57.6354L78.0209 57.9654C76.9405 58.3672 77.0034 58.371 75.8723 58.1895C74.5527 58.7664 71.0185 61.576 69.2526 60.2083C67.4815 58.8365 68.3857 58.6416 65.88 58.1683L65.6272 57.7715L65.8561 57.2648L66.843 57.1453L67.8218 55.4989Z"/><defs><linearGradient id="gradient_3" gradientUnits="userSpaceOnUse" x1="312.03424" y1="302.74533" x2="4.5078588" y2="276.06326"><stop offset="0" stop-color="#002148"/><stop offset="1" stop-color="#003D77"/></linearGradient></defs><path fill="url(#gradient_3)" transform="matrix(1.82178 0 0 1.82206 0.000488281 0)" d="M179.995 22.5004L334.959 22.4547C334.289 39.6453 335.149 58.9639 334.974 76.3249C340.715 75.7762 349.851 76.0621 355.866 76.0446C361.111 76.0293 370.653 75.8209 375.524 76.4108L375.672 76.4275L375.764 41.373C375.771 35.8104 375.536 27.9697 375.87 22.5411C389.814 22.0751 405.563 22.4014 419.616 22.3965L488.131 22.4626C487.157 30.5485 487.511 36.5788 487.033 44.1792L483.253 115.67C482.776 123.942 482.392 133.147 481.749 141.47C481.647 142.789 479.928 144.932 479.021 146.032L478.48 145.61C477.861 145.804 477.376 145.988 476.774 146.218C477.838 144.953 479.342 143.282 479.659 141.694C480.322 138.373 480.317 134.808 480.502 131.432L481.517 113.203L484.373 61.8071C484.962 49.7406 485.292 35.8302 486.519 23.9892C473.23 23.6028 458.136 23.8865 444.759 23.9018C422.111 23.9779 399.463 23.9384 376.816 23.7833L376.842 78.1122C374.796 78.165 372.786 78.072 370.744 78.0497C358.351 77.9146 346.033 78.2206 333.657 77.515C333.011 70.8108 333.909 62.5199 333.208 56.112C332.843 59.0426 333.48 64.1093 332.925 66.4892C332.818 65.7789 332.786 65.689 332.542 65.0099C331.564 64.518 331.606 64.7384 330.274 64.913C328.825 62.4871 321.442 63.2844 318.999 63.2366C317.678 63.2108 317.087 62.86 315.965 62.7097C315.523 63.4386 315.403 63.4326 314.684 63.8692C313.713 62.8553 311.628 54.8109 311.29 53.1577C311.032 49.8533 311.553 44.9727 311.069 41.8282C301.01 41.4276 289.951 41.7855 279.8 41.6921C253.918 41.4541 227.698 42.0857 201.843 41.6456C201.22 58.8376 201.771 79.095 201.806 96.5218L113.266 96.5184L113.377 59.5882C113.42 54.1134 113.772 47.1481 113.579 41.9047C103.865 41.6455 93.5183 41.8431 83.7463 41.8692L47.3674 41.9463C47.7487 64.0088 48.4336 86.0651 49.4221 108.109C49.6398 112.996 49.5267 125.106 50.3262 129.004L78.7763 158.851C83.3946 163.751 88.9565 169.435 93.2927 174.516L208.466 174.479C222.233 174.917 236.763 174.284 250.596 174.489C255.808 174.567 261.348 174.284 266.529 174.534L266.24 174.564C262.248 174.937 254.892 174.765 250.702 174.776L221.45 174.803L138.55 174.901L111.78 174.883C109.827 174.89 102.5 174.81 101.198 175.036C105.544 175.499 115.246 175.226 119.988 175.216L159.998 175.204C167.519 175.199 176.828 174.781 184.094 175.608C184.208 175.991 184.199 175.777 184.026 176.247L184.415 176.601C185.087 176.56 186.393 176.369 186.794 176.73C188.681 178.432 190.471 176.787 191.988 178.804C192.028 180.245 190.677 180.261 190.962 181.201C192.233 185.393 191.279 188.058 190.693 192.13C190.528 193.28 192.572 193.644 190.691 195.515C191.214 196.065 194.388 198.789 194.401 198.814C191.205 199.798 175.335 198.109 172.941 199.072L236.976 199.251L255.606 199.303C258.815 199.307 263.45 199.191 266.599 199.439C262.936 199.706 257.733 199.423 253.792 199.56C243.43 199.52 232.6 199.318 222.274 199.531C213.604 199.672 204.652 199.446 195.917 199.521L108.739 199.6C115.365 206.722 121.953 213.881 128.5 221.076C129.943 222.654 135.677 228.621 136.569 229.88L136.205 230.02C136.989 230.968 140.324 235.186 140.939 235.084C142.428 234.838 151.438 235.188 152.139 234.898C152.27 235.613 152.302 235.755 152.739 236.335C153.758 236.41 154.557 236.433 155.58 236.431C155.905 237.082 158.564 243.608 158.384 243.361C155.538 243.615 154.687 243.007 151.602 244.101L151.077 243.983L151 244.311C150.407 244.486 149.708 244.551 149.084 244.64C150.447 244.782 150.422 244.552 151.281 245.273C151.834 247.196 141.154 325.48 140.059 334.241L127.844 431.238C126.519 442.318 125.066 453.381 123.486 464.427C122.662 470.542 122.341 479.446 119.417 484.823C117.611 488.143 114.806 492.029 112.722 495.263C107.903 502.909 102.998 510.5 98.0092 518.037C95.6006 521.662 90.597 528.703 88.6002 532.145C91.0904 532.515 96.3794 532.409 99.0832 532.411L116.884 532.404C124.043 532.959 131.831 532.409 139.168 532.815C137.792 532.945 134.151 532.813 133.303 533.027L134.136 533.289C135.023 535.624 133.389 536.222 135.046 538.597C136.811 541.128 140.321 540.608 143.027 540.595C137.688 540.91 70.4311 541.254 68.9643 540.623L69.0665 541.009C70.8681 541.356 86.8859 541.172 89.4353 541.172L143.185 541.075C146.986 541.205 151.895 540.949 155.459 541.199C151.351 541.492 146.217 541.421 142.054 541.447L119.447 541.531C116.542 541.54 111.299 541.378 108.613 541.581C113.361 542.038 118.48 541.787 123.272 541.742L142.761 541.69C146.27 541.689 151.054 541.459 154.36 542.051C154.858 542.14 155.699 542.144 156.233 542.154C156.769 543.108 156.872 543.777 157.852 544.326C158.919 544.445 160.5 544.203 161.259 544.69C161.798 546.899 153.335 549.474 152.366 551.485C150.001 552.995 148.416 553.844 145.944 555.104C143.522 556.339 142.509 557.803 140.094 558.869L139.816 558.319C138.834 559.196 138.333 560.946 137.247 561.024C134.706 561.206 132.057 561.128 129.497 561.129L109.782 561.131C107.244 561.131 101.817 560.992 99.5149 561.234C99.3732 561.574 99.3054 561.644 99.2594 562L59.2571 562C54.4873 554.798 49.5127 547.876 44.7237 540.737C44.5329 540.046 44.3297 539.358 44.1142 538.674L73.7207 494.795C76.4654 490.675 81.5793 483.795 83.6207 479.641C84.7453 477.354 85.6589 467.175 86.1558 463.851C89.5424 442.619 92.4685 421.317 94.9322 399.959C95.2263 395.361 96.592 387.541 97.2646 382.823L101.732 350.781C103.273 339.173 104.886 327.574 106.571 315.985C107.08 312.438 108.109 303.506 108.907 300.311C109.045 298.366 109.656 295.035 109.943 292.98L111.788 279.049C112.528 273.422 113.315 267.801 114.152 262.188C114.57 259.251 114.863 256.01 115.539 253.152C115.498 250.907 116.732 242.6 117.312 240.472C116.471 238.465 109.452 230.828 107.627 228.693C95.4088 214.447 83.0878 200.289 70.6652 186.22L61.3815 175.821C59.5634 173.799 57.2781 171.554 55.7393 169.37C55.7138 169.352 55.6853 169.337 55.6629 169.315C52.069 165.796 32.8362 144.775 31.4166 141.862C30.6972 140.385 27.7493 82.3823 27.4168 76.1887C27.1625 75.2986 27.1526 74.0276 27.1003 73.0749C26.3713 63.7978 26.1082 53.7814 25.6054 44.4545C25.2158 37.2303 24.5363 29.7385 24.866 22.5041C56.8319 22.0487 88.9166 22.6274 120.894 22.3922C126.484 22.3511 132.138 22.3726 137.727 22.4774L137.77 57.5705C137.772 63.3619 138.008 70.5383 137.751 76.1639C145.561 75.8322 154.157 76.0185 162.016 75.9913C166.92 75.9743 175.457 75.7626 180.072 76.3941C179.915 58.6006 180.351 40.1665 179.995 22.5004Z"/><defs><linearGradient id="gradient_4" gradientUnits="userSpaceOnUse" x1="176.95299" y1="414.64862" x2="92.463943" y2="386.96744"><stop offset="0" stop-color="#00BDFB"/><stop offset="1" stop-color="#0EF"/></linearGradient></defs><path fill="url(#gradient_4)" transform="matrix(1.82178 0 0 1.82206 0.000488281 0)" d="M139.13 242.741C142.379 243.296 145.788 244.045 149.084 244.64C150.447 244.782 150.422 244.552 151.281 245.273C151.834 247.196 141.154 325.48 140.059 334.241L127.844 431.238C126.519 442.318 125.066 453.381 123.486 464.427C122.662 470.542 122.341 479.446 119.417 484.823C117.611 488.143 114.806 492.029 112.722 495.263C107.903 502.909 102.998 510.5 98.0092 518.037C95.6006 521.662 90.597 528.703 88.6002 532.145C91.0904 532.515 96.3794 532.409 99.0832 532.411L116.884 532.404C124.043 532.959 131.831 532.409 139.168 532.815C137.792 532.945 134.151 532.813 133.303 533.027L134.136 533.289C135.023 535.624 133.389 536.222 135.046 538.597C136.811 541.128 140.321 540.608 143.027 540.595C137.688 540.91 70.4311 541.254 68.9643 540.623C70.9353 537.96 73.8361 533.131 75.8349 530.135C81.9631 521.054 87.9632 511.888 93.8336 502.638C96.9463 497.816 100.016 492.967 103.044 488.091C105.989 483.343 108.026 480.736 108.785 475.051C109.481 469.832 110.216 464.543 110.934 459.324L117.814 406.573L131.22 303.243L135.752 269.062C136.964 260.138 138.223 251.723 139.13 242.741Z"/><path fill="#000001" transform="matrix(1.82178 0 0 1.82206 0.000488281 0)" d="M179.995 22.5004L334.959 22.4547C334.289 39.6453 335.149 58.9639 334.974 76.3249C340.715 75.7762 349.851 76.0621 355.866 76.0446C361.111 76.0293 370.653 75.8209 375.524 76.4108L375.672 76.4275L375.764 41.373C375.771 35.8104 375.536 27.9697 375.87 22.5411C389.814 22.0751 405.563 22.4014 419.616 22.3965L488.131 22.4626C487.157 30.5485 487.511 36.5788 487.033 44.1792L483.253 115.67C482.776 123.942 482.392 133.147 481.749 141.47C481.647 142.789 479.928 144.932 479.021 146.032L478.48 145.61C477.861 145.804 477.376 145.988 476.774 146.218C477.838 144.953 479.342 143.282 479.659 141.694C480.322 138.373 480.317 134.808 480.502 131.432L481.517 113.203L484.373 61.8071C484.962 49.7406 485.292 35.8302 486.519 23.9892C473.23 23.6028 458.136 23.8865 444.759 23.9018C422.111 23.9779 399.463 23.9384 376.816 23.7833L376.842 78.1122C374.796 78.165 372.786 78.072 370.744 78.0497C358.351 77.9146 346.033 78.2206 333.657 77.515C333.011 70.8108 333.909 62.5199 333.208 56.112C333.21 45.4652 333.506 34.4165 333.45 23.9024L235.593 23.8456C217.546 23.8405 198.901 24.1341 180.904 23.7571C181.053 36.1585 181.111 48.5607 181.079 60.9629C181.055 66.1768 180.73 72.5523 180.842 77.5954C170.374 77.9955 159.834 77.7559 149.365 77.8205C145.381 77.8451 140.47 77.585 136.644 77.7918L136.671 23.7927C130.062 24.1113 122.566 23.887 115.889 23.8798L79.7374 23.867L43.6158 23.8838C37.9892 23.894 31.1992 24.1096 25.7081 23.9186L27.1712 50.9082C27.3883 54.818 28.0336 60.362 28.0265 64.1017C27.7947 68.0502 26.9262 68.7347 27.1003 73.0749C26.3713 63.7978 26.1082 53.7814 25.6054 44.4545C25.2158 37.2303 24.5363 29.7385 24.866 22.5041C56.8319 22.0487 88.9166 22.6274 120.894 22.3922C126.484 22.3511 132.138 22.3726 137.727 22.4774L137.77 57.5705C137.772 63.3619 138.008 70.5383 137.751 76.1639C145.561 75.8322 154.157 76.0185 162.016 75.9913C166.92 75.9743 175.457 75.7626 180.072 76.3941C179.915 58.6006 180.351 40.1665 179.995 22.5004Z"/><path fill="#000001" transform="matrix(1.82178 0 0 1.82206 0.000488281 0)" d="M27.4168 76.1887C28.0653 77.0289 28.0207 76.9937 28.1783 78.0626C28.2561 77.6566 28.2808 77.4687 28.3255 77.0659L28.6214 77.2894L28.6476 77.5475C28.7172 78.1967 28.6937 78.5252 29.0331 79.0824L31.5515 121.831C31.7564 124.904 32.2066 140.117 33.5467 141.913C40.7058 151.511 50.3229 160.175 57.8954 169.475C70.4923 183.482 82.9682 197.598 95.3216 211.82C102.582 220.263 110.693 230.347 118.175 238.416C117.537 239.348 117.493 239.383 117.312 240.472C116.471 238.465 109.452 230.828 107.627 228.693C95.4088 214.447 83.0878 200.289 70.6652 186.22L61.3815 175.821C59.5634 173.799 57.2781 171.554 55.7393 169.37C55.7138 169.352 55.6853 169.337 55.6629 169.315C52.069 165.796 32.8362 144.775 31.4166 141.862C30.6972 140.385 27.7493 82.3823 27.4168 76.1887Z"/><path fill="#000001" transform="matrix(1.82178 0 0 1.82206 0.000488281 0)" d="M44.1142 538.674L73.7207 494.795C76.4654 490.675 81.5793 483.795 83.6207 479.641C84.7453 477.354 85.6589 467.175 86.1558 463.851C89.5424 442.619 92.4685 421.317 94.9322 399.959C95.148 401.917 95.5227 403.735 95.5115 405.683C95.0347 410.868 94.0368 417.049 93.3204 422.272L89.3659 451.078C88.1954 459.481 87.2229 472.327 84.969 480.366C84.7001 481.325 77.6552 491.627 76.5385 493.347C69.8282 503.687 62.4542 513.989 55.6864 524.35C52.2398 529.627 47.7659 535.308 44.7237 540.737C44.5329 540.046 44.3297 539.358 44.1142 538.674Z"/><path fill="#01071C" transform="matrix(1.82178 0 0 1.82206 0.000488281 0)" d="M108.907 300.311C109.852 299.352 110.073 296.63 110.321 295.134C110.535 296.992 109.716 298.052 110.444 299.619C109.184 310.499 107.262 321.23 105.725 332.046L100.162 373.076L96.9544 395.142C96.6538 397.304 95.967 403.804 95.5115 405.683C95.5227 403.735 95.148 401.917 94.9322 399.959C95.2263 395.361 96.592 387.541 97.2646 382.823L101.732 350.781C103.273 339.173 104.886 327.574 106.571 315.985C107.08 312.438 108.109 303.506 108.907 300.311Z"/><path fill="#000001" transform="matrix(1.82178 0 0 1.82206 0.000488281 0)" d="M108.907 300.311C109.045 298.366 109.656 295.035 109.943 292.98L111.788 279.049C112.528 273.422 113.315 267.801 114.152 262.188C114.57 259.251 114.863 256.01 115.539 253.152C115.765 255.548 115.388 258.634 115.876 260.452L110.444 299.619C109.716 298.052 110.535 296.992 110.321 295.134C110.073 296.63 109.852 299.352 108.907 300.311Z"/><path fill="#01071C" transform="matrix(1.82178 0 0 1.82206 0.000488281 0)" d="M118.175 238.416C119.262 241.172 116.362 256.313 115.876 260.452C115.388 258.634 115.765 255.548 115.539 253.152C115.498 250.907 116.732 242.6 117.312 240.472C117.493 239.383 117.537 239.348 118.175 238.416Z"/><path fill="#01071C" transform="matrix(1.82178 0 0 1.82206 0.000488281 0)" d="M28.0265 64.1017C28.5734 68.5031 28.76 74.5468 29.0331 79.0824C28.6937 78.5252 28.7172 78.1967 28.6476 77.5475L28.6214 77.2894L28.3255 77.0659C28.2808 77.4687 28.2561 77.6566 28.1783 78.0626C28.0207 76.9937 28.0653 77.0289 27.4168 76.1887C27.1625 75.2986 27.1526 74.0276 27.1003 73.0749C26.9262 68.7347 27.7947 68.0502 28.0265 64.1017Z"/><defs><linearGradient id="gradient_5" gradientUnits="userSpaceOnUse" x1="300.62643" y1="427.13956" x2="115.86353" y2="376.336"><stop offset="0" stop-color="#000008"/><stop offset="1" stop-color="#00356B"/></linearGradient></defs><path fill="url(#gradient_5)" transform="matrix(1.82178 0 0 1.82206 0.000488281 0)" d="M151 244.311L151.773 244.828C155.36 243.055 162.586 243.957 166.685 243.989C177.6 244.053 188.513 244.262 199.422 244.615L218.254 244.908C220.975 244.949 224.128 244.836 226.795 245.09C226.535 249.49 225.875 253.817 225.578 258.223C224.49 274.351 222.183 290.384 220.088 306.407L216.368 337.049C215.547 343.43 208.576 389.055 209.351 392.185C209.666 391.137 209.792 385.508 210.395 383.231C212.065 385.342 210.643 385.112 211.911 385.318C212.63 384.754 212.905 384.295 213.583 384.344L213.81 385.268L214.214 385.375C215.237 384.549 216.427 383.239 217.526 383.026C218.402 383.528 218.256 383.635 219.072 383.561C220.079 382.669 221.522 381.086 222.628 380.759C222.715 380.733 223.389 380.269 223.448 380.23L223.736 380.249C222.774 382.478 213.245 390.62 211.271 393.188C211.324 393.345 211.376 393.502 211.428 393.659L211.287 393.834C208.424 397.313 202.929 402.486 199.591 405.923C192.224 413.483 185 421.18 177.921 429.01C175.292 431.942 172.05 434.939 170.07 438.213C169.113 439.795 168.042 444.965 168.111 446.779C171.29 445.73 191.934 424.558 195.838 420.88C198.19 418.474 200.51 416.045 203.007 413.79C203.253 413.503 204.043 412.813 204.359 412.52L204.525 413.077C206.343 410.651 209.965 410.274 212.836 408.128L213.571 407.578L214.231 407.56C214.527 408.371 213.7 409.831 213.773 410.145C213.96 410.948 216.008 413.806 215.904 414.516C215.494 417.3 216.547 421.872 216.831 424.646C217.339 429.614 216.989 435.34 217.287 440.291C217.502 443.862 219.537 448.803 219.056 452.371C218.449 456.875 216.294 461.722 214.821 465.979C214.26 467.601 214.044 471.797 213.472 473.02C213.37 473.099 212.293 473.927 212.293 473.927C211.169 478.895 209.687 483.486 208.751 488.521C210.425 492.889 215.966 499.82 218.269 504.309C218.41 505.911 217.437 505.594 219.412 506.856C222.209 508.643 226.523 508.91 229.074 510.397C234.009 513.273 237.897 519.247 239.942 524.382C239.667 524.717 239.401 525.058 239.143 525.406L239.434 525.652C240.093 526.22 240.589 526.497 240.778 527.328C240.504 527.72 240.292 528.012 239.99 528.384C241.574 530.141 251.755 529.904 254.776 530.587C258.638 531.46 268.927 530.281 272.223 531.354C263.724 531.504 200.061 531.249 198.038 532.07C195.587 532.258 191.564 532.155 189.019 532.152L169.754 532.072C142.905 532.214 115.325 531.712 88.6002 532.145C90.597 528.703 95.6006 521.662 98.0092 518.037C102.998 510.5 107.903 502.909 112.722 495.263C114.806 492.029 117.611 488.143 119.417 484.823C122.341 479.446 122.662 470.542 123.486 464.427C125.066 453.381 126.519 442.318 127.844 431.238L140.059 334.241C141.154 325.48 151.834 247.196 151.281 245.273C150.422 244.552 150.447 244.782 149.084 244.64C149.708 244.551 150.407 244.486 151 244.311Z"/><path fill="#022B6C" transform="matrix(1.82178 0 0 1.82206 0.000488281 0)" d="M188.553 480.858C189.653 481.343 192.998 482.906 193.971 483.133C196.022 484.137 196.033 484.647 197.642 485.759C204.742 495.448 198.734 510.289 186.018 510.786C182.377 510.788 181.065 510.9 177.605 509.838L177.347 509.569C173.36 505.378 170.182 501.462 170.396 495.448C170.525 491.457 172.251 487.685 175.186 484.978C179.024 481.503 183.552 480.602 188.553 480.858Z"/><path fill="#000F2C" transform="matrix(1.82178 0 0 1.82206 0.000488281 0)" d="M184.508 491.247C191.806 490.84 193.563 498.733 186.949 501.308C184.55 501.441 182.368 500.944 181.071 498.693C180.44 497.595 180.291 496.284 180.659 495.071C181.267 493.005 182.741 492.164 184.508 491.247Z"/><path fill="#022B6C" transform="matrix(1.82178 0 0 1.82206 0.000488281 0)" d="M195.838 420.88C198.19 418.474 200.51 416.045 203.007 413.79L203.428 414.558L203.388 414.694C204.56 417.614 195.942 471.03 195.168 478.061C195.05 479.125 193.843 482.209 193.971 483.133C192.998 482.906 189.653 481.343 188.553 480.858C188.539 478.298 189.787 469.665 190.168 466.587C191.987 451.912 193.684 436.019 196.334 421.517L195.838 420.88Z"/><path fill="#01071C" transform="matrix(1.82178 0 0 1.82206 0.000488281 0)" d="M197.642 485.759C198.835 485.009 198.496 484.965 199.645 485.042C200.911 485.967 201.8 488.514 202.031 490.128C203.507 500.408 198.582 510.254 187.708 511.968C185.725 512.28 182.89 511.411 180.691 511.354L180.9 511.06C182.088 510.97 185.336 511.206 186.018 510.786C198.734 510.289 204.742 495.448 197.642 485.759Z"/><path fill="#022B6C" transform="matrix(1.82178 0 0 1.82206 0.000488281 0)" d="M151.016 262.658C153.861 263.377 170.708 281.559 174.56 285.256C178.585 289.12 187.638 296.253 190.722 300.278C190.761 301.604 190.761 302.921 190.661 304.244C190.096 311.764 188.886 319.281 188.053 326.78C187.11 335.279 182.618 384.17 180.334 387.681C178.518 390.473 175.304 392.897 172.888 395.192C166.085 401.652 159.238 407.933 152.136 414.064C150.271 415.631 149.228 416.418 147.153 417.672C149.828 408.216 165.399 395.621 172.552 388.85C174.056 387.426 174.441 386.586 174.745 384.557C175.641 378.578 176.152 372.507 176.769 366.488C177.946 355.576 179.045 344.656 180.068 333.729C180.908 324.555 183.015 310.248 183.062 301.575C181.055 298.689 174.962 293.181 172.181 290.521C165 283.651 157.604 276.394 150.165 269.835C150.046 267.094 150.428 265.33 151.016 262.658Z"/><defs><linearGradient id="gradient_6" gradientUnits="userSpaceOnUse" x1="441.20221" y1="391.51862" x2="212.97092" y2="395.91681"><stop offset="0" stop-color="#1D176C"/><stop offset="1" stop-color="#003E81"/></linearGradient></defs><path fill="url(#gradient_6)" transform="matrix(1.82178 0 0 1.82206 0.000488281 0)" d="M426.351 531.936C423.988 529.27 394.777 484.959 394.334 483.52C392.746 478.365 392.466 469.387 391.747 463.734L385.065 409.397L368.729 283.826C367.862 276.888 363.255 249.487 364.106 244.854C365.894 243.974 372.277 244.073 374.795 243.738C376.046 249.598 376.847 257.442 377.614 263.528L382.342 302.489L399.017 433.116C400.361 444.01 401.315 455.078 402.733 465.975C403.283 470.204 403.664 477.287 405.032 481.041C406.018 483.748 410.169 489.1 411.87 491.743C419.005 502.76 426.318 513.662 433.804 524.444C437.668 529.96 441.989 535.529 445.68 541.054C435.382 541.484 423.03 541.102 412.59 541.047L349.599 540.766L155.459 541.199C151.895 540.949 146.986 541.205 143.185 541.075L89.4353 541.172C86.8859 541.172 70.8681 541.356 69.0665 541.009L68.9643 540.623C70.4311 541.254 137.688 540.91 143.027 540.595C140.321 540.608 136.811 541.128 135.046 538.597C133.389 536.222 135.023 535.624 134.136 533.289L133.303 533.027C134.151 532.813 137.792 532.945 139.168 532.815C131.831 532.409 124.043 532.959 116.884 532.404L99.0832 532.411C96.3794 532.409 91.0904 532.515 88.6002 532.145C115.325 531.712 142.905 532.214 169.754 532.072L189.019 532.152C191.564 532.155 195.587 532.258 198.038 532.07C212.388 532.338 227.135 532.187 241.534 532.217L320.929 532.421C343.714 532.606 366.5 532.582 389.285 532.348C401.216 532.283 414.555 532.488 426.351 531.936Z"/><path fill="#0069C7" transform="matrix(1.82178 0 0 1.82206 0.000488281 0)" d="M116.884 532.404C125.851 532.02 217.974 532.425 218.564 532.859C217.798 533.58 216.357 534.09 216.415 534.972C216.537 536.819 217.306 537.328 215.913 538.882C216.306 539.252 216.606 539.473 216.788 539.994C215.233 541.367 200.475 540.773 197.616 540.787L164.672 540.915C157.898 540.919 149.813 540.75 143.185 541.075L89.4353 541.172C86.8859 541.172 70.8681 541.356 69.0665 541.009L68.9643 540.623C70.4311 541.254 137.688 540.91 143.027 540.595C140.321 540.608 136.811 541.128 135.046 538.597C133.389 536.222 135.023 535.624 134.136 533.289L133.303 533.027C134.151 532.813 137.792 532.945 139.168 532.815C131.831 532.409 124.043 532.959 116.884 532.404Z"/><defs><linearGradient id="gradient_7" gradientUnits="userSpaceOnUse" x1="200.81091" y1="327.91644" x2="250.01237" y2="369.65085"><stop offset="0" stop-color="#00255B"/><stop offset="1" stop-color="#004A9F"/></linearGradient></defs><path fill="url(#gradient_7)" transform="matrix(1.82178 0 0 1.82206 0.000488281 0)" d="M270.418 244.833L277.175 244.893C277.603 263.37 277.204 283.127 277.213 301.744L277.2 324.925C277.194 329.053 277.34 334.741 277.015 338.767C275.486 340.93 271.948 344.254 269.952 346.233L258.575 357.507C245.355 370.596 232.204 383.755 219.123 396.984C216.547 399.565 205.903 410.044 204.359 412.52C204.043 412.813 203.253 413.503 203.007 413.79C200.51 416.045 198.19 418.474 195.838 420.88C191.934 424.558 171.29 445.73 168.111 446.779C168.042 444.965 169.113 439.795 170.07 438.213C172.05 434.939 175.292 431.942 177.921 429.01C185 421.18 192.224 413.483 199.591 405.923C202.929 402.486 208.424 397.313 211.287 393.834L211.428 393.659C220.399 385.271 229.142 375.364 237.901 366.561L261.306 343.282C262.239 342.355 269.713 335.068 269.756 334.681C270.663 326.652 270.209 316.563 270.304 308.547C270.556 287.309 269.973 266.031 270.418 244.833Z"/><defs><linearGradient id="gradient_8" gradientUnits="userSpaceOnUse" x1="397.24524" y1="185.17804" x2="257.76508" y2="235.65053"><stop offset="0" stop-color="#001342"/><stop offset="1" stop-color="#003274"/></linearGradient></defs><path fill="url(#gradient_8)" transform="matrix(1.82178 0 0 1.82206 0.000488281 0)" d="M266.599 199.439L358.601 199.563L386.765 199.457C391.062 199.419 399.039 199.12 403.088 199.468L403.384 199.85C401.165 203.775 375.258 232.211 371.887 234.16C368.859 234.302 365.679 234.222 362.775 234.386C368.846 224.935 377.405 216.69 384.123 207.567C380.78 208.152 372.334 207.922 368.538 207.914L336.256 207.786L275.157 207.994L258.266 208.065C256.581 208.075 251.265 208.184 249.845 207.981C249.291 207.879 248.736 207.787 248.178 207.707L247.92 207.674C249.819 204.634 247.211 205 248.119 201.197C248.782 198.419 251.791 200.776 253.792 199.56C257.733 199.423 262.936 199.706 266.599 199.439Z"/><defs><linearGradient id="gradient_9" gradientUnits="userSpaceOnUse" x1="177.83801" y1="185.44572" x2="123.91251" y2="220.94577"><stop offset="0" stop-color="#007CE3"/><stop offset="1" stop-color="#00CFFF"/></linearGradient></defs><path fill="url(#gradient_9)" transform="matrix(1.82178 0 0 1.82206 0.000488281 0)" d="M108.739 199.6L195.917 199.521C196.816 199.603 196.706 199.698 197.454 199.865C194.738 200.465 189.2 199.116 187.142 201.211C186.551 203.138 188.211 204.537 187.649 207.103L187.561 207.482C188.905 208.067 194.725 207.445 196.895 207.949C194.203 207.976 189.323 207.893 186.761 208.25C181.016 208.244 175.27 208.269 169.525 208.325C160.048 208.067 150.285 208.432 140.794 208.299C137.209 208.248 131.799 208.507 128.368 208.211C135.52 216.178 145.367 226.208 151.792 234.42C148.089 234.446 144.272 234.427 140.581 234.544C139.738 233.479 137.504 230.585 136.569 229.88C135.677 228.621 129.943 222.654 128.5 221.076C121.953 213.881 115.365 206.722 108.739 199.6Z"/><path fill="#0069C7" transform="matrix(1.82178 0 0 1.82206 0.000488281 0)" d="M195.917 199.521C204.652 199.446 213.604 199.672 222.274 199.531C224.312 200.04 230.225 199.717 230.893 200.139C230.771 201.032 230.336 202.327 230.396 202.952C230.512 204.157 231.756 206.17 231.047 207.283C223.788 208.18 214.549 207.791 207.129 207.993C205.355 208.041 198.247 208.124 196.895 207.949C194.725 207.445 188.905 208.067 187.561 207.482L187.649 207.103C188.211 204.537 186.551 203.138 187.142 201.211C189.2 199.116 194.738 200.465 197.454 199.865C196.706 199.698 196.816 199.603 195.917 199.521Z"/><path fill="#022B6C" transform="matrix(1.82178 0 0 1.82206 0.000488281 0)" d="M222.274 199.531C232.6 199.318 243.43 199.52 253.792 199.56C251.791 200.776 248.782 198.419 248.119 201.197C247.211 205 249.819 204.634 247.92 207.674L248.178 207.707C248.736 207.787 249.291 207.879 249.845 207.981L206.319 208.287C201.756 208.303 190.933 208.63 186.761 208.25C189.323 207.893 194.203 207.976 196.895 207.949C198.247 208.124 205.355 208.041 207.129 207.993C214.549 207.791 223.788 208.18 231.047 207.283C231.756 206.17 230.512 204.157 230.396 202.952C230.336 202.327 230.771 201.032 230.893 200.139C230.225 199.717 224.312 200.04 222.274 199.531Z"/><path fill="#022B6C" transform="matrix(1.82178 0 0 1.82206 0.000488281 0)" d="M300.804 244.64C302.537 244.633 303.535 244.766 305.208 245.025C305.501 246.79 305.271 251.776 305.345 253.857C305.481 257.7 305.601 261.655 305.679 265.498C306.156 282.741 306.454 299.988 306.571 317.236C306.75 330.045 307.082 342.851 307.566 355.652C307.736 361.646 308.179 369.746 307.935 375.628C304.466 379.887 297.846 385.762 293.666 389.855C281.659 401.57 269.719 413.352 257.845 425.2C253.178 429.818 248.445 434.328 243.743 438.902C243.193 439.437 241.693 441.135 241.555 441.805C240.885 445.056 240.884 448.756 240.641 452.123C240.134 459.124 239.86 465.174 239.131 472.26C238.706 476.391 237.315 483.308 237.068 487.581C238.186 489.284 241.745 490.546 242.474 492.514C244.103 496.913 240.973 502.333 236.688 503.696C235.666 504.021 234.66 503.969 233.354 504.456C227.049 505.888 223.751 499.713 222.565 494.599C224.572 487.159 230.728 490.523 231.675 485.917C232.519 481.816 232.29 476.965 232.454 472.764C232.648 467.771 233.669 440.862 235.435 437.447C236.906 434.602 245.45 426.947 248.09 424.315L283.269 389.23C285.113 387.39 300.135 373.315 300.151 371.544C300.206 365.525 299.722 356.9 299.652 350.651C299.08 319.876 298.918 289.096 299.168 258.317C299.188 256.139 298.278 245.958 298.99 244.95C299.576 244.909 299.816 244.89 300.375 244.75L300.804 244.64Z"/><path fill="#01071C" transform="matrix(1.82178 0 0 1.82206 0.000488281 0)" d="M231.484 490.879C235.844 490.654 238.753 492.241 235.657 496.679C231.576 497.871 229.319 494.732 231.484 490.879Z"/><path fill="#01071C" transform="matrix(1.82178 0 0 1.82206 0.000488281 0)" d="M336.767 398.035C342.664 397.89 345.605 402.591 339.678 406.106C334.818 408.067 330.884 401.665 336.767 398.035Z"/><defs><linearGradient id="gradient_10" gradientUnits="userSpaceOnUse" x1="415.60187" y1="357.02942" x2="410.15582" y2="357.78452"><stop offset="0" stop-color="black" stop-opacity="0.95686275"/><stop offset="1" stop-color="black"/></linearGradient></defs><path fill="url(#gradient_10)" transform="matrix(1.82178 0 0 1.82206 0.000488281 0)" d="M397.36 234.544L398.663 234.016L399.346 234.504C398.407 235.614 396.819 237.393 396.038 238.524C395.908 244.028 396.678 248.62 397.39 254.047C398.225 260.35 399.094 266.649 399.997 272.943L407.647 327.736L422.343 433.942C424.372 448.215 426.245 462.555 428.396 476.809C428.62 478.288 429.487 479.979 430.331 481.215L428.45 481.128C427.387 479.395 426.66 477.192 426.349 475.195C424.294 462.005 422.651 448.679 420.795 435.464L408.386 345.616L399.715 283.228C397.667 268.943 394.928 252.826 393.887 238.496C394.858 237.025 395.993 235.661 397.36 234.544Z"/><path fill="#000001" fill-opacity="0.97647059" transform="matrix(1.82178 0 0 1.82206 0.000488281 0)" d="M476.774 146.218C477.376 145.988 477.861 145.804 478.48 145.61L479.021 146.032C472.283 152.989 465.597 160.665 459.148 167.915L432.688 197.376L415.261 216.789C410.123 222.453 404.202 228.622 399.346 234.504L398.663 234.016L397.36 234.544C400.745 229.911 409.314 220.899 413.289 216.445C424.734 203.515 436.316 190.707 448.033 178.023C454.878 170.52 461.32 162.611 468.342 155.251C470.904 152.565 474.043 148.638 476.774 146.218Z"/><path fill="#000001" fill-opacity="0.98823529" transform="matrix(1.82178 0 0 1.82206 0.000488281 0)" d="M428.45 481.128L430.331 481.215C438.069 492.9 445.905 504.521 453.837 516.076L461.978 528.136C463.233 530.005 465.003 532.872 466.301 534.539C466.237 535.29 466.125 536.257 466.103 536.994C459.901 528.989 452.244 516.695 446.328 507.983L434.151 489.931C432.252 487.065 430.061 484.129 428.45 481.128Z"/><path fill="#000001" fill-opacity="0.97647059" transform="matrix(1.82178 0 0 1.82206 0.000488281 0)" d="M466.301 534.539C467.491 536.287 469.281 538.758 470.249 540.561C466.058 547.697 460.424 555.068 455.792 562L454.071 562C458.769 554.673 463.48 547.933 468.151 540.396C467.5 539.173 466.843 538.155 466.103 536.994C466.125 536.257 466.237 535.29 466.301 534.539Z"/><path fill="#000001" fill-opacity="0.98823529" transform="matrix(1.82178 0 0 1.82206 0.000488281 0)" d="M44.1142 538.674C44.3297 539.358 44.5329 540.046 44.7237 540.737C49.5127 547.876 54.4873 554.798 59.2571 562L57.2228 562C56.4259 560.378 53.2731 555.938 52.0203 554.209C49.2003 550.317 45.7538 544.522 42.6297 541.074L44.1142 538.674Z"/></svg>