<?xml version="1.0" encoding="utf-8" ?><svg xmlns="http://www.w3.org/2000/svg" xmlns:xlink="http://www.w3.org/1999/xlink" width="857" height="1024" viewBox="0 0 857 1024"><defs><linearGradient id="gradient_0" gradientUnits="userSpaceOnUse" x1="308.88419" y1="238.80115" x2="21.132069" y2="170.47198"><stop offset="0" stop-color="#3B87C6"/><stop offset="1" stop-color="#52D3F1"/></linearGradient></defs><path fill="url(#gradient_0)" transform="matrix(2.82838 0 0 2.82873 0.000976562 0)" d="M24.0291 157.434C25.6328 151.699 28.0167 145.558 30.5211 139.93C53.3541 88.6178 97.0082 48.8874 142.377 17.3802C145.477 15.2271 150.765 14.0587 154.318 15.3011C162.248 17.9955 171.726 26.9034 178.381 32.2831C212.391 59.7774 244.223 87.0871 265.513 126.123C281.833 156.045 288.978 188.376 279.315 221.824C274.66 237.934 266.056 253.534 256.555 267.284C252.834 272.67 248.591 277.784 245.006 283.171C250.225 284.849 255.447 286.361 260.061 289.427C261.997 290.713 263.772 292.373 265.397 294.026C269.173 297.865 272.589 302.185 276.117 306.257C279.512 310.174 285.449 316.074 287.756 320.541C288.868 322.696 289.466 325.611 288.673 327.964C286.75 333.675 266 356.275 260.766 362L38.3055 362C32.1286 355.247 13.4563 334.822 10.801 327.633C9.99059 325.439 10.3423 323.579 11.3419 321.499C14.5364 314.85 34.1973 292.746 40.3644 288.926C45.2782 285.882 51.1127 284.595 56.5261 282.731C53.7809 277.824 49.9904 272.988 46.6903 268.412C29.9872 245.249 18.632 217.875 19.1565 188.934C19.2264 185.075 19.13 178.942 20.196 175.342C20.5001 171.003 22.684 161.572 24.0291 157.434Z"/><path fill="#64CFEC" transform="matrix(2.82838 0 0 2.82873 0.000976562 0)" d="M24.0291 157.434C24.2984 159.731 22.4258 173.113 21.6308 175.159C21.2861 174.515 21.1011 173.632 21.4423 172.944C21.2137 173.95 21.0069 174.607 20.196 175.342C20.5001 171.003 22.684 161.572 24.0291 157.434Z"/><defs><linearGradient id="gradient_1" gradientUnits="userSpaceOnUse" x1="245.99673" y1="242.96822" x2="77.301102" y2="133.28816"><stop offset="0" stop-color="#ADD3EA"/><stop offset="1" stop-color="#E1FAFE"/></linearGradient></defs><path fill="url(#gradient_1)" transform="matrix(2.82838 0 0 2.82873 0.000976562 0)" d="M60.6405 252.211C58.7236 249.607 56.8972 246.682 55.2685 243.923C9.97033 167.2 75.2784 95.6539 133.223 51.0408C137.805 47.5129 146.57 39.665 151.732 38.1548C154.658 38.9218 156.657 40.5837 158.968 42.4362C163.15 45.7742 181.82 59.6383 182.302 63.6834C182.444 64.8796 181.896 65.858 181.141 66.7226C178.913 69.2743 176.265 71.5968 173.817 73.9348C170.263 77.3296 166.805 80.7844 163.572 84.4895C149.464 100.658 138.786 118.003 131.928 138.381C129.651 145.146 127.655 152.164 128.053 159.376C128.353 164.825 130.301 169.068 133.427 173.424C134.031 173.808 135.884 175.863 136.742 176.458C141.957 180.071 146.059 180.993 152.125 180.545C161.565 179.847 169.582 171.474 171.166 162.616C171.812 159.007 171.492 146.53 171.486 142.153L171.441 114.978C171.437 110.685 170.752 105.04 173.335 101.776C175.466 98.1731 191.904 81.7416 195.241 80.3629C200.487 76.4758 205.993 83.3573 209.492 86.839C219.879 97.1751 229.386 108.644 237.581 120.789C255.065 147.334 267.554 175.499 260.51 208.008C255.37 231.725 242.483 251.544 227.296 270.083C224.2 273.862 219.418 280.18 216.025 283.301C212.033 283.762 203.478 283.523 199.173 283.521L167.364 283.501L114.073 283.48C105.403 283.477 95.2787 283.747 86.6958 283.441C78.5204 275.988 70.3115 265.886 63.7403 256.877C63.1624 256.085 61.0013 252.974 60.6405 252.211Z"/><defs><linearGradient id="gradient_2" gradientUnits="userSpaceOnUse" x1="121.54008" y1="154.14935" x2="66.665047" y2="117.72798"><stop offset="0" stop-color="#E3F8FB"/><stop offset="1" stop-color="white"/></linearGradient></defs><path fill="url(#gradient_2)" transform="matrix(2.82838 0 0 2.82873 0.000976562 0)" d="M60.6405 252.211C58.7236 249.607 56.8972 246.682 55.2685 243.923C9.97033 167.2 75.2784 95.6539 133.223 51.0408C137.805 47.5129 146.57 39.665 151.732 38.1548C154.658 38.9218 156.657 40.5837 158.968 42.4362C158.164 44.028 157.098 45.0329 156.377 46.4201C150.805 57.1898 140.415 64.0074 131.546 71.8478C124.435 78.1444 117.38 84.7822 110.803 91.627C106.28 96.3346 99.2366 101.688 95.9071 107.231C92.5655 112.795 88.6127 116.585 84.986 121.557C78.6629 130.225 71.8145 139.848 67.9362 149.853C64.0929 159.905 61.5118 169.888 60.2574 180.559C60.1267 181.671 57.483 185.092 56.8903 186.345C55.3138 189.395 51.0162 195.981 51.8557 199.499C54.2659 209.503 53.9487 219.771 55.3066 229.91C55.4327 230.851 56.7252 232.571 56.8866 233.815C57.035 234.96 57.5281 236.441 57.5895 237.625C57.7861 241.42 59.678 245.225 59.0813 248.939C58.9909 249.502 60.7698 250.906 60.6405 252.211Z"/><path fill="#F9FCFD" transform="matrix(2.82838 0 0 2.82873 0.000976562 0)" d="M173.335 101.776C175.363 100.612 175.868 98.7622 177.72 97.3778C177.63 99.4428 177.794 99.3921 177.344 101.522C175.716 109.22 176.413 117.712 176.447 125.604L176.406 148.705C176.407 152.324 176.798 160.536 176.29 163.575C175.535 167.835 173.639 171.811 170.802 175.079C166.195 180.378 159.527 184.086 152.524 184.456C146.849 184.755 138.614 182.915 134.455 178.954C133.329 177.882 131.942 176.613 131.612 175.045C131.97 174.154 131.987 174.146 133.043 173.69L132.962 173.537L133.427 173.424C134.031 173.808 135.884 175.863 136.742 176.458C141.957 180.071 146.059 180.993 152.125 180.545C161.565 179.847 169.582 171.474 171.166 162.616C171.812 159.007 171.492 146.53 171.486 142.153L171.441 114.978C171.437 110.685 170.752 105.04 173.335 101.776Z"/><path fill="#E8F3F9" transform="matrix(2.82838 0 0 2.82873 0.000976562 0)" d="M195.241 80.3629C196.312 80.2252 197.338 79.9227 198.374 79.626C198.275 80.4666 197.688 80.9564 197.041 81.4559C195.504 82.3229 194.641 87.2676 193.34 87.9242C192.385 88.4064 186.474 91.5964 186.28 91.5599C181.384 90.6409 180.823 95.3438 177.72 97.3778C175.868 98.7622 175.363 100.612 173.335 101.776C175.466 98.1731 191.904 81.7416 195.241 80.3629Z"/><defs><linearGradient id="gradient_3" gradientUnits="userSpaceOnUse" x1="166.72932" y1="375.53516" x2="131.68132" y2="276.33475"><stop offset="0" stop-color="#87BADD"/><stop offset="1" stop-color="#E5F8FD"/></linearGradient></defs><path fill="url(#gradient_3)" transform="matrix(2.82838 0 0 2.82873 0.000976562 0)" d="M35.1338 322.638C38.1458 319.148 50.7061 305.781 53.9562 303.714C54.9715 303.068 55.8739 302.938 57.0525 302.85C60.2381 302.614 63.5056 302.739 66.7001 302.74L83.3801 302.752L134.649 302.737L209.468 302.789C221.17 302.845 233.856 302.543 245.428 303.092C250.584 306.549 257.236 316.349 262.165 320.681C265.546 323.653 263.122 328.087 260.706 330.707C255.421 336.549 250.305 343.375 244.409 348.589C242.873 349.947 235.826 349.523 233.502 349.52L218.761 349.498L172.203 349.496L92.1762 349.476L66.8403 349.479C62.6567 349.486 57.8627 349.628 53.7432 349.501C49.5483 346.784 45.637 340.917 42.2875 337.188C41.7011 336.535 39.9283 334.328 39.4018 333.905C34.7669 332.538 29.7012 322.792 35.1338 322.638Z"/><path fill="#27B6E4" transform="matrix(2.82838 0 0 2.82873 0.000976562 0)" d="M39.4018 333.905C34.7669 332.538 29.7012 322.792 35.1338 322.638C31.9126 327.629 36.6701 330.235 39.4018 333.905Z"/><path fill="#64CFEC" transform="matrix(2.82838 0 0 2.82873 0.000976562 0)" d="M28.6051 165.09C31.1201 167.006 32.3338 166.545 35.0215 167.78C35.3748 167.943 35.3026 168.13 35.37 168.549L34.9998 168.808L34.4197 168.676C32.1798 167.858 28.385 168.173 27.0532 166.99L27.0406 166.482C27.5996 165.668 27.6828 165.539 28.6051 165.09Z"/><path fill="#64CFEC" transform="matrix(2.82838 0 0 2.82873 0.000976562 0)" d="M128.825 285.595C130.067 285.5 131.974 285.23 133.095 285.706L133.358 286.443C131.884 286.99 129.854 286.942 128.825 285.595Z"/></svg>