<?xml version="1.0" encoding="utf-8" ?><svg xmlns="http://www.w3.org/2000/svg" xmlns:xlink="http://www.w3.org/1999/xlink" width="698" height="1024" viewBox="0 0 698 1024"><defs><linearGradient id="gradient_0" gradientUnits="userSpaceOnUse" x1="279.81903" y1="242.79173" x2="4.6015329" y2="161.73708"><stop offset="0" stop-color="#359FD3"/><stop offset="1" stop-color="#3ADDFE"/></linearGradient></defs><path fill="url(#gradient_0)" transform="scale(2.75889 2.76011)" d="M98.1977 5.95249L157.52 5.95055C157.059 16.2356 157.953 28.0337 157.321 37.9913C166.097 37.6857 175.417 37.8301 184.219 37.8628C183.775 43.0188 184.02 53.0017 184.024 58.3762L184.097 95.6047C175.338 95.3987 166.141 95.5382 157.35 95.5419C157.742 100.359 156.854 104.713 158.342 109.718C159.951 115.135 164.783 119.443 170.14 120.962C173.758 121.988 178.964 121.754 182.801 121.752L199.527 121.736C209.601 121.727 218.791 121.168 228.001 126.21C236.868 131.041 244.033 139.186 246.913 148.946C248.49 154.291 248.854 161.209 247.217 166.599C245.51 172.22 242.756 177.984 240.293 183.327L230.658 204.173C226.656 212.857 222.608 221.533 218.536 230.185C213.655 240.554 208.834 252.119 203.408 262.135C209.029 271.237 209.953 276.231 208.955 287.191C208.71 289.888 208.453 292.77 207.996 295.458C222.074 295.149 227.686 300.754 235.88 311.775C241.248 318.995 247.607 325.784 253 332.992L253 337.096C249.491 342.864 244.82 347.785 240.662 353.044C234.347 361.031 230.099 365.9 221.183 371L33.004 371C30.3283 369.609 27.693 368.19 25.3451 366.276C22.3332 363.82 1.53904 338.657 1.42141 335.759C1.37069 334.509 2.45441 332.894 3.14918 331.876C6.16618 327.458 9.98185 323.445 13.3938 319.315C17.2149 314.688 20.8629 309.789 24.8557 305.321C30.97 298.481 36.8618 295.776 45.8891 295.252C45.1683 286.381 43.1227 277.841 46.7181 269.357C47.9777 266.384 49.4781 263.657 50.8989 260.759C46.7016 253.495 42.3479 243.318 38.8465 235.529L25.5495 206.367L14.2142 181.183C10.3896 172.653 6.12797 165.478 6.8086 155.743C7.35265 147.805 10.6356 140.303 16.0967 134.517C27.4243 122.398 37.0924 121.677 52.4263 121.693L68.1052 121.714C76.2437 121.725 85.5544 122.714 91.9549 117.063C99.0027 110.84 97.7353 104.07 98.2974 95.4902C89.1631 95.8001 78.471 95.0927 69.5544 95.7307C69.746 93.3671 69.635 89.4665 69.6378 86.9505L69.6512 70.5288C69.6574 61.0045 70.0734 47.0931 69.5012 37.9222C72.4084 37.7011 76.5868 37.8311 79.6352 37.8291L98.3161 37.8452C98.0557 27.5198 98.6968 16.0609 98.1977 5.95249ZM118.376 56.7794C110.093 56.3596 98.7443 56.6009 90.3519 56.6026C90.5704 62.7012 90.4426 69.61 90.4571 75.7787C99.6169 75.5799 109.246 75.7948 118.488 75.707C117.783 86.7164 118.995 98.3389 118.178 109.407C117.904 113.124 115.684 116.309 115.235 119.413C118.302 118.199 136.064 118.146 139.217 119.521C139.315 119.564 139.411 119.609 139.507 119.657C139.516 118.615 138.481 115.466 138.177 114.274C135.921 105.421 137.045 95.8895 136.861 86.8371C136.789 83.2385 137.104 79.484 136.688 75.9177C137.981 75.8398 139.356 75.8051 140.652 75.8291C148.196 75.9683 156.032 75.4877 163.554 75.9528C163.464 69.4768 163.452 62.9998 163.519 56.5234C160.742 56.7109 156.855 56.6029 154.01 56.6055L136.744 56.6163C136.92 46.4008 136.626 36.076 137.03 25.9021C131.366 26.1879 124.097 25.9871 118.351 25.9249C118.546 35.9888 118.343 46.6501 118.376 56.7794Z"/><path fill="#D8F1F7" transform="scale(2.75889 2.76011)" d="M68.2239 255.272C65.7559 250.209 63.456 244.523 61.1383 239.34L45.5038 204.3C41.4612 195.209 37.4689 186.096 33.5272 176.961C31.1968 171.691 25.3485 161.148 25.579 155.337C25.7115 151.996 29.7574 147.043 33.592 146.88C38.6176 146.667 44.0442 146.713 49.2802 146.715L79.9834 146.721L178.98 146.741C181.597 146.745 184.429 146.695 187.028 146.758L208.493 146.712C213.172 146.72 218.34 146.596 222.897 147.344C226.883 147.997 229.786 154.329 229.659 157.933C229.597 159.699 229.163 161.055 228.438 162.653C225.941 168.327 223.238 173.951 220.627 179.575C215.38 190.982 210.061 202.355 204.67 213.695L192.491 240.025C190.858 243.584 187.147 253.032 184.64 255.387C179.633 255.675 173.61 255.48 168.533 255.504C166.457 255.514 160.365 255.63 158.557 255.453C154.791 255.511 151.024 255.527 147.258 255.5C144.575 255.516 139.563 255.678 137.051 255.455L92.2885 255.449C85.4462 255.449 74.8006 255.751 68.2239 255.272Z"/><path fill="#B3DCEF" transform="scale(2.75889 2.76011)" d="M187.028 146.758L208.493 146.712C213.172 146.72 218.34 146.596 222.897 147.344C226.883 147.997 229.786 154.329 229.659 157.933C229.597 159.699 229.163 161.055 228.438 162.653C225.941 168.327 223.238 173.951 220.627 179.575C215.38 190.982 210.061 202.355 204.67 213.695L192.491 240.025C190.858 243.584 187.147 253.032 184.64 255.387C179.633 255.675 173.61 255.48 168.533 255.504C166.457 255.514 160.365 255.63 158.557 255.453C154.791 255.511 151.024 255.527 147.258 255.5C146.496 255.312 146.506 255.45 146.085 254.916C147.373 252.535 149.121 247.631 150.044 245.091C151.386 241.41 152.761 237.741 154.169 234.085C160.351 217.816 166.433 201.508 172.413 185.163L179.433 165.779C180.34 163.25 182.01 157.998 183.061 155.763C183.913 153.334 184.666 151.139 185.72 148.781C185.746 148.357 185.536 147.829 185.408 147.393C185.782 146.866 186.228 146.938 187.028 146.758Z"/><defs><linearGradient id="gradient_1" gradientUnits="userSpaceOnUse" x1="208.40767" y1="206.97357" x2="167.84459" y2="189.15944"><stop offset="0" stop-color="#93C6E7"/><stop offset="1" stop-color="#C7E6F3"/></linearGradient></defs><path fill="url(#gradient_1)" transform="scale(2.75889 2.76011)" d="M187.028 146.758L208.493 146.712C213.172 146.72 218.34 146.596 222.897 147.344C226.883 147.997 229.786 154.329 229.659 157.933C229.597 159.699 229.163 161.055 228.438 162.653C225.941 168.327 223.238 173.951 220.627 179.575C215.38 190.982 210.061 202.355 204.67 213.695L192.491 240.025C190.858 243.584 187.147 253.032 184.64 255.387C179.633 255.675 173.61 255.48 168.533 255.504C166.457 255.514 160.365 255.63 158.557 255.453C158.971 255.115 165.677 255.288 166.911 255.149C168.495 249.041 175.592 237.872 178.585 231.603C181.75 224.975 186.207 215.809 189.321 209.483C193.363 201.275 212.909 163.087 212.609 156.263C212.078 155.936 185.726 155.785 183.061 155.763C183.913 153.334 184.666 151.139 185.72 148.781C185.746 148.357 185.536 147.829 185.408 147.393C185.782 146.866 186.228 146.938 187.028 146.758Z"/><path fill="#72DDFD" transform="scale(2.75889 2.76011)" d="M178.98 146.741C181.597 146.745 184.429 146.695 187.028 146.758C186.228 146.938 185.782 146.866 185.408 147.393C185.536 147.829 185.746 148.357 185.72 148.781C184.666 151.139 183.913 153.334 183.061 155.763C182.01 157.998 180.34 163.25 179.433 165.779L172.413 185.163C166.433 201.508 160.351 217.816 154.169 234.085C152.761 237.741 151.386 241.41 150.044 245.091C149.121 247.631 147.373 252.535 146.085 254.916C146.506 255.45 146.496 255.312 147.258 255.5C144.575 255.516 139.563 255.678 137.051 255.455C137.698 255.351 138.226 255.32 138.873 255.279C139.496 254.732 142.536 245.521 143.113 244.016C151.461 222.83 159.485 201.518 167.182 180.088C170.866 169.971 175.387 158.318 178.467 148.055C178.653 147.65 178.821 147.163 178.98 146.741Z"/><path fill="#B3DCEF" transform="scale(2.75889 2.76011)" d="M178.98 146.741C181.597 146.745 184.429 146.695 187.028 146.758C186.228 146.938 185.782 146.866 185.408 147.393C185.536 147.829 185.746 148.357 185.72 148.781C184.28 148.141 179.96 147.465 178.467 148.055C178.653 147.65 178.821 147.163 178.98 146.741Z"/><defs><linearGradient id="gradient_2" gradientUnits="userSpaceOnUse" x1="184.08774" y1="386.80219" x2="70.896965" y2="284.32889"><stop offset="0" stop-color="#9CC4E7"/><stop offset="1" stop-color="#C3F0F8"/></linearGradient></defs><path fill="url(#gradient_2)" transform="scale(2.75889 2.76011)" d="M59.8731 313.956C66.8229 313.491 77.0371 313.789 84.1866 313.798L125.888 313.764L181.662 313.722C191.187 313.723 202.546 313.439 211.899 313.849C214.897 316.126 220.719 323.633 223.365 326.848C225.488 329.427 228.363 332.548 230.416 335.039C227.959 338.651 216.572 353.645 212.249 354.316C209.379 354.761 199.164 354.713 195.719 354.709L164.048 354.652L85.2896 354.742C71.8323 354.743 58.3441 354.764 44.8866 354.73C43.4167 354.726 40.4453 354.727 39.4304 353.837C35.2943 350.206 27.2813 339.845 24.4087 335.267L26.0834 333.394C31.1589 328.031 35.8151 322.007 40.8794 316.644C41.4118 316.08 42.9999 314.811 43.7022 314.651C48.1476 313.637 55.3365 313.865 59.8731 313.956Z"/><path fill="#D8F1F7" transform="scale(2.75889 2.76011)" d="M26.0834 333.394C31.1589 328.031 35.8151 322.007 40.8794 316.644C41.4118 316.08 42.9999 314.811 43.7022 314.651C48.1476 313.637 55.3365 313.865 59.8731 313.956C63.0143 314.224 67.8512 314.068 71.1564 314.063L90.8118 314.05L155.098 313.988C163.14 313.99 171.142 313.861 179.169 314.377C181.829 314.549 184.922 313.905 187.617 314.057C188.496 314.068 190.215 315.188 190.932 315.284C192.124 315.445 193.941 314.903 195.101 315.381L194.008 315.832C194.868 316.547 197.416 315.976 198.799 316.474C198.599 317.187 197.969 317.877 197.5 318.475C202.749 321.68 201.438 324.734 205.531 328.642C207.431 330.456 210.148 330.428 210.851 331.847C210.595 332.089 98.1613 332.45 87.7149 332.624L47.3208 333.197C44.4205 333.25 27.0735 333.976 26.0834 333.394Z"/><path fill="#B3DCEF" transform="scale(2.75889 2.76011)" d="M175.544 315.164C176.503 315.126 180.166 315.047 180.865 315.58C179.815 315.636 178.937 315.603 178.012 316.11L177.755 316.56L178.033 316.898C178.565 316.899 179.486 316.644 179.829 316.702C183.236 317.274 189.684 318.826 189.859 323.109C189.992 326.349 184.526 328.258 183.032 330.256C183.632 331.099 187.981 330.682 189.295 331.1L189.223 331.291C187.826 331.452 183.447 331.681 182.51 330.669C182.61 329.615 183.248 329.302 184.104 328.76C184.762 328.36 185.528 328.003 185.851 327.325C185.639 326.349 185.422 326.406 184.59 325.566C182.917 323.844 181.577 322.035 180.017 320.229C178.528 318.505 176.953 316.972 175.544 315.164Z"/><defs><linearGradient id="gradient_3" gradientUnits="userSpaceOnUse" x1="153.85628" y1="320.01407" x2="100.71447" y2="249.246"><stop offset="0" stop-color="#9BCDEA"/><stop offset="1" stop-color="#E2F9FC"/></linearGradient></defs><path fill="url(#gradient_3)" transform="scale(2.75889 2.76011)" d="M78.2753 271.761C101.856 271.45 125.998 271.696 149.611 271.72L173.452 271.717C177 271.716 183.265 271.566 186.601 271.87C193.489 276.602 188.892 288.453 188.18 295.415C180.208 295.482 172.234 295.485 164.262 295.422L111.663 295.428L82.6789 295.422C77.4555 295.422 70.4795 295.594 65.3712 295.21C64.6159 291.358 64.4362 287.217 63.8504 283.287C62.4095 270.944 68.9493 271.567 78.2753 271.761Z"/><path fill="#D8F1F7" transform="scale(2.75889 2.76011)" d="M63.8504 283.287C62.4095 270.944 68.9493 271.567 78.2753 271.761C75.8182 272.542 73.6545 271.764 71.2796 272.184C69.549 272.491 70.2643 274.17 67.6664 274.269L67.4274 274.725C68.1767 275.842 68.6998 277.041 67.6696 278.303L67.3565 276.149C66.5914 276.792 66.8293 277.877 66.4523 278.136C63.2779 280.318 64.7241 280.915 63.8504 283.287Z"/><path fill="#B3DCEF" transform="scale(2.75889 2.76011)" d="M115.235 119.413C118.302 118.199 136.064 118.146 139.217 119.521C139.315 119.564 139.411 119.609 139.507 119.657C140.455 120.779 141.639 123.123 142.387 124.502C131.943 124.47 120.622 124.241 110.24 124.558C112.315 122.745 113.371 121.218 115.235 119.413Z"/></svg>