<?xml version="1.0" encoding="utf-8" ?><svg xmlns="http://www.w3.org/2000/svg" xmlns:xlink="http://www.w3.org/1999/xlink" width="826" height="1024" viewBox="0 0 826 1024"><defs><linearGradient id="gradient_0" gradientUnits="userSpaceOnUse" x1="510.48721" y1="359.44559" x2="19.142977" y2="322.65588"><stop offset="0" stop-color="#214881"/><stop offset="1" stop-color="#1E84B4"/></linearGradient></defs><path fill="url(#gradient_0)" transform="scale(1.56144 1.56098)" d="M208.63 12.4165C214.554 15.2339 220.507 17.6266 226.505 20.2563C236.177 24.549 245.799 28.9524 255.37 33.4655C326.152 67.4767 402.131 112.397 451.147 175.208C458.486 184.477 465.208 194.218 471.27 204.369C472.68 206.688 475.71 211.518 476.641 213.934C487.28 231.12 496.808 257.607 501.592 277.152C502.337 280.194 503.961 286.688 504.166 289.602C505.654 294.845 506.478 302.03 507.234 307.571C509.848 328.22 509.844 349.117 507.222 369.766C506.382 376.523 504.757 383.4 504.008 389.869C502.87 395.769 501.842 401.929 500.595 407.775C500.192 409.616 499.716 412.144 499.211 413.908C498.552 418.513 496.916 423.637 496.006 428.258C494.504 434.871 492.822 441.367 491.246 447.954C489.13 459.145 485.456 470.951 483.29 482.732L482.363 488.244C482.061 490.404 481.728 493.482 481.303 495.548C481.219 499.222 480.608 503.265 480.305 507.071C479.94 511.653 480.535 519.097 480.051 523.274C481.063 539.428 481.889 549.633 489.059 564.733C491.71 570.465 494.059 574.158 497.375 579.488C483.786 584.835 470.424 590.74 457.321 597.187C451.459 600.125 440.947 606.162 435.412 608.448L434.582 609.249C435.016 610.347 437.128 613.239 437.886 614.557C440.815 619.645 445.304 626.124 447.653 631.327C444.218 638.543 437.574 646.15 433.468 653.166C432.791 654.323 433.279 655.004 433.881 656L133.076 656C133.436 655.465 133.822 654.959 133.902 654.301C134.021 653.327 118.551 632.387 116.778 630.215C121.463 623.101 126.27 616.068 131.197 609.119C126.475 603.585 122.174 597.454 117.468 592.003C101.748 573.791 88.7745 553.799 74.3759 534.677C87.826 515.682 101.499 495.062 114.717 475.796C132.848 449.739 150.829 423.578 168.661 397.315L194.916 358.984C199.935 351.712 205.527 343.948 210.236 336.54C207.904 335.984 206.358 335.551 204.095 334.767L161.886 321.396C156.268 319.637 148.952 317.91 143.668 315.912C127.997 323.489 113.417 335.02 101.213 347.355C97.5322 351.075 91.573 357.919 88.1062 361.05L85.4002 359.911C69.0764 352.155 52.2262 336.96 39.4048 324.212C32.374 317.222 26.6625 312.938 25.4513 302.646C23.5034 287.786 22.6434 272.944 23.3583 257.952C23.8018 248.653 35.0334 241.657 41.3381 235.407C46.7721 230.019 53.0745 223.943 58.9152 218.999C63.8431 213.701 70.1768 208.375 75.437 203.396L113.136 167.929C116.686 164.588 127.307 155.162 130.017 151.791C139.707 139.735 134.065 128.2 149.758 118.291C151.924 116.163 157.941 112.229 160.618 110.278C169.982 103.457 179.488 97.1467 189.369 91.1255C192.725 89.0799 202.662 83.4738 204.989 81.1916C200.97 68.6756 201.406 38.7453 204.75 25.4884C206.095 20.1534 207.156 17.3545 208.63 12.4165Z"/><defs><linearGradient id="gradient_1" gradientUnits="userSpaceOnUse" x1="394.84915" y1="395.82977" x2="47.823475" y2="252.91315"><stop offset="0" stop-color="#C2D1DA"/><stop offset="1" stop-color="#F8FCFC"/></linearGradient></defs><path fill="url(#gradient_1)" transform="scale(1.56144 1.56098)" d="M222.344 40.7284C230.438 44.5736 238.678 48.213 246.73 52.1455C256.787 57.1755 266.793 62.3075 276.746 67.541C294.066 76.5245 291.847 72.6463 300.003 90.6389C303.219 97.8339 306.512 104.994 309.884 112.117L310.443 112.253C316.122 123.314 322.478 138.343 327.685 149.791C338.365 173.249 348.887 196.779 359.249 220.379L370.673 246.926C370.927 247.533 375.368 257.772 375.135 257.479C375.296 256.822 375.269 257.074 375.164 256.389L375.444 256.152C376.046 256.921 375.761 257.33 375.891 257.408C377.011 258.077 377.738 258.211 377.686 259.886C376.233 260.672 377.08 259.026 376.185 260.273C376.924 261.481 377.489 262.222 377.714 263.64C377.535 264.126 377.623 264.161 377.317 264.406C378.522 265.182 378.842 265.919 380.158 266.208C381.834 265.183 383.383 262.212 384.348 260.508C384.91 260.534 384.858 260.547 385.319 260.836L385.829 260.128C385.782 259.097 385.799 259.425 384.939 258.449C384.107 254.622 383.39 250.834 382.779 246.968C382.563 245.598 381.53 244.677 381.947 243.347L382.226 243.705C384.52 249.36 388.758 259.063 390.269 264.564C389.243 268.208 379.096 293.443 377.384 295.972C368.92 317.293 359.291 338.218 351.053 359.637C348.45 366.405 345.572 368.728 340.174 373.363C332.827 380.348 324.55 387.479 316.95 394.219L288.791 419.418L276.016 430.781C274.237 432.349 270.713 435.263 269.209 436.868L269.238 510.784C269.242 522.61 268.876 536.38 269.277 548.031C282.075 561.458 295.651 574.41 308.512 587.798C313.49 592.98 318.915 598.353 323.572 603.769C321.438 604.131 313.748 603.749 310.998 603.732L192.952 603.812C191.589 601.524 189.029 599.19 187.983 596.998C189.53 597.795 192.394 602.34 193.575 602.747C195.077 603.264 207.533 603.101 208.641 602.798C208.711 599.269 165.051 536.651 165.093 533.808C165.118 532.064 166.503 529.748 167.299 528.253C171.143 521.031 175.627 514.07 179.835 507.049L202.733 469.115L266.68 363.857C278.175 344.584 288.748 324.265 299.838 304.714C302.46 300.093 311.925 284.248 312.618 279.629L312.371 279.69C311.325 281.184 310.777 282.041 309.077 282.772C312.128 277.797 318.071 273.317 321.701 268.701C315.991 271.708 310.609 274.138 304.902 276.987C290.886 284.014 276.906 291.111 262.961 298.279C253.984 302.894 245.038 307.571 236.125 312.311C232.377 314.308 223.774 319.187 220.156 320.603C214.647 319.397 204.6 315.823 198.893 313.994C185.569 309.679 172.204 305.488 158.802 301.423C153.148 299.727 146.537 297.57 140.807 296.429C137.182 295.707 131.44 299.193 128.14 300.969C116.257 307.282 105.995 315.15 95.8943 323.942C91.4869 327.779 86.2895 333.16 81.7959 336.575L81.4692 336.82C68.2369 326.43 57.2438 317.44 46.0171 304.662C44.391 298.021 43.2208 278.894 42.8995 271.866L42.3247 271.734C42.2754 269.672 42.5458 267.855 41.6832 265.928C41.1857 264.817 40.9905 263.602 41.5595 262.517C42.1617 262.258 42.6218 261.985 43.1867 261.664L42.5477 261.242C43.0663 260.521 43.4625 259.724 44.1714 259.386L44.0462 260.623C45.5241 259.668 47.884 256.569 48.9218 255.051C48.9502 254.061 47.4039 252.316 46.6897 251.323C46.4553 249.564 48.2424 243.607 49.3557 242.274C52.143 238.937 57.7999 235.923 59.1037 231.507C58.8852 230.056 58.3603 229.846 57.1848 228.744C56.3272 225.377 61.7237 222.477 61.901 218.31C61.1196 217.961 60.6893 219.506 59.1344 219.941L58.9152 218.999C63.8431 213.701 70.1768 208.375 75.437 203.396L113.136 167.929C116.686 164.588 127.307 155.162 130.017 151.791C139.707 139.735 134.065 128.2 149.758 118.291L149.939 118.884C147.976 120.929 143.027 124.093 142.545 126.305L142.867 126.639C143.87 125.815 145.066 124.559 146.386 124.732C147.776 124.915 149.194 127.281 149.927 127.738C152.094 129.091 153.807 128.087 155.382 130.962C155.821 131.763 156.416 132.289 157.217 132.811C159.355 132.927 162.031 131.27 163.919 130.381C164.212 130.502 164.504 130.623 164.797 130.745C166.148 130.899 167.722 128.508 168.489 129.301C171.884 127.598 182.423 120.053 186.463 117.431C199.072 109.27 211.867 101.402 224.839 93.8325C224.258 91.5394 223.724 85.7951 223.394 83.1703C221.423 67.5125 220.759 56.3651 222.344 40.7284Z"/><defs><linearGradient id="gradient_2" gradientUnits="userSpaceOnUse" x1="363.84457" y1="429.83655" x2="234.89789" y2="398.55042"><stop offset="0" stop-color="#4284B2"/><stop offset="1" stop-color="#53B4D8"/></linearGradient></defs><path fill="url(#gradient_2)" transform="scale(1.56144 1.56098)" d="M381.947 243.347L382.226 243.705C384.52 249.36 388.758 259.063 390.269 264.564C389.243 268.208 379.096 293.443 377.384 295.972C368.92 317.293 359.291 338.218 351.053 359.637C348.45 366.405 345.572 368.728 340.174 373.363C332.827 380.348 324.55 387.479 316.95 394.219L288.791 419.418L276.016 430.781C274.237 432.349 270.713 435.263 269.209 436.868L269.238 510.784C269.242 522.61 268.876 536.38 269.277 548.031C282.075 561.458 295.651 574.41 308.512 587.798C313.49 592.98 318.915 598.353 323.572 603.769C321.438 604.131 313.748 603.749 310.998 603.732C310.802 602.584 299.533 591.366 297.47 589.222L229.603 517.464C221.531 520.374 213.609 516.804 210.504 508.774C209.048 505.078 209.159 500.948 210.812 497.335C214.062 490.309 223.649 486.89 230.397 490.528C240.482 495.965 240.867 504.557 236.239 513.734C238.479 516.358 241.591 519.142 243.927 521.814C248.923 527.524 253.838 532.819 259.154 538.223C259.728 508.939 259.073 479.415 259.119 450.114C259.127 445.007 258.872 439.603 259.227 434.526C261.569 430.681 269.42 424.175 273.081 420.695C289.817 404.955 306.704 389.378 323.74 373.965C325.792 372.116 338.384 361.333 338.935 360.05C345.31 345.202 351.574 327.277 357.795 312.147C360.004 306.776 361.224 302.198 363.475 297.703L363.603 297.454L364.052 297.526C366.274 292.691 368.385 286.673 370.354 281.588C372.619 275.838 374.94 270.11 377.317 264.406C378.522 265.182 378.842 265.919 380.158 266.208C381.834 265.183 383.383 262.212 384.348 260.508C384.91 260.534 384.858 260.547 385.319 260.836L385.829 260.128C385.782 259.097 385.799 259.425 384.939 258.449C384.107 254.622 383.39 250.834 382.779 246.968C382.563 245.598 381.53 244.677 381.947 243.347Z"/><path fill="#1E82B5" transform="scale(1.56144 1.56098)" d="M340.174 373.363C340.876 371.721 342.259 371.279 342.954 369.952L342.227 369.539C342.806 368.451 346.257 366.192 347.149 364.518C350.324 358.559 352.571 352.611 355.12 346.423L364.261 324.584L374.053 301.009C374.558 299.77 376.074 297.107 376.833 295.985L377.384 295.972C368.92 317.293 359.291 338.218 351.053 359.637C348.45 366.405 345.572 368.728 340.174 373.363Z"/><path fill="#CCD8E0" transform="scale(1.56144 1.56098)" d="M223.8 496.894C227.588 496.671 230.84 499.559 231.068 503.347C231.296 507.136 228.413 510.393 224.626 510.626C220.832 510.859 217.569 507.969 217.341 504.174C217.113 500.379 220.006 497.118 223.8 496.894Z"/><path fill="#1E82B5" transform="scale(1.56144 1.56098)" d="M58.9152 218.999C63.8431 213.701 70.1768 208.375 75.437 203.396L113.136 167.929C116.686 164.588 127.307 155.162 130.017 151.791C139.707 139.735 134.065 128.2 149.758 118.291L149.939 118.884C147.976 120.929 143.027 124.093 142.545 126.305L142.867 126.639C143.87 125.815 145.066 124.559 146.386 124.732C147.776 124.915 149.194 127.281 149.927 127.738C152.094 129.091 153.807 128.087 155.382 130.962C155.821 131.763 156.416 132.289 157.217 132.811C159.355 132.927 162.031 131.27 163.919 130.381C164.212 130.502 164.504 130.623 164.797 130.745C166.148 130.899 167.722 128.508 168.489 129.301C163.038 134.502 159.673 132.055 156.889 141.127C154.718 148.202 153.02 156.963 147.733 162.159C137.049 173.419 125.817 183.551 114.742 194.207L91.0627 216.879C86.9952 220.813 83.0458 224.949 78.9128 228.801L57.4825 249.175C53.1797 253.201 46.8612 258.637 43.064 262.779C43.0098 264.941 43.0884 270.03 42.8995 271.866L42.3247 271.734C42.2754 269.672 42.5458 267.855 41.6832 265.928C41.1857 264.817 40.9905 263.602 41.5595 262.517C42.1617 262.258 42.6218 261.985 43.1867 261.664L42.5477 261.242C43.0663 260.521 43.4625 259.724 44.1714 259.386L44.0462 260.623C45.5241 259.668 47.884 256.569 48.9218 255.051C48.9502 254.061 47.4039 252.316 46.6897 251.323C46.4553 249.564 48.2424 243.607 49.3557 242.274C52.143 238.937 57.7999 235.923 59.1037 231.507C58.8852 230.056 58.3603 229.846 57.1848 228.744C56.3272 225.377 61.7237 222.477 61.901 218.31C61.1196 217.961 60.6893 219.506 59.1344 219.941L58.9152 218.999Z"/><path fill="#1E82B5" transform="scale(1.56144 1.56098)" d="M309.884 112.117L310.443 112.253C316.122 123.314 322.478 138.343 327.685 149.791C338.365 173.249 348.887 196.779 359.249 220.379L370.673 246.926C370.927 247.533 375.368 257.772 375.135 257.479C375.296 256.822 375.269 257.074 375.164 256.389L375.444 256.152C376.046 256.921 375.761 257.33 375.891 257.408C377.011 258.077 377.738 258.211 377.686 259.886C376.233 260.672 377.08 259.026 376.185 260.273C376.924 261.481 377.489 262.222 377.714 263.64C377.535 264.126 377.623 264.161 377.317 264.406C374.94 270.11 372.619 275.838 370.354 281.588C368.385 286.673 366.274 292.691 364.052 297.526L363.603 297.454C364.176 295.388 366.511 289.746 367.379 287.493C370.468 279.423 373.682 271.401 377.021 263.431C361.73 227.308 345.944 191.396 329.668 155.707L316.158 126.212C314.639 122.899 310.922 115.285 309.884 112.117Z"/><path fill="#94ADC2" transform="scale(1.56144 1.56098)" d="M306.53 154.311L306.712 154.567C307.335 155.434 307.796 156.117 308.795 156.49C309.601 156.79 310.339 157.842 310.609 158.568C312.484 163.606 311.571 192.902 310.603 196.17C310.565 207.084 309.892 219.6 309.589 230.725L308.916 250.458C308.811 253.288 308.937 261.34 307.662 263.335C306.685 264.904 294.763 270.25 292.307 271.516L252.622 292.39C244.883 296.445 236.974 300.092 229.346 304.406C227.386 305.284 221.149 311.102 219.125 310.704C210.907 309.088 202.604 306.009 194.649 303.318C192.571 302.614 190.432 302.288 188.448 301.596L156.567 290.476C154.64 289.802 152.393 289.472 150.462 288.832C147.453 287.834 141.898 285.356 138.936 284.879C117.91 293.272 98.3652 308.162 81.4877 323.122C75.8125 319.55 71.448 315.48 66.6669 310.854C71.7907 306.847 77.4039 303.036 82.7076 299.231C86.7446 296.336 91.1107 292.586 95.1518 289.892C112.337 278.437 130.692 266.752 148.977 257.165L189.754 277.616C196.209 280.82 204.663 285.305 211.152 287.881C217.006 286.648 230.941 279.432 236.836 276.652C256.663 267.304 277.365 258.183 296.97 248.519C297.186 236.197 298.674 225.763 300.399 213.577C302.08 201.763 303.83 189.959 305.648 178.165C306.608 171.772 307.902 164.124 308.472 157.764L306.404 154.681L306.53 154.311Z"/><path fill="#6296BE" transform="scale(1.56144 1.56098)" d="M307.662 263.335C306.601 261.662 308.555 192.343 308.908 184.041C310.087 184.39 308.555 199.536 309.794 201.413C310.153 198.268 309.845 194.468 309.981 191.229C310.356 182.283 310.429 173.257 310.177 164.308C310.131 162.646 309.841 161.086 310.022 159.425C311.831 164.371 310.076 188.831 310.575 195.793L310.603 196.17C310.565 207.084 309.892 219.6 309.589 230.725L308.916 250.458C308.811 253.288 308.937 261.34 307.662 263.335Z"/><path fill="#4AAAD0" transform="scale(1.56144 1.56098)" d="M259.565 160.616C260.124 160.466 259.951 160.52 260.57 160.608C260.239 162.174 237.093 184.445 234.169 187.804C227.269 195.731 218.585 203.999 211.596 212.228C207.921 213.304 194.107 214.719 189.239 215.352L148.566 220.686C141.126 221.632 130.528 222.661 123.364 224.082C123.135 224.136 122.713 224.102 122.453 224.097L122.373 223.647C123.24 222.417 128.793 218.059 130.205 216.835L148.568 200.841C159.025 191.909 169.197 182.421 179.541 173.336C183.496 169.863 185.092 170.26 190.054 169.56C194.786 168.893 199.508 168.244 204.246 167.618C222.664 165.367 241.124 162.622 259.565 160.616Z"/><path fill="#10F4F9" transform="scale(1.56144 1.56098)" d="M231.98 174.046C232.587 173.911 232.488 173.965 233.135 174.02L233.019 174.63C226.027 182.541 212.086 197.682 203.375 203.476C200.105 205.651 180.861 207.17 175.637 207.766C169.794 208.453 163.968 209.279 158.164 210.242C157.444 210.306 157.783 210.351 157.154 210.011C157.957 207.725 169.451 197.264 171.684 195.52C177.441 191.026 183.583 181.937 190.832 180.913C204.637 178.962 218.256 176.051 231.98 174.046Z"/><path fill="#94ADC2" transform="scale(1.56144 1.56098)" d="M252.827 69.0001C260.259 74.1366 273.555 79.0195 280.089 83.8779C282.166 85.4225 293.313 109.481 295.002 112.789L329.177 179.23L347.167 215.137C349.963 220.727 352.992 226.686 355.665 232.359C355.983 233.034 356.222 235.084 355.967 235.863L355.628 234.861C355.049 233.133 353.801 231.614 353.022 229.859C350.109 223.294 346.65 216.986 343.421 210.606L310.274 146.283C302.977 131.989 295.857 117.475 288.421 103.187C286.502 99.5011 281.208 87.3143 279.291 84.5307C277.557 82.0119 261.309 74.2808 257.465 72.2606C256.666 71.8406 255.856 71.562 254.956 71.9193C266.291 91.0024 277.951 109.89 289.932 128.574C293.423 134.112 298.618 137.316 300.779 143.695C302.109 147.622 304.459 150.767 306.53 154.311L306.404 154.681C291.263 130.849 275.8 107.254 261.169 83.0891C258.44 78.5815 254.971 73.7782 252.827 69.0001Z"/><path fill="#B3C4D2" transform="scale(1.56144 1.56098)" d="M70.6334 257.467C71.3831 263.387 72.2027 269.694 67.7435 274.248C64.4763 277.577 59.6942 281.976 56.9373 285.396L57.0021 278.974C56.8862 275.784 57.004 272.528 57.0719 269.332L70.6334 257.467Z"/><path fill="#4AAAD0" transform="scale(1.56144 1.56098)" d="M57.0021 278.974C57.4641 279.262 58.5192 280.127 58.9898 280.491C61.2088 280.399 63.937 275.782 66.7844 273.905L67.7435 274.248C64.4763 277.577 59.6942 281.976 56.9373 285.396L57.0021 278.974Z"/><path fill="#CCD8E0" transform="scale(1.56144 1.56098)" d="M336.162 118.142C340.44 121.782 345.704 125.239 350.207 128.809C360.379 136.985 370.411 145.334 380.3 153.851C383.687 156.759 390.818 162.587 393.344 165.906C389.973 171.707 385.389 177.153 381.831 183.024C383.457 183.097 384.982 183.325 386.593 183.54C382.524 189.083 382.017 192.413 384.978 198.831L385.374 198.677C384.843 196.686 382.255 191.8 384.481 190.908C386.881 191.139 388.903 192.772 390.871 194.098C391.466 195.754 392.591 198.944 393.629 200.213L394.003 200.253L394.596 199.025L394.875 199.301C399.789 197.026 403.657 190.258 407.655 185.848C412.436 191.458 417.57 199.554 421.662 205.67C434.72 225.186 446.627 246.391 453.786 268.823C454.001 269.497 455.435 275.813 455.357 275.682C450.899 279.136 436.853 286.213 433.83 289.124C432.754 298.646 432.746 311.116 431.917 321.346C429.943 344.749 427.387 368.098 424.251 391.374C423.448 397.597 422.678 403.825 421.943 410.057C421.607 412.937 420.694 424.425 418.991 426.329C413.788 432.143 407.491 437.724 401.822 443.17C388.059 456.484 374.128 469.622 360.031 482.582C353.756 488.349 345.062 495.506 339.247 501.427C338.964 506.543 338.409 537.368 339.422 540.501C339.853 541.831 341.183 543.256 342.105 544.285C344.797 547.289 347.796 550.045 350.592 552.958C358.104 560.834 365.693 568.636 373.358 576.364C381.613 584.749 391.935 595.889 400.33 603.774L366.71 603.873C364.119 604.15 360.756 603.912 358.112 603.766C346.75 603.606 334.967 603.765 323.572 603.769C318.915 598.353 313.49 592.98 308.512 587.798C295.651 574.41 282.075 561.458 269.277 548.031C268.876 536.38 269.242 522.61 269.238 510.784L269.209 436.868C270.713 435.263 274.237 432.349 276.016 430.781L288.791 419.418L316.95 394.219C324.55 387.479 332.827 380.348 340.174 373.363C345.572 368.728 348.45 366.405 351.053 359.637C359.291 338.218 368.92 317.293 377.384 295.972C379.096 293.443 389.243 268.208 390.269 264.564C388.758 259.063 384.52 249.36 382.226 243.705C383.118 244.393 382.806 244.364 383.741 244.39L384.194 243.72C385.18 236.877 377.547 217.534 374.963 210.416C363.535 178.939 350.414 148.432 336.162 118.142Z"/><path fill="#B3C4D2" transform="scale(1.56144 1.56098)" d="M407.655 185.848C412.436 191.458 417.57 199.554 421.662 205.67C434.72 225.186 446.627 246.391 453.786 268.823C454.001 269.497 455.435 275.813 455.357 275.682C450.899 279.136 436.853 286.213 433.83 289.124C432.754 298.646 432.746 311.116 431.917 321.346C429.943 344.749 427.387 368.098 424.251 391.374C423.448 397.597 422.678 403.825 421.943 410.057C421.607 412.937 420.694 424.425 418.991 426.329C413.788 432.143 407.491 437.724 401.822 443.17C388.059 456.484 374.128 469.622 360.031 482.582C353.756 488.349 345.062 495.506 339.247 501.427C338.964 506.543 338.409 537.368 339.422 540.501C339.853 541.831 341.183 543.256 342.105 544.285C344.797 547.289 347.796 550.045 350.592 552.958C358.104 560.834 365.693 568.636 373.358 576.364C381.613 584.749 391.935 595.889 400.33 603.774L366.71 603.873C363.206 598.097 357.509 592.177 353.008 587.108C344.15 577.13 334.757 567.676 325.605 557.976C320.97 553.062 316.17 548.561 311.911 543.289C311.457 529.016 312.212 514.277 311.864 499.944C311.714 493.75 311.553 486.361 311.964 480.213C314.879 476.346 320.903 471.745 324.61 468.335C328.332 464.912 331.611 461.708 335.169 458.087C346.097 465.687 359.922 462.87 364.364 449.222C365.423 445.968 364.883 441.948 364.62 438.534C367.36 435.907 371.503 432.728 374.484 430.118L394.605 412.252C397.1 410.055 402.084 405.865 404.47 403.227C405.179 402.442 405.846 399.687 405.985 398.506C406.927 390.523 408.175 382.357 408.983 374.375C410.74 357.016 413.265 339.387 414.302 321.993C414.603 316.186 414.863 310.376 415.083 304.566C415.149 302.264 415.14 294.077 415.756 292.304C417.734 286.611 423.128 281.348 425.958 275.417L426.163 274.983C424.485 269.211 418.155 254.83 415.571 248.778L402.361 217.173C400.394 212.592 396.21 203.751 394.875 199.301C399.789 197.026 403.657 190.258 407.655 185.848Z"/><path fill="#4AAAD0" transform="scale(1.56144 1.56098)" d="M384.978 198.831L385.374 198.677C384.843 196.686 382.255 191.8 384.481 190.908C386.881 191.139 388.903 192.772 390.871 194.098C391.466 195.754 392.591 198.944 393.629 200.213L394.003 200.253L394.596 199.025L394.875 199.301C396.21 203.751 400.394 212.592 402.361 217.173L415.571 248.778C418.155 254.83 424.485 269.211 426.163 274.983L425.958 275.417C423.128 281.348 417.734 286.611 415.756 292.304C415.14 294.077 415.149 302.264 415.083 304.566C414.863 310.376 414.603 316.186 414.302 321.993C413.265 339.387 410.74 357.016 408.983 374.375C408.175 382.357 406.927 390.523 405.985 398.506C405.846 399.687 405.179 402.442 404.47 403.227C402.084 405.865 397.1 410.055 394.605 412.252L374.484 430.118C371.503 432.728 367.36 435.907 364.62 438.534C364.883 441.948 365.423 445.968 364.364 449.222C359.922 462.87 346.097 465.687 335.169 458.087C331.611 461.708 328.332 464.912 324.61 468.335C320.903 471.745 314.879 476.346 311.964 480.213C311.553 486.361 311.714 493.75 311.864 499.944C312.212 514.277 311.457 529.016 311.911 543.289C316.17 548.561 320.97 553.062 325.605 557.976C334.757 567.676 344.15 577.13 353.008 587.108C357.509 592.177 363.206 598.097 366.71 603.873C364.119 604.15 360.756 603.912 358.112 603.766C358.152 601.819 347.446 591.812 345.403 589.803L316.667 561.023C313.658 557.982 304.724 549.233 302.554 546.177C302.468 535.115 302.955 523.254 302.874 511.939C302.806 502.382 302.361 485.883 303.174 476.607C305.855 473.727 309.218 470.94 312.131 468.248C318.161 462.673 324.426 457.347 330.425 451.743C330.168 450.353 329.888 448.947 329.721 447.553C328.055 433.68 342.685 422.195 355.51 428.841C357.314 429.775 358.529 430.738 360.104 431.985C364.196 427.871 368.969 423.934 373.362 420.106L388.264 406.918C391.508 404.08 395.974 400.482 398.872 397.453C399.329 391.451 400.17 385.329 400.804 379.326C402.832 361.4 404.647 343.451 406.25 325.483C406.762 319.206 407.054 312.913 407.126 306.616C407.216 301.89 407.093 294.204 408.045 289.774C408.976 285.441 413.875 280.657 416.141 276.176L416.374 275.712C414.706 270.398 410.548 261.767 408.222 256.252C402.502 242.38 396.884 228.465 391.369 214.509C389.504 209.791 386.469 203.438 384.978 198.831Z"/><path fill="#CCD8E0" transform="scale(1.56144 1.56098)" d="M347.112 434.677C352.622 434.584 357.176 438.955 357.309 444.467C357.442 449.978 353.104 454.565 347.596 454.738C342.03 454.912 337.388 450.519 337.254 444.951C337.12 439.383 341.545 434.771 347.112 434.677Z"/><path fill="#B3C4D2" transform="scale(1.56144 1.56098)" d="M475.464 264.168C476.44 266.946 477.345 269.749 478.177 272.573C496.105 327.934 485.165 385.478 471.16 440.155C462.166 475.267 453.705 509.817 460.714 546.246C462.106 553.481 464.886 560.225 467.508 567.104C463.781 569.109 458.157 572.187 454.29 573.788C443.575 579.121 433.032 584.794 422.677 590.797C418.42 593.239 411.344 597.798 407.383 599.836C405.764 600.884 402.063 603.466 400.33 603.774C391.935 595.889 381.613 584.749 373.358 576.364C365.693 568.636 358.104 560.834 350.592 552.958C347.796 550.045 344.797 547.289 342.105 544.285C341.183 543.256 339.853 541.831 339.422 540.501C338.409 537.368 338.964 506.543 339.247 501.427C345.062 495.506 353.756 488.349 360.031 482.582C374.128 469.622 388.059 456.484 401.822 443.17C407.491 437.724 413.788 432.143 418.991 426.329C420.694 424.425 421.607 412.937 421.943 410.057C422.678 403.825 423.448 397.597 424.251 391.374C427.387 368.098 429.943 344.749 431.917 321.346C432.746 311.116 432.754 298.646 433.83 289.124C436.853 286.213 450.899 279.136 455.357 275.682C457.146 274.758 459.238 273.487 461.016 272.473C465.231 270.393 471.124 266.609 475.464 264.168Z"/><path fill="#94ADC2" transform="scale(1.56144 1.56098)" d="M462.847 281.974C466.126 279.936 475.749 274.527 478.177 272.573C496.105 327.934 485.165 385.478 471.16 440.155C462.166 475.267 453.705 509.817 460.714 546.246C462.106 553.481 464.886 560.225 467.508 567.104C463.781 569.109 458.157 572.187 454.29 573.788C453.933 573.088 453.595 572.378 453.279 571.659C451.892 568.551 451.008 565.312 449.961 562.088C438.309 526.229 443.372 487.509 450.993 451.362C451.759 447.727 452.157 442.659 453.443 439.308L453.648 439.128C454.774 436.055 457.063 424.447 457.93 420.591L462.973 397.986C463.571 395.227 465.132 388.512 465.194 385.968C464.236 384.239 466.096 375.333 466.167 372.586C466.478 360.421 467.343 342.159 465.629 330.394C465.604 328.059 465.168 324.702 464.884 322.342C465.03 321.296 464.477 317.238 464.319 316.03C463.68 311.236 462.871 306.465 461.896 301.728C460.929 297.252 458.458 288.769 458.6 284.664L462.847 281.974Z"/><path fill="#F4F7F8" transform="scale(1.56144 1.56098)" d="M462.847 281.974C464.029 288.522 465.453 295.018 466.645 301.571C471.744 329.591 470.485 358.045 465.194 385.968C464.236 384.239 466.096 375.333 466.167 372.586C466.478 360.421 467.343 342.159 465.629 330.394C465.604 328.059 465.168 324.702 464.884 322.342C465.03 321.296 464.477 317.238 464.319 316.03C463.68 311.236 462.871 306.465 461.896 301.728C460.929 297.252 458.458 288.769 458.6 284.664L462.847 281.974Z"/><path fill="#4AAAD0" transform="scale(1.56144 1.56098)" d="M475.464 264.168C476.44 266.946 477.345 269.749 478.177 272.573C475.749 274.527 466.126 279.936 462.847 281.974L458.6 284.664C455.138 286.472 443.357 292.967 440.697 295.139C439.017 339.141 435.088 383.029 428.925 426.63C428.024 433.139 423.222 435.427 422.714 440.514C422.116 446.501 421.683 453.009 421.218 459.039C420.399 468.496 419.636 477.957 418.929 487.422C418.561 492.319 418.221 497.201 417.772 502.103C417.43 505.838 417.199 507.485 414.33 510.117C411.451 512.758 408.352 515.248 405.705 518.105C410.206 520.172 414.156 523.397 415.936 528.155C417.399 532.067 417.046 536.689 415.317 540.46C413.411 544.615 409.447 548.095 405.145 549.601C401.244 550.966 397.1 550.535 393.425 548.705C389.253 546.629 385.788 543.311 384.28 538.83C383.059 535.206 383.144 530.262 384.927 526.828C387.398 522.068 405.966 509.75 411.025 503.513C412.077 498.069 412.4 489.478 412.873 483.614C413.894 470.951 416.341 455.725 416.723 443.234C412.942 448.11 404.704 454.392 399.801 458.743L370.057 485.359C363.387 491.286 356.403 497.139 349.981 503.319C349.364 503.912 348.426 504.798 348.154 505.611C347.313 508.121 347.578 534.444 347.775 538.786C351.025 542.23 354.525 545.465 357.88 548.818L378.771 569.941C383.43 574.728 388.054 579.549 392.642 584.404C395.595 587.577 398.763 591.281 401.817 594.282C403.788 596.7 405.112 597.752 407.383 599.836C405.764 600.884 402.063 603.466 400.33 603.774C391.935 595.889 381.613 584.749 373.358 576.364C365.693 568.636 358.104 560.834 350.592 552.958C347.796 550.045 344.797 547.289 342.105 544.285C341.183 543.256 339.853 541.831 339.422 540.501C338.409 537.368 338.964 506.543 339.247 501.427C345.062 495.506 353.756 488.349 360.031 482.582C374.128 469.622 388.059 456.484 401.822 443.17C407.491 437.724 413.788 432.143 418.991 426.329C420.694 424.425 421.607 412.937 421.943 410.057C422.678 403.825 423.448 397.597 424.251 391.374C427.387 368.098 429.943 344.749 431.917 321.346C432.746 311.116 432.754 298.646 433.83 289.124C436.853 286.213 450.899 279.136 455.357 275.682C457.146 274.758 459.238 273.487 461.016 272.473C465.231 270.393 471.124 266.609 475.464 264.168Z"/><path fill="#B3C4D2" transform="scale(1.56144 1.56098)" d="M398.891 525.036C403.532 524.44 407.778 527.716 408.381 532.358C408.984 536.999 405.715 541.252 401.076 541.862C396.427 542.474 392.164 539.196 391.56 534.544C390.955 529.892 394.239 525.633 398.891 525.036Z"/><defs><linearGradient id="gradient_3" gradientUnits="userSpaceOnUse" x1="417.50046" y1="602.35205" x2="475.66922" y2="441.64188"><stop offset="0" stop-color="#B9C6D5"/><stop offset="1" stop-color="#FFFFFC"/></linearGradient></defs><path fill="url(#gradient_3)" transform="scale(1.56144 1.56098)" d="M443.714 475.903C445.018 472.086 446.654 462.961 447.917 458.484C449.514 451.804 451.845 445.284 452.931 438.492C453.197 436.833 453.865 435.988 453.917 434.067L454.08 433.958C454.316 435.331 453.558 437.668 453.443 439.308C452.157 442.659 451.759 447.727 450.993 451.362C443.372 487.509 438.309 526.229 449.961 562.088C451.008 565.312 451.892 568.551 453.279 571.659C453.595 572.378 453.933 573.088 454.29 573.788C443.575 579.121 433.032 584.794 422.677 590.797C418.42 593.239 411.344 597.798 407.383 599.836C405.112 597.752 403.788 596.7 401.817 594.282C403.414 591.546 418.13 584.051 421.533 582.212C430.015 577.678 438.405 572.972 446.698 568.099C444.106 558.323 441.63 550.221 440.238 540.051C438.712 528.907 439.201 519.383 439.231 508.432C439.371 498.959 441.61 485.098 443.714 475.903Z"/><path fill="#94ADC2" transform="scale(1.56144 1.56098)" d="M439.231 508.432C438.837 508.835 439.001 508.718 438.846 509.437C437.469 499.38 440.147 489.021 441.881 479.122C442.081 477.981 442.387 475.97 443.217 475.221L443.714 475.903C441.61 485.098 439.371 498.959 439.231 508.432Z"/><path fill="#94ADC2" transform="scale(1.56144 1.56098)" d="M465.629 330.394C465.608 331.36 465.75 332.786 465.177 333.377C464.509 332.526 464.476 323.499 464.884 322.342C465.168 324.702 465.604 328.059 465.629 330.394Z"/><path fill="#F4F7F8" transform="scale(1.56144 1.56098)" d="M309.077 282.772C310.777 282.041 311.325 281.184 312.371 279.69L312.618 279.629C311.925 284.248 302.46 300.093 299.838 304.714C288.748 324.265 278.175 344.584 266.68 363.857L202.733 469.115L179.835 507.049C175.627 514.07 171.143 521.031 167.299 528.253C166.503 529.748 165.118 532.064 165.093 533.808C165.051 536.651 208.711 599.269 208.641 602.798C207.533 603.101 195.077 603.264 193.575 602.747C192.394 602.34 189.53 597.795 187.983 596.998L187.662 597.042C186.627 595.288 182.042 589.865 180.509 587.995C175.324 581.673 170.098 575.383 164.832 569.128C156.34 558.947 145.817 544.894 136.87 535.624L136.533 536.733C132.875 537.433 127.593 537.262 124.068 536.05L123.874 535.762C125.566 530.586 139.032 511.298 142.655 505.547C165.915 469.342 189.434 433.305 213.211 397.438C222.238 383.81 233.368 369.026 241.664 355.273C243.053 354.405 254.566 337.083 256.973 334.413L257.163 334.853C259.306 332.433 261.933 327.593 263.992 325.625L264.54 325.657C266.424 328.448 270.778 326.777 271.168 330.959C271.259 330.69 265.823 338.299 265.67 338.437L265.893 338.8L266.282 338.883C273.647 328.647 280.568 317.981 288.022 307.828C291.792 302.932 296.096 298.448 300.073 293.712C303.106 290.101 305.94 286.286 309.077 282.772Z"/><path fill="#4AAAD0" transform="scale(1.56144 1.56098)" d="M256.973 334.413L257.163 334.853C259.306 332.433 261.933 327.593 263.992 325.625L264.54 325.657C266.424 328.448 270.778 326.777 271.168 330.959C271.259 330.69 265.823 338.299 265.67 338.437L265.893 338.8L266.282 338.883C263.842 343.257 256.419 353.146 253.183 357.896L224.281 400.593L197.396 441.059C194.064 446.098 188.314 455.503 184.848 459.993C181.547 465.661 176.542 472.819 172.877 478.466L148.976 515.162C145.851 519.896 142.764 524.656 139.718 529.441C138.792 530.882 136.758 533.74 136.021 535.098L136.87 535.624L136.533 536.733C132.875 537.433 127.593 537.262 124.068 536.05L123.874 535.762C125.566 530.586 139.032 511.298 142.655 505.547C165.915 469.342 189.434 433.305 213.211 397.438C222.238 383.81 233.368 369.026 241.664 355.273C243.053 354.405 254.566 337.083 256.973 334.413Z"/><path fill="#F4F7F8" transform="scale(1.56144 1.56098)" d="M210.988 370.031C211.505 370.44 211.494 370.662 211.786 371.321C215.648 372.284 237.147 355.355 241.664 355.273C233.368 369.026 222.238 383.81 213.211 397.438C189.434 433.305 165.915 469.342 142.655 505.547C139.032 511.298 125.566 530.586 123.874 535.762C119.194 533.593 105.134 535.234 98.6645 534.188C101.897 528.816 107.796 520.929 111.532 515.405L143.486 468.709L210.988 370.031Z"/><path fill="#94ADC2" transform="scale(1.56144 1.56098)" d="M402.078 164.641C403.28 163.658 406.24 159.966 407.334 158.595C409.883 160.337 412.787 164.997 414.354 165.21C417.176 167.322 424.979 176.676 427.366 179.564C448.253 204.836 464.603 233.16 475.464 264.168C471.124 266.609 465.231 270.393 461.016 272.473C459.238 273.487 457.146 274.758 455.357 275.682C455.435 275.813 454.001 269.497 453.786 268.823C446.627 246.391 434.72 225.186 421.662 205.67C417.57 199.554 412.436 191.458 407.655 185.848C403.657 190.258 399.789 197.026 394.875 199.301L394.596 199.025L394.003 200.253L393.629 200.213C392.591 198.944 391.466 195.754 390.871 194.098C388.903 192.772 386.881 191.139 384.481 190.908C382.255 191.8 384.843 196.686 385.374 198.677L384.978 198.831C382.017 192.413 382.524 189.083 386.593 183.54C391.821 177.432 396.849 170.839 402.078 164.641Z"/><path fill="#F4F7F8" transform="scale(1.56144 1.56098)" d="M402.078 164.641C403.28 163.658 406.24 159.966 407.334 158.595C409.883 160.337 412.787 164.997 414.354 165.21C413.281 166.515 409.117 171.478 408.464 172.72C409.41 174.275 408.315 175.348 409.265 176.758C410.719 178.916 412.266 181.035 413.767 183.165C416.824 187.449 419.808 191.784 422.717 196.169C433.88 212.769 442.767 226.813 450.7 245.405C452.995 250.749 455.118 256.166 457.066 261.646C457.871 263.898 460.2 271.084 461.016 272.473C459.238 273.487 457.146 274.758 455.357 275.682C455.435 275.813 454.001 269.497 453.786 268.823C446.627 246.391 434.72 225.186 421.662 205.67C417.57 199.554 412.436 191.458 407.655 185.848C403.657 190.258 399.789 197.026 394.875 199.301L394.596 199.025L394.003 200.253L393.629 200.213C392.591 198.944 391.466 195.754 390.871 194.098C388.903 192.772 386.881 191.139 384.481 190.908C382.255 191.8 384.843 196.686 385.374 198.677L384.978 198.831C382.017 192.413 382.524 189.083 386.593 183.54C391.821 177.432 396.849 170.839 402.078 164.641Z"/><defs><linearGradient id="gradient_4" gradientUnits="userSpaceOnUse" x1="411.95023" y1="163.44516" x2="383.94598" y2="190.27054"><stop offset="0" stop-color="#266193"/><stop offset="1" stop-color="#3E7DAF"/></linearGradient></defs><path fill="url(#gradient_4)" transform="scale(1.56144 1.56098)" d="M402.078 164.641C403.28 163.658 406.24 159.966 407.334 158.595C409.883 160.337 412.787 164.997 414.354 165.21C413.281 166.515 409.117 171.478 408.464 172.72C407.13 174.412 402.422 180.856 401.466 181.812C398.037 182.07 395.774 187.294 393.728 189.769C393.265 190.33 390.976 194.024 390.871 194.098C388.903 192.772 386.881 191.139 384.481 190.908C382.255 191.8 384.843 196.686 385.374 198.677L384.978 198.831C382.017 192.413 382.524 189.083 386.593 183.54C391.821 177.432 396.849 170.839 402.078 164.641Z"/><path fill="#1E82B5" transform="scale(1.56144 1.56098)" d="M390.871 194.098C390.976 194.024 393.265 190.33 393.728 189.769C395.774 187.294 398.037 182.07 401.466 181.812C398.644 185.539 394.738 189.931 392.202 193.483C392.97 195.256 393.893 197.251 394.596 199.025L394.003 200.253L393.629 200.213C392.591 198.944 391.466 195.754 390.871 194.098Z"/><path fill="#B3C4D2" transform="scale(1.56144 1.56098)" d="M150.786 603.958C144.624 595.095 98.37 540.045 97.9292 536.047C97.8427 535.263 98.2347 534.776 98.6645 534.188C105.134 535.234 119.194 533.593 123.874 535.762L124.068 536.05C127.593 537.262 132.875 537.433 136.533 536.733L136.87 535.624C145.817 544.894 156.34 558.947 164.832 569.128C170.098 575.383 175.324 581.673 180.509 587.995C182.042 589.865 186.627 595.288 187.662 597.042L187.206 597.795C187.998 599.991 190.691 601.698 191.23 603.405L190.897 603.875C189.924 603.958 189.804 603.938 188.822 603.826C186.3 603.736 182.1 604.015 179.382 604.05L160.549 604.126C158.062 604.135 152.911 604.328 150.786 603.958Z"/><path fill="#6296BE" transform="scale(1.56144 1.56098)" d="M136.87 535.624C145.817 544.894 156.34 558.947 164.832 569.128C170.098 575.383 175.324 581.673 180.509 587.995C182.042 589.865 186.627 595.288 187.662 597.042L187.206 597.795C187.998 599.991 190.691 601.698 191.23 603.405L190.897 603.875C189.924 603.958 189.804 603.938 188.822 603.826C186.3 603.736 182.1 604.015 179.382 604.05L160.549 604.126C158.062 604.135 152.911 604.328 150.786 603.958C152.356 603.674 157.862 603.737 159.656 603.737L176.338 603.759C163.261 587.501 150.042 571.312 137.585 554.547C134.593 550.52 126.191 539.913 124.068 536.05C127.593 537.262 132.875 537.433 136.533 536.733L136.87 535.624Z"/><path fill="#1E82B5" transform="scale(1.56144 1.56098)" d="M136.87 535.624C145.817 544.894 156.34 558.947 164.832 569.128C170.098 575.383 175.324 581.673 180.509 587.995C182.042 589.865 186.627 595.288 187.662 597.042L187.206 597.795C187.998 599.991 190.691 601.698 191.23 603.405L190.897 603.875C189.924 603.958 189.804 603.938 188.822 603.826C189.624 603.639 189.828 603.67 190.457 603.14C178.181 587.265 166.352 572.867 153.662 557.348L142.729 544.03C141.236 542.217 138.121 538.245 136.533 536.733L136.87 535.624Z"/><path fill="#F4F7F8" transform="scale(1.56144 1.56098)" d="M320.339 98.1409C322.029 98.3538 323.491 100.537 325.063 101.733C330.346 105.755 335.802 109.543 341.176 113.441C342.073 114.094 346.559 117.512 347.095 117.773C348.836 119.211 350.352 120.364 352.183 121.688C354.486 123.773 357.278 125.879 359.733 127.833C372.213 137.767 384.066 148.399 395.741 159.26C396.757 160.206 401.679 163.859 402.078 164.641C396.849 170.839 391.821 177.432 386.593 183.54C384.982 183.325 383.457 183.097 381.831 183.024C385.389 177.153 389.973 171.707 393.344 165.906C390.818 162.587 383.687 156.759 380.3 153.851C370.411 145.334 360.379 136.985 350.207 128.809C345.704 125.239 340.44 121.782 336.162 118.142C350.414 148.432 363.535 178.939 374.963 210.416C377.547 217.534 385.18 236.877 384.194 243.72L383.741 244.39C382.806 244.364 383.118 244.393 382.226 243.705L381.947 243.347C381.436 241.469 377.982 233.708 376.938 231.218L364.89 202.68L336.567 135.935C331.048 123.384 325.638 110.786 320.339 98.1409Z"/><path fill="#B3C4D2" transform="scale(1.56144 1.56098)" d="M273.9 310.242C268.624 318.401 261.864 326.593 256.973 334.413C254.566 337.083 243.053 354.405 241.664 355.273C237.147 355.355 215.648 372.284 211.786 371.321C211.494 370.662 211.505 370.44 210.988 370.031C217.152 360.222 226.642 345.693 233.776 336.21C235.606 333.776 249.241 325.803 252.644 323.684L273.9 310.242Z"/><path fill="#B3C4D2" transform="scale(1.56144 1.56098)" d="M315.437 88.725C322.143 92.9641 329.302 96.7421 335.852 101.022C356.4 114.565 375.897 129.641 394.176 146.12C396.465 148.177 405.979 156.694 407.334 158.595C406.24 159.966 403.28 163.658 402.078 164.641C401.679 163.859 396.757 160.206 395.741 159.26C384.066 148.399 372.213 137.767 359.733 127.833C357.278 125.879 354.486 123.773 352.183 121.688C350.352 120.364 348.836 119.211 347.095 117.773C346.559 117.512 342.073 114.094 341.176 113.441C335.802 109.543 330.346 105.755 325.063 101.733C323.491 100.537 322.029 98.3538 320.339 98.1409C318.769 95.8858 317.493 91.8191 315.437 88.725Z"/><path fill="#94ADC2" transform="scale(1.56144 1.56098)" d="M347.095 117.773C349.107 117.507 351.255 119.154 352.371 120.77L352.183 121.688C350.352 120.364 348.836 119.211 347.095 117.773Z"/><path fill="#05507C" transform="scale(1.56144 1.56098)" d="M85.4002 359.911C86.7832 359.758 87.9914 358.76 89.0083 357.871C92.0506 355.21 94.6671 351.935 97.4836 349.027C102.681 343.66 108.317 338.288 114.013 333.457C120.252 328.165 126.942 323.865 133.833 319.509C136.283 317.96 139.775 315.029 142.719 314.781C148.297 314.311 173.898 323.646 180.392 325.711C184.991 327.173 199.07 330.401 202.334 333.009L202.365 333.131C203.43 333.73 203.468 333.749 204.095 334.767L161.886 321.396C156.268 319.637 148.952 317.91 143.668 315.912C127.997 323.489 113.417 335.02 101.213 347.355C97.5322 351.075 91.573 357.919 88.1062 361.05L85.4002 359.911Z"/><path fill="#0A2F60" transform="scale(1.56144 1.56098)" d="M480.051 523.274C481.063 539.428 481.889 549.633 489.059 564.733C491.71 570.465 494.059 574.158 497.375 579.488C483.786 584.835 470.424 590.74 457.321 597.187C451.459 600.125 440.947 606.162 435.412 608.448C436.886 605.152 469.498 589.847 474.908 587.507L489.062 581.371C490.648 580.693 494.417 579.344 495.714 578.564C491.52 574.142 489.967 570.037 487.109 564.564C482.146 553.647 479.855 543.642 478.985 531.799L479.338 531.78C480.187 530.865 479.833 525.036 480.051 523.274Z"/><path fill="#0A2F60" transform="scale(1.56144 1.56098)" d="M502.008 286.235L502.197 286.618C503.025 288.316 503.08 288.712 503.273 290.579L503.525 290.834C503.882 290.446 503.955 290.108 504.166 289.602C505.654 294.845 506.478 302.03 507.234 307.571C509.848 328.22 509.844 349.117 507.222 369.766C506.382 376.523 504.757 383.4 504.008 389.869C501.937 391.025 503.344 391.051 501.708 393.33C502.088 391.016 502.603 388.6 503.029 386.311C507.139 364.235 508.645 342.879 507.666 320.42C507.309 312.229 503.124 301.939 503.609 294.122C502.755 291.626 502.42 288.855 502.008 286.235Z"/><path fill="#0D3163" transform="scale(1.56144 1.56098)" d="M502.008 286.235L502.197 286.618C503.025 288.316 503.08 288.712 503.273 290.579L503.525 290.834C503.882 290.446 503.955 290.108 504.166 289.602C505.654 294.845 506.478 302.03 507.234 307.571C504.4 305.328 504.049 297.841 503.609 294.122C502.755 291.626 502.42 288.855 502.008 286.235Z"/><path fill="#0A2F60" transform="scale(1.56144 1.56098)" d="M476.641 213.934C487.28 231.12 496.808 257.607 501.592 277.152C502.337 280.194 503.961 286.688 504.166 289.602C503.955 290.108 503.882 290.446 503.525 290.834L503.273 290.579C503.08 288.712 503.025 288.316 502.197 286.618L502.008 286.235C499.504 271.407 492.91 253.595 487.559 239.569C485.804 234.97 476.921 217.217 476.641 213.934Z"/><path fill="#0D3163" transform="scale(1.56144 1.56098)" d="M494.246 428.616L496.006 428.258C494.504 434.871 492.822 441.367 491.246 447.954C489.13 459.145 485.456 470.951 483.29 482.732C482.708 479.717 483.506 478.334 483.223 475.262C485.164 464.651 488.597 454.16 490.812 443.511C491.84 438.564 493.179 433.603 494.246 428.616Z"/><path fill="#0D3163" transform="scale(1.56144 1.56098)" d="M481.47 484.066C481.773 485.383 482.177 486.925 482.363 488.244C482.061 490.404 481.728 493.482 481.303 495.548C481.219 499.222 480.608 503.265 480.305 507.071C479.94 511.653 480.535 519.097 480.051 523.274C479.833 525.036 480.187 530.865 479.338 531.78L478.985 531.799C477.388 528.371 479.487 495.435 480.62 489.969C480.742 488.203 481.182 485.865 481.47 484.066Z"/><path fill="#0D3163" transform="scale(1.56144 1.56098)" d="M498.575 410.028C499.172 411.65 499.139 412.232 499.211 413.908C498.552 418.513 496.916 423.637 496.006 428.258L494.246 428.616C495.775 422.416 497.115 416.237 498.575 410.028Z"/><path fill="#0D3163" transform="scale(1.56144 1.56098)" d="M501.708 393.33C503.344 391.051 501.937 391.025 504.008 389.869C502.87 395.769 501.842 401.929 500.595 407.775C500.173 407.104 500.171 406.753 500.038 405.98L499.99 405.689L499.56 405.721C499.617 403.667 501.283 395.533 501.708 393.33Z"/><path fill="#0A2F60" transform="scale(1.56144 1.56098)" d="M483.223 475.262C483.506 478.334 482.708 479.717 483.29 482.732L482.363 488.244C482.177 486.925 481.773 485.383 481.47 484.066C481.998 481.167 482.496 478.104 483.223 475.262Z"/><path fill="#0A2F60" transform="scale(1.56144 1.56098)" d="M499.56 405.721L499.99 405.689L500.038 405.98C500.171 406.753 500.173 407.104 500.595 407.775C500.192 409.616 499.716 412.144 499.211 413.908C499.139 412.232 499.172 411.65 498.575 410.028C498.805 408.281 499.073 407.406 499.56 405.721Z"/><defs><linearGradient id="gradient_5" gradientUnits="userSpaceOnUse" x1="315.31924" y1="576.02222" x2="218.9248" y2="698.6366"><stop offset="0" stop-color="#8AA3B7"/><stop offset="1" stop-color="#CFD8E4"/></linearGradient></defs><path fill="url(#gradient_5)" transform="scale(1.56144 1.56098)" d="M155.171 618.563C167.129 618.179 180.72 618.485 192.779 618.493L261.122 618.503L363.665 618.505C381.64 618.506 399.952 618.321 417.9 618.552C419.12 620.389 425.013 628.66 424.677 630.083C421.525 634.141 418.134 639.246 415.236 643.528L382.609 643.525C377.102 643.526 370.658 643.688 365.211 643.482C358.327 643.873 347.294 643.52 340.183 643.523L289.053 643.535L147.209 643.48C145.461 640.99 139.448 631.038 137.723 630.065L137.292 630.157C137.142 628.558 138.92 626.404 140.09 625.448L140.551 625.952C141.181 625.472 144.944 619.533 145.601 618.52C148.772 618.501 151.996 618.547 155.171 618.563Z"/><defs><linearGradient id="gradient_6" gradientUnits="userSpaceOnUse" x1="307.69467" y1="679.88489" x2="187.32413" y2="572.65295"><stop offset="0" stop-color="#D3E2E2"/><stop offset="1" stop-color="white"/></linearGradient></defs><path fill="url(#gradient_6)" transform="scale(1.56144 1.56098)" d="M155.171 618.563C167.129 618.179 180.72 618.485 192.779 618.493L261.122 618.503L363.665 618.505C381.64 618.506 399.952 618.321 417.9 618.552C419.12 620.389 425.013 628.66 424.677 630.083C420.866 629.379 408.209 629.552 403.929 629.561C392.301 629.542 380.672 629.601 369.044 629.738C366.97 629.506 360.027 629.644 357.741 629.656L334.797 629.796C331.082 629.817 324.818 629.988 321.264 629.68L186.256 630.07C170.182 630.06 153.76 630.344 137.723 630.065L137.292 630.157C137.142 628.558 138.92 626.404 140.09 625.448L140.551 625.952C141.181 625.472 144.944 619.533 145.601 618.52C148.772 618.501 151.996 618.547 155.171 618.563Z"/><path fill="#B3C4D2" transform="scale(1.56144 1.56098)" d="M155.171 618.563C167.129 618.179 180.72 618.485 192.779 618.493L261.122 618.503L363.665 618.505C381.64 618.506 399.952 618.321 417.9 618.552C419.12 620.389 425.013 628.66 424.677 630.083C420.866 629.379 408.209 629.552 403.929 629.561C392.301 629.542 380.672 629.601 369.044 629.738C366.97 629.506 360.027 629.644 357.741 629.656L334.797 629.796C331.082 629.817 324.818 629.988 321.264 629.68C321.93 629.481 326.722 629.489 327.614 629.483L346.27 629.336C348.013 629.32 353.838 629.353 355.125 629.105C354.271 629.04 354.368 629.136 353.635 628.779C353.197 627.557 352.568 622.128 351.808 619.422C348.461 618.733 339.777 618.867 336.023 618.851L308.782 618.812L204.458 618.798L173.321 618.802C168.495 618.807 159.769 619.027 155.171 618.563Z"/><path fill="#05507C" transform="scale(1.56144 1.56098)" d="M137.723 630.065L137.292 630.157C137.142 628.558 138.92 626.404 140.09 625.448L140.551 625.952C139.654 627.354 138.711 628.726 137.723 630.065Z"/><path fill="#94ADC2" transform="scale(1.56144 1.56098)" d="M369.044 629.738C380.672 629.601 392.301 629.542 403.929 629.561C408.209 629.552 420.866 629.379 424.677 630.083C421.525 634.141 418.134 639.246 415.236 643.528L382.609 643.525C377.102 643.526 370.658 643.688 365.211 643.482C370.176 642.492 375.72 643.625 380.183 643.015C383.888 642.508 393.803 642.433 396.651 641.537C396.505 641.326 393.514 638.041 393.43 638.007C391.848 638.33 390.739 638.753 389.444 637.524C387.608 632.653 385.339 635.794 380.757 633.755C377.151 632.149 372.887 630.715 369.044 629.738Z"/></svg>