<?xml version="1.0" encoding="utf-8" ?><svg xmlns="http://www.w3.org/2000/svg" xmlns:xlink="http://www.w3.org/1999/xlink" width="714" height="1024" viewBox="0 0 714 1024"><defs><linearGradient id="gradient_0" gradientUnits="userSpaceOnUse" x1="428.60382" y1="362.38034" x2="35.619904" y2="289.44308"><stop offset="0" stop-color="#2B5793"/><stop offset="1" stop-color="#3AABD7"/></linearGradient></defs><path fill="url(#gradient_0)" transform="scale(1.74146 1.7415)" d="M114.872 281.44C109.826 276.402 104.272 272.081 99.2984 266.99C76.9495 244.115 62.8068 213.628 60.5863 181.546C57.8542 142.074 67.6182 107.46 93.9635 77.233C118.732 48.8147 155.195 29.8282 192.841 27.1064C232.41 24.0389 271.539 37.0937 301.339 63.3051C329.555 87.7966 346.794 122.561 349.214 159.845C351.982 196.987 339.692 233.681 315.112 261.664C312.119 265.119 307.763 269.464 304.43 272.575C300.758 276.002 297.753 278.151 294.383 282.036C301.304 280.499 310.006 281.164 317.229 280.995C320.969 280.908 329.02 280.832 332.393 281.292C335.895 283.569 346.553 295.676 350.013 299.284L363.388 313.06C366.183 315.942 370.269 320.076 372.591 323.214C363.846 333.407 354.885 343.091 346.047 353.108L333.091 367.573C331.2 369.715 325.874 376.398 323.912 377.263C321.749 377.792 310.612 377.683 307.449 377.827C309.566 393.579 310.693 402.916 314.859 418.694C322.438 445.241 333.298 469.987 349.54 492.548C350.825 494.333 352.507 496.594 353.622 498.465C358.202 504.521 362.58 510.685 367.502 516.48C374.155 524.312 381.075 531.937 387.746 539.753C389.225 541.486 395.31 547.068 395.254 548.853C393.832 551.594 388.895 556.788 386.734 559.446C379.6 568.22 371.038 577.155 364.107 585.957C365.202 586.665 365.932 587.097 366.882 588L42.2608 588C43.1548 587.162 44.5595 586.167 45.5707 585.407C43.7687 583.709 38.4937 576.788 36.664 574.622C29.2858 565.89 22.1121 556.415 14.3071 548.09C18.5625 542.837 23.5841 537.389 28.0469 532.272C35.4133 523.934 42.5393 515.386 49.416 506.64C80.6641 466.796 95.3972 427.192 100.995 377.502C97.937 377.782 81.4942 378.149 79.5267 376.254C75.8877 372.75 71.0023 366.46 67.6596 362.389L47.0317 337.202C43.2336 332.568 39.0148 327.17 35.0264 322.772C41.2798 315.585 50.4696 307.454 57.1975 300.3C63.067 294.552 68.6428 288.49 74.7666 283.013C77.0696 280.811 81.0906 280.911 84.2172 281.057C93.9705 281.512 105.276 280.311 114.872 281.44Z"/><path fill="#093E79" transform="scale(1.74146 1.7415)" d="M306.92 377.236C311.651 377.153 319.375 376.865 323.912 377.263C321.749 377.792 310.612 377.683 307.449 377.827C309.566 393.579 310.693 402.916 314.859 418.694C322.438 445.241 333.298 469.987 349.54 492.548C350.825 494.333 352.507 496.594 353.622 498.465C351.14 497.423 350.204 495.387 348.743 493.368C332.44 470.848 320.073 444.646 313.222 417.649C309.896 405.959 306.694 389.434 306.92 377.236Z"/><path fill="#E4F2F9" transform="scale(1.74146 1.7415)" d="M130.868 72.4273C129.92 72.2082 129.707 72.2668 128.763 72.5128C129.368 72.1519 130.041 70.9796 131.072 70.3207C134.388 68.2015 137.777 65.9333 141.066 63.8082C142.566 62.839 146.099 61.4096 147.884 60.4676C161.784 53.1349 175.833 49.2284 191.405 47.4069C192.8 47.2437 194.908 47.2704 196.042 48.2028C200.058 48.1418 204.065 48.0529 208.08 48.164C209.009 48.1897 210.417 48.2947 211.311 48.1754C216.606 47.9038 217.583 47.8467 223.059 48.7025C240.606 51.3608 257.377 57.7582 272.237 67.4615C299.391 85.2581 320.815 114.886 326.409 147.454C326.53 148.159 326.269 150.842 326.147 151.606C326.378 156.734 327.323 161.101 327.377 166.693C327.4 169.734 327.323 172.774 327.148 175.809C327.09 176.789 326.751 180.927 326.833 181.631C327.339 183.081 327.215 184.896 327.207 186.462L327.464 185.122C328.088 186.63 325.332 198.799 324.98 201.301C324.996 201.186 321.94 209.984 321.815 210.242C319.007 216.008 315.729 222.133 312.571 227.747C311.479 229.687 310.257 231.045 309.261 233.032C308.684 233.215 308.912 233.271 308.512 233.066C303.643 239.07 302.184 241.99 296.164 248.295C275.811 269.412 248.609 282.599 219.425 285.496C196.185 287.978 172.698 284.431 151.227 275.197C151.601 275.669 151.58 275.691 151.791 276.263L151.34 276.373C149.739 275.577 149.33 275.67 147.952 275.099C143.806 273.384 140.265 270.591 136.569 268.31C116.782 256.095 100.971 238.774 91.385 217.523C90.3219 215.166 85.0426 201.749 85.7021 200.071L86.1502 200.238C74.2761 149.029 89.4581 104.942 130.868 72.4273Z"/><defs><linearGradient id="gradient_1" gradientUnits="userSpaceOnUse" x1="277.89691" y1="263.25705" x2="164.0524" y2="116.24104"><stop offset="0" stop-color="#9AB5CC"/><stop offset="1" stop-color="#E6F6FD"/></linearGradient></defs><path fill="url(#gradient_1)" transform="scale(1.74146 1.7415)" d="M211.311 48.1754C216.606 47.9038 217.583 47.8467 223.059 48.7025C240.606 51.3608 257.377 57.7582 272.237 67.4615C299.391 85.2581 320.815 114.886 326.409 147.454C326.53 148.159 326.269 150.842 326.147 151.606C326.378 156.734 327.323 161.101 327.377 166.693C327.4 169.734 327.323 172.774 327.148 175.809C327.09 176.789 326.751 180.927 326.833 181.631C327.339 183.081 327.215 184.896 327.207 186.462L327.464 185.122C328.088 186.63 325.332 198.799 324.98 201.301C324.996 201.186 321.94 209.984 321.815 210.242C319.007 216.008 315.729 222.133 312.571 227.747C311.479 229.687 310.257 231.045 309.261 233.032C308.684 233.215 308.912 233.271 308.512 233.066C303.643 239.07 302.184 241.99 296.164 248.295C275.811 269.412 248.609 282.599 219.425 285.496C196.185 287.978 172.698 284.431 151.227 275.197C141.91 271.956 122.806 258.551 116.111 251.301L116.512 251.246C116.407 250.836 110.296 244.251 110.323 244.325C109.269 241.436 113.617 225.034 115.716 223.742C116.71 224.258 118.033 225.916 118.846 226.828L119.157 226.82C117.523 224.485 115.197 221.308 114.07 218.763L113.92 218.419L108.826 208.369C107.308 206.139 105.782 202.174 104.802 199.608C105.551 199.769 106.003 200.023 106.401 200.761C107.965 203.651 110.248 205.637 112.594 207.872C130.268 224.704 155.681 234.425 179.901 235.806C181.434 235.893 183.103 235.935 184.605 236.101C187.082 234.726 192.758 229.426 195.131 227.296C202.611 220.698 210.014 214.013 217.339 207.242C220.223 204.566 231.045 193.361 234.409 193.07C244.456 192.2 255.304 192.974 265.505 192.634C269.433 190.233 272.173 186.291 272.04 181.547C271.932 177.701 272.486 172.981 271.535 169.321C271.256 168.248 269.071 165.399 268.405 164.009L268.275 163.734C265.078 158.958 266.159 149.83 269.134 145.038L270.626 142.759C269.666 140.597 269.543 134.595 268.967 131.764C264.045 107.562 249.112 85.7032 229.45 71.011C228.621 70.3917 226.249 69.9703 224.954 69.3478L225.062 68.8128C228.011 69.2233 235.964 72.3083 238.335 71.6987C238.375 71.5652 238.711 69.855 238.635 70.0393C239.59 67.717 244.181 61.7467 246.221 60.9666C247.978 60.2949 250.238 61.3826 252.671 59.8275C253.007 58.9906 253.001 58.9624 252.76 58.0643C237.076 51.7539 228.124 49.8001 211.311 48.1754Z"/><path fill="#76C4EA" transform="scale(1.74146 1.7415)" d="M270.626 142.759C275.348 138.858 279.341 136.657 285.84 137.064C290.099 137.331 294.813 139.798 297.532 143.115C300.721 147.076 302.234 152.127 301.748 157.188C301.242 162.069 299.003 166.266 295.127 169.277C290.368 172.974 286.544 173.19 280.812 173.152C281.229 183.345 282.393 189.598 273.183 196.59C272.763 196.909 271.742 198.339 271.327 198.798C268.502 201.926 263.597 200.501 260.017 201.213C252.823 201.23 244.264 200.842 237.25 201.557C235.423 201.743 224.476 212.395 222.622 214.066C214.538 221.355 206.119 228.525 198.174 235.929L198.009 236.057C195.511 238.033 193.245 240.368 190.846 242.468C185.164 247.439 179.498 252.392 173.94 257.504C170.681 260.501 167.449 264.062 163.841 266.608C162.773 267.362 161.801 267.886 160.447 267.727C159.342 267.598 158.164 267.033 157.473 266.145C156.643 265.078 156.08 263.632 156.302 262.275C156.849 258.927 180.804 240.428 184.605 236.101C187.082 234.726 192.758 229.426 195.131 227.296C202.611 220.698 210.014 214.013 217.339 207.242C220.223 204.566 231.045 193.361 234.409 193.07C244.456 192.2 255.304 192.974 265.505 192.634C269.433 190.233 272.173 186.291 272.04 181.547C271.932 177.701 272.486 172.981 271.535 169.321C271.256 168.248 269.071 165.399 268.405 164.009L268.275 163.734C265.078 158.958 266.159 149.83 269.134 145.038L270.626 142.759Z"/><path fill="#A6C0D6" transform="scale(1.74146 1.7415)" d="M283.207 145.332C288.543 145.062 293.101 149.14 293.424 154.474C293.747 159.807 289.713 164.405 284.383 164.78C278.979 165.16 274.302 161.058 273.975 155.65C273.648 150.243 277.796 145.607 283.207 145.332Z"/><path fill="#E4F2F9" transform="scale(1.74146 1.7415)" d="M260.017 201.213C261.926 201.234 263.494 201.21 265.399 201.098L265.133 201.312C261.949 203.899 259.254 207.534 256.107 210.214C254.57 211.522 252.996 212.843 251.463 214.139C236.593 226.712 218.004 233.969 198.739 236.133C198.554 236.154 198.332 236.014 198.174 235.929C206.119 228.525 214.538 221.355 222.622 214.066C224.476 212.395 235.423 201.743 237.25 201.557C244.264 200.842 252.823 201.23 260.017 201.213Z"/><path fill="#145EA4" transform="scale(1.74146 1.7415)" d="M211.311 48.1754C216.606 47.9038 217.583 47.8467 223.059 48.7025C240.606 51.3608 257.377 57.7582 272.237 67.4615C299.391 85.2581 320.815 114.886 326.409 147.454C326.53 148.159 326.269 150.842 326.147 151.606C324.708 142.303 322.206 133.196 318.691 124.463C306.198 94.5894 282.544 70.7678 252.76 58.0643C237.076 51.7539 228.124 49.8001 211.311 48.1754Z"/><path fill="#145EA4" transform="scale(1.74146 1.7415)" d="M326.833 181.631C327.339 183.081 327.215 184.896 327.207 186.462L327.464 185.122C328.088 186.63 325.332 198.799 324.98 201.301C324.996 201.186 321.94 209.984 321.815 210.242C319.007 216.008 315.729 222.133 312.571 227.747C311.479 229.687 310.257 231.045 309.261 233.032C308.684 233.215 308.912 233.271 308.512 233.066C319.793 214.914 323.869 202.83 326.833 181.631Z"/><path fill="#A6C0D6" transform="scale(1.74146 1.7415)" d="M108.826 208.369C109.402 208.486 109.239 208.688 110.137 209.149C111.72 209.963 114.13 216.061 114.332 217.423L113.92 218.419L108.826 208.369Z"/><path fill="#FDFEFE" transform="scale(1.74146 1.7415)" d="M130.868 72.4273C129.92 72.2082 129.707 72.2668 128.763 72.5128C129.368 72.1519 130.041 70.9796 131.072 70.3207C134.388 68.2015 137.777 65.9333 141.066 63.8082C142.566 62.839 146.099 61.4096 147.884 60.4676C161.784 53.1349 175.833 49.2284 191.405 47.4069C192.8 47.2437 194.908 47.2704 196.042 48.2028C200.058 48.1418 204.065 48.0529 208.08 48.164C209.009 48.1897 210.417 48.2947 211.311 48.1754C228.124 49.8001 237.076 51.7539 252.76 58.0643C253.001 58.9624 253.007 58.9906 252.671 59.8275C250.238 61.3826 247.978 60.2949 246.221 60.9666C244.181 61.7467 239.59 67.717 238.635 70.0393C238.711 69.855 238.375 71.5652 238.335 71.6987C235.964 72.3083 228.011 69.2233 225.062 68.8128C197.305 63.236 168.469 68.8294 144.811 84.3792C138.409 88.605 128.451 96.8919 123.242 102.706C112.598 114.585 105.615 130.236 102.436 145.84C99.3444 160.751 99.3129 176.135 102.344 191.059C102.609 192.393 103.995 198.894 104.802 199.608C105.782 202.174 107.308 206.139 108.826 208.369L113.92 218.419L114.07 218.763C115.197 221.308 117.523 224.485 119.157 226.82L118.846 226.828C118.033 225.916 116.71 224.258 115.716 223.742C113.617 225.034 109.269 241.436 110.323 244.325C110.296 244.251 116.407 250.836 116.512 251.246L116.111 251.301C122.806 258.551 141.91 271.956 151.227 275.197C151.601 275.669 151.58 275.691 151.791 276.263L151.34 276.373C149.739 275.577 149.33 275.67 147.952 275.099C143.806 273.384 140.265 270.591 136.569 268.31C116.782 256.095 100.971 238.774 91.385 217.523C90.3219 215.166 85.0426 201.749 85.7021 200.071L86.1502 200.238C74.2761 149.029 89.4581 104.942 130.868 72.4273Z"/><path fill="#093E79" transform="scale(1.74146 1.7415)" d="M151.227 275.197C151.601 275.669 151.58 275.691 151.791 276.263L151.34 276.373C149.739 275.577 149.33 275.67 147.952 275.099C143.806 273.384 140.265 270.591 136.569 268.31C116.782 256.095 100.971 238.774 91.385 217.523C90.3219 215.166 85.0426 201.749 85.7021 200.071L86.1502 200.238C89.9928 216.016 99.5177 233.079 110.241 245.124C111.27 246.281 114.948 250.469 116.111 251.301C122.806 258.551 141.91 271.956 151.227 275.197Z"/><path fill="#5EA5D5" transform="scale(1.74146 1.7415)" d="M130.868 72.4273C129.92 72.2082 129.707 72.2668 128.763 72.5128C129.368 72.1519 130.041 70.9796 131.072 70.3207C134.388 68.2015 137.777 65.9333 141.066 63.8082C142.566 62.839 146.099 61.4096 147.884 60.4676C161.784 53.1349 175.833 49.2284 191.405 47.4069C192.8 47.2437 194.908 47.2704 196.042 48.2028C172.422 50.2731 149.581 57.2941 130.868 72.4273Z"/><path fill="#FDFEFE" transform="scale(1.74146 1.7415)" d="M156.621 93.3713C158.193 93.2437 159.703 93.3053 161.267 93.2786C167.654 93.1698 170.317 99.6575 169.87 105.266C168.849 118.097 162.813 130.503 153.161 139.081C148.228 143.465 142.585 144.978 136.045 144.547C129.074 143.846 124.975 138.469 123.066 132.174C120.891 125.004 127.161 114.075 132.066 108.965C137.536 103.268 148.849 95.4013 156.621 93.3713Z"/><path fill="#E4F2F9" transform="scale(1.74146 1.7415)" d="M122.287 376.016C124.921 375.234 144.183 375.763 148.101 375.755L234.954 375.795L241.931 375.77L273.779 375.764C275.67 375.766 285.77 375.668 287.281 375.993C287.667 379.648 289.598 401.076 290.522 403.047C291.6 404.578 291.395 407.514 291.717 409.332C291.993 410.889 293.364 412.897 293.58 414.232C296.693 433.461 303.276 451.898 311.269 469.603C311.792 470.761 311.676 471.28 312.446 472.51C312.29 472.882 312.27 472.986 312.05 473.324C324.075 497.989 342.332 520.651 360.95 540.745C362.968 542.924 365.253 544.732 366.889 547.245C362.988 552.57 356.012 559.444 351.581 564.627C349.816 566.692 343.24 574.016 341.435 575.505C336.508 575.867 329.838 575.632 324.739 575.625L294.854 575.598L201.502 575.558L146.175 575.543L130.598 575.571C128.537 575.575 123.658 575.671 121.825 575.361C120.664 575.26 119.189 575.307 117.998 575.341C104.736 575.692 91.4629 575.695 78.1959 575.666C74.4081 575.657 69.0708 575.927 65.4317 575.436C63.6254 573.648 59.0358 567.846 57.4714 565.917C55.631 563.647 42.3195 548.42 42.2426 546.937L42.8602 546.304C46.8847 542.295 50.6991 538.081 54.2883 533.678L53.9773 533.109C54.3083 532.257 60.89 524.811 62.116 523.33C76.8507 505.532 89.6271 486.489 99.4698 465.55C99.7408 464.974 101.594 460.266 101.624 460.23C103.3 458.279 104.338 452.309 106.142 451.931C109.997 445.878 118.633 411.757 119.133 404.133C118.199 402.55 119.396 402.189 118.654 400.947L118.429 402.496L118.254 402.396C118.183 401.111 119.191 393.286 119.455 391.832L120.012 393.764L120.273 393.675C120.042 392.122 120.314 391.025 120.57 389.48L120.726 389.47L120.898 391.341C121.549 388.184 121.988 379.616 122.287 376.016Z"/><defs><linearGradient id="gradient_2" gradientUnits="userSpaceOnUse" x1="255.81656" y1="609.15186" x2="182.08421" y2="426.77744"><stop offset="0" stop-color="#A0B7D1"/><stop offset="1" stop-color="#CEE3EF"/></linearGradient></defs><path fill="url(#gradient_2)" transform="scale(1.74146 1.7415)" d="M241.931 375.77L273.779 375.764C275.67 375.766 285.77 375.668 287.281 375.993C287.667 379.648 289.598 401.076 290.522 403.047C291.6 404.578 291.395 407.514 291.717 409.332C291.993 410.889 293.364 412.897 293.58 414.232C296.693 433.461 303.276 451.898 311.269 469.603C311.792 470.761 311.676 471.28 312.446 472.51C312.29 472.882 312.27 472.986 312.05 473.324C324.075 497.989 342.332 520.651 360.95 540.745C362.968 542.924 365.253 544.732 366.889 547.245C362.988 552.57 356.012 559.444 351.581 564.627C349.816 566.692 343.24 574.016 341.435 575.505C336.508 575.867 329.838 575.632 324.739 575.625L294.854 575.598L201.502 575.558L146.175 575.543L130.598 575.571C128.537 575.575 123.658 575.671 121.825 575.361C116.414 569.105 110.707 563.845 104.9 558.042C102.555 555.699 96.8832 550.461 95.3916 547.915C95.3404 546.84 95.2451 547.266 95.9102 546.299C96.4329 546.597 107.758 546.45 109.452 546.447L142.896 546.368L274.061 545.415C277.8 545.412 311.999 545.576 312.655 545.173C283.582 545.67 254.255 544.815 225.157 545.203C224.042 545.218 223.201 545.389 222.39 544.633C222.501 543.593 223.073 543.836 224.12 542.644L223.771 542.195L222.915 542.161C222.829 540.311 227.321 537.193 227.009 533.992C226.437 528.138 236.089 522.662 233.616 517.855L233.904 517.514C234.35 518.158 235.167 519.442 235.79 519.981C235.79 519.981 237.271 520.254 237.271 520.254C238.639 521.489 239.909 522.794 241.383 523.901C249.078 529.683 259.684 527.059 264.916 519.268C268.202 514.373 269.34 508.148 267.196 502.567C266.417 500.54 265.058 498.491 264.668 496.436C265.198 495.165 265.633 495.431 266.757 494.167L266.695 493.458L263.838 496.259C266.009 500.745 267.742 503.722 267.765 508.855C267.76 513.565 265.878 518.079 262.536 521.399C255.791 528.174 245.726 528.28 239.05 521.372C235.678 517.862 233.836 513.157 233.928 508.29C234.072 501.845 238.162 496.281 243.694 493.173C247.473 491.049 251.504 491.377 255.679 491.486C257.089 489.537 258.029 488.316 259.626 486.522C261.699 484.192 266.268 480.325 267.517 477.762C267.338 477.464 267.368 477.547 267.064 477.326C266.02 480.329 260.505 484.22 258.318 486.894C257.618 487.75 256.543 489.725 256.143 489.972L255.146 489.554C254.91 490.124 254.874 490.422 254.741 491.018L254.174 491.098L253.512 490.367C253.639 490.113 254.729 486.052 254.819 485.59L254.858 485.376L255.81 486.052L256.11 485.84C256.329 483.264 254.622 483.086 254.023 481.394C251.602 474.553 254.637 466.652 254.706 459.988C254.821 449.03 257.189 438.981 256.411 427.979L255.6 427.376C255.238 421.946 250.803 417.448 248.292 412.835C246.86 410.205 247.429 408.084 244.576 406.759C244.326 406.081 244.6 402.686 244.648 401.744C244.003 401.115 244.375 401.323 243.48 401.117L242.948 401.48C242.332 403.089 243.069 403.463 243.005 405.159C242.898 408.015 242.767 410.925 242.59 413.772C242.272 411.577 242.261 403.361 242.207 400.806C239.966 400.787 237.512 400.718 235.29 400.759C235.269 401.874 235.267 402.964 235.145 404.074C235.067 403.261 235.03 401.735 234.632 401.116L234.544 400.761C234.708 394.376 234.211 381.507 234.954 375.795L241.931 375.77Z"/><path fill="#76C4EA" transform="scale(1.74146 1.7415)" d="M267.185 415.867C268.322 414.312 269.864 412.527 271.904 412.188C272.676 412.052 273.47 412.241 274.097 412.712C275.142 413.486 275.405 414.117 275.498 415.379C275.892 420.712 275.893 426.309 275.905 431.654L275.929 456.489C275.939 463.955 276.492 472.8 275.649 480.155C275.135 484.646 269.429 489.931 266.695 493.458L263.838 496.259C266.009 500.745 267.742 503.722 267.765 508.855C267.76 513.565 265.878 518.079 262.536 521.399C255.791 528.174 245.726 528.28 239.05 521.372C235.678 517.862 233.836 513.157 233.928 508.29C234.072 501.845 238.162 496.281 243.694 493.173C247.473 491.049 251.504 491.377 255.679 491.486C257.089 489.537 258.029 488.316 259.626 486.522C261.699 484.192 266.268 480.325 267.517 477.762C268.785 475.566 266.469 424.02 267.185 415.867Z"/><path fill="#E4F2F9" transform="scale(1.74146 1.7415)" d="M250.105 499.029C260.873 497.959 265.053 514.524 251.979 519.21C246.992 519.382 243.248 516.733 241.975 511.837C241.262 509.115 241.683 506.22 243.142 503.813C244.869 500.949 247.003 499.803 250.105 499.029Z"/><path fill="#A6C0D6" transform="scale(1.74146 1.7415)" d="M241.931 375.77L273.779 375.764C275.67 375.766 285.77 375.668 287.281 375.993C281.839 376.511 272.923 375.163 268.056 376.241L267.867 376.505C271.389 377.582 283.991 376.117 286.01 377.386C286.864 379.276 286.839 384.286 287.534 385.748L287.528 386.084C287.502 388.619 289.277 399.883 288.746 400.856C285.3 401.594 275.133 401.225 271.31 401.064C264.952 400.858 258.591 400.767 252.23 400.79C249.886 400.777 244.273 400.609 242.207 400.806C239.966 400.787 237.512 400.718 235.29 400.759C235.269 401.874 235.267 402.964 235.145 404.074C235.067 403.261 235.03 401.735 234.632 401.116L234.544 400.761C234.708 394.376 234.211 381.507 234.954 375.795L241.931 375.77Z"/><path fill="#5EA5D5" transform="scale(1.74146 1.7415)" d="M234.954 375.795L241.931 375.77C242.052 383.958 242.327 392.655 242.207 400.806C239.966 400.787 237.512 400.718 235.29 400.759C235.269 401.874 235.267 402.964 235.145 404.074C235.067 403.261 235.03 401.735 234.632 401.116L234.544 400.761C234.708 394.376 234.211 381.507 234.954 375.795Z"/><path fill="#B9BFD0" transform="scale(1.74146 1.7415)" d="M287.534 385.748C286.839 384.286 286.864 379.276 286.01 377.386C283.991 376.117 271.389 377.582 267.867 376.505L268.056 376.241C272.923 375.163 281.839 376.511 287.281 375.993C287.667 379.648 289.598 401.076 290.522 403.047C291.6 404.578 291.395 407.514 291.717 409.332C291.993 410.889 293.364 412.897 293.58 414.232C296.693 433.461 303.276 451.898 311.269 469.603C311.792 470.761 311.676 471.28 312.446 472.51C312.29 472.882 312.27 472.986 312.05 473.324C310.071 469.017 308.182 464.575 306.129 460.319C304.757 459.587 302.731 453.495 302.089 451.74C296.535 436.568 292.512 420.878 290.078 404.905C289.038 397.973 288.67 392.481 287.896 385.868L287.534 385.748Z"/><path fill="#093E79" transform="scale(1.74146 1.7415)" d="M290.522 403.047C291.6 404.578 291.395 407.514 291.717 409.332C291.993 410.889 293.364 412.897 293.58 414.232C296.693 433.461 303.276 451.898 311.269 469.603C311.792 470.761 311.676 471.28 312.446 472.51C312.29 472.882 312.27 472.986 312.05 473.324C310.071 469.017 308.182 464.575 306.129 460.319C304.501 455.851 302.582 451.458 301.065 446.942C296.51 433.391 292.161 417.232 290.522 403.047Z"/><path fill="#76C4EA" transform="scale(1.74146 1.7415)" d="M165.644 453.372C152.502 449.393 147.521 434.956 156.598 424.342C162.955 416.908 174.39 416.324 181.584 422.767C185.13 425.937 187.258 430.396 187.49 435.147C187.763 440.66 185.44 447.074 180.658 450.169C177.524 452.197 174.173 452.873 171.699 455.895L122.763 514.771C113.832 525.343 105.147 535.934 95.9102 546.299C95.2451 547.266 95.3404 546.84 95.3916 547.915C96.8832 550.461 102.555 555.699 104.9 558.042C110.707 563.845 116.414 569.105 121.825 575.361C120.664 575.26 119.189 575.307 117.998 575.341C104.736 575.692 91.4629 575.695 78.1959 575.666C74.4081 575.657 69.0708 575.927 65.4317 575.436C63.6254 573.648 59.0358 567.846 57.4714 565.917C55.631 563.647 42.3195 548.42 42.2426 546.937L42.8602 546.304C45.2801 546.713 53.905 546.481 56.782 546.502C66.9667 546.574 77.3538 546.274 87.5392 546.573C90.2394 542.022 94.4084 537.338 97.8498 533.237C104.155 525.812 110.512 518.431 116.919 511.094C133.348 492.012 149.591 472.771 165.644 453.372Z"/><path fill="#A6C0D6" transform="scale(1.74146 1.7415)" d="M42.8602 546.304C45.2801 546.713 53.905 546.481 56.782 546.502C66.9667 546.574 77.3538 546.274 87.5392 546.573C85.9957 552.635 89.5434 554.627 93.1697 558.655C98.4956 564.572 104.864 569.598 110.315 575.331C100.27 575.388 90.2237 575.394 80.1779 575.35C76.4864 575.345 68.7815 575.117 65.4317 575.436C63.6254 573.648 59.0358 567.846 57.4714 565.917C55.631 563.647 42.3195 548.42 42.2426 546.937L42.8602 546.304Z"/><path fill="#E4F2F9" transform="scale(1.74146 1.7415)" d="M167.655 426.498C172.693 425.479 177.613 428.703 178.689 433.729C179.765 438.756 176.596 443.712 171.583 444.845C168.288 445.589 164.848 444.506 162.575 442.008C160.302 439.51 159.547 435.983 160.598 432.774C161.65 429.564 164.344 427.167 167.655 426.498Z"/><defs><linearGradient id="gradient_3" gradientUnits="userSpaceOnUse" x1="234.07932" y1="389.98895" x2="127.98309" y2="386.06876"><stop offset="0" stop-color="#9CB8D1"/><stop offset="1" stop-color="#DAEEF8"/></linearGradient></defs><path fill="url(#gradient_3)" transform="scale(1.74146 1.7415)" d="M122.287 376.016C124.921 375.234 144.183 375.763 148.101 375.755L234.954 375.795C234.211 381.507 234.708 394.376 234.544 400.761C224.739 400.799 133.138 401.493 131.058 400.06C133.311 393.928 129.693 383.432 128.401 377.042C127.44 375.898 124.114 376.212 122.287 376.016Z"/><path fill="#76C4EA" transform="scale(1.74146 1.7415)" d="M235.29 400.759C237.512 400.718 239.966 400.787 242.207 400.806C242.261 403.361 242.272 411.577 242.59 413.772C242.509 420 242.941 426.752 243.163 433.017C243.32 438.855 243.432 444.695 243.498 450.535C243.9 470.68 244.587 466.746 230.038 480.473C225.974 484.364 221.941 488.288 217.94 492.244C214.543 495.577 204.26 505.28 201.576 509.066C198.897 516.609 202.785 527.708 199.246 534.77C197.887 537.482 192.869 535.243 192.972 530.976C193.166 522.995 191.778 513.245 194.343 505.667C195.143 503.303 201.421 497.48 203.466 495.439L221.973 476.976C225.469 473.495 228.986 470.099 232.324 466.453C235.793 462.663 235.185 458.052 235.159 453.262C235.136 449.047 234.987 444.817 234.931 440.598L234.763 414.841C234.733 410.377 234.524 405.525 234.632 401.116C235.03 401.735 235.067 403.261 235.145 404.074C235.267 402.964 235.269 401.874 235.29 400.759Z"/><path fill="#145EA4" transform="scale(1.74146 1.7415)" d="M54.2883 533.678L53.9773 533.109C54.3083 532.257 60.89 524.811 62.116 523.33C76.8507 505.532 89.6271 486.489 99.4698 465.55C99.7408 464.974 101.594 460.266 101.624 460.23C103.3 458.279 104.338 452.309 106.142 451.931C94.889 481.266 75.3251 510.464 54.2883 533.678Z"/><path fill="#5EA5D5" transform="scale(1.74146 1.7415)" d="M119.133 404.133C118.199 402.55 119.396 402.189 118.654 400.947L118.429 402.496L118.254 402.396C118.183 401.111 119.191 393.286 119.455 391.832L120.012 393.764L120.273 393.675C120.042 392.122 120.314 391.025 120.57 389.48L120.726 389.47L120.898 391.341C120.765 393.769 119.765 401.83 119.133 404.133Z"/><defs><linearGradient id="gradient_4" gradientUnits="userSpaceOnUse" x1="289.33804" y1="370.18497" x2="218.24028" y2="266.74677"><stop offset="0" stop-color="#9AB5CF"/><stop offset="1" stop-color="#DAE7EF"/></linearGradient></defs><path fill="url(#gradient_4)" transform="scale(1.74146 1.7415)" d="M87.6766 302.981L126.528 303.02L256.985 303.191L299.268 303.256C305.488 303.26 315.656 302.947 321.455 303.396C326.758 308.605 337.395 318.937 341.903 324.361C336.14 331.296 328.192 338.659 321.942 345.283C319.851 347.5 312.312 355.277 310.215 356.824C304.851 357.221 297.732 356.998 292.231 356.985L262.081 356.881C258.391 357.168 251.551 356.969 247.74 356.92C208.565 357.381 169.038 356.603 129.835 356.952C117.487 357.062 105.008 356.808 92.6731 357.014L92.5185 357.744C90.4757 357.842 87.6395 353.106 86.1908 351.459L69.0136 332.24C67.5093 330.567 64.1955 327.067 63.2305 325.284C62.3863 323.724 73.0642 315.512 73.962 315.407C75.9322 314.447 85.1114 305.135 87.6766 302.981Z"/><defs><linearGradient id="gradient_5" gradientUnits="userSpaceOnUse" x1="187.71796" y1="373.55716" x2="104.90179" y2="294.32803"><stop offset="0" stop-color="#9ABCD4"/><stop offset="1" stop-color="#C6D7E9"/></linearGradient></defs><path fill="url(#gradient_5)" transform="scale(1.74146 1.7415)" d="M208.089 329.062C210.53 329.022 220.173 328.774 222.079 329.088C221.037 329.758 219.704 329.251 218.384 329.548L218.39 330.1C219.036 330.661 220.17 331.236 221.057 331.978C220.288 333.246 220.484 331.626 220.093 332.824C218.827 336.692 213.969 340.106 211.771 343.829C211.781 343.811 211.686 346.022 211.705 345.973C210.91 348.015 207.503 353.067 206.082 354.338C203.344 356.787 201.488 356.142 198.549 356.507C199.49 356.926 202.936 356.342 204.208 356.379C217.967 356.782 231.799 356.671 245.569 356.518C246.751 356.505 247.398 356.568 248.331 355.78L247.74 356.92C208.565 357.381 169.038 356.603 129.835 356.952C117.487 357.062 105.008 356.808 92.6731 357.014C90.2868 355.243 77.6584 340.891 75.1981 337.796L75.3422 337.197C73.8716 335.274 71.2776 332.164 69.4487 330.671C74.2023 330.616 82.9054 330.044 87.9589 330.538C88.2658 330.568 88.3803 331.158 88.5354 331.565C88.8326 330.626 88.6272 330.86 89.2786 330.233C95.3043 329.42 109.252 329.589 115.947 329.647C124.755 329.724 136.211 329.178 144.729 329.63L182.984 329.204C191.051 329.093 200.06 328.857 208.089 329.062Z"/><defs><linearGradient id="gradient_6" gradientUnits="userSpaceOnUse" x1="164.48022" y1="333.3602" x2="165.11125" y2="326.31284"><stop offset="0" stop-color="#7A92C1"/><stop offset="1" stop-color="#A0BECF"/></linearGradient></defs><path fill="url(#gradient_6)" transform="scale(1.74146 1.7415)" d="M144.729 329.63L182.984 329.204C191.051 329.093 200.06 328.857 208.089 329.062C204.312 330.998 168.077 330.494 161.714 330.51C156.11 330.046 129.728 331.226 126.885 329.939C131.759 329.9 140.087 330.069 144.729 329.63Z"/><path fill="#A6C0D6" transform="scale(1.74146 1.7415)" d="M161.714 330.51C157.919 330.931 150.209 330.647 146.108 330.709C134.897 330.88 124.369 330.877 113.155 330.188C115.722 329.881 123.932 329.743 126.591 329.918L126.885 329.939C129.728 331.226 156.11 330.046 161.714 330.51Z"/><path fill="#E4F2F9" transform="scale(1.74146 1.7415)" d="M87.6766 302.981L126.528 303.02L126.795 303.076C133.779 304.457 162.682 302.47 166.415 304.68C166.94 305.545 166.765 307.394 166.855 307.453C169.655 309.279 172.914 312.938 168.446 315.227L168.668 315.201C166.532 316.02 140.462 315.44 135.746 315.661C139.071 316.103 144.892 315.837 148.453 315.833L171.841 315.832C199.236 315.756 226.631 315.907 254.023 316.285C244.537 316.42 247.769 317.498 241.824 323.931C240.652 325.2 234.326 328.089 232.483 328.453C236.162 328.45 243.468 328.253 246.859 328.565L230.969 328.748C229.16 328.767 224.372 328.728 222.751 328.98L222.079 329.088C220.173 328.774 210.53 329.022 208.089 329.062C200.06 328.857 191.051 329.093 182.984 329.204L144.729 329.63C136.211 329.178 124.755 329.724 115.947 329.647C109.252 329.589 95.3043 329.42 89.2786 330.233C88.6272 330.86 88.8326 330.626 88.5354 331.565C88.3803 331.158 88.2658 330.568 87.9589 330.538C82.9054 330.044 74.2023 330.616 69.4487 330.671C71.2776 332.164 73.8716 335.274 75.3422 337.197L75.1981 337.796C77.6584 340.891 90.2868 355.243 92.6731 357.014L92.5185 357.744C90.4757 357.842 87.6395 353.106 86.1908 351.459L69.0136 332.24C67.5093 330.567 64.1955 327.067 63.2305 325.284C62.3863 323.724 73.0642 315.512 73.962 315.407C75.9322 314.447 85.1114 305.135 87.6766 302.981Z"/><path fill="#145EA4" transform="scale(1.74146 1.7415)" d="M92.6731 357.014L92.5185 357.744C90.4757 357.842 87.6395 353.106 86.1908 351.459L69.0136 332.24C67.5093 330.567 64.1955 327.067 63.2305 325.284C62.3863 323.724 73.0642 315.512 73.962 315.407C70.8407 318.697 67.1983 322.061 63.9046 325.22C67.9837 329.206 71.3468 333.701 75.1981 337.796C77.6584 340.891 90.2868 355.243 92.6731 357.014Z"/><path fill="#A6C0D6" transform="scale(1.74146 1.7415)" d="M222.079 329.088L222.751 328.98C228.384 329.302 236.137 329.087 241.904 329.077L277.233 329.038C275.184 334.306 249.199 353.057 248.331 355.78C247.398 356.568 246.751 356.505 245.569 356.518C231.799 356.671 217.967 356.782 204.208 356.379C202.936 356.342 199.49 356.926 198.549 356.507C201.488 356.142 203.344 356.787 206.082 354.338C207.503 353.067 210.91 348.015 211.705 345.973C211.686 346.022 211.781 343.811 211.771 343.829C213.969 340.106 218.827 336.692 220.093 332.824C220.484 331.626 220.288 333.246 221.057 331.978C220.17 331.236 219.036 330.661 218.39 330.1L218.384 329.548C219.704 329.251 221.037 329.758 222.079 329.088Z"/><path fill="#5EA5D5" transform="scale(1.74146 1.7415)" d="M277.233 329.038C282.792 328.748 288.912 328.928 294.503 329.073C285.631 337.094 276.112 344.333 267.079 352.171C265.958 353.144 262.718 355.529 261.952 356.45L262.081 356.881C258.391 357.168 251.551 356.969 247.74 356.92L248.331 355.78C249.199 353.057 275.184 334.306 277.233 329.038Z"/></svg>