<?xml version="1.0" encoding="utf-8" ?><svg xmlns="http://www.w3.org/2000/svg" xmlns:xlink="http://www.w3.org/1999/xlink" width="1024" height="917" viewBox="0 0 1024 917"><defs><linearGradient id="gradient_0" gradientUnits="userSpaceOnUse" x1="381.71292" y1="302.80591" x2="-0.33109102" y2="111.92091"><stop offset="0" stop-color="#40A5D0"/><stop offset="1" stop-color="#46DEFB"/></linearGradient></defs><path fill="url(#gradient_0)" transform="matrix(2.49148 0 0 2.49185 0 -3.05176e-05)" d="M207.086 6.38214C210.629 10.3081 215.036 14.4606 218.849 18.2412L238.035 37.3407C242.193 41.4947 246.622 45.7317 250.461 50.1085C262.445 63.7715 270.129 79.9057 269.079 98.3442C268.897 101.539 268.265 106.448 267.458 109.553C273.538 110.751 281.929 114.775 286.434 119.148C290.262 115.775 293.684 113.601 298.026 110.935C315.684 100.093 336.289 94.4591 356.91 93.2688C371.234 92.442 386.54 93.174 400.313 97.555C401.827 98.0365 404.163 98.5759 405.225 99.7568C405.316 100.479 404.968 100.763 404.398 101.46C402.248 104.093 399.957 106.651 397.818 109.293C394.316 113.705 390.929 118.206 387.661 122.793C363.609 156.182 345.484 193.462 334.079 233C332.469 238.767 330.962 244.563 329.558 250.384C328.713 253.785 327.318 258.699 326.95 262.065C325.931 271.371 327.109 282.268 326.659 291.48C332.187 291.377 334.664 290.995 338.722 295.279C349.134 306.273 359.311 317.65 370.023 328.342C364.401 334.326 358.557 340.064 352.959 346.068C349.013 350.351 345.002 354.573 340.929 358.734C338.611 361.12 335.751 364.217 333.162 366.181C327.662 367.192 298.419 365.792 296.325 366.748L296.048 368L114.45 368L113.917 367.13C112.949 366.659 111.74 366.698 110.66 366.682C100.524 366.549 90.3579 366.8 80.2272 366.594C76.4809 366.638 72.3151 361.758 69.937 358.959C61.1242 348.585 50.6121 338.851 41.8599 328.564C46.0649 323.647 52.6736 317.381 57.4206 312.555C61.1539 308.748 64.9137 304.967 68.6997 301.212C73.494 296.463 77.127 292.072 84.0068 290.59C83.7473 283.341 85.3148 271.121 83.9131 264.515C71.7685 207.28 42.5985 143.063 4.42573 99.6926C11.1617 97.0276 20.705 95.5812 27.8786 94.3424C32.6466 93.5191 38.4963 93.3062 43.3791 93.0644C68.1322 91.9033 92.7056 97.8011 114.235 110.07C118.552 112.499 123.732 115.471 127.423 118.815C130.789 114.525 139.518 110.885 144.934 110.078C140.851 95.616 142.753 83.3744 148.732 69.9484C150.453 66.3016 151.8 64.0092 154.113 60.7675C159.625 53.037 168.355 44.6199 175.114 37.939C181.077 31.9718 187.083 26.0482 193.132 20.1688C197.678 15.8258 203.075 11.1175 207.086 6.38214ZM152.359 143.713C157.215 143.643 159.499 141.642 162.946 138.213C158.775 135.428 155.701 132.022 152.32 128.394C151.829 127.867 151.317 127.178 150.651 126.979C147.214 129.144 143.219 132.173 139.767 133.929C143.472 136.324 145.998 143.103 152.359 143.713ZM248.672 138.248C251.724 140.756 254.788 143.806 258.901 143.627C264.1 142.465 267.272 139.375 270.109 134.922C270.346 134.549 270.579 134.173 270.808 133.795C268.418 131.837 265.835 130.151 263.342 128.326C262.426 127.655 261.816 126.966 260.886 126.353C258.544 129.622 252.056 136.136 248.672 138.248Z"/><path fill="#41C4E9" transform="matrix(2.49148 0 0 2.49185 0 -3.05176e-05)" d="M154.113 60.7675C153.588 63.8548 152.333 67.4463 150.036 69.6557L148.732 69.9484C150.453 66.3016 151.8 64.0092 154.113 60.7675Z"/><defs><linearGradient id="gradient_1" gradientUnits="userSpaceOnUse" x1="291.81848" y1="219.66737" x2="76.301086" y2="62.478546"><stop offset="0" stop-color="#D1F0F6"/><stop offset="1" stop-color="#F9FEFF"/></linearGradient></defs><path fill="url(#gradient_1)" transform="matrix(2.49148 0 0 2.49185 0 -3.05176e-05)" d="M207.521 34.6225C212.681 40.0461 217.935 45.38 223.279 50.6219C239.006 66.2648 255.662 82.6516 247.435 106.938C244.1 116.782 236.689 125.833 227.286 130.372C228.659 147.27 242.128 163.43 260.122 162.831C273.833 162.375 280.661 152.289 288.743 143C293.453 137.586 299.973 132.733 306.007 128.9C326.545 115.631 347.269 112.309 371.147 111.406C367.644 116.829 363.157 122.837 359.385 128.22C355.09 135.264 350.481 142.564 346.506 149.755C329.414 180.669 318.462 211.776 308.838 245.641C295.051 245.701 281.263 245.664 267.475 245.53C238.96 245.848 209.828 245.541 181.264 245.526C193.862 232.432 207.045 219.78 219.402 206.768C219.799 206.909 220.199 207.039 220.603 207.158C224.561 208.309 229.642 208.005 233.301 205.958C237.191 203.768 240.049 200.119 241.243 195.817C242.278 191.902 241.687 187.735 239.605 184.262C237.411 180.589 233.847 177.939 229.698 176.895C225.835 175.956 221.243 176.231 217.85 178.421C212.378 181.953 209.014 187.772 209.768 194.373C210.175 197.927 211.714 200.388 213.595 203.301C204.794 212.843 194.939 222.289 185.75 231.528C181.727 235.573 175.906 242.359 171.432 245.42C165.132 245.872 154.101 245.529 147.332 245.528L100.291 245.532C99.8108 242.985 98.7147 239.544 97.9675 236.997L93.7788 222.936C81.2769 181.462 65.2685 146.202 38.8321 111.785C41.333 111.749 43.8344 111.777 46.3338 111.871C77.9518 113.232 108.035 124.05 128.073 148.654C128.857 149.617 129.797 150.57 130.609 151.49C143.041 165.561 159.729 167.74 173.725 154.141C179.937 148.12 184.142 140.81 184.951 132.023C184.977 131.747 184.906 130.855 184.756 130.56C180.25 128.112 176.966 125.49 173.377 121.744C166.388 114.364 162.581 104.532 162.778 94.3691C163.311 73.4222 178.993 61.9658 192.894 48.7748C197.811 44.1087 202.612 39.3107 207.521 34.6225Z"/><path fill="#ADDCEC" transform="matrix(2.49148 0 0 2.49185 0 -3.05176e-05)" d="M267.475 245.53C267.394 242.12 268.563 236.094 269.302 232.722C273.928 211.621 281.202 191.104 289.264 171.093C290.788 167.311 292.45 163.253 294.606 159.797C308.654 142.153 329.391 132.416 351.301 128.841C353.478 128.485 357.299 127.771 359.385 128.22C355.09 135.264 350.481 142.564 346.506 149.755C329.414 180.669 318.462 211.776 308.838 245.641C295.051 245.701 281.263 245.664 267.475 245.53Z"/><path fill="#41C4E9" transform="matrix(2.49148 0 0 2.49185 0 -3.05176e-05)" d="M204.565 69.9405C216.08 68.8334 226.329 77.229 227.51 88.7363C228.691 100.243 220.361 110.546 208.862 111.801C197.257 113.067 186.84 104.645 185.649 93.0326C184.457 81.4205 192.946 71.0578 204.565 69.9405Z"/><path fill="#ADDCEC" transform="matrix(2.49148 0 0 2.49185 0 -3.05176e-05)" d="M204.441 76.8505C212.156 75.6744 219.358 80.9913 220.505 88.7105C221.653 96.4296 216.31 103.612 208.587 104.732C200.903 105.846 193.766 100.536 192.624 92.8568C191.482 85.1774 196.765 78.0205 204.441 76.8505Z"/><path fill="#ADDCEC" transform="matrix(2.49148 0 0 2.49185 0 -3.05176e-05)" d="M271.403 310.455L305.811 310.452C311.546 310.454 317.87 310.324 323.566 310.479C327.044 314.052 330.463 317.681 333.82 321.368C336.019 323.736 338.932 326.706 340.842 329.232C338.437 331.131 336.827 333.137 334.715 335.215C330.634 339.232 326.525 344.047 322.398 347.943C311.526 348.554 297.876 348.208 286.842 348.21L225.729 348.237L135.266 348.261C120.125 348.263 103.671 348.58 88.6604 348.237C86.0464 345.724 83.3564 342.7 80.8529 340.029C78.2283 337.229 74.8086 333.902 72.4406 330.948L70.6248 329.583C74.7027 324.637 84.5986 315.253 89.4614 310.504L271.403 310.455Z"/><path fill="#D7F1F7" transform="matrix(2.49148 0 0 2.49185 0 -3.05176e-05)" d="M89.4614 310.504L271.403 310.455C272.117 311.657 274.497 327.739 275.042 330.442L131.546 330.57L92.2599 330.588C87.9013 330.59 76.1853 330.336 72.4406 330.948L70.6248 329.583C74.7027 324.637 84.5986 315.253 89.4614 310.504Z"/><path fill="#D7F1F7" transform="matrix(2.49148 0 0 2.49185 0 -3.05176e-05)" d="M103.971 263.331C106.116 263.054 114.568 263.219 117.088 263.215L145.277 263.139L228.258 263.085C240.57 263.104 253.653 263.433 265.917 263.178C265.864 269.846 266.354 276.438 266.498 283.093C266.533 284.728 266.835 290.196 266.463 291.53C262.265 291.387 257.151 291.518 252.892 291.518L226.006 291.522L145.303 291.513L117.261 291.529C114.721 291.531 105.993 291.691 103.942 291.347C104.888 281.376 104.56 273.284 103.971 263.331Z"/><path fill="#FEFEFE" transform="matrix(2.49148 0 0 2.49185 0 -3.05176e-05)" d="M103.971 263.331C106.828 263.775 115.096 263.454 118.301 263.382C118.212 271.059 118.846 278.863 118.47 286.567C118.401 287.972 118.398 289.445 118.42 290.851C116.856 291.892 106.837 291.076 103.942 291.347C104.888 281.376 104.56 273.284 103.971 263.331Z"/><path fill="#ADDCEC" transform="matrix(2.49148 0 0 2.49185 0 -3.05176e-05)" d="M265.917 263.178L307.551 263.275C307.458 272.698 307.448 282.121 307.523 291.543C294.034 291.622 279.931 291.749 266.463 291.53C266.835 290.196 266.533 284.728 266.498 283.093C266.354 276.438 265.864 269.846 265.917 263.178Z"/><path fill="#D7F1F7" transform="matrix(2.49148 0 0 2.49185 0 -3.05176e-05)" d="M223.961 182.864C229.068 181.906 233.984 185.275 234.933 190.384C235.881 195.494 232.502 200.403 227.391 201.341C222.294 202.277 217.401 198.91 216.455 193.815C215.509 188.72 218.867 183.82 223.961 182.864Z"/></svg>