<?xml version="1.0" encoding="utf-8" ?><svg xmlns="http://www.w3.org/2000/svg" xmlns:xlink="http://www.w3.org/1999/xlink" width="860" height="1024" viewBox="0 0 860 1024"><defs><linearGradient id="gradient_0" gradientUnits="userSpaceOnUse" x1="473.8743" y1="329.58014" x2="-28.269192" y2="223.81599"><stop offset="0" stop-color="#4A71BC"/><stop offset="1" stop-color="#45CBF2"/></linearGradient></defs><path fill="url(#gradient_0)" transform="scale(1.86147 1.86182)" d="M13.7743 16.2187C27.5291 15.8609 42.1543 16.0834 55.9597 16.079L136.548 16.0914C136.508 27.2845 136.54 38.4777 136.643 49.6704C136.653 53.722 136.89 61.3551 136.508 65.177C148.585 65.1754 161.138 65.3383 173.177 65.0925C172.79 61.6402 172.934 55.9274 172.934 52.3035L172.942 29.1237C172.943 25.5185 173.09 19.6712 172.829 16.1968L246.673 16.1567C261.657 16.158 277.466 15.866 292.346 16.1767C292.091 27.3989 292.383 38.7684 292.277 49.9991C292.232 54.8148 292.449 60.4274 292.161 65.1747C304.179 65.1347 316.198 65.1605 328.216 65.2518C327.887 54.4827 328.171 43.6695 328.116 32.8979C328.089 27.6788 328.282 21.35 327.828 16.1894L411.989 16.1528C425.183 16.1633 438.907 16.381 452.046 16.1307L431.524 108.188C428.656 121.084 425.976 134.127 422.883 146.986C422.642 147.988 421.584 151.213 420.961 151.965C418.069 155.453 413.892 158.432 410.684 161.527C402.514 169.412 394.197 177.273 385.809 184.926L374.913 194.843C372.888 196.663 369.193 199.73 367.643 201.819C369.107 207.704 368.97 215.244 365.748 220.532C362.55 225.78 355.295 230.227 351.256 235.004C353.013 242.982 354.461 251.456 356.002 259.511L363.653 299.553L384.18 407.944L393.022 453.5C394.252 459.677 395.532 468.445 397.244 474.33C398.795 475.174 404.419 477.438 405.112 478.349C415.508 492.005 424.609 508.505 434.666 522.298C430.883 528.013 425.902 533.794 421.477 539.063C418.446 542.671 415.455 546.442 412.407 550L54.5574 550L40.5495 532.298C38.4084 529.578 34.2643 524.555 32.588 521.788L49.5938 495.354C52.3894 490.952 55.1256 486.485 58.0273 482.156C59.9071 479.351 62.2221 476.871 65.644 476.136C66.584 475.94 67.538 475.82 68.4971 475.776C70.2645 468.092 71.6668 458.95 73.1225 451.081L80.8968 409.598L99.9734 308.438C103.149 290.622 106.472 272.834 109.942 255.074C111.19 248.591 112.339 241.822 113.709 235.395C106.87 226.843 96.4688 220.623 96.842 208.423C96.9164 205.989 97.111 203.583 97.3038 201.158C92.1994 195.84 86.6751 190.928 81.27 185.921C73.5563 178.776 65.8486 171.552 58.2751 164.261C54.447 160.575 48.9867 156.064 45.9371 151.866C43.0193 147.85 39.4508 128.239 38.0277 122.014L21.6599 49.6628L16.606 27.776C15.8465 24.5166 14.7903 19.2945 13.7743 16.2187Z"/><path fill="#EBF2F6" transform="scale(1.86147 1.86182)" d="M292.374 243.118C294.549 243.09 297.008 243 299.159 243.049L332.419 243.081C333 249.103 335.101 258.074 336.291 264.21L342.837 298.941L367.057 427.95L373.008 458.949C373.776 463.041 375.254 469.861 375.633 473.778C370.04 473.768 363.929 473.886 358.381 473.737L322.483 473.767C303.272 473.663 282.733 473.509 263.602 473.891C263.436 473.167 263.371 472.056 263.298 471.284L263.232 473.599C261.113 473.557 257.99 474.167 256.653 473.338C256.081 472.561 256.182 472.218 256.18 471.222L256.182 470.878C256.144 471.912 256.114 472.586 255.951 473.61L255.913 473.837C242.103 473.576 227.707 473.782 213.851 473.783L152.218 473.845C153.487 465.999 154.952 458.196 156.502 450.371C157.356 446.054 157.982 439.713 159.607 435.79C161.008 433.255 163.899 431.123 165.808 429.109C174.897 419.536 184.269 410.2 193.39 400.668C198.136 395.707 197.651 384.58 197.775 377.923C209.07 370.552 211.603 361.884 205.193 349.89C207.611 347.492 210.665 344.917 213.214 342.574L229.247 327.669C234.451 322.824 239.419 317.601 244.807 312.985C245.605 312.301 245.951 312.086 246.973 312.023L247.55 311.795C250.763 313.276 260.562 310.8 262.762 311.946C286.817 299.294 267.13 267.552 246.399 278.948C241.827 281.478 238.462 285.734 237.055 290.765C235.625 295.873 236.49 300.883 239.104 305.434C239.533 306.189 239.995 306.925 240.488 307.64C231.508 316.325 221.995 324.9 212.818 333.416C209.376 336.61 203.619 342.783 199.928 345.086C193.9 342.897 189.022 341.677 182.748 344.528C178.4 346.504 174.506 350.897 172.928 355.41C171.263 360.082 171.575 365.23 173.792 369.666C174.93 371.961 177.162 374.747 179.486 375.859C181.159 375.284 182.419 376.399 184.13 376.825C185.54 377.175 186.98 377.655 188.393 378.043L188.42 379.085C189.187 379.149 189.354 379.15 190.12 379.355C191.225 380.771 190.454 384.778 190.358 386.581C190.217 389.23 190.125 392.276 188.985 394.726C186.919 399.165 165.619 419.357 161.096 423.881C158.456 426.521 154.972 429.384 153.235 432.713C151.466 436.103 145.679 468.689 145.203 473.77C126.941 474.096 107.814 473.83 89.4477 473.884C90.8942 468.616 92.2559 459.96 93.3491 454.311L101.6 410.806L129.141 265.328C130.653 258.008 132.032 250.598 133.456 243.255C135.454 242.88 145.64 243.034 148.109 243.037L179.745 243.063C216.994 243.087 255.215 242.613 292.374 243.118Z"/><path fill="#C0D5E8" transform="scale(1.86147 1.86182)" d="M299.159 243.049L332.419 243.081C333 249.103 335.101 258.074 336.291 264.21L342.837 298.941L367.057 427.95L373.008 458.949C373.776 463.041 375.254 469.861 375.633 473.778C370.04 473.768 363.929 473.886 358.381 473.737L322.483 473.767C303.272 473.663 282.733 473.509 263.602 473.891C263.884 472.266 263.77 467.864 263.77 465.929L263.765 450.906L263.741 410.987C263.732 403.807 263.711 396.606 263.742 389.432C263.75 387.72 264.051 384.238 265.024 382.808C266.487 380.658 268.966 378.424 270.762 376.536C275.025 372.057 279.586 367.997 284.029 363.737L304.793 343.424C308.261 338.365 315.512 336.26 314.72 328.534C313.078 312.495 309.07 296.71 306.444 280.8C305.612 275.764 304.677 270.528 303.581 265.55C301.954 257.965 300.721 250.575 299.159 243.049Z"/><path fill="#EBF2F6" transform="scale(1.86147 1.86182)" d="M304.793 343.424C305.855 344.392 306.121 346.678 306.383 348.12C307.391 353.663 308.333 359.22 309.334 364.764C311.392 375.743 313.372 386.737 315.275 397.744C315.961 401.699 316.624 405.697 317.425 409.627C317.892 411.924 318.629 413.389 318.928 415.808C318.622 416.443 318.828 416.149 317.968 416.531C315.777 416.884 314.35 417.151 312.171 418.033C298.925 423.396 296.194 441.7 307.978 450.151C308.016 450.175 308.055 450.198 308.094 450.222C310.644 451.896 311.847 452.436 314.77 453.313C316.725 453.808 317.523 453.905 319.548 454.072C321.347 456.641 322.903 470.356 322.483 473.767C303.272 473.663 282.733 473.509 263.602 473.891C263.884 472.266 263.77 467.864 263.77 465.929L263.765 450.906L263.741 410.987C263.732 403.807 263.711 396.606 263.742 389.432C263.75 387.72 264.051 384.238 265.024 382.808C266.487 380.658 268.966 378.424 270.762 376.536C275.025 372.057 279.586 367.997 284.029 363.737L304.793 343.424Z"/><path fill="#AEC2DD" transform="scale(1.86147 1.86182)" d="M299.159 243.049L332.419 243.081C333 249.103 335.101 258.074 336.291 264.21L342.837 298.941L367.057 427.95L373.008 458.949C373.776 463.041 375.254 469.861 375.633 473.778C370.04 473.768 363.929 473.886 358.381 473.737C359.418 471.485 353.881 444.607 353.134 440.607L344.664 394.848C336.937 351.486 328.985 308.165 320.809 264.885C317.143 265.208 307.746 265.068 304.097 264.727L303.798 264.698L303.581 265.55C301.954 257.965 300.721 250.575 299.159 243.049Z"/><path fill="#53A5DA" transform="scale(1.86147 1.86182)" d="M317.968 416.531C329.13 416.396 338.512 423.867 338.469 435.453C338.419 440.387 336.39 445.094 332.837 448.518C329.004 452.268 324.749 453.611 319.548 454.072C317.523 453.905 316.725 453.808 314.77 453.313C311.847 452.436 310.644 451.896 308.094 450.222C308.055 450.198 308.016 450.175 307.978 450.151C296.194 441.7 298.925 423.396 312.171 418.033C314.35 417.151 315.777 416.884 317.968 416.531Z"/><path fill="#2677C6" transform="scale(1.86147 1.86182)" d="M308.094 450.222C308.349 450.141 308.672 450.039 309.062 449.915C311.27 450.816 313.624 451.538 315.793 452.507C315.914 452.561 316.311 452.829 316.45 452.921L316.338 453.183L314.77 453.313C311.847 452.436 310.644 451.896 308.094 450.222Z"/><path fill="#EBF2F6" transform="scale(1.86147 1.86182)" d="M317.071 424.666C322.953 423.389 328.757 427.123 330.031 433.005C331.306 438.886 327.569 444.687 321.686 445.96C315.806 447.231 310.008 443.497 308.734 437.619C307.46 431.741 311.192 425.942 317.071 424.666Z"/><path fill="#C0D5E8" transform="scale(1.86147 1.86182)" d="M133.456 243.255C135.454 242.88 145.64 243.034 148.109 243.037L179.745 243.063C216.994 243.087 255.215 242.613 292.374 243.118C292.709 247.385 295.124 260.686 296.121 265.019L145.123 265.009C142.978 264.998 130.38 264.57 129.141 265.328C130.653 258.008 132.032 250.598 133.456 243.255Z"/><path fill="#E0EEF5" transform="scale(1.86147 1.86182)" d="M133.456 243.255C138.49 243.541 143.699 243.223 148.728 243.415C147.368 250.415 146.634 258.069 145.123 265.009C142.978 264.998 130.38 264.57 129.141 265.328C130.653 258.008 132.032 250.598 133.456 243.255Z"/><path fill="#53A5DA" transform="scale(1.86147 1.86182)" d="M292.374 243.118C294.549 243.09 297.008 243 299.159 243.049C300.721 250.575 301.954 257.965 303.581 265.55C304.677 270.528 305.612 275.764 306.444 280.8C309.07 296.71 313.078 312.495 314.72 328.534C315.512 336.26 308.261 338.365 304.793 343.424L284.029 363.737C279.586 367.997 275.025 372.057 270.762 376.536C268.966 378.424 266.487 380.658 265.024 382.808C264.051 384.238 263.75 387.72 263.742 389.432C263.711 396.606 263.732 403.807 263.741 410.987L263.765 450.906L263.77 465.929C263.77 467.864 263.884 472.266 263.602 473.891C263.436 473.167 263.371 472.056 263.298 471.284L263.232 473.599C261.113 473.557 257.99 474.167 256.653 473.338C256.081 472.561 256.182 472.218 256.18 471.222L256.182 470.878C256.144 471.912 256.114 472.586 255.951 473.61L255.913 473.837C255.593 472.381 255.709 462.363 255.71 460.249L255.719 428.483L255.689 406.55C255.671 400.695 255.161 389.897 256.485 384.635C257.969 378.734 270.682 368.069 274.939 363.59C280.301 357.946 286.576 352.549 291.762 346.855C296.356 341.813 305.341 335.28 308.515 329.763C305.237 314.975 302.655 299.668 299.884 284.767C298.661 278.188 297.283 271.582 296.121 265.019C295.124 260.686 292.709 247.385 292.374 243.118Z"/><path fill="#53A5DA" transform="scale(1.86147 1.86182)" d="M246.973 312.023L247.55 311.795C250.763 313.276 260.562 310.8 262.762 311.946C257.885 313.86 251.787 314.577 246.973 312.023Z"/><path fill="#53A5DA" transform="scale(1.86147 1.86182)" d="M179.486 375.859C181.159 375.284 182.419 376.399 184.13 376.825C185.54 377.175 186.98 377.655 188.393 378.043L188.42 379.085C184.681 378.494 182.666 377.894 179.486 375.859Z"/><defs><linearGradient id="gradient_1" gradientUnits="userSpaceOnUse" x1="337.81024" y1="196.38098" x2="131.57428" y2="-42.74844"><stop offset="0" stop-color="#CFDCEA"/><stop offset="1" stop-color="white"/></linearGradient></defs><path fill="url(#gradient_1)" transform="scale(1.86147 1.86182)" d="M40.8875 34.9073C39.4525 34.821 39.8924 35.0554 38.992 34.2081L39.037 33.8087C39.8811 33.4098 39.8421 33.3866 40.7553 33.3913C41.7052 34.9694 42.5762 34.1422 44.0846 34.2933C51.0839 34.9944 111.086 33.1915 113.372 34.4757L112.101 34.9242L116.333 34.9054L116.317 66.1067C116.321 71.8301 116.179 78.4309 116.41 84.0864C141.518 84.3636 167.394 84.1622 192.541 84.0726L192.508 35.014C218.451 34.8288 244.644 35.2545 270.53 34.8888C270.473 51.0113 270.264 67.9472 270.527 84.0328L348.48 84.0132C348.467 67.8655 348.69 51.1063 348.289 35.0265C362.839 34.9081 377.39 34.8823 391.941 34.9492C403.12 34.9542 415.089 34.7427 426.188 35.0049C423.611 46.2017 404.127 140.168 402.869 141.496C399.93 144.92 394.721 149.008 391.306 152.175C382.165 160.603 369.161 173.075 359.949 180.458C358.843 181.345 319.05 181.032 315.674 181.003C296.636 180.841 277.697 181.268 258.893 180.902C272.082 169.939 284.873 157.555 297.732 146.17C299.831 144.31 301.843 142.231 304.129 140.601C316.499 129.175 329.24 118.395 341.585 106.937C341.824 99.6884 368.584 107.004 365.788 99.5657C364.488 98.8603 360.336 99.4378 358.385 99.4982C353.812 99.6398 349.14 99.0708 344.607 99.2119C344.045 99.2294 341.959 100.466 341.039 100.342L341.002 100.278C341.5 99.8053 342 99.3355 342.503 98.8687L342.209 98.6341C340.743 98.8397 335.82 104.172 334.247 105.531C329.039 110.029 323.882 114.915 318.691 119.423C317.156 120.756 306.118 131.275 304.834 131.131C301.452 133.715 295.748 139.666 292.806 141.289C289.852 144.38 249.923 180.22 248.962 180.618C247.851 181.077 245.73 180.939 244.524 180.964C234.162 181.183 223.758 180.988 213.389 180.991L152.133 180.999L122.12 181.008C117.318 181.017 112.457 181.09 107.658 180.957C106.352 180.921 104.272 179.548 103.587 178.452L80.1597 156.748C74.3069 151.433 68.2902 146.429 62.8278 140.715C61.1511 134.731 59.4865 125.53 58.095 119.254C52.6481 95.2376 47.4351 71.1686 42.4565 47.0506C42.0596 45.087 39.9478 36.8364 40.1439 35.2614L40.8875 34.9073Z"/><path fill="#C0D5E8" transform="scale(1.86147 1.86182)" d="M88.0653 141.193C92.3904 140.818 98.2151 140.969 102.664 140.969L126.665 140.975L203.182 140.981L263.147 140.989L281.214 140.992C284.077 140.996 290.115 140.946 292.806 141.289C289.852 144.38 249.923 180.22 248.962 180.618C247.851 181.077 245.73 180.939 244.524 180.964C234.162 181.183 223.758 180.988 213.389 180.991L152.133 180.999L122.12 181.008C117.318 181.017 112.457 181.09 107.658 180.957C106.352 180.921 104.272 179.548 103.587 178.452L103.737 177.996C100.5 174.492 96.7318 171.729 93.282 168.515C89.5367 165.025 85.9946 161.286 82.2062 157.807C76.507 152.574 70.0055 147.386 64.6734 141.842L64.8047 141.465C67.8037 141.21 72.6897 141.339 75.8181 141.287C79.6833 141.223 84.3158 141.023 88.0653 141.193Z"/><path fill="#AEC2DD" transform="scale(1.86147 1.86182)" d="M64.8047 141.465C67.8037 141.21 72.6897 141.339 75.8181 141.287C79.6833 141.223 84.3158 141.023 88.0653 141.193C96.6207 141.352 105.283 141.142 113.84 141.212C116.833 141.236 123.795 141.01 126.498 141.512C124.527 141.897 119.174 141.806 117.026 141.807L100.211 141.839C97.2605 141.859 93.5989 141.688 90.7423 141.979C84.6158 142.604 78.7967 142.455 72.6557 142.375C71.0316 142.354 68.2721 142.649 66.8012 142.115C67.0831 141.751 66.9803 141.839 67.348 141.564L67.3146 141.535L66.8783 141.858L66.7006 141.437L64.8047 141.465Z"/><defs><linearGradient id="gradient_2" gradientUnits="userSpaceOnUse" x1="372.56818" y1="187.30478" x2="289.35123" y2="134.30205"><stop offset="0" stop-color="#A2B7DA"/><stop offset="1" stop-color="#B9D3E7"/></linearGradient></defs><path fill="url(#gradient_2)" transform="scale(1.86147 1.86182)" d="M258.893 180.902C272.082 169.939 284.873 157.555 297.732 146.17C299.831 144.31 301.843 142.231 304.129 140.601C305.624 141.593 331.552 140.696 335.121 141.035C336.441 141.16 343.154 141.052 344.81 140.954L382.007 140.937C387.348 140.96 398.086 140.778 402.869 141.496C399.93 144.92 394.721 149.008 391.306 152.175C382.165 160.603 369.161 173.075 359.949 180.458C358.843 181.345 319.05 181.032 315.674 181.003C296.636 180.841 277.697 181.268 258.893 180.902Z"/><path fill="#EBF2F6" transform="scale(1.86147 1.86182)" d="M341.585 106.937C343.155 106.107 343.679 104.828 346.203 104.193C347.874 104.322 350.134 104.229 351.574 104.643C351.902 105.597 345.267 136.659 344.81 140.954C343.154 141.052 336.441 141.16 335.121 141.035C331.552 140.696 305.624 141.593 304.129 140.601C316.499 129.175 329.24 118.395 341.585 106.937Z"/><path fill="#53A5DA" transform="scale(1.86147 1.86182)" d="M304.834 131.131C304.865 131.082 304.897 131.033 304.928 130.985C316.448 120.571 328.172 110.364 339.55 99.7964C340.641 99.0051 341.954 97.7388 343.37 97.6834C350.908 97.3883 358.948 97.3065 366.468 97.5667C367.37 105.426 360.728 103.666 355.163 103.941C352.495 104.073 348.798 103.612 346.203 104.193C343.679 104.828 343.155 106.107 341.585 106.937C341.824 99.6884 368.584 107.004 365.788 99.5657C364.488 98.8603 360.336 99.4378 358.385 99.4982C353.812 99.6398 349.14 99.0708 344.607 99.2119C344.045 99.2294 341.959 100.466 341.039 100.342L341.002 100.278C341.5 99.8053 342 99.3355 342.503 98.8687L342.209 98.6341C340.743 98.8397 335.82 104.172 334.247 105.531C329.039 110.029 323.882 114.915 318.691 119.423C317.156 120.756 306.118 131.275 304.834 131.131Z"/><path fill="#39C1F4" transform="scale(1.86147 1.86182)" d="M40.8875 34.9073C39.4525 34.821 39.8924 35.0554 38.992 34.2081L39.037 33.8087C39.8811 33.4098 39.8421 33.3866 40.7553 33.3913C41.7052 34.9694 42.5762 34.1422 44.0846 34.2933C51.0839 34.9944 111.086 33.1915 113.372 34.4757L112.101 34.9242C109.114 35.1094 104.386 34.9822 101.256 34.9875L77.6244 34.9486L54.1799 34.9863C50.0737 34.9933 44.8798 35.1391 40.8875 34.9073Z"/><path fill="#C0D5E8" transform="scale(1.86147 1.86182)" d="M258.87 98.155C260.615 98.1236 269.176 97.7483 269.893 98.4246C268.088 98.977 260.989 98.3381 258.87 98.155Z"/><defs><linearGradient id="gradient_3" gradientUnits="userSpaceOnUse" x1="248.31357" y1="560.3349" x2="236.1501" y2="474.85397"><stop offset="0" stop-color="#97B5D7"/><stop offset="1" stop-color="#EDF2FA"/></linearGradient></defs><path fill="url(#gradient_3)" transform="scale(1.86147 1.86182)" d="M108.121 497.194L301.426 497.134L362.027 497.113L380.114 497.111C383.471 497.108 388.357 496.97 391.605 497.304C393.632 499.643 397.438 506.188 399.291 509.148C401.702 513 404.896 517.67 407.089 521.542C405.217 524.153 401.554 527.907 399.293 530.391C396.02 533.988 392.05 538.712 388.494 541.876C383.716 542.159 378.302 542.035 373.471 542.031L349.962 542.013L330.9 542.017C327.591 542.02 322.948 542.157 319.77 541.917L154.249 541.928L101.064 541.939C92.0044 541.945 82.6855 542.104 73.6517 541.952C68.9402 536.785 61.8206 526.957 57.2962 521.084C59.2096 518.962 62.1649 514.323 63.7565 511.881C66.9237 507.022 69.9131 502.114 73.1989 497.307C76.9991 497.061 82.2189 497.184 86.1151 497.184L108.121 497.194Z"/><path fill="#EBF2F6" transform="scale(1.86147 1.86182)" d="M73.1989 497.307C76.9991 497.061 82.2189 497.184 86.1151 497.184L108.121 497.194C98.3595 498.529 86.1723 497.321 76.1625 497.828C76.5984 498.197 76.6704 498.158 77.2368 498.304C79.4837 500.626 80.2492 501.283 82.1127 503.897L82.0302 503.91C84.8344 506.976 86.0709 505.506 89.7522 506.075C90.1441 505.921 91.7679 505.077 91.7631 505.078C95.404 504.604 99.3536 504.207 103.001 503.93C105.115 503.769 110.057 505.362 111.334 504.383C110.072 503.986 109.18 504.519 108.662 503.978C109.738 503.602 111.869 503.716 112.977 503.931L113.139 504.238L111.827 504.308L112.066 504.64C114.532 504.935 116.547 504.755 119.121 505.451C121.486 506.091 123.785 506.707 126.129 507.426C132.173 507.958 133.564 507.392 139.206 510.299C139.263 510.931 138.855 511.563 138.563 512.222C139.591 512.662 154.669 512.392 157.533 512.41C177.053 512.533 199.221 512.24 218.512 512.406C223.237 512.447 257.388 512.019 258.668 512.529L135.228 512.673L101.498 512.658C95.9117 512.645 90.0034 512.479 84.4352 512.763C81.9857 512.888 79.86 514.273 78.0336 515.84C82.3622 524.231 86.4621 531.608 90.1101 540.403C94.7884 540.741 101.9 540.379 106.922 540.438C125.057 540.55 143.192 540.535 161.326 540.392L307.687 540.451L368.518 540.461C372.178 540.456 375.838 540.502 379.497 540.6C381.773 540.679 386.479 541.138 388.321 540.805L388.53 541.058C385.246 542.453 339.977 541.438 332.268 541.795C329.635 541.917 322.883 541.487 319.77 541.917L154.249 541.928L101.064 541.939C92.0044 541.945 82.6855 542.104 73.6517 541.952C68.9402 536.785 61.8206 526.957 57.2962 521.084C59.2096 518.962 62.1649 514.323 63.7565 511.881C66.9237 507.022 69.9131 502.114 73.1989 497.307Z"/><path fill="#C0D5E8" transform="scale(1.86147 1.86182)" d="M117.61 203.269C122.387 202.635 134.605 203.008 140.004 203.011L184.818 203.008L293.459 203.038C311.407 203.043 329.737 203.256 347.636 203.048C346.347 221.447 335.846 219.787 321.338 219.83L299.384 219.845L231.36 219.866L163.835 219.875L143.126 219.905C139.822 219.917 133.857 220.239 130.779 219.679C127.439 219.583 123.617 217.563 121.461 215.044C118.704 211.764 117.324 207.544 117.61 203.269Z"/><path fill="#EBF2F6" transform="scale(1.86147 1.86182)" d="M117.61 203.269C120.039 203.349 131.682 203.147 133.053 203.508C130.95 203.549 121.845 203.314 120.702 203.676C115.312 205.38 120.962 214.742 124 216.732C127.884 219.276 131.552 219.521 135.887 219.513C134.565 219.544 131.996 219.533 130.779 219.679C127.439 219.583 123.617 217.563 121.461 215.044C118.704 211.764 117.324 207.544 117.61 203.269Z"/><path fill="#EBF2F6" transform="scale(1.86147 1.86182)" d="M253.919 284.429C259.88 283.887 265.15 288.284 265.683 294.245C266.216 300.206 261.81 305.469 255.847 305.992C249.897 306.515 244.648 302.121 244.116 296.173C243.584 290.225 247.971 284.97 253.919 284.429Z"/><path fill="#EBF2F6" transform="scale(1.86147 1.86182)" d="M184.061 352.384L184.137 351.769C185.043 351.186 185.813 350.916 186.808 350.522L186.629 350.113C185.225 350.048 184.715 351.156 183.589 351.077L183.639 350.579C185.338 348.461 189.986 348.584 192.294 349.605C191.782 349.489 191.344 349.45 190.827 349.393C191.979 349.859 193.609 350.291 194.165 351.258C198.602 353.097 201.232 357.705 200.557 362.46C199.883 367.215 196.074 370.91 191.301 371.442C186.527 371.975 181.998 369.208 180.293 364.719C178.587 360.229 180.137 355.155 184.061 352.384Z"/><path fill="#53A5DA" transform="scale(1.86147 1.86182)" d="M184.061 352.384L184.137 351.769C185.043 351.186 185.813 350.916 186.808 350.522L186.629 350.113C185.225 350.048 184.715 351.156 183.589 351.077L183.639 350.579C185.338 348.461 189.986 348.584 192.294 349.605C191.782 349.489 191.344 349.45 190.827 349.393C191.979 349.859 193.609 350.291 194.165 351.258C190.827 349.875 187.012 350.3 184.061 352.384Z"/></svg>